<?xml version="1.0" standalone="no"?>
<!DOCTYPE svg PUBLIC "-//W3C//DTD SVG 20010904//EN"
 "http://www.w3.org/TR/2001/REC-SVG-20010904/DTD/svg10.dtd">
<svg version="1.0" xmlns="http://www.w3.org/2000/svg"
 width="512.000000pt" height="512.000000pt" viewBox="0 0 512.000000 512.000000"
 preserveAspectRatio="xMidYMid meet">
<metadata>
Created by potrace 1.11, written by Peter Selinger 2001-2013
</metadata>
<g transform="translate(0.000000,512.000000) scale(0.100000,-0.100000)"
fill="#000000" stroke="none">
<path d="M1313 4569 c-54 -34 -74 -78 -75 -161 -1 -67 1 -73 27 -96 35 -30 73
-26 136 13 50 32 96 39 135 19 35 -19 31 -14 47 -55 19 -46 6 -91 -34 -120
-48 -34 -81 -29 -179 27 -51 28 -94 13 -114 -41 -17 -44 -19 -79 -19 -332 0
-256 1 -263 24 -310 31 -62 52 -65 138 -20 81 42 123 42 164 -3 57 -64 19
-164 -66 -173 -29 -3 -48 3 -84 25 -60 38 -107 47 -132 24 -37 -34 -44 -95
-44 -376 0 -264 1 -268 24 -311 31 -57 61 -61 133 -20 65 36 102 43 138 25 64
-32 78 -111 31 -164 -41 -45 -84 -46 -160 -4 -69 38 -101 42 -125 15 -36 -42
-41 -89 -41 -356 0 -282 7 -331 49 -364 28 -22 34 -21 136 28 49 24 65 28 91
20 78 -22 105 -119 48 -173 -43 -41 -94 -43 -153 -5 -85 55 -125 48 -154 -27
-15 -39 -17 -81 -17 -292 0 -293 4 -330 42 -371 33 -35 52 -33 131 13 63 36
110 35 149 -5 55 -55 37 -142 -36 -170 -39 -15 -63 -11 -113 20 -25 16 -61 32
-78 36 -27 6 -37 2 -62 -23 -32 -32 -32 -34 -32 -154 0 -91 25 -145 79 -175
32 -17 95 -18 1412 -18 l1378 0 37 29 c71 54 66 -105 66 2011 0 1877 0 1917
-19 1954 -11 21 -32 47 -48 57 -27 18 -70 19 -1413 21 -1383 3 -1385 3 -1417
-18z m2478 -968 c16 -16 29 -37 29 -46 0 -27 -32 -73 -54 -79 -12 -3 -408 -6
-882 -6 -842 0 -861 0 -881 20 -30 27 -36 55 -21 87 26 54 -3 53 921 53 l859
0 29 -29z m-4 -871 c30 -27 36 -55 21 -87 -26 -54 3 -53 -921 -53 l-859 0 -29
29 c-16 16 -29 37 -29 46 0 24 31 74 49 78 9 3 406 5 882 6 847 1 866 1 886
-19z m-13 -851 c13 -7 30 -25 37 -41 10 -26 10 -35 -5 -63 -10 -18 -28 -36
-40 -39 -43 -12 -1724 -7 -1750 5 -36 17 -54 65 -35 98 8 14 26 31 39 38 34
17 1716 19 1754 2z"/>
</g>
</svg>
