<?xml version="1.0" standalone="no"?>
<!DOCTYPE svg PUBLIC "-//W3C//DTD SVG 20010904//EN"
 "http://www.w3.org/TR/2001/REC-SVG-20010904/DTD/svg10.dtd">
<svg version="1.0" xmlns="http://www.w3.org/2000/svg"
 width="60.000000pt" height="60.000000pt" viewBox="0 0 60.000000 60.000000"
 preserveAspectRatio="xMidYMid meet">
<metadata>
Created by potrace 1.11, written by Peter Selinger 2001-2013
</metadata>
<g transform="translate(0.000000,60.000000) scale(0.100000,-0.100000)"
fill="#000000" stroke="none">
<path d="M79 496 l-23 -44 39 -79 c53 -108 169 -224 276 -277 81 -40 97 -41
143 -5 l25 20 -42 37 c-23 20 -48 43 -55 50 -16 15 -29 15 -37 2 -3 -5 -18
-10 -33 -10 -46 1 -101 41 -150 109 -33 46 -39 78 -22 112 8 14 8 23 -2 33 -7
7 -27 28 -44 48 -45 51 -49 52 -75 4z"/>
<path d="M440 505 c0 -24 -2 -25 -70 -25 -70 0 -70 0 -70 -28 0 -27 0 -27 68
-27 67 0 67 0 72 -30 l6 -30 43 43 44 43 -38 39 c-45 47 -55 49 -55 15z"/>
</g>
</svg>
