<?xml version="1.0" standalone="no"?>
<!DOCTYPE svg PUBLIC "-//W3C//DTD SVG 20010904//EN"
 "http://www.w3.org/TR/2001/REC-SVG-20010904/DTD/svg10.dtd">
<svg version="1.0" xmlns="http://www.w3.org/2000/svg"
 width="251.000000pt" height="201.000000pt" viewBox="0 0 251.000000 201.000000"
 preserveAspectRatio="xMidYMid meet">
<metadata>
Created by potrace 1.11, written by Peter Selinger 2001-2013
</metadata>
<g transform="translate(0.000000,201.000000) scale(0.100000,-0.100000)"
fill="#000000" stroke="none">
<path d="M1288 1943 c-32 -36 -50 -86 -50 -142 -1 -31 2 -63 6 -72 6 -14 -4
-19 -59 -29 -47 -9 -77 -22 -104 -44 -22 -17 -55 -44 -75 -59 -30 -23 -36 -34
-36 -66 0 -20 -7 -46 -15 -57 -43 -56 8 -113 52 -58 13 17 20 36 17 47 -3 9 4
30 16 47 24 33 60 41 60 13 0 -10 7 -27 15 -37 15 -20 20 -92 9 -133 -5 -19
-13 -23 -48 -23 -23 0 -47 5 -54 12 -9 9 -12 9 -12 0 0 -7 -13 -12 -28 -12
-16 0 -36 -8 -45 -18 -19 -21 -23 -87 -7 -97 6 -4 9 -14 6 -23 -2 -10 -7 -33
-10 -53 -4 -24 -13 -38 -25 -42 -22 -5 -33 -80 -16 -103 5 -8 55 -24 110 -35
55 -11 101 -22 103 -24 2 -2 -8 -11 -23 -21 -14 -9 -39 -36 -56 -60 -29 -42
-29 -43 -29 -188 0 -86 -4 -147 -10 -151 -5 -3 -10 -24 -10 -46 0 -35 -4 -41
-34 -56 -29 -13 -33 -19 -24 -33 13 -20 -25 -178 -46 -195 -7 -5 -13 -27 -13
-48 -1 -21 -9 -47 -19 -58 -9 -10 -13 -19 -8 -19 5 0 19 -3 31 -6 20 -6 22 -3
17 28 -4 24 -1 39 9 50 9 8 28 55 43 104 l28 89 7 -75 c4 -41 5 -78 3 -82 -3
-5 3 -11 13 -15 10 -3 34 -20 53 -36 30 -26 84 -55 155 -82 45 -18 282 5 315
29 8 7 31 19 50 28 44 20 163 115 171 137 6 14 8 14 12 1 19 -56 27 -86 27
-106 0 -15 6 -24 16 -24 13 0 15 6 9 28 -4 15 -8 43 -9 62 -1 19 -8 45 -15 58
-9 17 -10 35 -2 70 5 25 7 50 4 55 -3 4 0 21 7 37 10 24 9 33 -8 57 -28 40
-35 78 -17 93 8 7 15 27 15 44 0 83 31 126 90 126 21 0 70 -83 70 -119 0 -22
15 -35 30 -26 9 6 -84 199 -123 255 -13 19 -13 27 0 73 8 29 18 75 23 102 16
101 18 102 109 106 67 4 84 8 103 26 31 32 13 65 -54 99 -29 15 -63 37 -76 49
l-23 23 21 93 c12 51 19 100 18 108 -2 9 -14 -31 -27 -89 -32 -143 -30 -140
-102 -140 -33 0 -76 -7 -97 -16 -27 -12 -71 -16 -159 -17 -106 -1 -124 1 -142
17 -27 25 -29 51 -3 35 24 -15 66 -5 93 22 18 18 20 28 14 83 -6 56 -4 69 20
115 32 63 27 79 -7 22 l-24 -40 -11 42 c-9 32 -23 51 -56 76 l-45 33 15 51 c8
29 17 60 20 69 3 10 0 32 -6 49 -8 24 -8 36 1 46 9 12 6 19 -18 39 -55 46
-101 56 -126 27z m528 -803 c25 -10 26 -13 20 -63 -4 -30 -14 -56 -22 -60 -8
-5 -14 -18 -13 -30 4 -44 -13 -119 -30 -125 -9 -3 -38 -22 -65 -41 -40 -28
-48 -32 -42 -16 4 11 13 46 19 77 10 47 15 58 36 63 23 6 24 7 17 85 -3 44 -4
91 0 106 7 27 17 28 80 4z"/>
<path d="M590 1485 c85 -29 143 -54 128 -54 -16 -1 -29 -8 -33 -18 -6 -19
-107 -99 -122 -96 -4 0 -14 16 -21 35 l-12 33 6 -42 c5 -38 3 -46 -21 -65
-110 -92 -123 -120 -23 -48 l56 40 17 -75 c9 -40 15 -80 14 -87 -1 -7 5 -38
14 -68 9 -30 28 -110 43 -178 23 -107 24 -125 12 -135 -25 -20 -158 -205 -158
-219 0 -22 32 -4 44 25 23 54 67 95 108 100 44 7 47 1 55 -95 4 -46 10 -68 19
-68 19 0 25 16 15 42 -5 12 -12 46 -16 75 l-7 51 46 27 c42 24 48 25 88 14 24
-7 51 -19 61 -28 16 -13 19 -13 34 2 15 15 14 17 -8 25 -45 18 -174 55 -209
61 l-35 6 -32 150 c-18 83 -31 165 -29 183 3 22 -1 38 -13 50 -18 17 -41 92
-41 134 0 36 106 118 153 118 20 0 30 6 34 20 3 11 9 20 13 20 4 0 56 -16 116
-35 60 -19 111 -34 114 -34 3 0 -26 16 -65 36 -85 43 -115 69 -115 100 0 27
-24 30 -54 8 -28 -21 -55 -19 -191 15 -66 16 -124 30 -130 29 -5 0 60 -25 145
-54z"/>
</g>
</svg>
