<?xml version="1.0" standalone="no"?>
<!DOCTYPE svg PUBLIC "-//W3C//DTD SVG 20010904//EN"
 "http://www.w3.org/TR/2001/REC-SVG-20010904/DTD/svg10.dtd">
<svg version="1.0" xmlns="http://www.w3.org/2000/svg"
 width="252.000000pt" height="200.000000pt" viewBox="0 0 252.000000 200.000000"
 preserveAspectRatio="xMidYMid meet">
<metadata>
Created by potrace 1.11, written by Peter Selinger 2001-2013
</metadata>
<g transform="translate(0.000000,200.000000) scale(0.100000,-0.100000)"
fill="#000000" stroke="none">
<path d="M1205 1993 c-23 -5 -45 -30 -45 -51 0 -10 13 -12 58 -8 31 3 52 3 45
0 -8 -4 -9 -13 -3 -29 5 -12 6 -25 3 -29 -3 -3 -2 -13 2 -23 7 -16 9 -15 14 7
8 30 38 39 48 14 3 -10 -1 -29 -9 -44 -15 -26 -14 -28 14 -45 16 -9 31 -15 34
-13 4 5 -11 140 -21 184 -3 12 -11 24 -19 27 -23 9 -100 16 -121 10z"/>
<path d="M869 1764 c-47 -30 -74 -82 -74 -143 0 -31 4 -63 8 -72 6 -12 3 -18
-12 -22 -51 -13 1 -97 59 -97 23 0 33 5 37 20 4 15 14 20 38 20 18 0 38 7 45
15 17 20 4 69 -23 80 -29 13 -29 40 1 39 22 -1 22 0 3 20 -14 16 -19 36 -18
79 l0 57 36 -21 36 -21 -29 31 c-33 35 -67 39 -107 15z"/>
<path d="M1325 1670 c-27 -16 -54 -28 -60 -26 -5 1 -15 -10 -22 -26 -7 -15
-32 -41 -57 -56 -36 -22 -45 -34 -50 -64 -3 -21 -10 -38 -15 -38 -17 0 -20
-29 -5 -58 9 -20 37 -42 84 -66 79 -42 81 -40 56 44 -16 55 -13 215 5 236 10
12 14 12 27 -7 11 -16 12 -26 4 -44 -8 -17 -7 -38 5 -81 13 -49 13 -70 4 -123
-7 -35 -10 -65 -7 -68 2 -3 13 0 24 6 16 8 21 7 26 -4 3 -8 12 -15 20 -15 22
0 28 -16 15 -44 -10 -22 -19 -26 -55 -26 -23 0 -54 4 -68 10 -14 5 -26 8 -26
7 0 -1 11 -24 25 -51 20 -40 25 -64 25 -125 0 -67 -4 -82 -30 -123 -17 -27
-34 -48 -39 -48 -5 0 -28 17 -52 38 l-43 39 32 80 c17 45 35 107 38 138 6 50
4 60 -11 71 -27 20 -42 17 -49 -8 -3 -13 -17 -36 -31 -53 l-25 -30 -21 25
c-29 35 -69 125 -70 158 0 26 -1 26 -11 5 -9 -18 -4 -36 27 -102 24 -50 45
-83 58 -87 27 -9 57 -36 57 -53 0 -18 -30 -40 -56 -41 -11 0 -46 -19 -76 -42
-57 -43 -74 -66 -204 -278 -35 -58 -72 -116 -80 -130 -27 -42 124 121 174 188
41 56 47 61 51 40 5 -34 -18 -154 -44 -225 -25 -70 -33 -69 94 -11 46 21 85
38 87 38 2 0 -2 -11 -8 -25 -14 -30 9 -69 179 -313 63 -89 116 -169 120 -177
5 -14 -14 -75 -23 -75 -3 0 -28 25 -56 55 -28 30 -57 55 -63 55 -7 0 -20 -11
-29 -25 -14 -21 -15 -31 -4 -72 l12 -48 6 33 5 32 32 -22 c18 -13 33 -26 33
-29 0 -3 -15 -11 -32 -17 -26 -8 0 -10 124 -11 l158 -1 -7 33 c-7 42 -51 142
-159 366 l-87 181 56 62 c157 178 152 174 181 163 14 -6 194 -178 399 -383
205 -204 376 -372 381 -372 4 0 17 -11 29 -25 21 -25 26 -26 117 -23 l95 3
-67 38 c-37 20 -77 52 -90 70 -13 17 -113 142 -223 277 -522 638 -515 627
-565 905 -19 102 -18 132 0 78 11 -30 45 -53 79 -53 22 0 61 41 61 64 0 10
-28 59 -63 110 -35 50 -69 105 -76 122 -10 27 -19 32 -74 43 -33 7 -74 19 -89
27 -33 17 -24 19 -83 -16z"/>
</g>
</svg>
