<?xml version="1.0" standalone="no"?>
<!DOCTYPE svg PUBLIC "-//W3C//DTD SVG 20010904//EN"
 "http://www.w3.org/TR/2001/REC-SVG-20010904/DTD/svg10.dtd">
<svg version="1.0" xmlns="http://www.w3.org/2000/svg"
 width="286.000000pt" height="176.000000pt" viewBox="0 0 286.000000 176.000000"
 preserveAspectRatio="xMidYMid meet">
<metadata>
Created by potrace 1.11, written by Peter Selinger 2001-2013
</metadata>
<g transform="translate(0.000000,176.000000) scale(0.100000,-0.100000)"
fill="#000000" stroke="none">
<path d="M460 1585 c-10 -12 -10 -19 -2 -27 18 -18 14 -48 -5 -54 -42 -14 -66
-30 -79 -56 -18 -35 -18 -68 1 -68 11 0 15 -12 15 -44 0 -24 3 -51 6 -60 8
-21 -33 -16 -68 8 -55 36 -114 -10 -92 -72 12 -34 -10 -99 -37 -107 -23 -8
-36 -52 -21 -75 6 -9 13 -38 17 -63 6 -38 4 -51 -14 -73 -25 -31 -26 -53 -7
-79 13 -19 15 -18 32 18 20 43 24 44 49 17 10 -11 22 -20 28 -20 15 0 -2 53
-22 71 -10 8 -22 34 -26 58 -6 36 -4 46 14 62 23 21 27 49 10 66 -13 13 18 83
37 83 7 0 19 3 28 6 14 5 16 -9 16 -114 0 -94 3 -124 15 -136 20 -20 20 -109
-1 -141 -15 -23 -15 -27 0 -50 10 -16 16 -46 16 -87 l0 -63 -42 -2 c-46 -3
-88 -26 -88 -48 0 -12 19 -15 105 -15 103 0 120 5 90 30 -22 18 -21 152 1 185
15 23 15 27 0 50 -10 15 -16 46 -16 80 l0 56 48 -3 47 -3 3 -51 c2 -36 -1 -54
-13 -64 -19 -16 -19 -54 0 -70 25 -20 21 -145 -6 -178 l-21 -27 107 -3 c59 -1
109 -1 112 1 2 2 1 11 -2 20 -8 20 -52 38 -98 40 l-37 2 0 66 c0 47 4 70 15
79 19 16 19 44 0 64 -10 9 -15 34 -15 70 0 49 2 55 23 58 21 3 22 7 25 129 l3
126 25 -5 c33 -6 57 -52 49 -95 -5 -24 -1 -37 15 -55 18 -19 20 -30 15 -65 -4
-23 -16 -50 -26 -60 -18 -17 -27 -67 -12 -67 4 0 17 12 30 26 l22 26 18 -36
c20 -43 37 -42 41 3 2 23 -3 40 -17 55 -16 17 -19 30 -15 65 3 25 10 53 16 64
13 25 2 64 -21 72 -28 8 -56 77 -42 103 14 26 0 67 -28 82 -24 12 -65 4 -82
-16 -6 -8 -19 -14 -28 -14 -13 0 -16 11 -16 61 0 52 2 59 18 55 13 -3 17 2 17
26 0 38 -31 82 -70 98 -32 13 -37 29 -17 60 10 17 9 22 -3 30 -20 13 -26 12
-40 -5z"/>
<path d="M1534 1573 c-17 -55 -25 -65 -42 -58 -58 25 -89 28 -136 12 -55 -19
-66 -16 -66 17 0 28 -8 36 -26 29 -20 -8 -17 -19 12 -48 l26 -26 -20 -22 c-30
-33 -42 -62 -42 -101 0 -19 -6 -39 -13 -43 -7 -4 -22 -26 -34 -48 -19 -37 -23
-40 -59 -38 -23 2 -44 -3 -55 -13 -28 -25 -43 -109 -31 -174 9 -47 7 -66 -10
-128 -19 -65 -20 -74 -6 -90 10 -11 14 -28 11 -49 -8 -47 24 -75 79 -68 69 9
72 16 58 141 -15 132 -19 244 -8 238 4 -3 8 -24 9 -47 1 -85 15 -140 42 -161
19 -16 24 -25 17 -36 -6 -8 -8 -62 -5 -119 3 -90 2 -108 -15 -130 -10 -15 -21
-43 -25 -64 -7 -36 -6 -38 29 -52 51 -22 138 -20 167 4 21 17 23 27 24 102 3
239 3 239 25 239 17 0 19 -5 14 -24 -3 -14 -7 -54 -7 -90 -2 -49 2 -69 15 -82
15 -15 15 -21 4 -43 -20 -40 -27 -92 -15 -107 8 -10 37 -14 94 -14 118 0 138
27 91 122 -19 40 -22 58 -18 130 2 46 -1 101 -7 123 -9 32 -8 42 5 56 11 12
18 50 23 126 6 106 7 107 14 48 4 -33 2 -78 -3 -100 -13 -53 -13 -115 0 -115
6 0 10 -15 9 -32 -4 -51 14 -74 62 -82 32 -5 46 -3 61 11 18 16 19 26 12 103
-3 47 -14 105 -24 130 -13 34 -15 53 -8 80 15 54 5 146 -19 178 -18 24 -27 27
-68 24 -51 -2 -75 10 -75 38 0 10 -6 20 -14 23 -7 3 -16 25 -20 49 -4 24 -16
59 -27 77 -18 29 -19 38 -8 58 7 12 19 23 26 23 17 0 13 32 -4 38 -7 2 -16 -5
-19 -15z m6 -398 c17 -20 19 -180 3 -196 -19 -19 -110 -28 -182 -18 -35 5 -67
12 -72 15 -11 6 -12 194 -1 194 80 3 218 13 221 16 8 8 19 4 31 -11z"/>
<path d="M1352 1068 l3 -53 65 0 65 0 3 53 3 52 -71 0 -71 0 3 -52z"/>
<path d="M2277 1504 c-35 -11 -50 -22 -57 -40 -14 -35 -12 -41 4 -18 14 18 15
17 31 -19 16 -38 35 -126 35 -156 -1 -31 -58 51 -70 100 -12 48 -12 49 -52 49
-53 0 -84 -16 -67 -36 6 -8 20 -14 31 -14 34 0 10 -18 -42 -30 -55 -13 -70
-31 -70 -79 0 -21 11 -43 35 -69 30 -33 33 -44 29 -74 -5 -29 1 -50 34 -112
38 -72 39 -79 26 -105 -19 -38 -13 -69 17 -91 22 -18 23 -20 10 -57 -8 -21
-23 -51 -34 -66 -22 -31 -20 -66 7 -129 l16 -38 80 0 c78 0 81 1 91 27 8 22 6
30 -16 53 -14 14 -25 37 -25 51 0 13 -7 56 -15 94 -14 64 -14 73 1 101 17 31
16 33 -24 118 -23 48 -42 89 -42 91 0 15 42 11 86 -10 29 -14 63 -25 75 -25
18 0 20 -3 11 -12 -19 -19 -14 -65 9 -81 17 -12 21 -29 26 -107 l6 -92 46 -29
c31 -20 58 -29 85 -29 50 0 63 8 71 42 5 21 2 29 -15 40 -13 7 -39 49 -60 93
-43 93 -45 145 -10 213 23 43 40 52 95 49 22 -2 30 3 33 17 2 10 -1 22 -8 26
-9 6 -9 13 -1 28 16 30 14 64 -9 114 -25 56 -40 70 -77 66 -24 -3 -28 0 -28
23 -1 43 -82 115 -145 128 -62 13 -63 13 -123 -5z m166 -29 c47 -8 59 -33 59
-130 1 -104 -8 -115 -90 -115 -37 0 -72 4 -79 8 -6 4 -16 41 -23 82 -6 41 -13
92 -17 112 -6 40 -9 37 62 51 11 3 27 3 35 2 8 -2 32 -6 53 -10z"/>
</g>
</svg>
