<?xml version="1.0" standalone="no"?>
<!DOCTYPE svg PUBLIC "-//W3C//DTD SVG 20010904//EN"
 "http://www.w3.org/TR/2001/REC-SVG-20010904/DTD/svg10.dtd">
<svg version="1.0" xmlns="http://www.w3.org/2000/svg"
 width="550.000000pt" height="326.000000pt" viewBox="0 0 550.000000 326.000000"
 preserveAspectRatio="xMidYMid meet">
<metadata>
Created by potrace 1.11, written by Peter Selinger 2001-2013
</metadata>
<g transform="translate(0.000000,326.000000) scale(0.100000,-0.100000)"
fill="#000000" stroke="none">
<path d="M4615 3250 c-16 -4 -77 -8 -135 -9 -58 -1 -122 -6 -142 -11 -47 -14
-119 -92 -117 -129 1 -14 -12 -57 -28 -96 -22 -52 -39 -76 -64 -92 -19 -12
-45 -31 -59 -42 l-25 -19 19 -36 c19 -36 19 -37 -1 -74 -16 -29 -18 -44 -11
-70 8 -29 6 -36 -17 -53 -21 -18 -24 -26 -19 -58 4 -24 2 -41 -5 -45 -6 -4
-11 -29 -11 -55 0 -62 31 -92 126 -125 91 -30 123 -48 155 -83 42 -44 66 -102
73 -173 l7 -65 -40 -46 c-43 -49 -471 -387 -480 -379 -3 3 -13 19 -22 35 -8
17 -50 83 -91 147 -77 120 -103 177 -158 350 -34 110 -35 129 -15 253 8 50 15
94 15 99 0 5 16 6 35 3 52 -9 89 8 113 52 27 48 28 90 3 139 -31 60 -51 72
-127 78 -38 2 -87 7 -109 9 -37 5 -51 5 -107 3 -13 -1 -31 2 -41 7 -13 5 -26
-2 -52 -30 -29 -30 -38 -35 -50 -25 -34 28 -103 -31 -75 -65 14 -17 6 -20
-146 -41 -88 -12 -134 -23 -144 -34 -8 -9 -35 -25 -60 -35 -25 -11 -71 -35
-103 -53 -43 -25 -62 -31 -70 -23 -6 6 -28 11 -49 11 -25 0 -53 9 -78 27 l-41
26 -26 -24 c-18 -17 -27 -20 -30 -11 -6 16 -44 52 -55 52 -5 0 -22 -14 -39
-32 -29 -32 -30 -32 -115 -30 -66 2 -95 7 -119 22 -97 60 -183 -24 -140 -136
14 -37 25 -50 59 -65 50 -23 79 -24 96 -4 22 27 53 13 87 -40 43 -66 75 -93
121 -100 65 -11 65 -10 33 -67 -63 -111 -141 -347 -141 -427 0 -14 -5 -33 -10
-41 -8 -12 -12 -11 -32 7 -13 11 -34 24 -48 28 -14 4 -46 18 -72 31 -43 22
-58 23 -195 22 -161 -1 -187 5 -255 58 -21 16 -49 37 -62 47 -36 25 -52 86
-38 135 20 67 31 72 220 98 18 3 42 14 53 25 23 23 25 76 4 99 -9 10 -19 41
-24 69 -6 36 -16 58 -36 77 -26 24 -27 29 -22 87 4 43 1 69 -9 89 -13 25 -13
32 6 67 l20 40 -28 25 c-15 14 -49 40 -77 58 -39 26 -53 43 -67 82 -11 31 -36
69 -67 100 -49 50 -90 123 -91 159 0 38 -43 142 -73 178 -26 32 -38 39 -69 39
-20 0 -39 -4 -43 -10 -4 -6 -15 -6 -31 0 -35 14 -108 12 -122 -2 -7 -7 -12
-20 -12 -30 0 -12 -20 -27 -62 -46 -35 -16 -88 -49 -119 -74 -31 -25 -74 -57
-95 -71 -22 -13 -65 -52 -97 -86 -46 -50 -61 -75 -78 -132 -19 -62 -21 -88
-17 -227 4 -146 6 -161 32 -215 15 -32 54 -85 87 -118 83 -84 94 -109 78 -168
-7 -25 -18 -50 -24 -56 -6 -5 -37 -40 -68 -76 -57 -67 -96 -137 -97 -175 0
-15 -21 -34 -75 -68 -84 -53 -138 -110 -167 -176 -11 -25 -30 -67 -43 -95 -51
-111 -183 -500 -226 -666 -24 -96 -29 -127 -20 -141 16 -26 13 -60 -10 -113
-24 -55 -20 -82 20 -140 15 -22 33 -56 41 -75 7 -19 17 -39 22 -44 4 -6 8 -33
8 -60 0 -28 9 -69 19 -91 l18 -40 84 2 c46 1 131 4 189 8 164 9 799 -15 832
-31 33 -17 82 -18 110 -3 15 8 82 8 247 -1 l226 -13 96 27 c53 14 111 26 128
26 l32 0 -8 73 c-4 39 -7 194 -5 342 3 265 3 270 25 287 43 34 82 33 147 -1
38 -21 67 -30 80 -26 11 3 31 28 46 56 15 27 34 49 42 49 8 0 51 -36 96 -80
114 -113 194 -153 320 -158 78 -3 109 1 211 27 73 19 123 38 128 47 11 20 138
80 189 89 36 7 78 0 78 -13 0 -4 -14 -15 -31 -24 -42 -24 -38 -67 8 -87 17 -8
34 -22 36 -32 3 -10 16 -19 33 -21 27 -3 30 -7 42 -68 7 -36 16 -163 20 -283
4 -133 11 -217 17 -217 22 1 6 394 -21 528 -6 32 -6 32 17 23 49 -21 163 -41
237 -41 l77 -1 100 -63 c54 -34 108 -74 118 -88 26 -34 26 -92 0 -203 -12 -50
-24 -109 -27 -132 l-6 -43 615 0 615 0 -33 53 c-91 143 -187 353 -172 376 2 5
17 12 32 16 16 3 45 17 66 31 38 25 40 24 37 -14 -2 -33 25 -27 55 12 28 37
74 157 75 194 0 12 4 22 9 22 27 0 47 -69 29 -102 -5 -11 -5 -18 1 -18 16 0
32 62 25 99 -7 40 -58 146 -74 156 -20 12 -10 25 20 25 37 0 90 21 108 43 12
14 10 15 -21 10 -19 -3 -44 0 -55 6 -30 16 -79 123 -98 211 -21 102 -14 165
35 285 110 274 107 479 -10 613 -18 20 -41 56 -52 81 -22 51 -89 364 -82 383
5 12 -34 228 -69 389 -42 191 -146 326 -287 370 -62 19 -158 23 -214 9z
m-1418 -750 c19 -193 35 -258 79 -325 24 -36 38 -71 45 -116 23 -146 54 -282
94 -419 52 -174 71 -219 123 -296 21 -33 52 -84 67 -116 32 -63 46 -72 138
-88 73 -13 129 -2 262 49 44 17 81 31 82 31 2 0 -12 -20 -31 -45 -19 -24 -40
-61 -46 -81 -17 -50 -8 -154 24 -278 14 -55 24 -101 22 -104 -2 -2 -21 8 -43
21 -21 14 -52 28 -70 32 -18 3 -51 24 -75 47 -58 54 -109 86 -155 97 -21 5
-65 16 -98 25 -106 29 -205 14 -220 -33 -4 -13 -26 -30 -56 -42 -50 -22 -78
-52 -59 -64 20 -12 9 -32 -25 -48 -60 -29 -63 -25 -48 46 10 48 11 84 3 164
-12 110 -15 124 -94 378 -30 94 -66 213 -81 265 -15 52 -50 167 -77 255 -27
88 -54 182 -60 209 -5 28 -26 90 -45 139 -42 105 -39 111 51 103 32 -4 78 -6
102 -6 37 0 48 -5 71 -32 16 -18 38 -42 50 -54 33 -31 65 -110 108 -264 34
-124 72 -216 108 -264 24 -33 27 -1 3 35 -30 45 -60 123 -91 239 -52 187 -106
306 -161 349 -52 41 -204 86 -326 97 -96 9 -109 20 -62 51 92 63 123 70 313
69 l176 -1 2 -25z m-687 -411 c109 -57 118 -69 160 -204 43 -142 103 -652 79
-681 -7 -9 -25 -6 -72 11 -106 39 -156 74 -280 197 -65 65 -132 127 -148 139
-25 18 -29 27 -29 67 0 61 33 209 66 297 35 92 103 225 116 225 6 0 54 -23
108 -51z m56 -1318 c69 -33 310 -112 364 -118 57 -7 65 -18 19 -27 -98 -19
-241 6 -311 55 -54 38 -118 93 -118 101 0 11 1 11 46 -11z"/>
</g>
</svg>
