<?xml version="1.0" standalone="no"?>
<!DOCTYPE svg PUBLIC "-//W3C//DTD SVG 20010904//EN"
 "http://www.w3.org/TR/2001/REC-SVG-20010904/DTD/svg10.dtd">
<svg version="1.0" xmlns="http://www.w3.org/2000/svg"
 width="270.000000pt" height="350.000000pt" viewBox="0 0 270.000000 350.000000"
 preserveAspectRatio="xMidYMid meet">
<metadata>
Created by potrace 1.11, written by Peter Selinger 2001-2013
</metadata>
<g transform="translate(0.000000,350.000000) scale(0.100000,-0.100000)"
fill="#000000" stroke="none">
<path d="M1402 3458 c-18 -18 -15 -42 8 -63 19 -17 20 -31 20 -202 l0 -183
-30 0 c-19 0 -30 -5 -30 -14 0 -12 -34 -15 -198 -18 -196 -3 -199 -3 -239 -30
-71 -47 -73 -57 -73 -392 l0 -296 576 0 575 0 -3 303 -3 304 -29 37 c-51 67
-84 76 -298 76 -160 0 -188 2 -188 15 0 9 -9 15 -25 15 l-25 0 0 189 c0 158 3
191 16 201 24 21 14 64 -16 68 -14 2 -31 -3 -38 -10z m-295 -690 c20 -19 23
-31 23 -100 0 -92 -17 -118 -75 -118 -59 0 -75 26 -75 119 0 74 2 81 26 100
34 27 72 27 101 -1z m457 1 c24 -19 26 -26 26 -98 0 -92 -18 -121 -75 -121
-58 0 -75 26 -75 117 0 65 3 80 22 100 27 29 67 30 102 2z m36 -369 l0 -40
-315 0 -315 0 0 40 0 40 315 0 315 0 0 -40z"/>
<path d="M2537 2640 c14 -45 21 -85 16 -89 -7 -7 -153 -51 -166 -51 -2 0 -14
36 -27 80 -13 44 -26 80 -30 80 -5 0 -18 -19 -29 -43 -43 -89 -15 -197 65
-246 23 -14 45 -36 49 -48 7 -28 7 -28 128 -1 97 21 98 22 92 48 -4 16 2 43
14 71 51 110 -5 248 -111 274 l-26 7 25 -82z"/>
<path d="M860 2065 c0 -135 -1 -145 -19 -145 -21 0 -31 -49 -31 -161 0 -65 1
-69 23 -69 l22 0 0 -237 c0 -200 3 -244 16 -274 22 -47 78 -89 129 -96 l40 -6
0 -63 0 -64 135 0 135 0 0 65 0 65 115 0 115 0 0 -65 0 -65 135 0 135 0 0 65
0 65 30 0 c64 0 136 51 159 113 7 17 11 123 11 268 l0 239 33 0 c57 0 59 5 37
121 -11 57 -20 105 -20 106 0 2 -11 3 -25 3 l-25 0 0 140 0 140 -575 0 -575 0
0 -145z"/>
<path d="M2386 2081 c-4 -5 34 -41 84 -80 89 -71 90 -71 104 -49 20 32 40 77
35 81 -6 5 -197 57 -208 57 -6 0 -12 -4 -15 -9z"/>
<path d="M2338 2024 c-8 -8 83 -214 94 -214 5 0 29 19 54 43 l44 42 -85 68
c-82 65 -96 73 -107 61z"/>
<path d="M2255 1974 l-30 -15 20 -107 c12 -58 26 -107 32 -109 7 -3 33 5 59
16 36 16 45 25 40 38 -23 61 -81 193 -86 192 -3 0 -19 -7 -35 -15z"/>
<path d="M2143 1942 c-26 -3 -33 -8 -33 -25 1 -25 36 -196 41 -201 10 -9 69 8
69 19 0 15 -39 208 -43 209 -1 1 -17 0 -34 -2z"/>
<path d="M547 1858 c7 -46 16 -98 18 -115 5 -30 9 -33 40 -33 34 0 35 1 35 38
0 22 3 73 6 115 l7 77 -60 0 -60 0 14 -82z"/>
<path d="M407 1913 c-31 -11 -44 -20 -39 -27 5 -6 37 -48 71 -93 34 -46 67
-83 73 -83 11 0 8 34 -13 158 -12 70 -14 71 -92 45z"/>
<path d="M696 1913 c-2 -10 -6 -61 -8 -113 l-3 -95 37 -3 36 -3 7 94 c9 122 7
131 -32 135 -23 2 -33 -1 -37 -15z"/>
<path d="M275 1830 c-21 -22 -37 -41 -34 -44 2 -2 47 -29 99 -59 129 -76 140
-65 52 53 -37 49 -69 89 -72 89 -3 1 -23 -17 -45 -39z"/>
<path d="M182 1701 l-20 -49 91 -16 c178 -31 187 -21 52 58 -53 31 -98 56 -99
56 -2 0 -13 -22 -24 -49z"/>
<path d="M127 1450 c-3 -28 -16 -53 -35 -74 -78 -82 -79 -187 -2 -269 l38 -42
7 93 8 92 32 0 c18 0 59 -3 93 -6 l61 -7 -6 -83 c-4 -55 -2 -84 4 -84 6 0 27
18 46 39 32 36 57 92 57 131 0 36 -24 93 -52 126 -26 30 -30 40 -25 74 l5 40
-52 0 c-29 0 -80 3 -113 6 l-60 7 -6 -43z"/>
<path d="M935 291 c-126 -7 -146 -16 -176 -78 -24 -50 -18 -100 17 -142 40
-48 65 -53 267 -49 182 3 186 3 212 28 45 42 55 72 55 165 l0 85 -132 -2 c-73
-1 -182 -4 -243 -7z"/>
<path d="M1540 211 c0 -101 18 -144 71 -173 29 -15 58 -18 207 -18 195 0 229
8 262 62 31 52 27 119 -10 162 -17 19 -43 37 -58 40 -15 4 -127 8 -249 10
l-223 4 0 -87z"/>
</g>
</svg>
