<?xml version="1.0" standalone="no"?>
<!DOCTYPE svg PUBLIC "-//W3C//DTD SVG 20010904//EN"
 "http://www.w3.org/TR/2001/REC-SVG-20010904/DTD/svg10.dtd">
<svg version="1.0" xmlns="http://www.w3.org/2000/svg"
 width="300.000000pt" height="229.000000pt" viewBox="0 0 300.000000 229.000000"
 preserveAspectRatio="xMidYMid meet">
<metadata>
Created by potrace 1.11, written by Peter Selinger 2001-2013
</metadata>
<g transform="translate(0.000000,229.000000) scale(0.100000,-0.100000)"
fill="#000000" stroke="none">
<path d="M2764 2276 c-39 -17 -88 -77 -103 -125 -29 -100 7 -222 79 -268 19
-12 42 -29 51 -38 9 -9 23 -13 33 -9 15 6 16 2 9 -22 -4 -16 -8 -56 -8 -89 1
-50 8 -76 44 -151 46 -98 51 -141 15 -136 -38 5 -49 -23 -50 -132 -1 -166 0
-164 -112 -229 l-97 -56 -23 39 c-20 33 -27 38 -42 30 -26 -14 -30 -13 -30 8
0 13 19 28 57 48 134 69 163 231 59 339 -72 76 -31 70 51 -7 29 -27 61 -48 73
-48 23 0 90 60 90 80 0 8 -9 10 -24 6 -35 -9 -68 9 -110 59 -56 67 -127 69
-164 5 -16 -27 -22 -30 -70 -30 -59 0 -102 -18 -148 -62 l-31 -29 -39 26 c-29
20 -47 25 -68 21 -40 -8 -53 -21 -83 -80 -33 -67 -51 -86 -80 -86 -57 0 -3
-60 56 -62 38 -1 57 14 86 72 29 58 48 74 78 66 22 -5 23 -9 19 -60 -6 -72 12
-120 62 -170 41 -41 98 -66 150 -66 20 0 26 -5 26 -21 0 -20 -7 -21 -55 -2 -6
2 -25 -27 -41 -65 l-31 -69 -82 -13 -81 -12 -72 68 c-40 38 -72 74 -70 81 8
36 -44 79 -84 69 -19 -5 -24 -13 -24 -36 0 -35 36 -63 73 -58 18 2 43 -15 101
-68 l76 -71 68 13 c37 7 72 13 79 14 6 0 -27 -86 -74 -190 -48 -105 -84 -193
-81 -196 3 -3 42 -12 87 -21 78 -16 94 -26 70 -50 -18 -18 -2 -43 26 -43 14 0
25 -3 25 -7 0 -3 -20 -41 -45 -84 l-45 -78 40 -85 39 -86 -53 0 c-61 0 -104
-25 -93 -54 19 -48 173 -47 191 1 3 7 -4 23 -15 34 -19 19 -89 166 -89 189 0
6 18 44 41 85 40 74 50 82 97 76 6 -1 13 4 13 11 4 47 21 76 46 83 32 8 36 3
38 -42 1 -35 4 -38 38 -46 31 -7 36 -13 33 -30 -3 -12 -8 -51 -11 -86 l-6 -64
75 -76 76 -77 -32 -2 c-74 -5 -115 -77 -53 -93 73 -20 178 36 144 77 -6 8 -16
14 -21 14 -5 0 -48 35 -94 77 l-85 77 6 56 c13 124 15 130 38 127 18 -2 22 6
31 57 6 33 16 61 21 62 6 2 29 8 51 14 l41 10 -107 207 c-60 114 -107 210
-104 214 2 3 44 30 94 59 54 30 95 61 100 74 4 12 11 56 15 99 6 66 10 77 26
77 25 0 35 24 43 104 7 67 6 72 -34 151 -45 91 -58 159 -41 223 11 38 15 42
43 42 25 0 30 3 25 20 -3 13 1 24 14 30 33 18 71 96 76 160 15 158 -110 279
-233 226z"/>
<path d="M92 2109 c-72 -46 -109 -167 -82 -265 9 -32 27 -61 56 -88 69 -67 83
-76 113 -76 28 0 30 -3 37 -46 11 -74 0 -136 -39 -215 -61 -123 -58 -223 7
-233 14 -2 31 -30 60 -97 l41 -94 75 -20 c71 -20 75 -22 75 -49 0 -32 19 -44
71 -45 l32 -1 -80 -215 c-44 -119 -78 -218 -76 -221 3 -2 45 -10 93 -16 l87
-12 -6 -35 c-3 -20 -6 -66 -6 -104 l0 -67 -66 -48 c-36 -26 -81 -56 -101 -67
-78 -44 -65 -85 29 -92 61 -4 102 12 106 44 4 25 -23 43 -68 46 -17 1 -30 4
-30 7 1 3 32 27 70 53 l70 48 0 48 c0 26 3 75 6 109 l7 60 97 0 97 0 7 -60 c3
-34 6 -78 6 -98 0 -36 4 -41 71 -86 l71 -49 -41 -10 c-22 -5 -48 -18 -58 -28
-17 -16 -16 -18 5 -40 32 -32 131 -32 164 0 21 22 21 23 3 43 -10 11 -22 20
-26 20 -5 0 -47 27 -94 60 l-85 61 0 57 c0 31 -3 73 -6 92 l-6 35 84 17 c85
18 168 46 168 57 0 4 -54 99 -119 211 l-120 205 48 21 c56 25 68 39 51 59 -14
17 -1 19 73 9 44 -6 48 -10 97 -83 27 -43 50 -88 50 -102 0 -27 37 -69 61 -69
41 0 50 44 18 85 -16 20 -28 26 -46 22 -21 -4 -31 6 -76 73 -55 83 -66 90
-149 90 -24 0 -37 4 -33 10 3 5 20 10 36 10 17 0 43 7 59 15 34 18 40 29 11
20 -39 -12 -55 35 -62 180 -5 120 -8 136 -35 185 -37 68 -91 105 -153 105 -25
1 -63 7 -84 14 -53 18 -101 6 -148 -36 -51 -46 -73 -90 -104 -204 -30 -111
-64 -163 -104 -155 l-26 6 30 -25 c41 -34 123 -57 198 -55 122 4 147 -5 147
-56 0 -28 -13 -30 -54 -9 -52 27 -140 11 -163 -30 -7 -12 -16 -12 -68 1 -33 9
-64 19 -69 24 -4 4 -25 46 -46 93 -28 63 -35 89 -27 102 7 12 5 27 -7 51 -14
30 -30 40 -59 35 -18 -3 -4 54 33 131 42 87 53 155 36 226 -7 28 -5 32 14 32
15 0 20 5 18 19 -2 10 13 36 34 59 45 49 62 108 55 185 -6 69 -43 137 -91 166
-45 28 -120 28 -164 0z"/>
<path d="M1480 2121 c-119 -36 -197 -148 -188 -268 10 -136 105 -231 241 -241
181 -14 320 165 262 339 -42 126 -192 207 -315 170z"/>
<path d="M1498 1491 c-90 -51 -137 -117 -138 -192 0 -31 -4 -37 -35 -49 -20
-8 -43 -23 -53 -34 -17 -21 -17 -21 4 -3 23 19 44 22 44 7 0 -13 27 -13 35 0
3 5 0 8 -7 7 -7 -2 -10 -2 -5 0 4 3 5 9 1 14 -3 5 -1 9 4 9 5 0 16 -18 24 -39
l16 -40 -39 -27 c-41 -28 -58 -59 -41 -76 8 -8 9 -5 6 9 -3 11 1 25 10 33 14
11 19 10 34 -4 10 -9 22 -13 25 -9 11 10 8 33 -4 33 -5 0 -7 -4 -4 -10 3 -5 1
-10 -4 -10 -15 0 -14 12 3 35 12 17 16 16 59 -20 45 -38 46 -40 31 -63 -9 -13
-13 -26 -10 -30 3 -3 6 0 6 7 0 8 7 10 19 6 23 -7 39 13 17 21 -33 13 -5 20
38 10 41 -9 45 -13 49 -46 2 -19 3 -37 1 -39 -2 -2 -30 2 -61 9 -32 7 -77 15
-100 17 -37 4 -42 3 -45 -19 -2 -12 -6 -22 -11 -21 -4 1 -30 5 -58 9 l-50 7
-44 88 c-35 68 -43 95 -39 118 9 44 -17 81 -57 81 -57 0 -50 -72 11 -102 26
-14 44 -37 79 -105 l46 -88 55 -10 c45 -9 55 -14 60 -35 5 -19 17 -28 60 -41
34 -10 54 -21 52 -29 -2 -7 -27 -54 -57 -105 -77 -130 -76 -125 -20 -125 44 0
47 -2 42 -22 -3 -13 -10 -59 -17 -103 -6 -44 -13 -90 -16 -102 -4 -21 -1 -23
36 -23 22 0 40 -4 40 -8 0 -5 -13 -40 -28 -78 l-28 -69 -70 -23 c-38 -12 -90
-25 -116 -29 -35 -4 -49 -11 -54 -26 -12 -39 72 -117 127 -117 25 0 29 4 29
28 -1 32 -19 58 -57 83 -30 20 -35 17 76 52 l75 23 31 79 c30 79 31 80 65 80
32 0 35 3 41 35 l6 35 12 -32 c12 -30 17 -33 55 -33 41 0 43 -2 66 -50 l24
-50 -35 -72 c-19 -40 -44 -87 -56 -105 -28 -41 -22 -59 24 -74 72 -23 176 16
144 55 -18 22 -78 39 -112 32 -16 -3 -29 -3 -29 0 0 4 18 43 40 87 l40 80 -25
45 c-14 24 -25 46 -25 48 0 2 16 4 35 4 32 0 35 2 30 23 -34 138 -50 226 -42
238 6 10 -1 50 -22 119 -17 57 -28 106 -25 109 3 3 33 22 67 42 62 36 65 41
52 91 -6 24 -3 29 33 47 23 11 43 25 47 31 3 5 11 50 17 100 8 60 15 90 24 90
38 0 61 84 29 110 -36 30 -89 -35 -65 -80 9 -17 9 -45 1 -118 -7 -53 -13 -97
-14 -97 -1 -1 -19 -12 -39 -24 -21 -12 -41 -20 -46 -17 -4 2 -14 1 -22 -4 -9
-6 -22 1 -42 22 -27 29 -30 30 -46 15 -21 -22 -2 -48 21 -29 15 13 27 6 27
-13 0 -12 -91 -55 -116 -55 -8 0 -14 10 -14 24 0 13 -3 31 -6 40 -4 11 2 17
23 22 49 11 110 52 133 89 26 42 29 43 22 10 -5 -30 21 -35 37 -7 9 16 11 16
25 -3 9 -11 14 -28 12 -37 -2 -10 0 -18 5 -18 5 0 9 11 9 24 0 22 -41 67 -69
78 -6 2 -6 24 -2 58 5 30 9 45 10 33 1 -27 16 -30 29 -7 12 22 30 10 48 -30
10 -23 13 -26 14 -11 0 32 -28 65 -56 65 -26 0 -64 31 -64 53 0 29 -66 90
-128 118 -35 16 -71 29 -80 28 -10 -1 -38 -13 -64 -28z"/>
</g>
</svg>
