<?xml version="1.0" standalone="no"?>
<!DOCTYPE svg PUBLIC "-//W3C//DTD SVG 20010904//EN"
 "http://www.w3.org/TR/2001/REC-SVG-20010904/DTD/svg10.dtd">
<svg version="1.0" xmlns="http://www.w3.org/2000/svg"
 width="259.000000pt" height="195.000000pt" viewBox="0 0 259.000000 195.000000"
 preserveAspectRatio="xMidYMid meet">
<metadata>
Created by potrace 1.11, written by Peter Selinger 2001-2013
</metadata>
<g transform="translate(0.000000,195.000000) scale(0.100000,-0.100000)"
fill="#000000" stroke="none">
<path d="M2219 1931 c-19 -15 -25 -29 -27 -66 -1 -26 -7 -55 -14 -63 -10 -12
-10 -14 0 -8 16 9 16 -16 0 -32 -7 -7 -24 -12 -40 -12 -23 0 -28 -5 -34 -35
-6 -34 -16 -41 -53 -35 -13 1 -13 -1 -2 -14 11 -13 11 -16 -1 -16 -10 0 -23
-24 -38 -67 -45 -140 -215 -343 -285 -343 -14 0 -34 -13 -49 -31 -25 -30 -35
-56 -17 -44 5 3 12 1 16 -4 8 -13 45 -9 45 5 0 6 11 16 25 22 14 6 25 16 25
21 0 5 35 34 78 64 42 31 93 71 111 91 19 20 38 36 42 36 3 0 17 -31 29 -70
l22 -70 -20 -52 c-37 -93 -44 -137 -52 -342 -4 -111 -13 -216 -19 -235 -14
-44 -8 -51 35 -44 41 7 54 -5 54 -50 0 -16 22 -97 49 -180 54 -166 56 -198 20
-269 -25 -49 -15 -67 28 -52 23 8 29 16 31 47 2 21 7 35 12 32 5 -3 12 9 15
27 4 23 -1 48 -17 83 -19 42 -23 68 -24 160 -1 77 -6 121 -18 147 -20 46 -20
48 -1 48 8 0 15 7 15 15 0 8 4 15 10 15 15 0 67 83 79 128 l12 42 87 0 c67 0
94 -4 117 -18 46 -28 95 -81 95 -103 0 -37 18 -18 22 24 6 50 -2 68 -36 87
-32 17 -33 30 -3 30 19 0 16 4 -14 22 -34 19 -36 23 -27 50 16 47 3 76 -37 84
-43 8 -58 33 -80 131 -9 37 -22 84 -30 104 -12 32 -11 54 5 177 11 78 17 148
14 157 -3 8 -24 28 -47 45 -23 16 -38 30 -34 30 4 0 0 12 -10 28 -17 26 -17
26 0 13 15 -12 17 -12 11 3 -4 11 6 29 30 53 20 21 36 43 36 49 0 6 9 23 20
37 11 14 20 32 20 40 0 18 -75 87 -95 87 -8 0 -15 7 -15 15 0 8 -4 15 -9 15
-5 0 -16 2 -23 5 -8 3 -25 -3 -39 -14z m65 -513 c3 -13 6 -73 6 -135 l0 -111
56 -112 c41 -82 64 -116 89 -133 24 -16 34 -31 37 -54 3 -29 1 -33 -24 -39
-27 -5 -111 1 -150 12 -10 3 -18 12 -18 20 0 8 -9 14 -21 14 -15 0 -19 5 -16
18 3 9 13 58 22 107 21 107 14 145 -40 224 -50 72 -47 119 13 184 31 33 38 34
46 5z"/>
<path d="M1230 1892 c-27 -13 -37 -27 -47 -61 -7 -24 -19 -52 -28 -61 -8 -9
-15 -28 -15 -42 0 -14 -9 -35 -20 -48 -24 -28 -27 -48 -3 -25 15 16 17 14 30
-16 13 -31 12 -34 -14 -62 -27 -28 -27 -29 -4 -17 22 11 23 11 17 -6 -4 -10
-9 -57 -12 -104 -5 -69 -12 -98 -39 -155 -18 -38 -36 -95 -40 -125 -10 -87
-23 -125 -49 -149 -21 -20 -27 -21 -45 -9 -22 13 -20 15 -71 -53 l-20 -27 65
-42 c60 -39 63 -43 54 -67 -7 -18 -6 -30 3 -40 17 -21 97 -59 141 -67 l37 -7
-24 -42 c-29 -51 -34 -72 -51 -210 -12 -96 -16 -111 -40 -133 -21 -19 -25 -30
-20 -47 4 -12 10 -41 12 -64 4 -38 9 -44 37 -51 17 -5 32 -8 34 -7 1 1 -2 15
-9 31 -20 52 7 180 64 302 26 56 32 63 35 42 2 -14 22 -83 45 -155 35 -111 41
-143 41 -223 1 -94 1 -94 35 -124 32 -29 35 -30 42 -12 12 30 10 73 -5 102
-24 48 -37 127 -41 248 -2 66 -11 155 -19 199 -9 44 -16 98 -16 120 l0 41 72
28 c47 18 85 26 110 24 21 -2 38 -3 38 -2 0 0 -22 48 -49 105 -69 146 -82 192
-88 292 -6 86 -6 87 -33 87 -14 0 -50 7 -78 15 -47 14 -55 14 -82 0 l-30 -16
0 34 c0 19 14 61 30 94 30 59 32 61 103 87 40 15 90 29 110 33 21 3 40 10 43
15 8 13 -43 2 -130 -28 -38 -13 -71 -22 -73 -20 -8 8 107 58 145 63 32 4 40
10 41 27 0 11 2 34 3 50 2 24 -2 31 -20 35 -13 3 -23 9 -23 14 1 4 0 8 0 10
-1 1 -2 35 -4 75 -1 45 2 72 8 72 6 0 -11 20 -36 45 -52 50 -66 53 -117 27z"/>
<path d="M385 1858 c-46 -24 -58 -78 -34 -147 9 -25 9 -39 0 -58 -11 -24 -11
-25 4 -13 14 12 18 12 25 0 16 -26 -5 -54 -48 -63 -40 -8 -40 -8 -47 -65 -4
-31 -14 -70 -22 -85 -8 -15 -11 -37 -8 -48 4 -10 3 -45 0 -77 -7 -54 -11 -60
-80 -128 -39 -40 -90 -83 -112 -97 -53 -34 -70 -77 -42 -109 l19 -23 -10 28
c-6 16 -6 26 -1 22 5 -3 26 16 47 41 21 25 63 63 94 84 66 45 117 100 126 135
3 14 9 25 13 25 11 0 50 -114 62 -182 9 -57 14 -68 30 -68 11 0 22 -7 25 -15
9 -21 -15 -47 -37 -40 -13 4 -22 -2 -34 -25 -15 -30 -15 -31 2 -22 11 6 27 6
41 1 18 -7 23 -15 20 -35 -5 -42 -31 -53 -66 -27 l-30 22 -47 -102 c-32 -70
-47 -115 -47 -142 0 -22 -10 -80 -23 -130 -13 -49 -27 -112 -31 -140 -4 -27
-17 -83 -30 -123 -13 -40 -24 -88 -24 -107 0 -24 -8 -41 -27 -60 -15 -14 -32
-25 -38 -26 -5 -1 1 -4 15 -8 14 -4 37 -5 52 -3 22 3 28 10 28 29 0 29 17 63
30 63 6 0 11 -17 11 -37 1 -27 3 -31 6 -13 2 14 9 39 14 57 8 25 7 40 -6 66
-18 38 -11 68 44 172 25 48 32 77 37 148 l7 87 33 0 c21 0 37 6 43 17 8 15 13
15 36 5 38 -18 73 -15 84 7 19 35 71 37 71 2 0 -9 5 -22 11 -28 8 -8 8 -41 -1
-119 -15 -140 -26 -190 -54 -239 -12 -22 -28 -60 -35 -85 -7 -25 -19 -58 -27
-73 -24 -49 -19 -59 29 -55 42 3 42 3 48 48 15 101 30 161 70 275 29 82 44
143 47 192 5 71 5 71 41 86 34 14 35 15 9 16 -52 2 -60 62 -32 223 9 54 14
114 10 143 l-6 50 25 -53 c14 -30 25 -72 25 -94 0 -23 4 -37 10 -33 16 10 12
-21 -5 -35 -20 -16 -19 -29 1 -26 21 3 44 34 44 58 0 11 -7 32 -15 49 -9 16
-27 68 -41 116 -19 65 -22 88 -13 94 9 5 2 26 -24 77 -35 66 -37 75 -37 165 0
89 -2 98 -26 124 -15 16 -21 29 -14 31 7 3 3 10 -9 19 -28 19 -29 57 -1 50 24
-6 24 -4 5 33 -8 16 -12 36 -9 44 7 19 -29 96 -63 137 -21 25 -32 29 -71 29
-26 0 -56 -6 -67 -12z"/>
</g>
</svg>
