<?xml version="1.0" standalone="no"?>
<!DOCTYPE svg PUBLIC "-//W3C//DTD SVG 20010904//EN"
 "http://www.w3.org/TR/2001/REC-SVG-20010904/DTD/svg10.dtd">
<svg version="1.0" xmlns="http://www.w3.org/2000/svg"
 width="4500.000000pt" height="4500.000000pt" viewBox="0 0 4500.000000 4500.000000"
 preserveAspectRatio="xMidYMid meet">
<metadata>
Created by potrace 1.11, written by Peter Selinger 2001-2013
</metadata>
<g transform="translate(0.000000,4500.000000) scale(0.100000,-0.100000)"
fill="#000000" stroke="none">
<path d="M28296 40254 c-8 -20 -8 -248 0 -268 5 -14 50 -16 395 -16 l389 0 5
23 c3 12 4 78 3 147 l-3 125 -391 3 c-351 2 -392 1 -398 -14z"/>
<path d="M27275 39930 c-83 -6 -130 -35 -173 -109 l-27 -46 -3 -243 c-3 -210
-1 -246 12 -268 18 -26 45 -31 64 -12 8 8 12 67 12 200 l0 189 30 58 c45 89
99 126 225 151 33 6 78 15 100 20 22 4 79 14 128 21 81 11 105 23 74 35 -18 7
-358 10 -442 4z"/>
<path d="M29424 39887 c-2 -7 -3 -78 -2 -157 l3 -145 325 0 325 0 0 155 0 155
-323 3 c-258 2 -324 0 -328 -11z"/>
<path d="M28506 39710 c-234 -49 -438 -209 -541 -425 -56 -118 -78 -213 -77
-345 0 -133 22 -229 77 -345 98 -203 268 -347 495 -417 64 -20 96 -23 220 -22
131 0 153 3 228 28 138 46 230 102 329 201 83 84 151 195 190 310 26 75 28 91
28 245 0 153 -2 171 -27 245 -91 269 -315 469 -589 525 -116 24 -217 24 -333
0z m306 -174 c317 -76 521 -385 464 -701 -89 -490 -688 -676 -1037 -322 -91
93 -142 194 -165 330 -17 91 -17 103 -1 192 38 211 148 360 333 451 39 20 95
41 125 49 72 17 210 18 281 1z"/>
<path d="M28784 39362 c-98 -46 -131 -164 -71 -253 36 -54 82 -79 144 -79 62
0 100 17 137 60 49 59 54 123 15 201 -37 74 -145 108 -225 71z"/>
<path d="M29011 38964 c-35 -45 -24 -96 26 -122 34 -18 52 -14 84 17 36 36 37
73 4 106 -34 35 -86 34 -114 -1z"/>
<path d="M27895 37809 c-12 -18 4 -58 30 -75 21 -14 65 -16 309 -18 156 0 288
-4 291 -8 4 -4 7 -218 6 -475 -2 -507 1 -543 50 -615 l29 -43 0 -231 c0 -127
-3 -233 -6 -236 -3 -4 -60 32 -127 78 -131 90 -358 232 -447 280 -30 16 -57
31 -60 34 -25 25 -459 237 -626 306 -49 20 -93 40 -98 45 -6 5 -16 9 -24 9 -7
0 -37 11 -65 23 -46 21 -101 44 -162 67 -11 4 -38 15 -60 23 -39 16 -213 77
-345 122 -36 12 -81 27 -100 34 -19 7 -48 17 -65 21 -30 9 -103 30 -185 54
-107 32 -204 58 -340 91 -80 20 -163 41 -185 47 -22 6 -58 14 -80 18 -22 4
-110 22 -195 40 -85 17 -177 36 -205 40 -27 5 -93 15 -145 24 -147 25 -297 46
-390 56 -47 5 -146 17 -220 25 -375 44 -1227 68 -1627 46 -115 -6 -262 -13
-328 -16 -120 -5 -270 -18 -440 -36 -49 -5 -133 -14 -185 -19 -52 -5 -107 -12
-122 -15 -14 -4 -61 -10 -105 -15 -122 -14 -224 -29 -273 -40 -25 -5 -88 -17
-140 -26 -52 -8 -138 -25 -190 -35 -52 -11 -119 -24 -149 -29 -30 -5 -68 -14
-85 -19 -17 -5 -58 -14 -91 -21 -78 -17 -361 -88 -428 -109 -18 -5 -75 -22
-127 -36 -52 -15 -111 -33 -130 -40 -19 -7 -109 -36 -200 -66 -91 -29 -178
-58 -195 -65 -16 -7 -59 -23 -95 -37 -97 -37 -271 -107 -305 -122 -16 -7 -50
-22 -75 -33 -570 -249 -1058 -523 -1515 -852 -38 -27 -82 -58 -96 -67 -92 -63
-415 -327 -559 -458 -141 -128 -359 -345 -416 -415 -16 -19 -42 -48 -57 -65
-16 -16 -56 -64 -90 -105 -34 -41 -64 -77 -67 -80 -13 -12 -138 -177 -148
-197 -7 -12 -18 -27 -25 -35 -7 -7 -49 -67 -93 -133 -75 -110 -114 -174 -170
-273 -11 -20 -37 -66 -57 -102 -48 -84 -177 -349 -177 -363 0 -4 -11 -30 -24
-59 -40 -86 -76 -180 -76 -198 0 -10 7 -23 16 -31 22 -18 44 -64 44 -92 0 -51
66 -67 90 -22 20 37 75 67 120 67 74 -1 121 -47 135 -129 6 -41 11 -45 78 -67
9 -3 38 6 65 20 36 19 55 24 82 19 57 -11 98 -49 115 -108 14 -47 21 -56 71
-86 52 -31 58 -32 99 -22 84 21 157 -26 175 -115 9 -44 19 -60 53 -90 40 -34
45 -35 97 -30 67 8 114 -13 148 -64 21 -31 23 -43 17 -95 -5 -57 -4 -62 26
-99 30 -35 36 -38 71 -33 56 8 102 -9 137 -49 38 -43 43 -108 10 -160 l-20
-33 41 -76 c38 -69 44 -75 73 -75 41 0 95 -28 120 -61 29 -40 25 -111 -9 -160
-26 -38 -27 -42 -15 -93 14 -64 32 -82 90 -89 64 -8 102 -49 109 -116 4 -42 0
-57 -19 -87 -13 -19 -39 -42 -57 -49 l-34 -15 7 -92 7 -93 44 -44 c50 -49 59
-73 51 -134 -4 -33 -14 -50 -47 -79 -35 -32 -43 -46 -48 -84 -4 -40 -1 -49 26
-77 37 -40 54 -95 41 -139 -12 -44 -26 -60 -76 -91 -28 -18 -45 -37 -49 -55
-3 -15 -8 -34 -10 -43 -3 -9 7 -30 20 -46 36 -42 48 -81 41 -125 -8 -45 -51
-95 -91 -103 -60 -13 -74 -25 -100 -82 -19 -44 -24 -68 -20 -100 6 -45 -7 -97
-32 -125 -8 -10 -35 -27 -59 -39 -24 -12 -51 -32 -60 -45 -16 -24 -15 -30 10
-98 19 -51 7 -100 -33 -140 -29 -30 -34 -31 -111 -31 -77 0 -82 -1 -101 -28
l-20 -28 22 -50 c26 -61 21 -96 -22 -144 -51 -58 -123 -64 -185 -16 -23 19
-29 20 -47 7 -17 -11 -21 -24 -22 -67 0 -30 -7 -67 -15 -83 -31 -63 -106 -90
-172 -62 -52 21 -52 21 -49 -27 3 -31 -3 -51 -20 -77 -52 -79 -148 -89 -214
-23 -35 35 -36 35 -72 21 l-37 -14 -8 -88 -8 -89 37 -71 c33 -63 64 -118 144
-261 56 -99 93 -162 108 -187 9 -15 43 -72 76 -125 74 -124 313 -481 420 -629
44 -62 88 -122 96 -134 17 -26 61 -84 89 -120 11 -14 53 -69 93 -122 135 -178
262 -343 268 -348 4 -3 25 -28 46 -56 77 -100 139 -179 154 -195 8 -9 58 -69
110 -134 74 -92 387 -468 498 -600 186 -219 338 -391 348 -393 7 -2 42 20 78
48 143 110 348 227 467 266 60 20 92 49 84 75 -4 11 0 30 8 42 12 19 14 334
13 2217 l-1 2195 -76 5 c-130 10 -159 46 -159 202 0 109 17 153 71 181 32 16
80 17 719 15 651 -3 687 -4 716 -22 54 -33 66 -65 70 -193 l4 -115 -34 -34
c-22 -22 -44 -34 -62 -35 -16 -1 -58 -2 -94 -2 l-65 -2 -3 -307 -2 -308 -63 0
c-205 0 -329 -78 -278 -173 22 -41 57 -51 201 -57 l135 -5 0 -345 0 -345 -90
-6 c-110 -7 -170 -23 -201 -54 -49 -49 -16 -127 61 -145 22 -5 84 -10 138 -10
l97 0 -2 -417 -3 -418 -115 -8 c-143 -9 -156 -12 -186 -42 -43 -43 -25 -124
31 -145 13 -5 69 -10 123 -11 55 -1 112 -4 125 -6 l25 -5 1 -815 c1 -545 4
-820 11 -834 6 -10 18 -19 28 -19 10 0 42 -9 72 -21 30 -11 74 -27 97 -35 141
-49 379 -193 518 -312 122 -105 203 -191 287 -304 32 -43 62 -78 67 -78 5 0
16 6 23 13 7 7 36 30 63 52 28 22 52 43 55 46 3 3 43 36 90 75 47 38 128 105
180 149 53 44 116 96 140 115 46 37 280 232 365 303 27 23 76 64 110 90 33 27
62 52 65 56 3 4 32 28 65 53 33 25 71 56 85 70 14 13 47 42 75 64 27 21 144
117 260 213 115 96 243 202 283 235 41 34 83 69 95 79 36 31 96 80 202 167 55
45 123 101 150 125 28 23 95 79 150 124 55 46 109 90 120 99 11 10 58 49 105
87 47 38 96 79 110 91 14 13 149 125 300 250 151 125 295 244 320 265 25 20
92 76 150 124 58 48 117 98 132 111 15 13 49 40 74 59 64 49 164 137 164 144
0 5 -100 151 -127 186 -5 6 -14 21 -20 35 -7 14 -25 48 -41 75 -70 123 -140
329 -172 509 -22 123 -28 401 -10 516 58 378 218 704 471 960 107 109 182 171
277 231 39 26 40 42 4 77 -16 15 -80 83 -142 152 -62 69 -122 134 -134 146
-11 11 -66 69 -121 129 -89 97 -235 253 -305 324 -13 15 -80 87 -149 161 -68
74 -168 180 -222 235 -53 55 -128 134 -165 176 -38 42 -118 130 -179 196 -60
66 -146 159 -190 208 -44 49 -87 96 -95 105 -19 20 -177 201 -305 350 -93 109
-144 170 -205 243 -14 17 -48 58 -75 91 -364 440 -700 934 -872 1281 -35 72
-70 141 -77 155 -20 37 -106 268 -122 325 -56 206 -77 343 -72 478 10 252 91
446 260 618 251 258 628 415 1103 459 198 19 703 3 930 -29 39 -6 122 -17 185
-26 63 -9 135 -20 160 -25 25 -5 106 -21 180 -35 205 -40 416 -93 650 -163
101 -30 337 -107 371 -121 13 -5 58 -22 99 -36 68 -24 193 -73 245 -94 11 -5
45 -19 75 -31 30 -12 75 -31 100 -42 25 -11 59 -26 75 -33 198 -85 494 -236
709 -360 168 -97 522 -340 651 -446 88 -73 207 -177 296 -260 85 -79 198 -175
304 -256 30 -24 144 -93 170 -104 17 -7 37 -18 45 -24 25 -19 133 -45 187 -45
70 0 147 26 223 76 184 120 253 261 221 452 -14 87 -86 231 -176 351 -72 98
-254 288 -402 422 l-73 66 0 341 c0 341 0 343 23 380 47 74 47 80 47 598 0
388 3 494 13 496 6 1 139 2 293 3 303 1 317 4 344 56 28 50 53 49 -846 49
-574 0 -835 -3 -839 -11z"/>
<path d="M15863 32560 c-81 -17 -152 -71 -188 -146 -26 -53 -26 -174 -1 -226
23 -48 78 -103 124 -127 120 -60 274 -13 347 105 27 44 30 57 30 134 0 75 -3
91 -27 132 -38 64 -108 113 -182 127 -33 6 -60 11 -60 10 -1 -1 -20 -5 -43 -9z"/>
<path d="M15457 31475 c-175 -48 -306 -193 -337 -372 -50 -297 223 -573 518
-523 317 53 483 383 337 669 -91 179 -322 280 -518 226z"/>
<path d="M16645 31291 c-51 -13 -89 -38 -132 -84 -50 -54 -67 -103 -66 -184 3
-192 204 -314 377 -229 94 46 149 136 149 241 -1 72 -19 119 -66 172 -64 70
-177 106 -262 84z"/>
<path d="M16035 29909 c-42 -12 -110 -72 -139 -122 -118 -203 80 -449 308
-383 238 69 252 405 21 502 -37 15 -142 17 -190 3z"/>
<path d="M26520 29816 c-152 -30 -233 -65 -347 -151 -246 -185 -357 -507 -278
-808 57 -219 200 -399 398 -499 65 -32 170 -68 203 -68 12 0 25 -7 28 -16 3
-9 6 -404 6 -879 0 -680 -3 -866 -12 -872 -7 -4 -47 -8 -88 -8 -80 -1 -139 17
-237 71 -26 15 -62 35 -80 45 -177 99 -331 290 -423 524 -19 50 -39 138 -51
227 -16 128 0 283 44 417 35 103 38 89 -30 137 -14 11 -68 54 -119 97 -51 42
-97 77 -102 77 -6 0 -23 -11 -38 -24 -16 -14 -155 -129 -309 -257 -154 -127
-282 -235 -285 -238 -3 -3 -23 -19 -45 -36 -22 -16 -53 -41 -70 -56 -16 -15
-115 -97 -220 -184 -104 -86 -208 -171 -230 -190 -22 -18 -87 -72 -145 -120
-58 -47 -136 -113 -175 -145 -38 -33 -126 -105 -194 -161 -68 -55 -129 -106
-136 -112 -6 -7 -31 -28 -55 -47 -24 -19 -168 -138 -319 -264 -152 -125 -296
-245 -320 -265 -25 -20 -58 -48 -75 -62 -38 -31 -49 -41 -206 -170 -69 -57
-127 -106 -130 -109 -3 -3 -25 -21 -50 -40 -25 -19 -47 -37 -50 -40 -5 -6
-104 -89 -180 -152 -71 -57 -252 -208 -280 -231 -14 -12 -50 -42 -80 -67 -30
-25 -66 -55 -80 -66 -72 -62 -219 -183 -247 -204 -18 -13 -33 -30 -33 -37 0
-8 18 -53 41 -101 22 -48 44 -96 49 -107 57 -124 102 -308 125 -515 18 -167
19 -231 0 -390 -25 -217 -49 -317 -121 -498 -93 -232 -210 -418 -378 -598 -36
-40 -66 -77 -66 -83 0 -5 21 -33 48 -62 81 -89 95 -104 172 -189 41 -46 82
-91 91 -99 9 -9 51 -56 93 -105 42 -49 97 -109 121 -135 23 -25 58 -64 76 -85
19 -22 41 -47 49 -56 8 -9 49 -54 89 -100 41 -47 80 -89 85 -95 6 -5 36 -39
66 -75 30 -36 64 -74 75 -85 17 -17 80 -90 262 -301 158 -184 294 -346 408
-489 61 -76 115 -142 121 -149 8 -8 169 -222 242 -321 34 -47 150 -229 197
-310 93 -160 157 -295 225 -470 72 -186 120 -428 120 -607 0 -196 -46 -359
-144 -512 -117 -183 -368 -340 -666 -415 -47 -12 -101 -26 -120 -31 -149 -39
-481 -66 -796 -64 -257 1 -356 6 -644 35 -191 19 -554 78 -755 124 -38 9 -90
20 -115 26 -143 32 -310 77 -460 125 -307 96 -631 215 -845 309 -17 8 -52 23
-79 34 -184 80 -645 310 -811 406 -55 32 -116 67 -135 78 -19 10 -42 25 -51
33 -8 8 -19 14 -22 14 -11 0 -179 105 -302 188 -249 169 -290 198 -430 307
-49 39 -108 84 -129 100 -21 17 -73 59 -115 95 -42 36 -106 90 -141 120 -125
105 -367 341 -671 656 -175 180 -300 272 -429 314 -57 19 -213 20 -260 1 -97
-38 -149 -71 -217 -138 -214 -212 -196 -490 55 -847 80 -113 144 -187 294
-342 l118 -120 -7 -51 c-5 -46 -3 -54 20 -77 27 -27 89 -37 102 -16 10 16 39
12 61 -8 10 -10 69 -58 129 -106 61 -48 126 -101 145 -116 19 -16 71 -55 115
-89 44 -33 85 -65 92 -71 7 -5 17 -10 23 -10 5 0 10 -3 10 -7 0 -5 17 -19 38
-33 20 -14 42 -28 47 -32 6 -4 33 -25 60 -45 28 -21 91 -65 140 -98 50 -33 92
-62 95 -65 5 -5 108 -74 141 -95 9 -5 56 -35 103 -65 97 -61 299 -185 333
-203 12 -7 48 -27 80 -46 154 -91 751 -391 779 -391 2 0 34 -14 71 -31 61 -28
92 -41 158 -69 11 -4 36 -15 55 -23 19 -8 69 -27 110 -42 41 -15 89 -33 105
-40 68 -29 466 -164 560 -190 28 -8 97 -29 155 -46 58 -17 121 -35 140 -39 19
-4 100 -24 180 -44 156 -39 256 -62 435 -100 73 -15 207 -40 310 -56 33 -5
101 -16 150 -24 50 -8 115 -18 145 -21 30 -4 102 -13 160 -21 100 -14 307 -34
580 -55 69 -6 384 -13 700 -16 556 -5 903 3 1165 28 55 5 145 12 200 15 91 4
180 13 450 44 248 29 518 69 710 105 39 7 97 18 130 24 150 27 370 73 550 116
89 21 170 41 215 53 19 5 71 19 115 31 44 12 103 29 130 37 28 8 73 21 100 30
96 28 310 96 365 116 30 11 69 23 85 28 42 11 391 143 450 170 11 5 43 18 71
29 28 11 71 29 95 40 24 10 76 33 114 51 157 70 220 100 430 206 198 99 256
130 320 172 11 6 27 15 35 18 8 3 20 8 25 10 6 2 61 35 124 74 63 38 116 70
117 70 10 0 380 256 477 329 379 289 824 729 1042 1031 11 15 59 81 106 146
116 162 132 189 117 201 -7 5 -40 17 -73 27 -381 115 -788 390 -1051 711 -210
257 -375 592 -448 910 -75 329 -76 713 -1 1035 95 407 326 817 617 1096 206
198 464 366 733 477 164 68 409 128 600 148 55 6 101 12 103 14 6 6 -85 248
-134 353 -13 29 -24 56 -24 59 0 4 -9 25 -19 47 -11 23 -40 86 -66 141 -344
740 -690 1257 -1566 2340 -62 77 -138 170 -168 206 -31 36 -84 99 -117 140
-34 41 -72 85 -84 99 -24 28 -35 41 -105 125 -67 80 -227 267 -242 283 -17 18
-29 15 -46 -10 -27 -42 -182 -195 -237 -236 -30 -22 -86 -57 -125 -78 -166
-90 -249 -185 -294 -339 -58 -193 6 -403 165 -542 l57 -50 -19 -34 c-11 -19
-21 -36 -24 -39 -3 -3 -18 -23 -35 -45 -69 -94 -194 -205 -280 -251 -11 -6
-45 -24 -76 -41 -77 -43 -165 -70 -224 -69 l-50 1 0 889 0 889 75 27 c99 34
162 70 236 133 112 95 194 211 240 339 21 60 44 192 44 258 0 66 -23 198 -44
258 -68 188 -212 350 -390 437 -140 69 -331 98 -466 71z m264 -1542 c3 -9 6
-404 6 -879 0 -813 -1 -865 -17 -873 -18 -9 -200 -8 -209 1 -7 7 -5 1737 2
1749 3 5 22 7 43 4 28 -4 111 2 162 13 4 0 10 -6 13 -15z m-266 -1928 c9 -5
12 -62 12 -221 0 -117 -3 -220 -6 -229 -5 -13 -23 -16 -88 -16 -50 0 -87 5
-94 12 -15 15 -17 420 -3 447 8 15 23 18 88 16 43 0 84 -4 91 -9z m262 -6 c11
-16 14 -418 4 -444 -5 -13 -24 -16 -109 -16 -59 0 -107 4 -110 10 -11 18 -7
453 4 459 5 4 53 6 106 6 74 0 98 -3 105 -15z m179 6 c8 -5 11 -74 11 -225 0
-176 -3 -221 -14 -230 -9 -7 -38 -11 -73 -9 l-58 3 -3 225 c-1 123 -1 229 2
235 4 12 116 13 135 1z m-435 -642 c3 -9 6 -122 6 -253 0 -171 -3 -240 -12
-249 -7 -7 -42 -12 -88 -12 -46 0 -81 5 -88 12 -9 9 -12 78 -12 249 0 131 3
244 6 253 5 13 23 16 94 16 71 0 89 -3 94 -16z m260 0 c3 -9 6 -123 6 -254 0
-197 -3 -240 -15 -250 -15 -12 -197 -11 -210 1 -8 9 -8 496 0 509 3 6 52 10
110 10 85 0 104 -3 109 -16z m174 4 c19 -19 17 -491 -2 -507 -9 -7 -38 -11
-73 -9 l-58 3 -3 263 -2 262 63 0 c36 0 68 -5 75 -12z m-430 -973 c1 -159 0
-300 -3 -312 -5 -22 -10 -23 -94 -23 -72 0 -90 3 -95 16 -8 21 -8 578 0 599 5
13 21 15 98 13 l91 -3 3 -290z m260 0 c1 -159 0 -300 -3 -312 -5 -22 -10 -23
-110 -23 -57 0 -107 4 -110 10 -4 7 -8 408 -5 603 0 16 10 17 113 15 l112 -3
3 -290z m180 -9 c2 -217 -1 -302 -9 -313 -9 -10 -30 -13 -73 -11 l-61 3 -3
313 -2 313 72 -3 73 -3 3 -299z m-444 -502 c3 -9 6 -45 6 -80 0 -65 14 -86 26
-38 4 14 4 42 1 63 -8 66 0 71 117 71 119 0 116 2 116 -91 0 -57 11 -77 24
-43 3 9 6 42 6 75 l0 59 65 0 c76 0 85 -10 85 -92 1 -133 56 -267 157 -381
l33 -37 -2 -593 -3 -592 -35 -5 c-30 -4 -38 -12 -66 -65 -67 -127 -200 -223
-340 -247 -189 -31 -393 74 -479 248 -25 49 -35 60 -60 64 l-30 5 0 606 0 606
38 47 c75 90 108 174 122 301 3 33 13 77 22 98 l16 37 87 0 c71 0 89 -3 94
-16z m-469 -617 c31 -45 15 -106 -35 -132 -56 -29 -124 15 -124 79 0 84 112
120 159 53z m-11 -413 c38 -39 36 -93 -5 -128 -35 -30 -58 -32 -98 -11 -40 20
-57 66 -41 105 26 64 97 80 144 34z m-3 -423 c51 -52 31 -130 -38 -147 -39
-10 -76 7 -97 47 -17 32 -18 40 -6 68 25 63 94 78 141 32z"/>
<path d="M19127 24659 c-31 -24 -57 -68 -57 -98 0 -34 31 -87 60 -105 16 -9
47 -16 70 -16 36 0 48 6 76 36 29 30 34 43 34 82 0 26 -7 56 -15 66 -42 56
-118 72 -168 35z"/>
<path d="M19761 24346 c-28 -16 -50 -52 -51 -84 0 -35 52 -82 90 -82 41 0 90
47 90 87 0 31 -24 65 -57 82 -28 14 -42 13 -72 -3z"/>
<path d="M18839 24227 c-71 -38 -119 -128 -105 -199 16 -86 111 -168 193 -168
71 0 151 53 179 119 70 166 -108 331 -267 248z"/>
<path d="M20520 24219 c-45 -14 -97 -53 -121 -92 -85 -142 57 -330 213 -283
65 19 103 49 127 99 72 148 -66 320 -219 276z"/>
<path d="M30510 24153 c-362 -15 -762 -163 -1078 -401 -214 -159 -423 -407
-545 -643 -96 -185 -165 -386 -204 -593 -22 -116 -25 -531 -5 -646 116 -657
517 -1195 1093 -1469 293 -139 536 -194 864 -194 210 0 340 16 515 64 688 189
1211 714 1394 1399 52 192 60 260 60 505 1 258 -10 345 -70 555 -155 541 -540
995 -1049 1236 -301 142 -609 201 -975 187z m335 -363 c72 -11 155 -27 185
-35 30 -9 69 -20 85 -24 52 -14 179 -68 258 -109 378 -198 661 -528 800 -932
142 -413 111 -880 -82 -1270 -62 -123 -126 -221 -215 -329 -69 -81 -217 -225
-270 -260 -13 -9 -57 -38 -97 -65 -256 -170 -579 -266 -902 -266 -552 0 -1070
275 -1372 729 -263 397 -346 863 -235 1326 105 438 422 845 824 1056 180 95
367 156 541 179 50 6 97 13 105 15 54 10 262 2 375 -15z"/>
<path d="M30455 23469 c-246 -24 -527 -148 -717 -318 -267 -237 -415 -531
-448 -884 -50 -545 248 -1068 745 -1306 316 -152 690 -171 1028 -51 32 11 66
25 75 30 9 5 46 23 80 40 102 48 219 136 328 244 187 188 299 396 361 671 26
119 24 405 -5 535 -111 497 -476 879 -961 1004 -166 42 -308 53 -486 35z m440
-295 c116 -30 236 -85 338 -154 78 -53 208 -183 271 -271 57 -80 120 -220 151
-339 24 -92 28 -123 28 -255 0 -129 -4 -165 -27 -255 -90 -360 -370 -653 -722
-755 -332 -97 -669 -34 -942 174 -168 127 -304 321 -361 512 -44 150 -46 164
-46 324 0 165 8 214 56 352 125 365 471 643 864 694 104 13 280 1 390 -27z"/>
<path d="M30730 22816 c0 -8 5 -18 10 -21 12 -7 13 -45 2 -45 -11 0 -37 30
-45 53 -4 9 -11 17 -17 17 -21 0 -22 -32 -1 -81 16 -39 18 -56 10 -70 -5 -11
-9 -37 -7 -57 2 -31 9 -40 38 -54 24 -12 48 -16 77 -12 59 7 96 -14 126 -71
19 -39 164 -254 187 -280 10 -11 35 -54 56 -95 41 -81 70 -120 90 -120 38 0
52 255 19 370 -52 185 -181 343 -342 421 -112 54 -203 74 -203 45z"/>
<path d="M30395 22792 c-6 -5 -28 -14 -50 -20 -22 -6 -71 -35 -110 -64 -117
-89 -196 -205 -241 -354 -25 -82 -25 -267 0 -348 40 -134 104 -235 171 -271
l37 -19 20 24 c11 14 28 35 38 47 34 40 140 207 140 221 0 32 -53 167 -85 215
-42 64 -53 119 -32 169 12 28 27 41 70 62 31 14 62 26 70 26 31 0 67 40 67 75
0 30 -18 87 -39 125 -5 9 -12 39 -16 68 -7 50 -19 63 -40 44z"/>
<path d="M30692 22498 c-17 -17 -15 -28 7 -52 39 -42 100 -173 120 -256 54
-226 63 -300 36 -300 -14 0 -75 172 -75 212 0 29 -33 140 -53 178 l-18 35 8
-50 c4 -27 8 -95 8 -150 0 -88 -3 -109 -29 -170 -16 -39 -44 -91 -62 -117 -18
-25 -30 -49 -27 -52 13 -13 122 -5 187 14 99 28 116 47 116 130 0 66 -19 219
-41 335 -15 75 -59 173 -90 201 -47 42 -74 55 -87 42z"/>
<path d="M19675 23960 c-57 -10 -103 -31 -187 -88 -146 -98 -246 -146 -408
-193 -63 -18 -110 -23 -285 -28 -248 -7 -233 5 -184 -147 124 -390 424 -698
817 -839 147 -53 245 -68 432 -69 193 -1 274 11 435 66 205 69 343 156 505
318 153 152 239 284 309 473 24 64 71 238 71 262 0 13 -36 2 -92 -29 -110 -60
-259 -116 -311 -116 -21 0 -70 -7 -108 -16 -51 -11 -106 -15 -193 -13 l-123 4
-109 54 c-97 48 -120 65 -204 150 -191 193 -256 230 -365 211z"/>
<path d="M15817 19002 c-35 -37 -36 -84 -2 -117 56 -57 145 -19 145 61 0 77
-89 112 -143 56z"/>
<path d="M15844 18720 c-31 -12 -54 -49 -54 -86 0 -36 47 -84 81 -84 90 0 126
125 48 165 -31 17 -44 18 -75 5z"/>
<path d="M15817 18385 c-45 -43 -34 -110 23 -140 86 -45 165 71 95 140 -33 34
-81 33 -118 0z"/>
<path d="M15820 18052 c-57 -58 -25 -144 55 -144 105 0 117 152 13 169 -32 5
-41 1 -68 -25z"/>
<path d="M29162 17894 c-92 -46 -152 -143 -152 -246 0 -42 -5 -56 -35 -90 -36
-43 -68 -123 -70 -173 -1 -69 24 -162 61 -225 44 -75 36 -65 111 -155 32 -38
67 -81 78 -95 36 -43 147 -150 156 -150 5 0 9 -7 9 -15 0 -8 4 -15 9 -15 9 0
103 -83 192 -170 59 -58 229 -265 229 -279 0 -4 -42 -20 -92 -35 -51 -15 -111
-34 -133 -43 -69 -27 -79 -31 -115 -44 -136 -48 -429 -207 -591 -320 -53 -36
-118 -79 -145 -95 -122 -71 -284 -209 -284 -243 0 -9 -6 -28 -14 -42 -17 -34
-12 -92 11 -124 35 -48 148 -95 273 -113 51 -8 432 -9 470 -1 85 17 329 106
380 139 8 5 32 19 52 30 88 48 290 260 323 341 38 93 55 217 35 255 -21 38 -7
50 61 57 107 12 380 7 489 -7 375 -51 590 -157 790 -391 55 -64 111 -176 149
-296 16 -51 14 -227 -4 -294 -52 -200 -199 -363 -422 -466 -116 -54 -116 -54
-208 -84 -126 -41 -135 -43 -230 -60 -194 -33 -362 -36 -585 -10 -306 36 -699
172 -1025 355 -33 18 -74 41 -91 51 -48 26 -194 118 -244 153 -25 17 -52 36
-61 41 -46 29 -107 70 -131 89 -14 12 -39 31 -55 42 -15 12 -59 45 -96 73 -37
28 -70 51 -73 51 -3 0 -17 11 -32 25 -15 14 -30 25 -35 25 -4 0 -33 16 -63 35
-30 19 -56 35 -58 35 -3 0 -34 14 -71 31 -128 59 -315 95 -446 86 -198 -14
-358 -71 -544 -193 -172 -112 -340 -272 -510 -484 -90 -112 -246 -338 -298
-432 -14 -25 -36 -63 -49 -85 -56 -88 -264 -491 -317 -613 -13 -30 -39 -88
-58 -128 -18 -41 -33 -79 -33 -86 0 -6 -4 -16 -9 -21 -6 -8 -58 -131 -121
-290 -4 -11 -13 -33 -20 -50 -6 -16 -18 -50 -26 -75 -8 -25 -19 -54 -24 -65
-27 -64 -127 -361 -189 -565 -23 -74 -45 -148 -51 -165 -5 -16 -12 -47 -16
-67 l-6 -38 146 0 145 0 10 38 c5 20 17 69 26 107 23 95 119 401 144 460 5 11
19 48 31 82 18 50 37 78 94 136 156 160 286 236 356 207 53 -22 51 -56 -12
-209 -48 -116 -75 -175 -178 -396 -115 -248 -118 -358 -9 -412 37 -19 61 -22
154 -23 177 0 315 35 558 143 51 23 57 29 57 56 0 39 -10 39 -88 1 -220 -106
-357 -134 -448 -90 -96 47 -84 127 68 435 68 139 138 304 157 370 42 156 42
183 -3 232 -30 33 -39 37 -94 41 -126 9 -332 -91 -475 -230 -52 -51 -55 -37
-11 60 13 29 24 56 24 61 0 10 47 55 464 446 145 135 415 407 482 485 22 25
44 50 49 56 201 220 420 517 488 664 56 120 71 176 71 275 1 145 -40 195 -168
203 -73 4 -218 -19 -240 -40 -19 -16 -26 -8 -8 10 27 27 103 62 170 78 191 45
444 -29 714 -209 105 -70 161 -109 168 -117 3 -3 49 -39 102 -78 53 -40 102
-80 108 -88 7 -7 18 -14 25 -14 8 0 15 -4 17 -8 5 -13 280 -202 293 -202 4 0
21 -11 39 -25 18 -14 36 -25 39 -25 4 0 31 -15 60 -34 131 -84 490 -244 616
-275 20 -5 61 -16 91 -25 62 -18 158 -38 270 -58 92 -16 484 -16 555 -1 28 7
79 17 115 23 36 7 83 18 105 25 22 7 60 19 85 26 67 20 241 93 307 130 32 18
75 41 96 52 75 36 206 136 292 222 195 195 307 450 308 700 1 307 -207 591
-542 742 -236 106 -471 153 -766 154 -93 0 -199 -4 -235 -10 -36 -5 -88 -12
-115 -16 l-51 -5 -43 72 c-47 81 -101 160 -134 198 -12 14 -39 48 -61 75 -22
28 -85 95 -142 150 -57 55 -145 141 -196 190 -159 155 -201 206 -248 302 -29
58 -30 63 -17 95 8 18 22 42 30 53 14 19 16 19 34 3 11 -10 32 -17 49 -17 16
1 54 -6 84 -15 34 -10 71 -14 95 -10 71 10 75 13 75 50 l0 34 59 0 c72 0 108
22 98 62 -8 31 -45 48 -107 48 l-50 0 0 65 0 65 58 0 c64 0 92 18 92 57 0 37
-29 51 -107 52 -42 1 -43 2 -43 36 0 45 -20 55 -107 55 -54 0 -80 -6 -121 -26z
m728 -1891 c0 -14 -17 -60 -37 -102 -49 -98 -203 -258 -301 -313 -21 -11 -41
-24 -47 -28 -16 -12 -184 -78 -255 -99 -140 -42 -235 -54 -400 -48 -85 3 -177
11 -205 17 -71 15 -129 36 -133 48 -4 13 109 103 205 165 114 73 293 161 421
208 168 61 343 113 434 129 27 5 51 11 55 13 5 3 31 8 58 12 28 3 68 10 90 15
22 4 57 8 78 9 34 1 37 -1 37 -26z m-2768 -730 c15 -14 18 -32 18 -121 0 -235
-68 -432 -244 -706 -63 -98 -193 -276 -216 -296 -3 -3 -46 -52 -97 -110 -89
-103 -624 -642 -643 -648 -17 -6 -11 13 40 124 28 60 55 118 59 129 5 11 21
46 35 78 14 32 26 60 26 62 0 2 13 33 29 67 15 35 39 86 51 113 210 466 435
873 599 1085 19 25 69 79 110 120 106 106 189 143 233 103z"/>
<path d="M15821 17724 c-60 -51 -25 -148 53 -148 79 0 118 93 61 149 -32 33
-75 32 -114 -1z"/>
<path d="M15815 17405 c-67 -66 6 -176 94 -139 40 17 63 65 49 106 -21 60 -99
78 -143 33z"/>
<path d="M15812 17119 c-18 -5 -50 -27 -71 -48 -86 -86 -71 -226 31 -297 21
-15 38 -30 38 -35 0 -14 -31 -39 -53 -43 -316 -57 -446 -108 -652 -254 -138
-98 -302 -285 -380 -433 -49 -94 -99 -228 -127 -339 -20 -83 -23 -119 -23
-290 1 -223 17 -318 82 -483 74 -188 151 -305 298 -453 193 -194 402 -309 665
-364 135 -29 379 -32 512 -6 267 51 496 173 689 365 188 190 293 378 361 649
30 120 33 446 5 562 -86 354 -273 630 -555 822 -177 120 -364 190 -585 218
-61 7 -107 29 -107 50 0 3 20 20 43 37 90 63 112 178 51 266 -16 22 -43 49
-61 59 -38 23 -116 31 -161 17z m113 -73 c67 -28 93 -111 56 -172 -42 -68
-132 -79 -190 -22 -59 58 -45 150 29 190 42 22 60 22 105 4z m0 -630 c56 -66
111 -124 123 -129 20 -9 22 -17 22 -99 0 -52 -4 -88 -10 -88 -11 0 -19 8 -107
116 -157 191 -201 238 -204 217 -1 -4 0 -69 1 -143 2 -140 6 -155 47 -171 45
-17 23 -29 -52 -29 -60 0 -75 3 -75 15 0 8 9 15 19 15 11 0 23 4 26 10 9 14
10 345 1 359 -5 7 -19 16 -33 22 -45 17 -14 30 65 27 l76 -3 101 -119z m-669
-337 c22 -17 71 -61 109 -97 39 -37 89 -80 110 -97 58 -43 137 -118 144 -136
6 -16 107 -109 149 -136 25 -17 28 -31 8 -39 -8 -3 -25 5 -38 18 -22 21 -74
67 -125 111 -20 18 -22 17 -57 -13 -20 -18 -36 -36 -36 -41 0 -23 103 -167
123 -173 l22 -5 -22 -22 c-18 -19 -24 -20 -37 -9 -9 7 -16 18 -16 24 0 18 -99
166 -111 166 -6 0 -16 15 -24 33 -8 17 -30 54 -49 81 -20 27 -36 54 -36 59 0
5 -15 26 -32 47 -18 21 -48 69 -67 106 -19 38 -43 81 -53 96 -19 28 -24 58 -9
58 4 0 26 -14 47 -31z m721 -520 c52 -19 102 -61 135 -112 31 -48 33 -58 35
-146 2 -70 7 -101 20 -120 10 -14 29 -47 43 -74 83 -158 125 -235 140 -257 10
-14 43 -74 75 -135 32 -60 68 -125 82 -143 23 -31 24 -52 2 -52 -16 0 -76 47
-154 120 -39 36 -102 90 -139 120 -38 30 -121 106 -185 168 -104 100 -119 112
-152 112 -92 0 -189 63 -233 152 -21 42 -26 66 -26 126 l0 75 58 56 c31 31 77
73 101 94 43 37 45 38 107 32 35 -3 76 -10 91 -16z"/>
<path d="M15844 15430 c-31 -12 -72 -66 -80 -105 -7 -41 18 -99 56 -127 86
-63 210 0 210 107 0 93 -99 160 -186 125z"/>
<path d="M19485 16660 c-11 -4 -54 -16 -95 -25 -107 -24 -153 -40 -255 -91
-182 -90 -305 -202 -411 -374 -158 -256 -194 -485 -122 -780 40 -165 134 -381
257 -588 34 -57 61 -106 61 -110 0 -3 -29 -51 -63 -106 -116 -183 -172 -282
-263 -466 -83 -166 -194 -400 -194 -408 0 -4 -9 -18 -19 -31 l-18 -23 -59 20
c-80 28 -260 68 -365 81 -212 27 -481 -1 -654 -69 -140 -54 -316 -168 -387
-250 -82 -93 -151 -260 -163 -393 -25 -269 187 -574 500 -721 33 -16 68 -32
78 -37 58 -30 235 -76 361 -94 216 -31 504 -11 796 54 52 11 170 49 250 80 56
22 65 26 135 57 57 25 193 107 239 143 30 24 42 29 52 20 8 -6 14 -17 14 -23
0 -7 11 -34 23 -62 13 -27 32 -78 41 -114 l18 -64 -24 -21 c-14 -11 -53 -40
-87 -64 -80 -58 -218 -202 -281 -295 -44 -67 -62 -96 -120 -201 -26 -47 -79
-179 -101 -253 -12 -37 -24 -71 -29 -75 -19 -21 -216 59 -302 122 -68 50 -195
189 -241 264 -42 67 -52 77 -77 77 -39 0 -43 -10 -18 -56 62 -118 201 -276
298 -341 98 -65 228 -123 279 -123 42 -1 45 -13 21 -116 -12 -55 -25 -117 -30
-139 -10 -43 -33 -254 -50 -455 -13 -153 -13 -564 -1 -680 5 -47 12 -123 15
-170 4 -47 11 -137 17 -200 5 -63 14 -194 18 -290 8 -187 8 -181 -48 -315 -5
-11 -26 -63 -46 -115 -21 -52 -43 -108 -50 -125 -7 -16 -22 -57 -34 -90 -13
-33 -30 -78 -38 -100 -9 -22 -19 -49 -23 -60 -4 -11 -19 -49 -33 -85 -14 -36
-46 -121 -72 -190 -26 -69 -52 -138 -58 -155 -7 -16 -11 -33 -9 -37 1 -5 -2
-8 -8 -8 -6 0 -9 -3 -9 -7 3 -16 -14 -73 -21 -73 -13 0 -19 -40 -7 -40 7 0 4
-5 -6 -11 -9 -6 -15 -14 -12 -20 4 -5 2 -9 -4 -9 -5 0 -8 -9 -6 -20 2 -11 0
-20 -6 -20 -5 0 -9 -9 -9 -19 0 -11 -7 -27 -16 -35 -9 -10 -11 -16 -4 -16 7 0
5 -6 -4 -16 -19 -19 -21 -28 -3 -18 6 5 0 -8 -16 -28 -17 -23 -23 -39 -16 -43
7 -5 5 -13 -5 -24 -9 -10 -13 -21 -9 -24 3 -4 1 -7 -5 -7 -6 0 -9 -11 -6 -26
3 -16 1 -23 -6 -19 -9 6 -14 -10 -13 -42 1 -7 -4 -13 -9 -13 -6 0 -7 -7 -4
-16 4 -10 2 -13 -6 -8 -7 5 -9 -1 -6 -19 3 -15 2 -24 -2 -22 -10 6 -35 -54
-27 -62 4 -3 -1 -12 -11 -20 -10 -9 -11 -12 -2 -7 12 6 12 4 -1 -12 -9 -10
-14 -25 -12 -31 3 -7 0 -13 -7 -13 -6 0 -8 -4 -5 -10 3 -5 1 -10 -5 -10 -6 0
-8 -4 -5 -10 3 -5 -1 -23 -10 -40 -9 -17 -13 -35 -10 -40 3 -6 1 -10 -5 -10
-6 0 -8 -4 -5 -10 3 -5 2 -10 -2 -10 -8 0 -11 -14 -15 -57 -1 -6 -8 -8 -17 -5
-14 5 -14 3 -2 -11 7 -9 9 -17 5 -17 -12 0 -36 -78 -29 -91 4 -5 -1 -9 -11 -9
-11 0 -15 -6 -11 -20 3 -11 1 -20 -4 -20 -4 0 -6 -6 -3 -14 3 -8 0 -17 -5 -21
-6 -3 -9 -11 -6 -16 4 -5 1 -9 -4 -9 -6 0 -10 -3 -10 -8 3 -18 -2 -33 -9 -28
-5 3 -8 -5 -7 -17 1 -12 -5 -28 -14 -35 -9 -8 -11 -11 -4 -8 6 4 14 2 18 -4 3
-5 -1 -10 -9 -10 -9 0 -18 -13 -22 -35 -3 -19 -11 -35 -18 -35 -6 0 -4 -5 4
-10 8 -5 10 -10 3 -10 -6 0 -10 -11 -8 -25 1 -18 -1 -22 -9 -16 -12 10 -12 8
-17 -46 -1 -10 -6 -24 -11 -30 -6 -7 -8 -19 -4 -28 3 -8 2 -14 -2 -14 -19 3
-25 -2 -12 -11 13 -9 13 -10 0 -10 -8 0 -16 -10 -16 -22 -3 -40 -10 -59 -25
-69 -11 -7 -11 -9 0 -9 11 0 11 -3 1 -15 -6 -8 -8 -20 -4 -26 4 -8 3 -9 -4 -5
-11 7 -15 -7 -15 -57 0 -13 -3 -15 -12 -7 -10 8 -12 3 -10 -21 2 -19 -3 -33
-11 -36 -8 -3 -11 -10 -8 -15 4 -6 0 -14 -7 -19 -12 -7 -12 -9 0 -9 11 0 10
-4 -5 -16 -10 -8 -13 -13 -6 -9 6 3 12 2 12 -4 0 -5 -4 -11 -9 -13 -6 -1 -13
-19 -16 -38 -3 -19 -11 -38 -18 -42 -7 -4 -8 -8 -3 -8 5 0 3 -7 -4 -15 -10
-12 -10 -15 1 -15 9 0 10 -3 4 -8 -17 -12 -41 -47 -27 -38 6 4 12 3 12 -3 0
-5 -8 -15 -17 -20 -14 -8 -15 -10 -3 -11 12 0 12 -2 2 -9 -7 -4 -14 -18 -15
-29 -1 -12 -5 -22 -10 -22 -4 0 -5 -5 -2 -10 4 -6 1 -18 -7 -27 -11 -14 -11
-16 2 -8 13 8 13 7 0 -9 -8 -10 -15 -24 -15 -30 -1 -13 -13 -44 -26 -70 -8
-13 -7 -16 1 -11 6 3 2 -9 -9 -29 -14 -25 -17 -36 -8 -40 9 -3 9 -5 0 -5 -7
-1 -10 -8 -6 -18 4 -10 2 -14 -4 -10 -6 4 -13 -2 -16 -13 -3 -12 -1 -17 5 -14
12 8 -13 -38 -27 -48 -6 -5 -5 -8 4 -8 10 0 11 -3 2 -14 -12 -15 -20 -40 -28
-93 -3 -20 -9 -30 -16 -26 -6 4 -8 0 -4 -10 3 -9 2 -19 -4 -22 -5 -4 -7 -11
-3 -16 3 -5 0 -16 -6 -24 -6 -8 -9 -19 -5 -25 3 -5 -2 -10 -12 -10 -10 0 -14
-4 -8 -8 14 -10 17 -32 4 -32 -5 0 -8 -4 -4 -9 3 -6 -3 -14 -12 -20 -12 -7
-13 -10 -4 -11 10 0 11 -3 2 -13 -6 -8 -8 -17 -4 -20 3 -4 1 -7 -6 -7 -7 0
-10 -4 -6 -9 3 -5 1 -12 -4 -15 -5 -4 -8 -17 -6 -31 1 -14 -2 -25 -7 -25 -5 0
-6 -5 -3 -10 4 -6 1 -18 -6 -26 -6 -8 -9 -17 -6 -21 4 -3 2 -12 -5 -20 -6 -8
-12 -24 -12 -36 -1 -12 -4 -26 -7 -32 -3 -5 -5 -17 -4 -25 0 -8 -6 -21 -15
-28 -8 -8 -9 -11 -2 -7 6 3 12 1 12 -4 0 -6 -5 -11 -11 -11 -5 0 -7 -5 -4 -10
4 -6 1 -18 -7 -27 -11 -14 -11 -16 2 -8 9 5 7 -1 -5 -15 -11 -13 -15 -20 -9
-17 7 4 14 0 17 -8 4 -9 1 -12 -9 -8 -10 3 -12 0 -8 -10 3 -8 1 -18 -4 -21 -5
-3 -8 -21 -5 -41 2 -21 -1 -35 -7 -35 -6 0 -8 5 -4 12 5 7 3 8 -5 3 -9 -5 -10
-10 -2 -18 13 -13 15 -31 3 -23 -11 6 -9 -25 3 -43 6 -10 4 -12 -5 -6 -10 6
-12 4 -7 -7 3 -9 0 -24 -8 -34 -9 -13 -10 -23 -4 -31 7 -7 6 -13 -1 -18 -7 -4
-7 -12 0 -25 7 -13 6 -21 -5 -30 -8 -7 -12 -17 -9 -22 9 -14 11 -97 2 -92 -4
2 -9 0 -13 -6 -3 -5 -2 -10 3 -10 5 0 12 -11 14 -24 3 -17 1 -23 -8 -19 -13 5
-14 -14 -1 -34 5 -8 3 -13 -5 -13 -9 0 -9 -3 2 -10 13 -9 13 -10 0 -10 -9 0
-11 -3 -5 -8 16 -11 18 -44 3 -53 -10 -7 -10 -9 0 -9 7 0 12 -14 12 -36 0 -19
5 -45 11 -56 7 -14 8 -18 0 -14 -6 4 -4 -8 4 -27 8 -19 11 -37 8 -41 -4 -3 0
-6 8 -6 11 0 11 -2 -1 -10 -10 -6 -11 -10 -2 -10 6 0 12 -9 12 -21 0 -13 4
-18 12 -13 7 5 9 2 5 -9 -3 -9 1 -18 10 -21 13 -5 13 -9 2 -23 -10 -12 -10
-14 -1 -9 7 4 12 1 12 -9 0 -9 5 -13 10 -10 6 3 10 -3 10 -14 0 -12 5 -21 10
-21 6 0 10 -8 10 -17 0 -16 2 -16 11 -3 9 12 10 11 6 -7 -3 -12 -2 -22 2 -21
19 2 31 -3 28 -14 -1 -7 3 -12 8 -13 6 0 23 -13 39 -28 16 -15 37 -27 47 -27
10 0 24 -6 31 -12 7 -7 22 -15 33 -16 11 -2 26 -9 34 -15 18 -15 94 -17 103
-3 5 7 8 6 9 -4 0 -10 3 -8 9 5 7 16 9 17 9 3 1 -19 33 -17 58 4 20 16 43 19
44 5 0 -7 5 -1 10 13 8 20 12 22 19 10 8 -12 10 -12 16 3 5 14 9 15 20 6 11
-9 14 -8 14 4 0 10 7 15 19 12 11 -2 22 3 25 11 3 9 10 12 16 9 5 -3 10 -1 10
5 0 10 48 35 63 32 4 -1 7 6 7 16 0 14 2 15 10 2 8 -13 10 -12 10 4 0 11 5 16
14 13 9 -4 16 3 20 16 3 12 8 18 12 14 7 -7 44 30 44 45 0 4 3 7 8 7 21 -4 32
2 26 13 -5 8 -2 9 9 5 9 -3 16 -3 16 1 -4 22 4 34 34 52 17 11 29 20 25 20 -8
0 7 20 64 84 21 22 38 46 38 53 0 7 6 16 14 20 14 8 16 12 16 32 0 5 8 17 17
27 10 9 18 23 19 31 2 8 10 23 18 32 9 10 16 25 16 34 0 9 5 19 10 22 6 4 7
11 4 17 -4 6 -2 8 4 4 6 -3 13 -2 17 4 3 5 0 10 -7 10 -8 0 -6 5 5 11 9 6 15
14 12 20 -4 5 -1 9 6 9 7 0 9 3 6 7 -4 3 1 12 11 20 9 8 11 11 3 8 -9 -6 -9
-1 3 17 9 14 13 28 9 31 -3 4 -1 7 5 7 7 0 12 7 12 15 0 8 4 23 9 33 5 9 12
25 15 35 4 11 11 15 18 11 10 -6 10 -4 0 8 -9 11 -9 17 -2 20 10 3 16 21 19
51 1 5 6 5 12 1 8 -4 8 0 0 15 -8 14 -8 21 -1 21 5 0 10 9 10 19 0 11 5 23 11
26 6 4 8 13 5 20 -2 7 4 26 14 43 12 19 15 34 10 37 -6 4 -4 12 5 21 8 9 15
28 15 44 0 16 4 31 8 34 5 3 9 19 10 36 0 17 5 37 11 44 6 7 8 16 4 19 -3 4
-1 7 6 7 7 0 9 4 6 10 -3 5 -1 19 5 30 8 15 8 20 -2 20 -10 0 -10 2 -1 8 7 5
14 20 15 35 1 15 6 27 11 27 5 0 4 7 -3 15 -10 12 -9 15 6 15 16 0 17 2 4 10
-12 7 -12 10 -1 10 7 0 11 6 7 15 -3 8 0 15 6 15 7 0 7 4 -1 14 -9 10 -9 16
-1 21 6 4 9 13 6 20 -2 7 2 16 11 19 12 5 13 9 3 21 -7 8 -8 15 -3 15 5 0 9
18 9 40 -1 30 2 39 13 35 11 -4 11 -2 2 9 -9 11 -9 16 0 21 8 6 7 10 -2 16
-12 7 -12 9 0 9 7 0 11 6 8 12 -2 7 -1 22 3 33 4 11 3 25 -2 32 -6 7 -5 14 3
19 8 5 9 3 4 -6 -5 -8 -4 -11 2 -7 11 7 11 36 -2 56 -6 10 -4 12 5 6 10 -6 12
-1 8 19 -3 14 -1 26 4 26 6 0 7 7 4 16 -3 8 -1 25 5 36 8 16 8 19 -1 13 -9 -5
-9 -3 -2 11 5 11 7 25 4 33 -3 9 0 11 8 6 9 -6 9 -3 1 13 -13 24 -14 35 -3 28
5 -3 8 15 7 40 -1 25 2 47 7 50 4 3 4 14 -2 24 -7 13 -7 21 2 26 7 5 8 3 3 -6
-6 -9 -4 -11 5 -5 10 6 9 11 -5 22 -13 8 -14 13 -5 13 7 0 10 3 7 6 -3 4 -2
16 4 27 7 12 7 17 1 13 -5 -3 -12 1 -15 9 -4 10 -1 12 10 8 13 -5 14 -3 3 17
-11 20 -10 22 4 17 12 -5 15 -3 9 6 -12 18 -11 87 2 87 5 0 4 4 -4 9 -10 7
-11 13 -1 31 8 15 8 20 1 16 -14 -9 -14 0 -1 24 7 13 7 21 0 25 -8 5 -7 11 1
21 9 11 9 14 0 14 -9 0 -9 5 0 22 9 16 9 23 1 26 -9 3 -9 9 -2 23 8 13 7 19 0
19 -7 0 -8 6 0 19 7 13 7 22 0 26 -6 4 -7 13 -2 23 5 9 6 28 2 42 -4 14 -3 35
1 48 6 14 5 22 -2 22 -8 0 -7 5 1 15 10 12 10 15 0 15 -10 0 -10 3 -1 14 7 8
8 17 3 20 -10 6 -9 36 2 54 4 7 2 12 -4 12 -7 0 -8 6 0 19 7 14 7 22 0 26 -8
5 -7 11 1 21 9 11 9 14 0 14 -7 0 -9 5 -6 11 11 17 13 59 3 59 -5 0 -4 9 2 20
8 15 8 20 -2 20 -9 0 -9 3 2 10 8 5 10 10 5 10 -12 0 -13 40 -1 58 4 7 2 12
-4 12 -6 0 -8 5 -3 13 11 18 13 37 3 37 -5 0 -5 14 0 30 5 19 5 30 -1 30 -6 0
-5 8 1 20 6 12 7 20 1 20 -10 0 -9 19 2 38 5 7 3 12 -3 12 -7 0 -8 6 0 19 7
14 7 22 0 26 -8 5 -7 11 1 21 9 11 9 14 0 14 -8 0 -9 5 -1 19 7 14 7 22 0 26
-8 5 -7 11 1 21 9 11 9 14 0 14 -8 0 -9 5 -1 19 7 14 7 22 0 26 -8 5 -7 11 1
21 9 11 9 14 0 14 -7 0 -9 5 -6 11 11 17 13 59 3 59 -5 0 -4 9 2 20 8 15 8 20
-2 20 -9 0 -9 3 2 10 8 5 10 10 5 10 -12 0 -13 40 -1 58 4 7 2 12 -4 12 -6 0
-8 5 -3 13 11 18 13 37 3 37 -5 0 -5 14 0 30 5 19 5 30 -1 30 -6 0 -5 8 1 20
8 15 8 20 -2 20 -8 0 -9 3 -3 8 11 8 15 52 5 52 -4 0 -7 7 -7 15 0 8 4 15 8
15 4 0 3 15 -1 34 -5 22 -3 39 3 45 8 8 8 11 0 11 -11 0 -10 41 3 61 4 7 3 10
-3 6 -7 -5 -10 8 -7 36 1 23 -1 107 -6 187 -20 308 -23 287 70 520 44 113 85
214 90 225 5 11 28 67 50 125 23 58 45 114 50 125 4 11 20 52 35 90 15 39 31
79 36 90 4 11 31 79 59 150 81 205 141 357 155 390 7 17 27 68 45 115 17 47
38 99 45 115 7 17 25 62 40 100 15 39 31 79 36 90 5 11 43 108 84 215 42 107
79 204 84 215 5 11 26 63 46 115 21 52 43 109 50 125 6 17 18 46 25 65 6 19
16 44 20 55 4 11 20 52 35 90 15 39 31 79 35 90 5 11 20 52 35 90 15 39 31 79
36 90 5 11 27 67 49 125 22 58 45 114 49 125 5 11 19 47 31 80 13 33 29 74 35
90 7 17 30 73 50 125 21 52 41 104 46 115 5 11 13 32 19 48 l10 27 132 0 c190
0 391 37 508 94 233 114 373 293 425 544 20 99 19 168 -5 238 -42 120 -106
180 -220 204 -72 15 -123 4 -213 -47 -94 -53 -117 -72 -117 -98 0 -28 15 -35
55 -23 129 36 229 -56 265 -246 43 -231 -92 -438 -329 -503 -101 -28 -394 -24
-424 6 -7 7 83 241 148 386 51 113 65 146 65 150 0 2 18 43 40 90 22 47 40 88
40 90 0 3 11 29 25 59 14 30 25 57 25 60 0 4 10 28 21 54 41 92 49 110 49 116
0 3 8 25 19 49 10 23 31 74 46 112 15 39 32 81 37 95 14 35 96 263 120 335 39
119 100 335 117 420 7 33 17 78 22 100 55 235 53 503 -4 675 -6 19 -15 39 -19
45 -4 5 -8 15 -8 22 0 20 -79 145 -119 187 -45 47 -124 106 -174 130 -59 27
-149 55 -179 56 -34 0 -34 2 -4 92 38 115 51 225 36 316 -37 234 -202 452
-424 562 -56 27 -134 58 -173 68 -40 10 -76 21 -80 25 -9 10 -294 7 -318 -3z
m160 -104 c126 -26 185 -52 290 -132 115 -86 199 -201 247 -338 40 -115 33
-338 -13 -428 -5 -10 -9 -25 -9 -33 0 -19 -29 -30 -140 -56 -98 -23 -258 -82
-312 -116 -44 -27 -59 -28 -96 -9 -36 19 -115 102 -140 146 -70 128 -76 341
-12 460 15 28 0 45 -33 36 -39 -9 -77 -142 -77 -266 0 -160 50 -279 162 -388
l60 -59 -42 -29 c-68 -47 -117 -92 -264 -237 -77 -76 -143 -134 -147 -130 -14
15 -126 239 -163 328 -66 156 -96 244 -122 360 -36 157 -19 430 33 536 106
217 356 365 623 368 47 1 117 -5 155 -13z m760 -1185 c80 -40 158 -109 207
-185 143 -221 111 -606 -102 -1245 -27 -81 -54 -161 -61 -177 -20 -49 -26 -65
-65 -169 -20 -55 -47 -122 -59 -150 -76 -171 -95 -215 -95 -220 0 -3 -16 -40
-35 -81 -19 -41 -35 -76 -35 -79 0 -2 -14 -34 -31 -72 -17 -37 -39 -86 -49
-108 -39 -88 -63 -141 -76 -170 -7 -16 -38 -88 -67 -160 l-54 -130 -159 -6
c-87 -3 -172 -11 -187 -18 -16 -6 -32 -9 -36 -7 -4 3 -13 31 -20 63 -20 88
-60 212 -87 270 -13 28 -24 60 -24 69 0 10 26 47 59 83 102 116 200 274 234
381 39 120 42 146 42 335 0 167 -3 201 -23 280 -13 50 -30 104 -38 122 -8 17
-14 36 -14 42 0 26 -127 291 -176 368 -19 29 -34 56 -34 58 0 3 -23 42 -51 87
-28 44 -59 95 -69 112 -9 17 -45 77 -79 134 -33 57 -61 113 -61 124 0 13 36
55 93 112 155 152 234 215 339 271 l59 32 67 -25 c57 -21 85 -24 182 -25 101
0 124 4 190 28 41 15 98 43 125 62 61 41 96 40 190 -6z m-1393 -813 c73 -109
163 -249 171 -268 4 -8 17 -31 28 -50 73 -119 189 -366 210 -445 4 -16 15 -55
23 -86 60 -215 60 -431 1 -589 -9 -25 -19 -54 -22 -65 -4 -11 -18 -40 -31 -65
-14 -25 -31 -57 -39 -72 -8 -16 -20 -28 -27 -28 -7 0 -38 37 -69 83 -79 115
-100 140 -197 237 -97 97 -173 162 -239 205 -25 16 -48 32 -51 35 -6 7 -66 44
-125 78 -22 12 -82 43 -133 67 -51 25 -91 48 -89 52 8 14 117 245 117 248 0
22 206 430 276 547 29 50 54 94 54 98 0 4 6 13 14 19 8 7 22 27 31 46 9 19 22
35 29 35 7 0 38 -37 68 -82z m-1260 -943 c158 -33 229 -58 397 -137 101 -48
103 -50 97 -79 -5 -24 -2 -29 14 -29 11 0 29 5 39 12 16 10 31 3 104 -49 47
-34 95 -66 107 -73 12 -6 29 -18 38 -25 255 -209 379 -336 497 -509 66 -98 65
-109 -20 -167 -38 -27 -83 -56 -100 -64 -16 -9 -37 -20 -45 -24 -32 -19 -152
-71 -178 -77 -15 -4 -31 -10 -37 -13 -28 -18 -231 -71 -365 -95 -199 -36 -456
-39 -645 -10 -187 29 -423 119 -549 209 -99 71 -218 214 -263 315 -6 14 -16
39 -23 55 -7 17 -15 78 -18 136 -6 142 20 236 94 341 50 71 66 87 111 119 23
16 48 35 55 41 26 24 93 60 165 90 120 48 375 64 525 33z m2043 -1396 c6 -9
-20 -81 -76 -214 -4 -11 -38 -94 -74 -185 -36 -91 -70 -174 -74 -185 -5 -11
-37 -90 -71 -175 -33 -85 -66 -166 -72 -180 -6 -14 -14 -34 -18 -45 -39 -98
-116 -288 -131 -322 -10 -24 -19 -46 -19 -49 0 -3 -7 -22 -16 -42 -21 -49 -26
-62 -69 -172 -20 -52 -42 -108 -49 -125 -7 -16 -18 -41 -24 -55 -6 -14 -38
-94 -71 -177 -34 -84 -89 -222 -122 -305 -34 -84 -70 -172 -80 -195 -11 -24
-19 -45 -19 -48 0 -5 -139 -349 -165 -410 -7 -16 -19 -49 -26 -72 -15 -51 -26
-55 -34 -10 -6 36 -38 404 -55 627 -14 186 -14 713 0 844 29 280 42 361 82
521 l13 50 90 6 c50 4 111 12 137 18 106 25 237 85 313 143 48 37 172 166 188
196 108 200 118 231 144 422 8 63 18 119 22 123 18 18 266 33 276 16z m-523
-126 c7 -77 -12 -222 -39 -303 -47 -143 -106 -228 -213 -308 -19 -15 -37 -29
-40 -32 -10 -10 -115 -58 -150 -69 -42 -13 -165 -19 -176 -9 -12 13 55 196
118 323 76 152 207 305 310 363 130 73 139 77 174 81 7 1 14 -19 16 -46z
m-662 -4053 c-1 -154 2 -285 5 -290 3 -6 0 -10 -7 -11 -7 0 -8 -2 -3 -5 7 -3
8 -199 5 -575 -3 -314 -1 -573 3 -576 4 -3 3 -11 -3 -18 -7 -8 -7 -16 -2 -19
6 -3 7 -20 2 -40 -4 -19 -6 -37 -3 -39 3 -4 4 -110 1 -232 0 -5 1 -21 1 -35 2
-58 -1 -75 -12 -89 -9 -12 -9 -13 1 -7 7 4 12 2 12 -6 0 -8 -6 -20 -12 -27 -9
-10 -9 -12 -1 -7 8 4 11 -1 10 -14 -1 -11 -5 -20 -9 -20 -4 0 -8 -5 -8 -11 0
-5 5 -7 11 -3 7 4 6 -3 -2 -17 -13 -26 -13 -27 4 -48 10 -12 9 -13 -2 -6 -11
6 -13 4 -8 -8 4 -10 1 -17 -6 -18 -9 0 -9 -2 0 -6 9 -3 10 -10 3 -24 -8 -13
-7 -19 0 -19 6 0 8 -5 3 -12 -4 -7 -7 -23 -8 -35 0 -12 -3 -25 -7 -29 -4 -4
-3 -13 3 -21 9 -10 8 -13 -1 -13 -8 0 -10 -3 -7 -7 4 -3 2 -12 -5 -20 -8 -10
-8 -12 4 -8 9 4 15 0 15 -9 0 -8 -5 -12 -11 -10 -13 5 -13 -66 -1 -86 5 -8 4
-11 -2 -7 -6 4 -13 0 -17 -8 -3 -8 -1 -17 5 -21 6 -4 6 -11 -1 -19 -7 -8 -9
-19 -5 -25 3 -5 -1 -10 -10 -10 -9 0 -13 -5 -10 -10 4 -6 12 -7 18 -3 7 4 6 0
-2 -10 -7 -9 -10 -17 -7 -17 4 0 2 -9 -4 -20 -8 -15 -8 -20 2 -21 9 0 10 -2 1
-5 -7 -3 -9 -12 -6 -21 4 -10 2 -14 -4 -10 -7 5 -9 0 -6 -13 3 -13 0 -20 -8
-20 -11 0 -11 -2 1 -10 9 -6 11 -13 5 -17 -16 -12 -17 -35 -3 -44 11 -7 10 -9
-1 -9 -7 0 -11 -6 -8 -15 4 -8 1 -17 -5 -21 -7 -5 -8 -2 -3 6 5 9 4 11 -3 6
-9 -5 -9 -13 -2 -26 6 -12 7 -21 0 -25 -5 -3 -7 -12 -3 -20 3 -10 0 -14 -8
-12 -8 2 -11 2 -6 0 12 -7 8 -43 -5 -44 -9 0 -9 -2 1 -6 9 -4 10 -8 3 -12 -6
-4 -13 -24 -15 -45 -2 -21 -10 -42 -18 -47 -12 -7 -12 -9 1 -9 9 0 11 -3 5 -8
-6 -4 -10 -21 -10 -39 1 -18 -4 -34 -11 -37 -7 -3 -11 -14 -9 -26 2 -11 -1
-20 -6 -20 -6 0 -6 -8 1 -20 8 -15 8 -20 -2 -18 -6 2 -12 -1 -13 -7 0 -5 -4
-16 -9 -24 -7 -11 -6 -12 5 -6 12 8 12 6 1 -8 -8 -9 -11 -21 -7 -27 3 -5 1
-10 -5 -10 -6 0 -9 -4 -5 -9 3 -5 1 -12 -4 -16 -6 -3 -8 -12 -4 -20 3 -8 0
-15 -6 -15 -6 0 -8 -7 -4 -17 4 -10 2 -14 -4 -10 -7 4 -10 0 -8 -10 1 -10 -2
-24 -8 -30 -5 -7 -6 -13 -2 -13 4 0 2 -7 -5 -15 -9 -11 -10 -15 -1 -15 8 0 7
-5 -3 -15 -8 -9 -13 -22 -10 -30 4 -10 0 -15 -11 -15 -9 0 -13 -5 -10 -10 4
-6 1 -18 -7 -27 -11 -14 -11 -16 2 -8 12 7 12 5 -1 -11 -24 -29 -34 -48 -20
-40 6 4 3 -8 -6 -27 -10 -19 -21 -33 -25 -30 -4 2 -5 -3 -2 -11 3 -9 1 -16 -4
-16 -6 0 -9 -9 -7 -20 2 -11 0 -18 -4 -15 -8 4 -20 -20 -25 -50 -1 -5 -7 -9
-13 -8 -7 2 -10 -7 -7 -22 2 -14 1 -25 -3 -25 -5 0 -14 -9 -21 -21 -8 -12 -9
-18 -3 -15 6 4 1 -8 -12 -27 -12 -19 -26 -32 -32 -29 -5 3 -7 2 -3 -3 4 -4 2
-17 -4 -29 -7 -11 -11 -24 -10 -29 1 -4 -3 -7 -8 -7 -6 0 -10 -7 -10 -15 0 -9
-7 -18 -15 -21 -8 -4 -15 -12 -15 -20 0 -8 -5 -14 -11 -14 -5 0 -7 -4 -4 -10
3 -5 -2 -10 -11 -10 -10 0 -15 -3 -11 -6 3 -3 -5 -16 -19 -29 -13 -12 -24 -27
-24 -34 0 -6 -4 -10 -8 -8 -4 1 -20 -11 -35 -26 -14 -16 -30 -27 -34 -24 -11
7 -34 -19 -25 -28 4 -4 3 -6 -3 -5 -18 4 -55 -12 -49 -21 3 -5 -2 -6 -10 -3
-9 4 -16 1 -16 -6 0 -9 -3 -10 -14 -1 -10 9 -15 8 -19 -2 -3 -8 -22 -14 -48
-15 -24 -1 -46 -8 -51 -15 -6 -9 -8 -9 -8 0 0 9 -13 12 -40 10 -24 -2 -40 1
-40 7 0 6 -5 4 -10 -4 -8 -13 -10 -12 -10 4 0 13 -5 17 -20 13 -11 -3 -20 0
-20 6 0 6 -3 8 -6 4 -4 -3 -13 1 -21 9 -8 8 -19 11 -25 8 -7 -4 -8 -2 -4 4 4
7 2 12 -4 12 -15 0 -41 26 -33 34 4 3 -1 6 -11 6 -9 0 -21 11 -28 25 -6 13
-15 22 -21 18 -6 -3 -7 -1 -3 5 3 6 -1 18 -10 26 -8 9 -12 16 -7 16 4 0 -1 7
-11 15 -13 10 -15 15 -6 15 9 0 7 5 -6 15 -10 8 -15 15 -10 15 5 0 2 8 -5 17
-12 14 -12 16 1 9 8 -4 5 1 -8 12 -15 14 -18 22 -10 25 10 3 10 7 -1 20 -10
13 -11 17 -1 17 9 0 7 7 -5 20 -10 11 -14 20 -9 20 5 0 2 5 -6 11 -13 9 -13
10 0 6 8 -2 14 -10 12 -16 -1 -7 2 -10 7 -7 6 4 5 16 -3 31 -15 29 -13 71 3
67 7 -1 10 2 6 8 -3 6 -11 7 -17 4 -7 -5 -9 -1 -5 9 3 9 1 18 -6 21 -7 2 -4 5
6 5 14 1 16 5 8 19 -5 10 -6 24 -1 32 4 7 6 19 3 27 -3 7 0 13 6 13 8 0 9 5 1
19 -7 14 -7 22 1 26 6 4 8 13 5 21 -3 8 -1 14 4 14 5 0 7 9 5 20 -2 11 -1 20
3 20 5 0 8 12 8 28 2 66 10 112 19 108 9 -3 13 20 15 87 1 9 4 16 8 13 4 -2 7
12 7 32 0 27 4 36 14 34 12 -3 12 0 1 12 -7 9 -8 16 -2 16 5 0 10 6 9 13 -1
39 4 67 12 63 5 -4 7 3 4 14 -3 11 -1 20 4 20 5 0 9 12 8 28 0 15 5 33 12 40
6 7 10 21 8 32 -2 11 1 20 6 20 6 0 8 4 4 9 -3 5 0 13 6 16 5 4 8 13 5 21 -3
8 0 14 6 14 6 0 5 6 -3 17 -8 9 -9 14 -3 10 14 -8 27 20 17 36 -4 7 0 8 12 3
15 -5 16 -4 6 8 -10 12 -9 20 2 38 8 13 13 34 11 47 -3 18 -1 22 11 17 10 -4
14 -2 9 5 -4 6 0 15 7 20 12 7 12 9 0 9 -11 0 -11 3 -1 15 7 8 9 15 4 15 -4 0
1 7 12 16 10 8 13 13 7 9 -16 -8 -17 11 -2 21 6 3 9 15 6 25 -3 11 -1 17 3 14
5 -3 11 -1 15 5 3 5 1 10 -5 10 -7 0 -5 7 5 16 13 13 13 19 3 32 -7 9 -8 13
-2 9 12 -7 47 70 38 84 -3 5 -1 9 5 9 6 0 8 7 5 15 -4 8 -1 15 6 15 6 0 8 5 5
10 -3 6 -1 10 6 10 8 0 7 5 -2 17 -10 11 -10 14 -1 9 8 -5 12 0 12 14 0 12 4
19 8 16 4 -2 8 3 9 12 0 9 3 26 6 37 3 11 7 27 9 35 1 8 9 20 17 26 11 8 11
13 2 18 -9 6 -9 11 0 22 6 7 16 11 23 7 6 -4 5 0 -2 9 -8 10 -9 18 -3 22 6 4
8 13 5 20 -3 8 0 17 5 21 6 3 9 11 6 16 -4 5 -2 9 3 9 6 0 13 7 16 16 4 9 2
13 -5 8 -6 -3 -4 5 5 18 9 14 13 28 9 31 -3 4 -1 7 6 7 7 0 9 5 6 10 -3 6 -1
10 5 10 6 0 8 5 5 10 -4 6 1 23 11 38 10 15 20 38 21 52 2 14 4 31 5 38 1 6 6
12 11 12 5 0 7 9 4 21 -3 12 0 22 9 26 8 3 12 9 9 13 -3 5 -1 12 5 15 8 5 7
12 -2 23 -9 11 -9 13 -1 9 13 -8 37 28 28 42 -3 5 0 15 7 23 7 7 14 20 16 28
2 8 11 24 20 35 16 19 16 19 0 6 -22 -16 -24 1 -3 19 8 7 15 20 15 29 0 10 7
26 15 37 8 10 14 24 15 29 0 6 -5 3 -10 -5 -5 -8 -10 -11 -10 -6 0 5 7 17 16
27 8 9 16 26 17 38 1 11 5 21 10 21 4 0 5 5 2 10 -3 6 -2 10 4 10 6 0 8 6 5
14 -3 8 0 17 5 21 6 3 9 11 6 16 -4 5 -1 9 6 9 7 0 9 10 7 25 -3 13 -2 23 1
20 4 -2 13 5 20 17 10 16 10 19 -1 12 -7 -4 -4 3 7 16 11 13 14 20 8 16 -7 -4
-13 -3 -13 2 0 6 7 13 15 16 9 3 15 11 14 18 -1 7 5 29 14 48 8 19 13 38 11
42 -3 5 0 8 6 8 6 0 8 5 5 10 -3 6 -1 10 5 10 6 0 9 4 5 10 -6 9 -4 14 28 78
11 21 12 31 4 27 -6 -4 -5 -1 4 7 9 7 15 21 13 31 -1 10 4 17 14 17 14 0 14 2
3 9 -11 7 -10 11 5 20 14 8 15 11 4 11 -13 0 -13 1 0 10 8 5 11 10 6 10 -5 0
-3 7 4 15 6 8 9 19 5 25 -3 5 0 13 9 16 9 3 12 12 9 21 -5 12 -3 14 6 8 10 -6
11 -3 2 14 -9 17 -9 21 1 19 7 -2 12 3 11 10 -2 6 1 12 6 12 5 0 8 13 7 29 -2
22 2 28 14 23 8 -3 12 -1 7 3 -4 5 0 19 9 33 9 13 11 21 5 18 -6 -4 -11 -3
-11 2 0 6 7 12 15 15 8 4 12 15 10 26 -2 12 3 27 11 35 8 8 14 24 14 36 0 12
4 18 10 15 6 -3 7 1 4 9 -4 10 -1 16 7 16 11 0 11 3 -1 10 -11 7 -11 10 -2 10
7 0 11 4 7 9 -3 6 0 13 7 18 12 8 18 25 21 66 1 9 5 17 9 17 4 0 7 3 7 8 -3
19 2 33 10 28 5 -4 7 4 3 16 -3 13 -1 19 5 15 7 -5 9 0 6 13 -3 11 0 20 6 20
6 0 11 5 11 11 0 5 -6 7 -12 4 -7 -4 -5 0 5 8 10 8 17 19 16 23 -3 20 2 35 10
29 6 -3 8 3 6 15 -2 11 1 22 6 25 5 4 7 11 4 16 -4 5 -2 9 3 9 5 0 9 6 9 13 1
6 22 71 48 142 26 72 49 138 52 148 17 57 23 -12 23 -263z"/>
<path d="M25433 14425 c-62 -31 -214 -178 -270 -261 -36 -53 -102 -175 -124
-229 -51 -128 -95 -333 -101 -468 -3 -58 -4 -59 -68 -120 -36 -33 -104 -97
-151 -142 -87 -82 -237 -213 -342 -299 -32 -26 -66 -53 -75 -61 -74 -62 -201
-159 -219 -168 -25 -11 -36 -3 -72 55 -24 41 -27 41 -91 -2 -14 -9 -56 -37
-95 -60 -110 -68 -108 -66 -82 -105 12 -18 32 -47 45 -63 l22 -31 -37 -28
c-21 -15 -40 -30 -43 -34 -34 -38 -474 -279 -510 -279 -6 0 -22 -7 -35 -16
-20 -13 -25 -25 -25 -55 0 -23 5 -42 13 -44 11 -5 116 47 227 112 181 105 160
91 318 201 l134 94 37 -34 c82 -77 186 -134 311 -169 102 -29 323 -32 420 -5
78 22 211 85 260 124 43 34 116 108 145 147 32 43 75 123 75 140 0 8 3 15 8
15 15 0 75 209 86 299 3 29 11 83 16 119 5 37 10 169 10 293 l0 227 72 58
c165 133 289 275 346 396 50 105 56 128 55 207 -1 87 -17 132 -62 175 -45 43
-126 48 -198 11z m44 -147 c70 -30 90 -98 58 -202 -15 -48 -55 -137 -66 -146
-3 -3 -14 -20 -23 -38 -18 -36 -155 -178 -199 -207 -15 -10 -31 -15 -34 -11
-8 8 -5 336 4 384 15 89 97 198 163 219 47 15 64 15 97 1z m-546 -1010 c7 -71
-4 -445 -15 -520 -34 -222 -109 -345 -237 -387 -49 -16 -165 -17 -214 -2 -88
27 -205 94 -276 160 -80 74 -84 90 -26 127 36 24 271 216 332 273 22 20 54 47
70 60 17 12 59 49 95 81 36 32 97 84 135 116 39 32 81 69 95 81 28 26 39 29
41 11z"/>
<path d="M22115 13365 c-5 -1 -37 -8 -70 -15 -33 -7 -64 -17 -69 -22 -6 -4
-17 -8 -24 -8 -26 0 -161 -70 -236 -121 -310 -214 -516 -517 -516 -761 0 -74
22 -124 80 -179 58 -56 119 -79 209 -79 152 0 304 75 477 233 30 27 58 47 61
43 3 -3 1 -23 -5 -45 -18 -57 -15 -172 4 -199 61 -87 257 -61 419 56 28 20 52
39 55 42 3 3 31 25 63 48 39 30 57 49 53 59 -3 8 -6 17 -6 19 0 13 -28 -3
-102 -59 -96 -72 -165 -109 -211 -111 -31 -1 -32 0 -30 39 1 35 16 80 63 200
9 22 38 99 50 130 4 11 19 49 33 85 14 36 35 92 47 125 13 33 29 74 36 90 45
107 134 354 134 371 0 38 -35 58 -108 62 -59 3 -71 1 -106 -23 -26 -18 -46
-24 -60 -20 -125 38 -204 52 -241 40z m214 -86 c23 -7 41 -16 41 -21 0 -5 -12
-35 -26 -66 -14 -31 -29 -66 -34 -77 -5 -11 -20 -46 -34 -77 -14 -31 -26 -59
-26 -62 0 -3 -11 -30 -25 -61 -14 -30 -36 -80 -50 -110 -14 -31 -25 -58 -25
-60 0 -2 -11 -29 -25 -59 -14 -30 -25 -59 -25 -64 0 -12 -124 -133 -180 -175
-113 -85 -247 -147 -317 -147 -41 0 -89 31 -119 78 -26 42 -29 55 -28 127 1
186 108 393 295 571 195 184 400 256 578 203z"/>
<path d="M23710 13337 c-67 -27 -132 -72 -180 -121 -19 -20 -40 -36 -47 -36
-6 0 -14 23 -18 50 -18 132 -145 156 -331 65 -108 -53 -190 -111 -303 -214
-78 -71 -81 -75 -81 -117 0 -24 2 -44 4 -44 1 0 36 32 75 70 111 107 249 199
319 213 17 4 44 2 58 -4 25 -9 26 -13 21 -52 -5 -38 -75 -218 -141 -360 -14
-32 -26 -59 -26 -61 0 -2 -18 -44 -41 -93 -22 -48 -45 -97 -49 -108 -5 -11
-30 -66 -55 -123 -25 -56 -45 -104 -45 -107 0 -3 -11 -28 -25 -57 -14 -28 -25
-55 -25 -60 0 -14 226 -10 238 5 5 6 36 75 67 152 77 188 105 250 250 549 47
98 104 204 126 235 82 113 183 184 281 197 44 6 48 5 59 -20 11 -23 8 -31 -31
-87 -35 -50 -42 -69 -43 -108 -1 -86 63 -143 163 -143 75 0 118 25 150 88 49
95 19 201 -75 265 -81 55 -199 66 -295 26z"/>
</g>
</svg>
