<?xml version="1.0" standalone="no"?>
<!DOCTYPE svg PUBLIC "-//W3C//DTD SVG 20010904//EN"
 "http://www.w3.org/TR/2001/REC-SVG-20010904/DTD/svg10.dtd">
<svg version="1.0" xmlns="http://www.w3.org/2000/svg"
 width="225.000000pt" height="225.000000pt" viewBox="0 0 225.000000 225.000000"
 preserveAspectRatio="xMidYMid meet">
<metadata>
Created by potrace 1.11, written by Peter Selinger 2001-2013
</metadata>
<g transform="translate(0.000000,225.000000) scale(0.100000,-0.100000)"
fill="#000000" stroke="none">
<path d="M824 2066 c-13 -10 -23 -11 -31 -4 -10 8 -13 6 -13 -5 0 -16 -28 -37
-51 -37 -6 0 -9 8 -6 20 3 11 0 20 -5 20 -7 0 -8 -14 -5 -35 4 -26 3 -34 -6
-28 -7 4 -6 0 2 -10 8 -10 9 -17 3 -17 -6 0 -17 9 -25 20 -12 18 -15 18 -20 5
-4 -8 -1 -15 6 -15 6 0 1 -7 -11 -16 -12 -8 -22 -22 -22 -30 0 -8 -4 -14 -10
-14 -5 0 -10 -5 -10 -11 0 -5 5 -7 10 -4 16 10 12 -7 -7 -28 -10 -11 -12 -17
-5 -13 8 5 12 -1 12 -21 0 -15 9 -43 21 -62 13 -22 17 -37 10 -44 -5 -5 -6
-14 -1 -21 17 -20 61 -71 85 -98 l25 -26 -28 -29 c-16 -15 -47 -41 -70 -56
-23 -15 -42 -29 -42 -31 0 -2 12 -1 28 1 l27 4 -27 -15 c-14 -9 -36 -32 -48
-52 -20 -32 -22 -45 -17 -114 7 -87 43 -225 89 -334 27 -66 30 -87 42 -276
l12 -205 -27 -35 c-36 -47 -52 -101 -47 -163 3 -32 -4 -92 -19 -157 -12 -58
-23 -108 -23 -112 0 -5 198 -8 440 -8 374 0 440 2 440 14 0 33 -44 210 -81
321 -32 99 -43 121 -58 121 -11 0 -17 -4 -15 -8 3 -4 -4 -12 -15 -17 -31 -17
-39 -58 -28 -141 7 -53 6 -91 -2 -131 -12 -59 -54 -134 -80 -144 -12 -5 -11
-2 2 13 19 21 23 37 5 26 -7 -4 -8 -3 -4 5 4 6 12 8 18 5 8 -5 9 -1 5 10 -4 9
-3 15 2 12 11 -7 29 35 37 84 6 35 4 40 -12 40 -30 0 -94 58 -91 82 1 11 -5
24 -13 28 -66 33 -95 45 -102 42 -4 -1 -7 2 -6 7 2 5 -9 20 -24 34 -31 29 -36
55 -13 63 8 4 15 12 15 18 0 13 -54 69 -64 67 -22 -4 -30 0 -17 8 11 7 -2 28
-63 95 -52 57 -76 91 -72 101 7 18 81 54 111 55 14 0 28 -15 45 -48 14 -26 32
-46 39 -44 7 1 10 -2 6 -8 -8 -12 33 -72 45 -65 4 3 7 -3 6 -12 -1 -11 11 -20
33 -27 29 -8 35 -7 50 12 l16 22 50 -31 c31 -20 51 -27 53 -20 2 7 11 -3 21
-21 9 -20 23 -32 33 -32 10 1 15 -2 12 -7 -3 -5 5 -9 18 -9 16 0 19 -3 10 -9
-11 -7 -10 -9 3 -14 9 -4 13 -3 10 3 -3 6 -1 10 4 10 6 0 11 9 11 20 0 16 -7
20 -30 20 -24 0 -33 7 -49 38 l-19 37 40 75 c23 41 57 101 76 134 34 57 34 59
18 86 -16 29 -22 70 -8 70 4 0 16 -7 26 -15 26 -20 36 -19 36 2 0 10 -12 27
-27 39 -36 29 -22 42 22 21 l34 -16 21 34 c20 32 20 39 9 95 -6 33 -16 59 -20
58 -5 -2 -35 -46 -67 -98 -41 -66 -64 -94 -75 -92 -12 2 -17 -4 -17 -23 l0
-25 -50 25 c-27 14 -51 31 -51 38 -2 20 -5 31 -11 47 -8 19 -28 173 -28 216 0
18 -9 59 -21 90 -19 51 -25 58 -70 76 -39 17 -51 27 -57 52 -5 19 -20 38 -42
50 l-33 20 7 -95 c6 -84 5 -92 -8 -75 -38 48 -88 96 -100 96 -19 0 -112 79
-108 92 2 6 9 42 16 80 l13 68 -26 7 c-31 7 -51 21 -51 36 0 5 9 2 19 -7 14
-13 24 -15 38 -7 10 5 26 12 36 15 14 4 17 14 14 48 -1 24 -8 53 -15 65 -28
50 -1 59 46 14 17 -15 35 -25 39 -20 4 4 22 10 38 12 26 4 26 5 -6 4 -23 -1
-46 7 -65 21 -23 18 -25 22 -9 20 11 -2 25 -10 32 -18 11 -13 12 -13 13 3 0
18 40 25 40 7 0 -5 6 -10 14 -10 8 0 17 -7 20 -16 3 -8 10 -13 14 -10 5 3 18
-1 28 -9 10 -8 22 -15 27 -15 10 0 -22 51 -41 67 -12 10 -13 15 -2 28 10 12
10 15 0 15 -9 0 -7 7 6 21 19 22 19 22 -5 9 -19 -10 -25 -10 -32 1 -6 10 -31
14 -84 13 -59 0 -75 3 -71 13 7 16 4 16 -20 -1z"/>
<path d="M1400 1864 c-47 -8 -114 -15 -150 -15 -69 0 -80 -7 -80 -50 0 -39 34
-50 100 -33 96 25 127 18 136 -32 6 -33 24 -58 24 -34 0 7 8 9 20 5 18 -6 19
-3 14 25 -9 41 12 80 42 80 13 0 27 6 31 13 4 8 17 17 28 22 18 8 18 9 -7 13
-16 2 -28 8 -28 13 0 11 -24 10 -130 -7z"/>
<path d="M1613 1478 c-10 -12 -22 -44 -23 -60 -1 -4 -8 -24 -16 -44 -8 -19
-12 -44 -9 -55 4 -11 2 -26 -4 -32 -9 -12 8 -119 22 -133 2 -3 35 54 72 127
50 99 64 134 55 143 -6 6 -11 7 -10 1 4 -20 0 -35 -11 -35 -6 0 -7 5 -2 13 14
23 13 44 -5 60 -26 22 -58 29 -69 15z"/>
</g>
</svg>
