<?xml version="1.0" standalone="no"?>
<!DOCTYPE svg PUBLIC "-//W3C//DTD SVG 20010904//EN"
 "http://www.w3.org/TR/2001/REC-SVG-20010904/DTD/svg10.dtd">
<svg version="1.0" xmlns="http://www.w3.org/2000/svg"
 width="300.000000pt" height="386.000000pt" viewBox="0 0 300.000000 386.000000"
 preserveAspectRatio="xMidYMid meet">
<metadata>
Created by potrace 1.11, written by Peter Selinger 2001-2013
</metadata>
<g transform="translate(0.000000,386.000000) scale(0.100000,-0.100000)"
fill="#000000" stroke="none">
<path d="M1170 3691 c-66 -13 -120 -52 -148 -106 -24 -46 -26 -61 -27 -182 -1
-122 1 -133 17 -127 9 3 27 -2 40 -10 13 -8 43 -22 68 -32 25 -10 56 -26 69
-36 14 -10 32 -16 43 -13 10 4 18 2 18 -4 0 -6 -3 -10 -7 -10 -36 6 -43 -2
-43 -45 0 -39 3 -45 23 -48 21 -3 23 -10 34 -128 16 -170 15 -357 -1 -395 -12
-28 -13 -25 -19 57 -13 167 -58 330 -133 479 l-43 87 55 -18 c31 -9 60 -23 65
-31 6 -10 9 -7 9 14 0 20 -5 27 -20 27 -34 0 -122 38 -150 65 l-27 26 -57 -73
c-68 -85 -120 -185 -142 -270 -18 -69 -22 -300 -7 -423 9 -77 3 -105 -39 -175
-54 -92 -127 -290 -154 -415 -21 -101 -78 -263 -122 -352 -63 -127 -92 -208
-92 -258 0 -67 25 -57 72 29 21 38 50 84 64 103 23 31 96 220 75 198 -81 -90
-145 -192 -178 -285 -20 -54 -23 -58 -18 -25 9 65 69 175 155 286 45 57 85
105 89 107 5 2 -21 -82 -58 -185 -60 -170 -72 -195 -123 -258 -56 -70 -102
-149 -96 -165 2 -5 68 35 147 88 l143 97 82 180 c100 221 191 393 265 503 84
126 106 162 126 215 10 26 21 47 26 47 4 0 54 -11 111 -25 57 -14 113 -25 125
-25 28 0 61 53 69 112 6 45 6 45 -33 60 -21 9 -59 21 -83 27 -54 14 -120 43
-120 54 0 12 22 8 39 -7 9 -7 54 -25 101 -38 47 -14 93 -28 103 -33 15 -6 17
1 17 76 0 149 41 279 107 341 36 34 110 68 148 67 25 0 22 -2 -17 -13 -107
-29 -175 -105 -202 -227 -15 -63 -22 -229 -11 -229 8 0 82 49 143 94 29 21 54
37 56 35 12 -13 122 -243 137 -288 11 -30 32 -75 48 -100 134 -215 204 -321
209 -321 4 0 15 12 25 26 18 24 18 26 -3 72 -13 26 -40 94 -62 152 -22 58 -64
151 -94 207 -62 116 -81 167 -120 319 -26 103 -27 107 -11 158 9 29 21 76 27
106 14 75 19 79 98 74 45 -3 79 0 102 10 19 8 48 17 64 21 37 8 91 64 106 110
6 19 17 35 23 35 8 0 12 29 13 90 1 51 -2 87 -7 84 -5 -3 -12 2 -15 10 -3 9
-10 13 -15 10 -5 -3 -9 -1 -9 5 0 6 -10 15 -22 22 -18 10 -20 9 -15 -5 9 -23
3 -20 -35 18 -26 26 -46 36 -84 41 -27 4 -60 12 -73 17 -52 19 -111 -24 -111
-82 0 -11 -18 -31 -42 -49 -63 -43 -91 -78 -122 -153 -22 -54 -25 -70 -16 -87
10 -19 5 -28 -34 -74 -28 -33 -65 -62 -96 -77 -27 -13 -49 -25 -47 -26 1 -1
34 6 72 17 105 29 112 22 10 -11 -49 -17 -95 -28 -101 -26 -9 4 -141 -31 -186
-49 -35 -14 -17 14 42 68 33 29 60 57 60 61 0 4 -20 39 -45 77 -36 55 -49 69
-64 64 -15 -5 -19 2 -25 41 -11 84 -8 111 14 117 11 3 22 17 26 33 11 49 28
84 41 84 9 0 13 16 13 49 0 28 5 53 11 56 6 4 8 22 4 46 -5 31 -2 44 14 65 12
15 21 32 21 39 0 16 -130 122 -165 135 -29 11 -43 11 -95 1z"/>
<path d="M1493 3232 c-18 -15 -33 -32 -33 -37 0 -6 -14 -23 -30 -39 -17 -16
-30 -33 -30 -38 0 -5 -11 -24 -24 -41 l-25 -32 36 -49 c40 -55 53 -50 53 21 0
43 35 153 49 153 4 0 17 9 29 20 12 12 22 17 22 12 0 -5 -10 -17 -21 -28 -31
-27 -59 -98 -59 -147 0 -23 -7 -55 -15 -71 -9 -16 -13 -31 -11 -33 2 -2 -2
-30 -9 -61 -8 -31 -12 -58 -11 -60 2 -1 25 5 52 15 l49 19 5 84 c6 95 14 115
62 152 22 17 39 44 52 79 l18 53 -31 28 c-41 37 -85 37 -128 0z"/>
<path d="M1557 2387 c-64 -40 -67 -44 -62 -73 3 -17 -1 -47 -9 -66 l-15 -35
32 3 c62 7 104 57 118 139 3 22 10 48 14 58 10 24 -1 21 -78 -26z"/>
<path d="M1134 2163 c-10 -27 -46 -88 -79 -138 -108 -159 -214 -357 -344 -645
l-52 -115 -131 -85 c-72 -47 -175 -108 -230 -137 -116 -61 -188 -105 -188
-115 0 -5 11 -8 24 -8 46 0 191 -52 311 -112 229 -114 398 -247 494 -390 63
-93 145 -139 322 -178 115 -26 146 -25 265 5 110 28 166 61 249 145 27 27 52
50 55 50 3 0 5 -45 5 -99 0 -97 -1 -101 -30 -133 -17 -18 -48 -48 -70 -67 -39
-32 -39 -33 -6 -15 18 11 52 41 76 67 l42 49 -5 89 c-3 59 -1 89 6 89 6 0 27
-23 47 -50 40 -54 56 -61 32 -13 -8 15 -22 51 -30 79 -15 52 -15 52 11 77 15
13 52 41 82 62 30 21 89 72 130 115 51 52 94 86 135 106 57 27 67 29 200 30
115 2 150 6 194 22 123 48 170 104 207 249 26 102 31 202 13 268 -6 22 -14
112 -18 200 -6 134 -11 167 -29 201 -20 39 -83 104 -101 104 -5 0 -27 24 -49
53 -136 176 -322 194 -322 31 0 -34 30 -107 50 -119 17 -11 11 -66 -12 -97
l-21 -30 -37 39 c-29 32 -46 42 -83 47 -26 4 -53 13 -61 21 -12 12 -16 12 -29
-3 -9 -10 -20 -28 -25 -41 -8 -21 -2 -30 43 -71 50 -45 138 -110 149 -110 18
0 1 36 -29 62 -31 28 -38 48 -15 48 17 0 60 -74 60 -102 0 -37 -18 -36 -66 3
-38 30 -41 31 -111 25 l-71 -6 -25 43 c-72 122 -245 284 -440 414 -139 92
-192 119 -202 103 -10 -16 -86 -12 -166 10 -104 27 -105 27 -125 -27z"/>
<path d="M84 902 c-35 -5 -57 -36 -49 -71 6 -30 33 -57 138 -141 35 -28 56
-53 57 -66 0 -11 -11 -54 -25 -95 -14 -40 -23 -80 -20 -88 5 -12 -19 -81 -60
-176 -28 -64 -27 -94 4 -125 39 -40 72 -46 118 -23 37 17 38 20 44 83 5 56 14
98 35 172 3 11 14 16 31 15 23 -2 28 4 49 68 13 38 28 73 34 79 6 6 29 4 66
-8 l56 -18 30 29 c16 15 41 49 54 75 l24 48 -42 31 c-54 39 -307 165 -373 185
-59 18 -141 31 -171 26z"/>
<path d="M661 606 c-12 -24 -43 -65 -68 -92 -44 -48 -72 -101 -129 -239 -17
-43 -42 -83 -65 -105 -55 -52 -44 -60 77 -60 l103 0 22 50 c12 27 27 55 35 61
12 10 14 2 15 -47 1 -58 1 -58 10 -19 4 22 6 52 3 67 -3 15 0 29 7 34 9 5 10
-11 5 -70 -8 -87 7 -99 17 -15 4 29 16 81 28 116 13 40 19 76 15 94 -3 16 -9
43 -12 59 -4 17 -4 30 -1 30 2 0 33 -11 68 -24 35 -13 79 -27 98 -31 l34 -7
-19 29 c-28 44 -62 81 -128 141 -86 78 -88 78 -115 28z"/>
<path d="M1755 350 c-40 -41 -49 -56 -47 -80 2 -16 -6 -50 -18 -76 -37 -84 7
-78 91 13 l35 38 -5 78 -6 78 -50 -51z"/>
<path d="M1077 241 c-4 -16 -4 -52 0 -80 l6 -51 68 0 c64 0 69 2 69 21 0 20 3
21 53 15 28 -4 63 -14 75 -22 19 -12 48 -15 132 -12 60 1 112 6 116 10 4 5 2
19 -4 32 -7 17 -22 25 -51 30 -24 3 -41 12 -41 19 0 10 -20 12 -87 9 -83 -4
-158 9 -309 53 -18 6 -22 1 -27 -24z"/>
</g>
</svg>
