<?xml version="1.0" standalone="no"?>
<!DOCTYPE svg PUBLIC "-//W3C//DTD SVG 20010904//EN"
 "http://www.w3.org/TR/2001/REC-SVG-20010904/DTD/svg10.dtd">
<svg version="1.0" xmlns="http://www.w3.org/2000/svg"
 width="163.000000pt" height="300.000000pt" viewBox="0 0 163.000000 300.000000"
 preserveAspectRatio="xMidYMid meet">
<metadata>
Created by potrace 1.11, written by Peter Selinger 2001-2013
</metadata>
<g transform="translate(0.000000,300.000000) scale(0.100000,-0.100000)"
fill="#000000" stroke="none">
<path d="M684 2920 c-25 -10 -63 -74 -94 -157 -12 -32 -29 -66 -38 -76 -13
-15 -14 -24 -5 -47 10 -25 8 -30 -19 -50 -23 -17 -28 -27 -23 -43 3 -12 8 -39
11 -60 4 -32 2 -38 -19 -46 -64 -25 -95 -112 -107 -301 -6 -112 -14 -155 -44
-253 -20 -65 -52 -181 -71 -259 -19 -77 -38 -144 -41 -150 -8 -12 16 -108 34
-135 8 -13 22 -23 32 -23 34 0 42 -25 35 -102 l-7 -73 54 -26 c29 -15 63 -30
74 -33 24 -7 28 -26 44 -222 5 -65 16 -148 25 -184 9 -36 25 -103 37 -150 16
-66 20 -113 19 -212 -2 -141 7 -175 54 -196 56 -26 83 8 71 90 -3 24 -10 80
-15 124 -5 45 -14 91 -20 103 -7 13 -11 64 -9 133 l3 113 28 -47 c16 -27 47
-90 70 -140 49 -113 62 -224 32 -293 -43 -101 -42 -135 6 -135 35 0 76 20 102
48 16 18 29 81 44 223 4 41 2 48 -25 71 -27 23 -31 34 -42 119 -16 127 -41
201 -84 253 -43 53 -46 91 -16 188 l19 63 53 16 53 16 6 64 c4 35 10 171 14
301 l8 237 49 11 c52 11 140 52 298 140 114 63 120 67 120 90 0 26 -77 176
-109 213 -15 18 -53 71 -84 118 -53 81 -135 169 -157 169 -5 0 -10 10 -10 22
0 12 -7 29 -16 39 -14 16 -14 20 7 49 22 29 22 32 8 63 -21 42 -39 94 -49 137
-13 56 -46 111 -100 162 -50 48 -51 48 -118 47 -37 0 -77 -4 -88 -9z m417
-782 c19 -29 55 -79 82 -112 26 -33 47 -63 47 -66 0 -16 -130 -127 -190 -162
-69 -41 -95 -46 -125 -24 -18 13 -16 20 34 177 58 180 84 239 105 239 8 0 29
-24 47 -52z"/>
</g>
</svg>
