<?xml version="1.0" standalone="no"?>
<!DOCTYPE svg PUBLIC "-//W3C//DTD SVG 20010904//EN"
 "http://www.w3.org/TR/2001/REC-SVG-20010904/DTD/svg10.dtd">
<svg version="1.0" xmlns="http://www.w3.org/2000/svg"
 width="1000.000000pt" height="1000.000000pt" viewBox="0 0 1000.000000 1000.000000"
 preserveAspectRatio="xMidYMid meet">
<metadata>
Created by potrace 1.11, written by Peter Selinger 2001-2013
</metadata>
<g transform="translate(0.000000,1000.000000) scale(0.100000,-0.100000)"
fill="#000000" stroke="none">
<path d="M2437 7376 c-26 -7 -53 -20 -60 -28 -7 -8 -31 -20 -53 -26 -84 -24
-133 -93 -134 -187 0 -56 24 -104 65 -131 21 -14 26 -23 22 -43 -4 -19 3 -37
23 -65 24 -31 27 -42 19 -58 -9 -16 -17 -19 -46 -13 -44 8 -136 -11 -165 -35
-20 -16 -23 -27 -24 -106 -1 -64 -10 -125 -34 -218 -17 -70 -33 -133 -35 -140
-1 -6 -5 -18 -8 -26 -3 -8 -20 -76 -38 -150 -26 -110 -37 -139 -58 -156 -19
-17 -26 -31 -26 -60 0 -50 25 -82 97 -127 32 -20 58 -43 58 -52 0 -10 -16 -23
-40 -32 -22 -9 -42 -24 -45 -34 -4 -11 -14 -19 -24 -19 -28 0 -110 -57 -131
-92 -47 -77 -32 -196 30 -252 17 -14 30 -34 30 -44 0 -9 6 -24 13 -32 9 -12
90 -79 116 -97 13 -9 -21 -13 -170 -23 -180 -11 -430 -35 -524 -50 -364 -59
-517 -100 -559 -151 -16 -19 -26 -43 -26 -62 0 -29 -4 -33 -40 -45 -73 -22
-181 -95 -246 -166 -109 -117 -194 -327 -194 -478 0 -61 2 -68 29 -90 73 -62
396 -137 768 -179 l112 -12 23 -36 c16 -25 33 -37 58 -42 19 -4 148 -11 287
-15 l252 -7 21 37 22 36 86 1 c48 0 96 2 107 4 11 1 144 6 295 9 498 11 1040
50 1430 101 63 8 225 22 360 30 174 10 262 19 305 32 l60 19 3 47 c3 43 7 50
42 72 62 39 74 64 67 143 -6 68 -47 204 -85 277 -32 64 -106 159 -154 198 -47
39 -229 137 -253 137 -10 0 -15 10 -15 29 0 15 -9 40 -20 54 -46 58 -280 101
-697 126 -83 5 -156 12 -162 16 -6 3 -11 27 -11 52 0 54 -22 105 -61 137 -17
15 -29 35 -29 49 0 13 -9 34 -20 47 -41 47 -19 70 68 70 47 0 73 5 97 20 33
20 59 65 53 91 -4 20 119 15 142 -6 34 -30 107 -53 195 -59 171 -13 469 -66
548 -98 20 -8 35 -27 52 -63 30 -68 71 -98 146 -103 45 -3 67 0 104 19 41 20
50 22 88 12 63 -17 553 -189 852 -300 242 -89 309 -116 615 -243 672 -280
1029 -420 1620 -635 592 -216 1311 -454 1453 -480 29 -6 42 -3 63 14 l27 22
27 -30 c36 -39 78 -49 245 -60 95 -6 165 -16 218 -32 100 -29 110 -24 118 62
6 68 29 129 63 167 29 32 16 47 -85 91 -91 41 -141 71 -229 137 -83 62 -116
76 -168 72 -45 -3 -47 -2 -64 33 -15 33 -28 41 -145 89 -407 167 -1183 437
-1887 656 -440 137 -493 153 -1001 294 -589 164 -1352 402 -1559 487 -64 26
-73 33 -103 85 -25 42 -44 61 -76 77 -56 27 -126 27 -179 0 l-41 -21 -71 27
c-103 40 -266 125 -386 202 -153 97 -187 113 -240 113 -37 0 -51 5 -70 25 -32
34 -111 59 -163 51 -39 -6 -43 -4 -59 24 -21 38 -13 43 72 50 56 4 65 8 67 25
1 11 5 32 9 47 14 61 -28 118 -109 148 -25 9 -43 23 -45 34 -6 29 19 66 54 81
18 7 35 23 39 34 4 14 15 21 31 21 37 0 86 24 118 59 57 60 43 198 -25 255
-16 14 -29 33 -29 42 0 25 -100 118 -152 142 -151 70 -206 94 -266 112 -220
68 -521 99 -645 66z m-7 -874 c214 -74 301 -97 555 -147 126 -25 231 -45 232
-45 2 0 3 -5 3 -11 0 -5 -5 -7 -10 -4 -6 4 -9 -3 -6 -17 2 -13 -1 -31 -6 -40
-13 -26 -1 -22 46 14 25 19 14 5 -30 -38 -47 -46 -81 -91 -102 -133 -18 -35
-32 -55 -32 -45 0 11 15 46 34 77 19 31 30 57 25 57 -17 0 -68 -91 -78 -141
-16 -73 -14 -227 4 -286 14 -47 19 -53 58 -67 23 -8 51 -17 62 -19 11 -3 -14
-5 -55 -5 -104 -1 -277 21 -390 51 -52 14 -158 42 -235 62 -184 48 -327 96
-411 138 l-68 34 32 8 c31 6 45 25 20 25 -8 1 -6 6 5 14 21 16 47 103 47 158
0 20 4 39 9 42 5 3 12 27 15 53 4 27 14 70 22 96 9 26 13 55 10 63 -3 8 -2 12
4 9 6 -3 10 2 10 12 0 10 11 44 24 75 16 39 20 60 13 67 -13 13 2 9 193 -57z"/>
</g>
</svg>
