<?xml version="1.0" standalone="no"?>
<!DOCTYPE svg PUBLIC "-//W3C//DTD SVG 20010904//EN"
 "http://www.w3.org/TR/2001/REC-SVG-20010904/DTD/svg10.dtd">
<svg version="1.0" xmlns="http://www.w3.org/2000/svg"
 width="350.000000pt" height="342.000000pt" viewBox="0 0 350.000000 342.000000"
 preserveAspectRatio="xMidYMid meet">
<metadata>
Created by potrace 1.11, written by Peter Selinger 2001-2013
</metadata>
<g transform="translate(0.000000,342.000000) scale(0.100000,-0.100000)"
fill="#000000" stroke="none">
<path d="M2048 3267 c-70 -32 -89 -89 -44 -136 13 -15 26 -37 29 -51 5 -22 0
-28 -40 -50 -25 -13 -56 -40 -69 -60 l-24 -37 19 -61 c16 -52 17 -63 5 -73
-22 -18 -17 -66 7 -83 20 -14 65 -128 84 -216 4 -19 10 -30 11 -25 2 6 -9 59
-25 119 -29 108 -29 110 -10 124 28 20 23 49 -16 89 -19 20 -35 43 -35 52 0 9
-3 25 -6 37 -5 20 -1 21 88 26 63 4 111 13 148 28 30 12 73 29 95 37 22 8 50
24 62 35 l22 21 11 -27 c5 -15 10 -37 10 -49 0 -12 6 -42 14 -67 11 -38 11
-50 -1 -78 -13 -30 -12 -37 6 -70 66 -123 69 -140 27 -188 -18 -21 -33 -43
-33 -49 1 -10 -60 -55 -74 -55 -22 0 -5 17 33 32 64 28 40 30 -27 4 -92 -37
-167 -51 -212 -39 -21 5 -48 6 -58 2 -19 -7 -19 -8 1 -8 33 -1 35 -12 9 -43
-17 -20 -25 -42 -25 -66 0 -31 -9 -44 -67 -100 -38 -35 -81 -72 -98 -83 -29
-19 -30 -19 -7 -25 22 -6 30 -28 13 -38 -5 -4 -7 -20 -5 -36 5 -28 -2 -35 -28
-31 -15 2 -128 -104 -128 -120 0 -6 -5 -7 -12 -3 -6 4 -8 3 -4 -4 7 -11 -38
-62 -54 -62 -6 0 -10 -4 -10 -9 0 -21 79 34 146 103 61 62 80 77 114 82 43 7
55 24 16 24 -13 0 -26 7 -30 15 -3 8 -1 15 4 15 5 0 7 6 4 14 -5 14 22 30 36
21 5 -3 7 -12 3 -20 -3 -8 0 -15 7 -15 7 0 10 8 7 20 -4 15 6 28 41 54 26 19
65 53 87 76 38 39 95 76 95 62 0 -4 22 -29 50 -57 27 -27 49 -55 50 -61 0 -6
-23 -32 -51 -59 -27 -26 -47 -50 -44 -53 7 -7 136 123 250 251 53 59 75 77 88
71 21 -8 32 -46 20 -68 -18 -33 -95 -106 -105 -99 -6 3 -8 1 -5 -4 7 -12 -26
-46 -36 -37 -5 6 -137 -119 -137 -130 0 -3 8 -3 18 1 16 6 16 5 0 -12 -16 -18
-19 -18 -36 -2 -10 9 -25 17 -33 17 -12 0 -12 -2 0 -9 11 -7 10 -10 -6 -15
-11 -4 -28 -15 -38 -26 -9 -10 -23 -16 -31 -13 -10 4 -13 0 -8 -13 5 -18 5
-18 -6 -1 -9 15 -9 22 4 36 22 24 20 34 -3 21 -26 -13 -34 -41 -22 -73 9 -24
5 -30 -52 -78 -34 -28 -84 -72 -111 -98 -42 -38 -47 -47 -30 -49 10 -2 24 -8
29 -14 7 -6 5 -9 -5 -7 -28 6 -60 -21 -85 -71 -27 -54 -30 -64 -15 -55 5 3 17
2 27 -3 15 -9 15 -10 -3 -20 -15 -8 -30 -3 -71 24 l-53 34 21 52 c11 29 25 56
31 59 5 4 31 5 56 3 l47 -3 -53 11 c-41 8 -56 8 -61 -1 -6 -8 -19 -7 -54 6
-26 10 -47 20 -47 23 -1 16 -19 30 -33 24 -9 -3 -15 -10 -12 -14 3 -5 -3 -6
-14 -3 -14 3 -23 -4 -35 -28 -9 -17 -16 -40 -16 -50 0 -28 -17 -32 -61 -12
l-41 18 7 45 c4 25 9 56 12 69 4 16 2 22 -5 17 -16 -10 -34 -83 -34 -133 1
-23 -4 -45 -9 -49 -8 -4 -7 -9 2 -14 8 -5 19 0 31 16 11 13 24 24 29 24 17 0
9 -25 -21 -59 -21 -23 -30 -44 -30 -68 0 -20 4 -32 10 -28 6 3 10 11 10 17 0
6 18 35 40 64 29 39 45 52 57 47 10 -4 14 -2 10 4 -4 6 0 14 8 17 8 3 14 11
13 17 -2 7 15 12 44 14 27 2 46 -1 43 -5 -3 -4 9 -13 25 -19 17 -5 30 -15 30
-20 0 -15 -13 -14 -28 1 -9 9 -12 8 -12 -5 0 -10 -8 -17 -17 -17 -15 0 -16 2
-3 10 13 8 12 10 -2 10 -27 0 -21 -19 8 -30 15 -6 40 -20 57 -32 61 -44 97
-57 124 -47 18 7 24 15 20 29 -4 15 0 20 16 19 12 0 39 3 60 6 22 3 37 1 37
-5 0 -5 -4 -10 -8 -10 -5 0 -31 -21 -58 -46 -27 -25 -62 -56 -77 -70 -27 -23
-29 -44 -4 -44 7 0 35 20 64 45 47 42 51 43 49 21 0 -14 -3 -23 -5 -20 -7 7
-50 -59 -45 -68 9 -14 46 23 39 39 -2 8 0 11 5 8 10 -6 40 57 40 85 0 10 3 20
8 22 4 2 17 16 29 32 29 36 17 63 -33 72 -20 4 -34 12 -32 19 2 7 50 54 108
105 58 50 109 98 113 106 4 8 14 14 21 14 20 0 57 45 60 75 2 17 17 39 41 59
l37 32 108 -110 c106 -107 108 -109 139 -98 25 9 31 8 31 -3 0 -23 79 -256 98
-288 9 -16 31 -34 47 -41 23 -10 39 -30 63 -79 l33 -66 -62 -87 c-34 -48 -66
-98 -72 -111 -5 -12 -17 -24 -26 -26 -9 -2 5 -5 31 -8 42 -4 47 -2 42 13 -4
13 -1 16 11 12 10 -4 15 -16 13 -32 -2 -21 -10 -28 -38 -33 -45 -10 -63 -35
-57 -81 5 -34 3 -36 -13 -26 -14 9 -22 9 -35 -2 -14 -12 -18 -12 -26 1 -15 25
-10 75 12 103 31 39 17 43 -16 5 -23 -28 -26 -39 -21 -71 4 -22 11 -47 17 -56
10 -17 -13 -91 -106 -347 -57 -154 -61 -164 -67 -170 -3 -3 -15 21 -28 55 -12
33 -25 60 -29 60 -3 0 -15 -7 -25 -15 -25 -19 -120 -21 -114 -2 3 6 27 15 54
18 l49 6 -50 1 -51 2 -13 92 c-7 51 -17 116 -21 145 -12 80 -35 110 -97 128
-29 8 -60 18 -70 21 -15 5 -16 4 -3 -5 8 -6 38 -18 67 -27 47 -14 53 -19 67
-57 20 -54 46 -221 46 -294 0 -34 -7 -71 -16 -88 -9 -16 -31 -66 -50 -110 -23
-55 -46 -91 -71 -113 l-38 -33 40 20 c33 16 45 31 70 85 17 36 33 66 36 66 3
0 21 -33 39 -73 54 -120 80 -155 127 -173 49 -19 76 -13 91 22 19 41 14 52 -8
17 -20 -34 -51 -42 -80 -23 -11 8 -8 9 12 4 43 -10 52 33 34 161 l-6 40 15
-40 15 -40 -6 39 c-6 41 -59 156 -77 168 -11 7 8 38 22 38 9 0 65 -134 97
-232 13 -40 22 -61 19 -46 -3 14 -2 28 3 30 17 8 77 139 131 290 77 213 105
306 110 362 1 4 12 6 26 4 16 -4 31 2 43 16 30 32 34 61 17 102 -14 35 -14 38
4 55 11 10 34 43 53 74 18 30 35 55 38 55 14 -1 45 -89 42 -121 -3 -30 2 -40
24 -58 15 -11 32 -21 39 -21 7 0 15 -8 19 -17 7 -21 82 -127 163 -230 67 -86
95 -94 137 -41 l25 32 -22 30 c-11 17 -41 57 -66 88 -25 31 -66 91 -91 132
-25 41 -47 76 -50 76 -4 0 -4 15 -2 34 3 28 -2 39 -32 70 -20 20 -45 36 -55
36 -13 0 -25 16 -40 49 -11 27 -21 52 -21 55 0 4 21 39 47 79 26 39 56 87 67
104 12 18 28 33 36 33 8 0 25 8 36 18 43 34 57 91 30 121 -8 9 -28 57 -45 106
-50 151 -72 209 -84 224 -9 10 -26 12 -72 6 -33 -4 -70 -8 -83 -8 -19 -2 -22
-6 -17 -28 4 -16 1 -30 -9 -38 -12 -10 -14 -6 -12 27 1 22 10 51 19 65 29 45
19 42 -24 -7 -103 -117 -339 -261 -339 -207 0 4 -18 26 -40 50 l-40 42 68 34
c68 34 112 68 112 85 0 15 -7 13 -77 -30 -36 -21 -81 -44 -100 -51 -31 -10
-37 -9 -60 12 -45 43 -48 58 -17 90 15 16 34 29 41 29 8 0 37 16 66 35 54 36
72 42 82 25 3 -6 -1 -7 -10 -4 -13 5 -12 -1 6 -36 26 -50 37 -55 75 -35 16 8
22 15 13 15 -15 0 -49 30 -49 43 0 4 5 7 12 7 14 0 68 50 68 62 0 5 -4 6 -10
3 -16 -10 -11 1 7 16 11 10 14 10 9 2 -4 -8 -1 -13 8 -13 8 0 23 12 31 28 9
15 13 18 9 7 -11 -33 -10 -60 4 -58 6 2 12 0 12 -5 0 -4 10 -18 21 -32 17 -22
19 -23 17 -5 -2 13 2 19 12 17 12 -3 12 0 -1 15 -9 10 -14 24 -12 31 4 11 1
12 -16 3 -11 -7 -21 -8 -21 -4 0 4 -5 1 -11 -7 -9 -13 -10 -13 -6 0 2 8 9 15
17 15 7 0 20 11 28 25 16 25 16 25 -4 8 -20 -17 -20 -17 -21 17 -1 20 -8 46
-17 60 -9 13 -16 33 -16 44 0 11 -4 23 -10 26 -5 3 -10 13 -10 22 0 26 25 -2
75 -85 45 -75 127 -198 141 -211 3 -3 -5 17 -20 46 -14 29 -26 55 -26 59 0 4
19 25 42 46 36 33 40 42 30 56 -6 9 -44 79 -83 155 -46 87 -77 137 -88 138 -9
0 -37 0 -63 -1 -47 -1 -47 -1 -68 47 -12 26 -28 62 -35 78 -7 17 -23 55 -35
85 -19 51 -57 124 -47 90 11 -35 70 -179 96 -235 16 -33 27 -63 24 -67 -2 -5
-18 -8 -34 -8 -43 0 -95 -24 -114 -54 -19 -29 -38 -35 -28 -10 3 9 0 40 -7 69
-11 46 -11 56 4 76 23 34 20 57 -15 91 -29 29 -47 80 -63 179 -4 24 -16 43
-37 58 -28 21 -37 22 -110 16 -78 -7 -79 -7 -79 16 1 13 7 35 15 49 48 84 -25
157 -117 117z m77 -7 c41 -16 49 -52 24 -111 -18 -42 -20 -56 -12 -84 9 -27 8
-37 -4 -47 -12 -9 -16 -9 -24 3 -13 20 -11 29 6 29 8 0 15 5 15 11 0 6 -7 8
-16 5 -13 -5 -14 -4 -6 7 9 11 6 13 -19 9 -28 -4 -30 -7 -25 -34 3 -18 2 -27
-4 -23 -6 3 -10 21 -10 39 0 22 -10 46 -30 71 -16 21 -30 43 -30 49 0 22 31
57 63 70 40 18 40 18 72 6z m334 -852 c-9 -40 -24 -61 -100 -140 -66 -68 -92
-89 -96 -78 -3 8 -21 29 -40 46 -18 17 -33 35 -32 40 0 5 35 26 77 47 42 21
104 60 137 86 33 27 61 48 62 47 1 -1 -3 -22 -8 -48z m681 -605 c13 -40 26
-73 30 -73 12 0 20 -42 11 -58 -6 -11 -8 -7 -8 12 0 15 -5 32 -11 38 -15 15
-52 -1 -64 -28 -10 -20 -8 -29 11 -54 15 -21 18 -30 8 -30 -18 0 -55 -41 -87
-95 -64 -110 -115 -187 -127 -192 -7 -3 -13 -12 -13 -19 0 -8 -6 -17 -14 -20
-8 -3 -16 -17 -19 -32 -4 -15 -16 -42 -27 -61 -19 -30 -23 -32 -38 -18 -9 8
-28 17 -41 19 -23 3 -22 5 21 58 76 94 228 358 223 386 -2 10 -4 24 -4 29 -1
6 -6 3 -11 -5 -7 -11 -10 -4 -10 27 0 32 5 46 22 57 18 13 19 16 5 16 -47 0
-91 -146 -47 -157 28 -7 10 -38 -31 -52 -36 -12 -168 -15 -184 -3 -20 14 -42
58 -64 127 -13 39 -29 88 -37 110 -18 53 -18 55 10 55 36 0 186 53 259 92 64
34 66 34 72 14 4 -12 7 -25 6 -29 -1 -4 7 -3 17 2 14 7 19 6 19 -4 0 -8 -3
-12 -6 -10 -4 2 -15 -3 -25 -10 -17 -13 -16 -14 10 -11 26 3 29 7 30 43 0 21
4 45 9 53 5 8 4 11 -2 7 -17 -11 -23 20 -7 33 8 7 14 20 14 29 0 20 70 -151
100 -246z m-46 -590 c3 -10 7 -37 8 -60 2 -22 5 -40 8 -38 3 2 21 -21 40 -51
19 -30 55 -82 80 -116 96 -129 101 -138 90 -158 -18 -33 -49 -35 -82 -3 -33
31 -197 257 -205 282 -4 12 -3 13 4 3 6 -7 17 -10 28 -6 13 5 16 4 11 -5 -5
-7 1 -20 16 -31 12 -11 28 -24 34 -29 8 -7 13 -4 17 9 3 14 1 17 -11 13 -12
-5 -14 -2 -9 12 6 14 4 15 -5 7 -9 -7 -17 -6 -26 4 -13 14 -12 15 11 18 17 2
15 31 -3 31 -8 0 -14 -6 -12 -13 1 -8 -2 -11 -8 -7 -6 4 -7 13 -2 23 13 26 7
87 -11 116 -9 14 -17 28 -17 31 0 13 39 -16 44 -32z m-404 -259 c15 -38 12
-48 -7 -33 -9 8 -14 9 -11 3 4 -5 2 -28 -4 -50 -5 -21 -12 -56 -13 -77 -2 -20
-7 -43 -12 -50 -4 -6 -8 -16 -9 -22 -4 -26 -110 -306 -134 -354 l-26 -53 -23
67 c-20 61 -20 69 -6 85 8 9 15 22 15 29 0 6 9 28 19 49 10 20 49 127 86 237
37 110 69 203 72 208 8 13 44 -13 53 -39z"/>
<path d="M1276 1473 c-18 -38 -61 -115 -95 -173 -34 -58 -61 -109 -61 -115 0
-5 -52 -60 -117 -122 -64 -62 -114 -116 -110 -120 4 -4 45 30 90 75 102 101
102 101 89 77 -6 -11 -38 -44 -71 -73 -58 -50 -77 -82 -48 -82 6 0 47 34 90
75 43 41 84 75 93 75 20 0 136 -40 151 -51 8 -8 4 -22 -18 -57 -16 -26 -38
-74 -49 -106 -28 -82 -62 -125 -94 -119 -25 5 -25 6 -11 39 18 44 10 67 -21
61 -13 -2 -25 1 -28 8 -5 14 -58 43 -91 51 -47 12 -192 16 -199 6 -4 -6 2 -8
14 -5 15 4 20 0 20 -15 0 -16 10 -24 38 -31 42 -12 102 -14 127 -4 15 5 15 8
-6 24 l-24 19 34 -10 c45 -12 83 -38 75 -51 -3 -6 -16 -14 -28 -19 -18 -7 -18
-9 -3 -9 33 -1 12 -25 -28 -34 -61 -12 -74 -6 -45 21 l24 22 -45 0 c-53 0
-209 28 -229 41 -12 8 -11 13 10 29 20 17 21 19 5 14 -29 -10 -55 -45 -55 -75
0 -23 -5 -27 -39 -33 -21 -3 -49 -14 -62 -25 -23 -18 -24 -25 -27 -170 -2 -83
-2 -151 0 -151 1 0 36 -14 77 -30 40 -17 83 -30 95 -30 12 0 26 -4 32 -9 5 -5
52 -12 104 -16 52 -3 109 -8 125 -12 27 -5 28 -7 10 -14 -11 -4 -14 -8 -7 -8
6 -1 12 -6 12 -12 0 -5 -4 -7 -10 -4 -5 3 -10 1 -10 -4 0 -6 12 -11 28 -11 21
0 24 2 12 10 -12 7 -8 10 15 10 17 0 40 3 53 6 19 5 22 2 23 -22 1 -28 1 -28
11 6 8 28 7 36 -8 47 -10 7 -27 13 -38 13 -12 0 -32 3 -44 7 -18 4 -20 8 -10
14 10 7 10 9 -3 9 -8 0 -24 -7 -35 -15 -25 -19 -54 -19 -54 1 0 10 6 14 15 10
11 -4 15 1 15 19 0 28 -7 30 -110 40 -36 3 -99 14 -140 25 -126 30 -130 31
-130 20 0 -14 75 -46 128 -55 26 -4 41 -12 39 -18 -6 -18 -77 -12 -129 11 -54
24 -51 9 -50 210 0 72 4 98 17 112 28 31 72 33 140 6 85 -35 259 -59 364 -52
47 4 85 7 86 9 24 35 87 117 90 117 2 0 -13 -25 -35 -57 -22 -31 -40 -62 -40
-70 0 -7 -4 -13 -10 -13 -5 0 -10 -15 -10 -34 0 -30 3 -34 33 -39 17 -2 34 -1
35 4 2 5 8 7 13 3 5 -3 9 -1 9 5 0 6 -15 7 -35 4 -44 -7 -47 13 -7 54 15 16
56 70 92 121 36 51 82 115 103 143 20 28 37 56 36 63 0 7 -2 7 -6 -1 -7 -20
-23 -15 -17 5 3 11 -2 8 -13 -7 -10 -14 -26 -34 -36 -45 -17 -20 -18 -20 -2
11 24 51 20 57 -56 82 -39 12 -69 24 -67 27 2 2 40 -7 84 -21 89 -28 92 -28
79 -16 -6 5 -56 23 -112 40 -78 24 -103 36 -103 49 0 15 -2 15 -11 2 -9 -13
-10 -13 -6 0 2 8 9 14 15 13 6 -2 21 14 34 35 12 20 37 57 55 81 36 46 57 81
49 81 -2 0 -26 -30 -52 -67 -26 -38 -51 -72 -57 -78 -18 -19 12 32 63 105 27
41 50 84 50 97 0 15 4 22 11 17 8 -5 8 -1 0 14 -8 15 -8 22 2 25 9 4 9 6 -1 6
-7 1 -25 -20 -40 -45 -41 -70 -67 -97 -33 -34 34 63 63 130 57 130 -3 0 -21
-30 -40 -67z"/>
<path d="M1747 1385 c-14 -10 -15 -14 -5 -18 7 -3 3 -6 -9 -6 -13 -1 -23 4
-23 10 0 19 -283 -239 -302 -276 -7 -14 -1 -11 21 9 34 33 43 25 10 -10 -11
-12 -17 -24 -12 -27 5 -3 44 25 86 62 43 37 112 85 153 106 115 59 148 81 135
89 -7 4 -48 -15 -94 -43 l-82 -51 60 57 c78 75 98 100 88 106 -5 3 -16 -1 -26
-8z"/>
<path d="M3398 785 c17 -8 32 -18 32 -23 0 -18 -58 -82 -124 -138 -73 -60
-206 -145 -217 -138 -13 7 -19 66 -9 85 6 10 25 26 43 35 18 9 48 31 68 48 73
64 89 76 102 76 21 0 57 30 57 48 -1 15 -2 15 -11 -1 -6 -11 -23 -24 -38 -30
-15 -7 -75 -48 -134 -92 -102 -77 -106 -82 -106 -118 -1 -27 6 -45 23 -62 41
-41 68 -41 136 0 33 20 58 40 55 45 -3 5 0 12 6 16 8 4 9 3 5 -4 -13 -21 9
-13 45 17 43 36 149 164 149 180 0 21 -63 71 -90 71 -24 -1 -23 -2 8 -15z"/>
<path d="M118 477 c-57 -52 -76 -154 -39 -206 13 -17 18 -37 15 -52 -4 -17 -3
-20 4 -11 5 8 38 16 78 20 108 9 127 7 279 -24 39 -8 79 -14 90 -14 39 1 -8
16 -150 49 -207 48 -190 39 -193 95 -3 39 2 55 24 87 26 37 29 39 83 39 63 1
187 23 199 35 4 5 -1 5 -12 1 -10 -3 -65 -9 -121 -13 -86 -5 -106 -3 -126 11
-39 27 -90 21 -131 -17z"/>
<path d="M680 339 c-73 -29 -122 -137 -100 -220 16 -59 99 -116 113 -76 3 9 9
9 26 -1 24 -14 52 -5 30 10 -9 5 -4 6 14 2 21 -5 34 -1 53 17 13 12 24 19 24
14 0 -5 6 -1 13 8 11 16 14 16 41 -2 21 -14 36 -17 56 -11 16 5 64 11 107 14
115 10 236 27 254 36 11 6 24 3 39 -7 27 -19 110 -12 147 12 23 15 26 15 39
-2 12 -16 12 -14 2 14 -7 18 -9 35 -6 39 4 3 54 0 111 -7 90 -11 119 -10 222
5 138 19 163 29 52 20 -55 -5 -77 -4 -77 5 0 6 17 12 38 12 l37 1 -40 8 c-26
5 -42 4 -47 -3 -5 -8 -16 -8 -41 1 -45 16 -55 15 -31 -4 18 -15 18 -15 -8 -10
-14 3 -34 8 -45 11 -10 3 -2 -2 17 -11 18 -8 46 -13 60 -11 14 3 32 2 40 -3
10 -6 -20 -9 -82 -9 -54 1 -95 5 -92 10 3 5 17 6 32 3 15 -4 24 -4 20 1 -3 4
-28 9 -53 11 -26 3 -56 9 -67 15 -11 6 -22 8 -26 5 -3 -3 -3 -6 -1 -6 2 0 22
-7 44 -15 l40 -14 -38 -1 c-20 0 -81 7 -135 16 -53 9 -155 17 -225 19 -112 3
-131 5 -147 23 -16 17 -28 19 -97 15 -97 -6 -100 -7 -106 -35 -4 -22 -4 -22
-6 2 -1 18 -4 21 -10 11 -7 -10 -11 -5 -16 17 -10 47 -57 82 -108 81 -23 0
-53 -5 -67 -10z"/>
</g>
</svg>
