<?xml version="1.0" standalone="no"?>
<!DOCTYPE svg PUBLIC "-//W3C//DTD SVG 20010904//EN"
 "http://www.w3.org/TR/2001/REC-SVG-20010904/DTD/svg10.dtd">
<svg version="1.0" xmlns="http://www.w3.org/2000/svg"
 width="2400.000000pt" height="2012.000000pt" viewBox="0 0 2400.000000 2012.000000"
 preserveAspectRatio="xMidYMid meet">
<metadata>
Created by potrace 1.11, written by Peter Selinger 2001-2013
</metadata>
<g transform="translate(0.000000,2012.000000) scale(0.100000,-0.100000)"
fill="#000000" stroke="none">
<path d="M5290 20099 c-752 -85 -1386 -596 -1624 -1311 -390 -1169 394 -2398
1619 -2538 677 -77 1354 217 1764 764 281 376 419 846 381 1304 -64 787 -577
1445 -1320 1692 -257 86 -557 119 -820 89z"/>
<path d="M10660 17171 l0 -2928 -22 -29 c-72 -92 -981 -1174 -987 -1174 -4 0
-61 186 -126 413 -65 226 -135 464 -157 527 -93 270 -295 622 -491 855 -367
436 -860 744 -1407 879 -350 86 -384 88 -2090 84 -1595 -4 -1508 -1 -1769 -64
-329 -81 -699 -263 -992 -490 -395 -305 -740 -739 -883 -1109 -19 -49 -321
-1134 -670 -2410 -350 -1276 -639 -2328 -642 -2337 -5 -17 40 -18 845 -18
l850 0 16 52 c8 29 239 869 514 1866 275 998 501 1816 504 1818 2 2 96 3 209
2 l205 -3 -494 -1835 c-272 -1009 -497 -1850 -500 -1867 l-6 -33 3007 0 c1653
0 3006 2 3006 5 0 3 -241 840 -535 1861 -294 1021 -535 1860 -535 1865 0 5 93
9 218 9 l217 0 249 -798 c329 -1049 338 -1078 389 -1186 204 -431 560 -628
922 -512 148 48 315 162 432 294 86 98 2121 2557 2170 2622 60 81 98 154 132
255 l30 90 5866 3 5865 2 0 200 0 200 -5885 0 -5885 0 -21 43 c-26 50 -86 138
-129 187 l-30 34 -84 -83 -85 -84 -48 41 c-26 22 -68 61 -92 85 l-44 45 19 24
c37 46 4795 5038 4802 5038 4 0 47 -40 95 -88 l88 -88 -2247 -2360 c-1235
-1297 -2260 -2374 -2277 -2391 l-31 -33 5927 0 5927 0 0 2725 0 2725 -6295 0
-6295 0 0 -2664 0 -2664 -52 -6 c-29 -4 -83 -17 -120 -30 l-68 -23 0 2694 0
2693 -255 0 -255 0 0 -2929z m9332 1827 l3 -483 98 -3 97 -3 0 -79 0 -79 -97
-3 -98 -3 -3 -177 -2 -178 -90 0 -90 0 0 180 0 180 -325 0 -325 0 0 80 0 79
342 486 342 485 73 0 73 0 2 -482z m3418 -154 c72 -31 130 -112 130 -184 0
-49 -31 -112 -70 -142 l-33 -26 37 -17 c121 -58 143 -228 43 -341 -61 -70
-106 -89 -207 -89 -68 0 -93 5 -125 22 -67 36 -114 97 -130 171 -6 27 -4 32
13 32 11 0 33 3 50 6 29 6 31 4 42 -35 16 -59 68 -108 125 -116 57 -9 129 24
162 74 31 45 32 132 3 179 -28 46 -98 76 -157 68 l-44 -6 3 37 c3 35 5 36 65
53 73 20 91 33 110 79 21 50 9 104 -33 141 -30 25 -43 30 -89 30 -46 0 -59 -4
-90 -31 -20 -18 -40 -48 -47 -71 -11 -39 -12 -39 -52 -33 -23 4 -45 11 -49 15
-12 11 28 99 61 133 68 72 182 92 282 51z m-7312 -736 c63 -170 406 -1137 424
-1197 l22 -73 53 154 c29 84 137 380 241 658 l188 505 102 3 103 3 -14 -33
c-8 -18 -139 -354 -293 -745 l-278 -713 -102 0 -101 0 -281 728 c-155 400
-284 735 -288 745 -6 15 3 17 99 17 l106 0 19 -52z m5397 -163 c28 -3 130 -25
228 -50 169 -43 186 -45 318 -45 l139 0 0 -61 0 -61 -155 4 -155 3 0 -457 0
-458 -90 0 -90 0 0 479 0 479 -108 26 c-60 14 -125 26 -145 26 l-37 0 0 -505
0 -505 -85 0 -85 0 0 501 0 500 -22 -6 c-81 -23 -203 -115 -220 -165 -4 -13
-13 -12 -61 3 -31 10 -57 22 -57 27 0 5 21 37 48 71 84 112 217 182 375 199
70 7 99 7 202 -5z m1413 -50 c28 -13 52 -30 51 -37 0 -7 -13 -44 -28 -83 -19
-48 -32 -69 -42 -66 -112 33 -127 35 -166 23 -54 -16 -89 -45 -114 -95 -39
-76 -48 -171 -49 -504 l0 -313 -90 0 -90 0 0 540 0 540 80 0 79 0 3 -77 3 -76
37 55 c83 125 189 155 326 93z m-4558 -260 l0 -85 -495 0 -495 0 0 78 c0 43 3
82 7 85 3 4 226 7 495 7 l488 0 0 -85z m2460 -235 l0 -100 -1135 0 -1135 0 0
100 0 100 1135 0 1135 0 0 -100z m-2465 -220 l0 -85 -490 0 -490 0 -3 74 c-2
41 -1 80 2 88 5 11 91 13 493 11 l488 -3 0 -85z m1496 -250 c133 -25 247 -108
302 -219 29 -59 32 -74 32 -156 0 -75 -4 -98 -25 -140 -28 -57 -95 -126 -140
-145 l-32 -13 69 -32 c132 -62 194 -159 201 -316 7 -156 -29 -250 -136 -351
-100 -96 -209 -138 -356 -138 -50 0 -114 6 -142 14 -155 41 -279 165 -320 320
-23 84 -25 82 73 95 48 6 90 7 93 3 4 -4 14 -32 23 -62 24 -79 56 -129 105
-167 55 -42 111 -56 192 -51 110 8 199 68 247 166 24 49 28 69 28 142 0 70 -4
93 -23 130 -53 102 -135 153 -247 154 -38 1 -87 -3 -108 -7 l-39 -8 6 40 c3
23 9 58 12 80 l5 38 67 6 c164 14 261 103 262 240 0 96 -41 165 -125 210 -57
31 -173 30 -232 -1 -74 -39 -120 -102 -144 -196 -9 -35 -15 -45 -28 -42 -9 2
-49 10 -89 16 l-74 12 7 37 c3 20 21 68 39 106 86 183 281 276 497 235z"/>
<path d="M19580 18855 c-123 -178 -226 -329 -228 -334 -3 -8 69 -11 227 -11
l231 0 0 335 c0 184 -1 335 -2 335 -2 0 -104 -146 -228 -325z"/>
<path d="M0 8485 l0 -445 5220 0 5220 0 0 445 0 445 -5220 0 -5220 0 0 -445z"/>
<path d="M0 7620 l0 -250 4385 0 4385 0 0 -3405 0 -3405 -4385 0 -4385 0 0
-275 0 -275 4650 0 4650 0 0 3930 0 3930 -4650 0 -4650 0 0 -250z"/>
<path d="M0 3970 l0 -3330 4320 0 4320 0 0 3330 0 3330 -4320 0 -4320 0 0
-3330z"/>
</g>
</svg>
