<?xml version="1.0" standalone="no"?>
<!DOCTYPE svg PUBLIC "-//W3C//DTD SVG 20010904//EN"
 "http://www.w3.org/TR/2001/REC-SVG-20010904/DTD/svg10.dtd">
<svg version="1.0" xmlns="http://www.w3.org/2000/svg"
 width="2000.000000pt" height="2000.000000pt" viewBox="0 0 2000.000000 2000.000000"
 preserveAspectRatio="xMidYMid meet">
<metadata>
Created by potrace 1.11, written by Peter Selinger 2001-2013
</metadata>
<g transform="translate(0.000000,2000.000000) scale(0.100000,-0.100000)"
fill="#000000" stroke="none">
<path d="M9214 19195 c-2 -66 5 -77 32 -50 9 8 25 15 37 15 22 -1 22 -1 3 -15
-19 -14 -17 -15 18 -15 32 0 36 2 27 14 -8 9 -8 16 -2 20 5 4 12 2 16 -4 4 -6
10 -8 15 -5 5 3 13 -3 19 -12 9 -16 11 -16 20 7 10 25 10 25 10 2 1 -20 4 -21
21 -12 11 6 20 7 20 2 0 -5 12 -15 28 -23 15 -8 30 -18 34 -23 8 -12 58 -19
58 -9 0 4 -19 26 -41 48 -31 31 -37 41 -24 43 9 2 24 -3 34 -12 27 -25 44 -21
29 6 -21 38 -49 52 -94 49 -35 -2 -42 1 -47 18 -5 20 -12 21 -109 21 l-103 0
-1 -65z"/>
<path d="M9450 18950 c0 -5 7 -10 15 -10 8 0 15 -7 15 -15 0 -8 -5 -15 -10
-15 -6 0 -8 -13 -5 -30 5 -28 -2 -36 -28 -31 -5 1 -6 -3 -2 -9 3 -5 -1 -13 -9
-16 -9 -3 -13 -11 -9 -17 4 -6 0 -8 -10 -4 -9 3 -19 1 -23 -5 -4 -7 -3 -8 4
-4 7 4 12 3 12 -2 0 -13 -40 -62 -50 -62 -12 0 -17 69 -6 80 7 7 5 10 -6 10
-9 0 -18 -5 -20 -12 -6 -17 -28 0 -28 21 0 10 -8 25 -18 34 -18 16 -20 15 -46
-13 -15 -17 -30 -28 -35 -26 -4 3 -6 -6 -3 -19 3 -20 1 -24 -12 -19 -9 3 -16
10 -16 15 0 15 -20 10 -43 -11 -16 -15 -29 -19 -50 -14 -23 5 -28 3 -22 -7 5
-7 -3 -4 -17 7 -18 13 -22 22 -14 27 6 5 0 5 -14 2 -14 -4 -31 -14 -39 -24
-12 -14 -12 -13 -6 7 6 22 5 23 -17 11 -14 -7 -18 -14 -10 -17 17 -5 15 -22
-3 -22 -8 0 -15 5 -15 10 0 19 -19 10 -52 -26 -23 -24 -39 -33 -51 -28 -9 3
-14 10 -11 15 3 5 9 7 13 5 4 -3 21 8 36 24 23 24 26 32 15 45 -23 27 -38 18
-34 -22 l4 -38 -19 25 c-15 19 -28 24 -59 23 -41 -2 -70 17 -57 37 3 5 2 10
-4 10 -5 0 -16 3 -24 6 -13 5 -14 -1 -7 -32 5 -21 8 -40 7 -41 -7 -7 -46 11
-41 18 3 5 1 9 -5 9 -5 0 -12 -6 -14 -12 -4 -10 -8 -10 -15 1 -12 17 -46 6
-36 -11 6 -10 4 -10 -8 0 -13 10 -17 10 -21 0 -4 -8 -6 -7 -6 5 -1 9 -7 17
-13 17 -9 0 -8 4 2 10 11 7 7 10 -19 10 -19 0 -32 -3 -28 -6 15 -16 -56 -110
-75 -98 -4 3 -8 -1 -8 -10 0 -8 5 -16 12 -18 9 -3 9 -6 0 -12 -7 -4 -12 -2
-12 3 0 6 -4 11 -9 11 -5 0 -5 -17 1 -39 6 -25 15 -38 23 -35 7 3 16 -3 19
-13 4 -10 3 -19 -2 -21 -6 -2 -23 -14 -39 -28 -24 -20 -25 -24 -9 -24 18 0 18
-1 3 -18 -10 -10 -17 -23 -17 -28 0 -5 -11 -19 -24 -32 l-24 -22 -7 29 c-3 16
-2 39 4 50 14 25 14 41 0 41 -5 0 -7 -5 -4 -11 4 -6 -2 -5 -13 2 -12 7 -18 17
-15 23 3 5 1 6 -6 2 -9 -6 -9 -11 -1 -21 6 -7 9 -25 6 -39 -3 -15 -1 -24 5
-21 5 4 9 -1 9 -9 0 -9 -7 -16 -15 -16 -8 0 -15 5 -15 10 0 18 -19 11 -55 -21
-19 -17 -32 -36 -28 -42 3 -5 1 -7 -5 -3 -6 3 -13 2 -17 -4 -4 -6 -15 -5 -33
3 -15 8 -35 12 -44 10 -11 -3 -18 1 -18 10 0 9 9 13 24 12 17 -2 23 1 20 10
-4 10 1 12 18 8 21 -6 22 -5 8 12 -14 17 -13 18 2 12 11 -4 15 -2 12 6 -2 7 7
21 21 31 14 10 25 27 25 37 0 11 5 19 11 19 5 0 7 4 4 10 -3 5 -1 19 5 30 7
13 7 20 0 20 -5 0 -10 8 -11 18 0 13 -2 12 -9 -5 -5 -13 -14 -23 -20 -23 -5 0
-10 -5 -10 -11 0 -5 4 -8 9 -5 5 3 8 -2 7 -12 -1 -18 -36 -43 -48 -36 -13 9
-9 34 6 34 7 0 16 11 18 25 5 22 2 25 -16 20 -21 -6 -21 -6 -1 11 20 16 19 16
-7 12 -25 -5 -28 -2 -28 23 0 15 -5 31 -10 34 -6 4 -8 14 -6 23 3 10 1 24 -5
32 -9 12 -10 11 -6 -7 3 -13 1 -23 -4 -23 -6 0 -7 -15 -3 -35 6 -36 -11 -51
-22 -20 -4 8 -12 15 -20 15 -17 0 -17 0 1 41 13 30 14 31 15 10 0 -13 3 -21 7
-17 10 10 13 67 3 61 -4 -3 -10 4 -13 15 -5 21 -37 28 -37 9 0 -5 -3 -8 -7 -6
-5 3 -8 -19 -8 -48 0 -29 3 -51 6 -49 4 2 10 -4 14 -13 3 -10 1 -19 -4 -21 -6
-2 -11 -19 -11 -37 0 -24 -4 -32 -16 -31 -9 0 -19 -5 -21 -12 -3 -7 -1 -12 4
-11 15 4 63 -20 63 -32 0 -6 -9 -20 -21 -30 -11 -10 -18 -23 -14 -28 3 -6 0
-11 -8 -11 -8 0 -24 -20 -37 -45 -22 -43 -40 -58 -40 -33 0 14 -29 -22 -30
-36 0 -6 7 -1 15 10 8 10 15 14 15 7 0 -6 -5 -15 -10 -18 -6 -4 -8 -10 -5 -15
3 -4 -4 -6 -15 -3 -11 3 -20 0 -20 -6 0 -6 8 -11 18 -11 16 -1 16 -1 -1 -11
-9 -5 -22 -7 -27 -4 -9 5 -11 1 -10 -20 0 -3 -12 -17 -26 -30 -26 -24 -26 -25
-5 -25 11 0 21 5 21 10 0 6 3 9 8 9 27 -5 34 1 21 18 -12 14 -12 15 0 9 7 -5
16 -4 20 2 7 12 71 24 71 13 0 -5 -13 -18 -30 -31 -16 -13 -30 -29 -30 -36 0
-8 -4 -14 -9 -14 -5 0 -14 -13 -21 -30 -7 -16 -17 -27 -22 -24 -5 3 -8 -2 -6
-12 2 -13 -3 -19 -18 -19 -27 -1 -84 -59 -85 -88 0 -12 -3 -16 -6 -9 -5 14
-56 -50 -67 -85 -8 -25 -31 -24 -51 3 -8 11 -15 14 -15 7 0 -7 -5 -13 -11 -13
-6 0 -8 7 -5 16 5 14 4 15 -9 4 -15 -12 -22 0 -7 14 4 4 7 11 7 15 0 3 6 13
13 21 7 8 23 31 37 50 13 19 32 46 42 59 12 17 14 26 6 28 -7 3 -10 10 -7 17
6 16 -23 30 -31 15 -4 -5 -11 -7 -16 -3 -5 3 0 18 11 34 11 15 20 34 20 40 0
13 14 27 69 69 23 18 30 30 26 45 -3 12 -2 15 1 9 8 -17 25 -17 18 0 -3 8 5
13 22 15 34 3 45 12 16 12 -12 0 -22 5 -22 12 0 7 -7 5 -18 -5 -16 -15 -18
-15 -18 3 0 10 4 16 9 13 5 -3 6 5 1 18 -9 27 -9 34 -1 105 4 41 2 52 -12 61
-15 10 -20 5 -36 -30 -18 -41 -73 -109 -59 -74 4 12 1 17 -10 17 -11 0 -16 -9
-16 -27 0 -20 -3 -24 -9 -14 -15 23 -31 3 -21 -24 7 -20 6 -25 -5 -25 -8 0
-15 -7 -15 -15 0 -8 -5 -15 -11 -15 -8 0 -7 -6 2 -17 13 -15 11 -16 -16 -9
-16 4 -27 4 -23 0 9 -8 -31 -85 -49 -97 -7 -4 -13 -23 -13 -41 0 -31 -23 -56
-38 -41 -3 3 -1 5 5 5 12 0 37 89 28 98 -3 3 -5 1 -5 -5 0 -6 -7 -14 -16 -17
-12 -4 -15 -2 -10 9 7 18 -20 21 -27 3 -4 -10 -8 -9 -16 2 -9 13 -11 13 -11
-2 0 -10 5 -18 10 -18 6 0 10 -6 10 -13 0 -18 -35 -49 -44 -40 -4 4 -3 -5 3
-20 10 -25 7 -31 -12 -28 -5 1 -7 -4 -5 -11 3 -7 11 -13 19 -13 21 0 23 -31 3
-54 -13 -15 -22 -18 -36 -10 -10 6 -18 6 -18 1 0 -6 -8 -12 -17 -16 -24 -7
-55 -28 -68 -44 -9 -11 -13 -11 -24 2 -15 18 -8 46 12 46 16 0 44 47 34 57 -4
3 -7 0 -7 -9 0 -17 -31 -20 -43 -4 -6 7 -7 4 -3 -7 7 -21 -28 -60 -58 -65 -14
-3 -17 1 -13 12 10 26 -35 19 -62 -10 -18 -19 -26 -22 -32 -12 -5 7 -9 11 -10
8 -7 -42 -11 -55 -21 -73 -11 -20 -12 -20 -16 -4 -2 11 -9 16 -18 13 -12 -5
-12 -2 -3 15 6 11 8 23 5 27 -3 3 -6 2 -6 -2 0 -4 -9 -2 -19 4 -18 9 -19 8
-11 -20 7 -25 5 -30 -12 -35 -17 -6 -18 -9 -5 -23 8 -10 18 -33 22 -52 11 -51
18 -61 35 -49 11 8 12 12 3 16 -18 7 -16 23 2 23 8 0 15 9 15 20 0 11 8 24 18
27 9 4 24 16 33 27 16 19 16 19 21 -17 2 -24 0 -37 -8 -37 -20 0 -34 -24 -24
-40 7 -10 10 -11 10 -2 0 18 25 15 41 -5 12 -15 12 -16 -5 -10 -16 6 -17 5 -6
-8 19 -23 -1 -41 -28 -26 -17 9 -19 8 -15 -9 3 -11 0 -26 -6 -34 -8 -10 -9
-16 -1 -21 5 -3 10 -16 10 -28 l-1 -22 -12 23 c-7 12 -16 19 -20 16 -4 -4 -7
2 -7 14 0 11 -11 29 -23 39 -13 10 -26 25 -30 33 -4 12 -6 11 -6 -2 -1 -10 -7
-18 -13 -18 -9 0 -9 -3 1 -9 8 -5 11 -16 8 -24 -3 -8 -1 -19 5 -25 5 -5 11
-37 13 -71 3 -46 0 -61 -10 -61 -8 0 -17 5 -21 12 -5 7 -3 8 6 3 9 -5 11 -4 6
4 -4 6 -12 9 -17 6 -5 -4 -22 2 -39 12 -29 17 -30 17 -44 -2 -19 -26 -47 -142
-42 -177 2 -15 -1 -25 -5 -22 -5 3 -9 -2 -9 -11 0 -10 5 -13 12 -9 7 4 8 3 4
-5 -4 -6 -3 -17 2 -24 5 -7 12 -24 16 -39 5 -22 3 -25 -14 -21 -29 8 -42 28
-45 70 -3 49 -24 105 -37 97 -6 -4 -7 8 -2 30 5 31 3 40 -20 61 -25 23 -26 23
-36 5 -5 -10 -10 -27 -10 -37 1 -14 4 -13 15 7 13 23 21 15 16 -14 -1 -5 5 -4
13 4 13 10 16 10 16 -4 0 -14 -11 -21 -32 -17 -5 0 -8 -4 -8 -10 0 -6 -7 -17
-15 -25 -12 -13 -15 -13 -15 -2 0 8 5 19 12 26 9 9 8 12 -5 12 -10 0 -17 6
-15 13 4 20 -13 58 -24 55 -10 -4 -13 -15 -22 -91 -3 -30 -16 -49 -17 -26 -1
31 -18 -29 -18 -68 -1 -41 -2 -42 -20 -26 -11 9 -18 20 -15 25 10 16 -7 67
-20 62 -18 -7 -13 -49 14 -109 19 -44 23 -48 34 -33 11 15 13 15 26 -5 8 -12
15 -32 17 -44 2 -23 33 -76 33 -57 0 5 -6 16 -12 23 -11 11 -9 12 10 6 29 -8
29 10 1 76 -17 38 -19 53 -10 62 8 8 11 7 11 -6 0 -9 8 -17 18 -18 9 0 12 -3
6 -5 -13 -5 -7 -44 7 -44 5 0 6 -6 3 -14 -3 -8 0 -17 5 -21 6 -3 9 -10 7 -14
-8 -12 28 -9 36 3 4 6 7 2 6 -9 0 -11 3 -28 7 -39 7 -16 6 -17 -13 -7 -12 7
-22 8 -23 4 0 -4 -4 0 -7 10 -7 16 -10 16 -30 -8 -15 -17 -18 -25 -8 -25 16 0
29 -27 20 -43 -3 -7 1 -5 8 4 12 15 15 15 25 -7 9 -20 8 -24 -4 -24 -18 0 -83
38 -83 49 0 4 -9 7 -20 7 -11 0 -20 -3 -20 -5 0 -8 84 -81 93 -81 4 0 7 -4 7
-9 0 -5 -13 -3 -30 5 -16 9 -51 17 -77 20 -66 6 -80 12 -86 34 -5 20 8 39 15
20 2 -7 14 -7 36 1 33 11 44 29 17 29 -8 0 -15 -4 -15 -10 0 -5 -7 -10 -15
-10 -8 0 -15 5 -15 10 0 6 -7 10 -16 10 -8 0 -13 4 -10 8 11 18 -48 11 -64 -8
-19 -22 -31 -26 -27 -9 1 6 -5 14 -13 16 -13 4 -13 3 0 -6 10 -7 11 -11 3 -11
-7 0 -13 -5 -13 -11 0 -5 4 -8 9 -5 5 3 11 -5 13 -19 3 -13 2 -22 -3 -20 -4 3
-13 -11 -19 -30 -7 -21 -16 -32 -23 -28 -6 4 -8 0 -4 -10 4 -10 2 -17 -4 -17
-7 0 -9 -11 -7 -24 3 -16 0 -27 -9 -30 -8 -3 -12 -2 -9 2 3 5 -1 9 -9 9 -16 0
-15 -21 3 -54 7 -12 12 -24 12 -27 0 -8 -44 -3 -58 7 -16 13 -21 7 -24 -29 -1
-16 -9 -34 -18 -41 -13 -11 -13 -13 0 -14 8 -1 18 -1 23 0 4 0 7 -4 7 -9 0 -6
-4 -10 -10 -10 -5 0 -10 -4 -10 -10 0 -5 7 -7 15 -4 8 4 17 -1 21 -10 3 -9 15
-16 26 -16 10 0 16 -4 13 -10 -3 -5 -1 -10 5 -10 6 0 8 -4 5 -10 -3 -5 0 -10
7 -10 9 0 9 -3 -2 -10 -12 -8 -12 -10 -1 -10 19 0 -3 -26 -28 -33 -14 -3 -17
0 -13 19 2 13 -1 31 -9 40 -11 14 -14 13 -25 -8 -11 -20 -10 -24 4 -30 14 -5
13 -7 -4 -7 -23 -1 -39 23 -27 42 4 6 0 8 -9 4 -9 -3 -25 1 -37 9 -16 12 -21
12 -19 3 3 -15 36 -54 46 -55 4 0 18 -6 32 -12 19 -8 21 -11 7 -11 -17 -1 -17
-2 -3 -17 24 -24 20 -42 -9 -36 -14 2 -23 7 -20 11 2 4 -5 14 -16 21 -10 8
-19 21 -19 29 0 8 -3 12 -6 8 -3 -3 -19 10 -36 28 -21 24 -28 40 -23 55 3 11
3 25 -1 32 -6 9 -11 5 -16 -12 -6 -20 -7 -18 -3 9 4 29 3 33 -15 28 -13 -3
-18 -1 -13 6 4 6 0 8 -10 4 -10 -3 -17 -2 -17 4 0 14 -26 39 -40 39 -8 0 -10
-8 -7 -21 4 -15 2 -19 -9 -15 -9 3 -14 -1 -14 -14 0 -14 -5 -18 -17 -13 -15 5
-14 3 2 -10 11 -9 15 -17 8 -17 -7 0 -12 -3 -12 -7 1 -5 1 -15 0 -23 -1 -12
-3 -12 -10 -2 -11 18 -71 -54 -71 -85 0 -14 -6 -23 -16 -23 -11 0 -14 -5 -10
-16 3 -9 6 -20 6 -25 0 -6 5 -7 10 -4 6 3 10 -1 10 -10 0 -9 4 -14 9 -11 5 3
12 -1 15 -10 4 -11 14 -15 30 -12 17 4 23 1 19 -9 -3 -7 2 -13 11 -13 9 0 16
-4 16 -9 0 -11 49 -29 71 -26 11 2 16 -6 17 -26 3 -51 5 -59 14 -59 5 0 6 -4
3 -10 -3 -5 -2 -10 3 -10 5 0 12 -8 15 -17 2 -10 8 -27 13 -38 8 -19 7 -19
-16 -4 -14 8 -40 14 -57 13 -22 -1 -33 3 -33 11 0 7 -6 16 -12 19 -17 7 40 -1
72 -10 23 -7 24 -6 10 9 -34 37 -41 48 -45 67 -2 11 1 20 8 20 21 0 -7 16 -49
28 -52 15 -59 15 -47 0 11 -15 11 -38 1 -38 -5 0 -12 0 -16 0 -4 0 -9 10 -9
23 -4 43 -14 67 -28 67 -8 0 -15 5 -15 10 0 6 -9 10 -20 10 -11 0 -20 6 -20
13 -1 6 -10 -5 -21 -25 -11 -21 -24 -38 -30 -38 -6 0 -6 -6 1 -19 15 -28 12
-51 -5 -51 -18 0 -20 -16 -4 -26 8 -4 7 -9 -2 -14 -8 -5 -19 0 -31 16 -11 13
-24 24 -31 24 -6 0 -3 -6 8 -14 12 -8 16 -20 13 -34 -3 -12 -3 -20 1 -19 3 1
7 -2 9 -8 1 -5 -6 -10 -15 -10 -10 0 -21 -7 -25 -15 -5 -12 -7 -12 -7 3 -1 9
-5 17 -9 17 -12 0 -13 -42 -1 -56 5 -7 6 -15 2 -17 -5 -3 -15 8 -22 24 -13 29
-35 42 -24 13 4 -12 0 -14 -23 -9 -27 6 -28 5 -10 -9 10 -8 16 -21 13 -28 -3
-8 2 -14 12 -14 13 0 16 7 13 23 -2 13 1 23 7 23 6 0 11 -6 11 -12 1 -18 51
-65 83 -77 29 -11 37 -31 12 -31 -8 0 -15 -7 -15 -15 0 -8 -9 -15 -20 -15 -11
0 -20 7 -20 15 0 8 -8 15 -17 15 -15 0 -16 2 -3 10 13 8 12 10 -2 10 -19 0
-22 -12 -19 -70 2 -32 0 -35 -26 -37 -15 -1 -36 6 -45 14 -17 15 -18 14 -18
-7 0 -13 3 -21 6 -17 3 3 21 -14 40 -39 36 -46 47 -101 19 -90 -12 4 -14 -1
-10 -26 3 -17 8 -34 10 -38 2 -4 -2 -16 -10 -26 -19 -25 -19 -45 0 -38 11 5
13 0 6 -23 -4 -15 -6 -58 -4 -95 3 -45 1 -68 -6 -68 -14 0 -14 -33 0 -47 6 -6
13 -28 16 -49 3 -22 10 -47 15 -57 5 -10 7 -22 3 -25 -3 -3 -8 4 -12 16 -3 15
-13 22 -28 22 -14 0 -25 7 -28 18 -4 13 -5 12 -6 -5 0 -12 7 -26 17 -32 9 -5
17 -13 16 -18 -2 -16 9 -43 17 -43 5 0 6 -7 3 -15 -4 -9 0 -15 10 -15 9 0 16
-5 16 -10 0 -17 32 -46 84 -74 27 -15 64 -37 82 -50 32 -22 33 -23 14 -39 -11
-9 -20 -12 -20 -6 0 7 -10 9 -25 5 -14 -4 -28 -1 -35 6 -6 7 -18 22 -28 33
-20 24 -72 49 -72 35 0 -5 9 -12 20 -15 11 -3 20 -14 20 -23 0 -10 10 -22 22
-27 16 -7 23 -20 25 -45 2 -29 0 -32 -10 -19 -14 18 -37 14 -37 -6 0 -7 7 -16
16 -19 10 -4 13 -13 9 -28 -4 -15 -3 -19 3 -10 9 14 42 6 42 -10 0 -5 15 -15
33 -23 l32 -14 -32 -7 c-36 -7 -48 -27 -27 -44 8 -7 14 -21 14 -33 0 -11 10
-28 22 -38 20 -18 20 -20 4 -38 -10 -11 -13 -20 -7 -22 8 -3 7 -14 -1 -36 -11
-30 -10 -35 17 -64 29 -31 29 -32 6 -26 -20 5 -23 3 -18 -19 2 -13 0 -27 -4
-30 -14 -8 -10 -27 4 -21 7 2 18 -7 24 -20 12 -25 12 -25 -7 -8 -11 10 -23 15
-27 12 -3 -4 -1 -7 6 -7 7 0 10 -4 6 -9 -3 -6 3 -14 12 -20 10 -6 14 -11 8
-11 -5 0 1 -7 15 -15 l25 -14 -24 -1 -24 0 27 -25 c14 -13 26 -33 26 -44 0
-14 5 -19 15 -15 18 7 19 0 3 -26 -11 -17 -10 -22 0 -29 7 -4 12 -12 11 -17
-3 -18 1 -37 7 -31 12 12 33 -21 27 -42 -3 -12 -1 -32 5 -44 16 -34 22 -86 11
-92 -12 -8 -2 -43 17 -63 8 -7 14 -24 14 -38 0 -13 6 -24 13 -24 8 0 7 -4 -3
-10 -10 -6 -11 -10 -2 -10 6 0 12 -7 12 -16 0 -8 5 -12 10 -9 6 3 10 0 10 -8
0 -8 6 -17 14 -20 8 -3 18 -27 22 -53 4 -32 16 -56 34 -74 19 -18 26 -35 24
-53 -2 -18 2 -27 12 -27 10 0 14 -12 14 -40 0 -22 5 -40 10 -40 6 0 10 -5 10
-12 0 -6 8 -20 17 -30 19 -21 25 -58 9 -58 -6 0 -4 -5 4 -10 8 -5 11 -10 6
-10 -5 0 -4 -6 1 -12 5 -7 7 -24 5 -38 -2 -14 -4 -41 -5 -60 -2 -41 -15 -59
-38 -53 -34 9 -29 -17 10 -54 75 -71 101 -93 111 -93 6 0 10 -7 10 -15 0 -8 6
-14 13 -12 7 1 13 -10 15 -26 2 -15 8 -25 13 -22 7 5 14 -20 7 -27 -2 -2 5
-13 14 -26 8 -13 13 -32 11 -43 -5 -16 -8 -18 -14 -7 -7 10 -9 9 -9 -5 0 -10
-4 -15 -10 -12 -5 3 -10 2 -10 -2 0 -13 -74 -3 -82 11 -6 8 -8 7 -8 -1 0 -7
-5 -13 -11 -13 -5 0 -7 5 -4 10 3 6 -5 10 -19 10 -13 0 -27 -6 -29 -12 -4 -10
-7 -10 -14 -1 -7 10 -15 10 -36 0 -15 -6 -27 -16 -27 -22 0 -5 -5 -3 -10 5 -6
10 -10 11 -10 3 0 -7 -9 -13 -19 -13 -10 0 -21 -6 -24 -12 -5 -15 -1 -107 7
-153 3 -16 8 -48 12 -70 3 -22 10 -45 15 -50 4 -6 9 -28 11 -48 1 -20 5 -37 8
-37 8 0 30 -52 30 -71 0 -10 4 -20 9 -24 5 -3 17 -29 26 -58 9 -28 20 -60 26
-69 5 -10 9 -25 9 -33 0 -9 5 -13 10 -10 6 3 10 -4 10 -17 0 -13 7 -36 15 -52
8 -15 17 -39 19 -52 3 -13 8 -29 13 -36 4 -7 8 -15 8 -18 9 -55 19 -90 26 -90
6 0 8 -4 4 -9 -3 -5 -1 -12 5 -16 5 -3 10 -13 10 -21 0 -8 12 -33 26 -55 14
-23 21 -38 15 -35 -7 4 -11 -1 -11 -13 0 -15 5 -19 16 -14 13 5 15 2 10 -15
-4 -11 -2 -23 4 -27 5 -3 10 2 10 12 1 16 1 17 10 1 14 -22 1 -51 -19 -44 -14
5 -14 4 1 -7 11 -9 15 -21 11 -37 -4 -15 -2 -21 4 -17 6 4 13 0 17 -8 3 -8 1
-15 -5 -15 -6 0 -7 -5 -4 -10 4 -6 11 -8 16 -4 6 3 9 -4 8 -18 -1 -12 -1 -32
0 -43 1 -17 3 -18 11 -5 8 13 10 12 10 -2 0 -16 17 -23 43 -19 4 0 7 -5 7 -13
0 -24 24 -24 47 -1 12 13 19 26 16 29 -4 3 -1 6 5 6 6 0 9 7 6 15 -5 11 1 15
19 15 17 0 37 -13 61 -42 20 -23 36 -45 36 -50 0 -4 7 -8 15 -8 8 0 15 -4 15
-10 0 -5 12 -13 26 -16 17 -4 23 -11 20 -21 -3 -8 -6 -24 -6 -36 0 -12 -4 -17
-8 -12 -10 14 -32 17 -32 4 0 -8 -5 -8 -15 1 -12 10 -15 10 -15 -4 0 -9 -4
-16 -10 -16 -5 0 -10 4 -10 10 0 6 -8 6 -23 -1 -17 -8 -23 -18 -22 -42 0 -18
5 -39 10 -47 5 -8 10 -26 11 -40 2 -32 7 -52 18 -69 7 -11 5 -13 -6 -8 -11 4
-18 -2 -23 -20 -7 -31 1 -43 10 -14 3 12 13 21 20 21 12 0 11 -4 -1 -27 -7
-16 -14 -38 -14 -50 0 -22 24 -53 41 -53 5 0 9 -6 9 -14 0 -19 30 -42 51 -38
23 4 63 -32 56 -50 -3 -9 3 -14 16 -15 21 -2 39 -22 31 -35 -7 -12 62 -37 85
-31 24 6 83 -15 76 -27 -3 -4 4 -19 15 -33 11 -14 20 -34 20 -45 0 -11 7 -25
15 -32 8 -7 15 -23 15 -36 0 -13 4 -24 10 -24 5 0 12 -17 16 -37 3 -21 22 -66
41 -101 19 -35 36 -75 39 -90 11 -64 18 -90 39 -137 13 -27 26 -60 29 -72 4
-11 13 -24 21 -27 8 -3 15 -12 15 -21 0 -8 4 -15 9 -15 5 0 16 -17 24 -38 8
-21 22 -44 31 -51 9 -8 16 -22 16 -32 0 -11 5 -19 10 -19 6 0 10 -9 10 -19 0
-10 7 -21 15 -25 8 -3 15 -12 15 -19 0 -8 11 -27 25 -43 14 -16 30 -45 35 -66
6 -20 32 -60 60 -90 38 -40 50 -61 50 -85 0 -17 -6 -35 -12 -40 -17 -10 -58
-11 -58 -1 0 4 -10 8 -22 7 -22 0 -22 -1 -3 -8 16 -7 13 -9 -18 -15 -20 -4
-42 -4 -47 -1 -6 3 -10 -1 -10 -10 0 -13 -6 -16 -25 -11 -14 4 -25 2 -25 -4 0
-5 -16 -10 -35 -10 -20 0 -47 -7 -60 -16 -13 -9 -29 -13 -35 -9 -5 3 -10 1
-10 -4 0 -6 -15 -11 -34 -11 -19 0 -38 -5 -42 -11 -3 -6 -17 -9 -30 -6 -13 2
-24 1 -24 -4 0 -4 -9 -6 -20 -4 -11 2 -22 0 -25 -6 -4 -5 -17 -9 -29 -9 -13 0
-36 -6 -51 -14 -15 -8 -44 -12 -69 -10 -30 3 -47 0 -56 -11 -10 -12 -10 -15 0
-15 8 0 11 -3 8 -6 -4 -3 -16 0 -28 6 -18 10 -24 9 -31 -1 -4 -7 -11 -10 -15
-7 -3 4 -19 1 -35 -7 -15 -8 -37 -15 -49 -15 -11 0 -20 -4 -20 -10 0 -5 5 -10
10 -10 6 0 10 -7 10 -15 0 -8 5 -15 10 -15 6 0 10 5 10 11 0 5 4 8 9 4 5 -3
12 -1 16 5 3 5 15 10 26 10 10 0 19 4 19 9 0 4 20 8 45 8 43 0 45 -1 30 -17
-13 -14 -14 -19 -3 -24 10 -5 10 -7 1 -12 -7 -3 -13 -12 -13 -20 0 -8 -7 -14
-15 -14 -8 0 -15 3 -15 8 0 4 -16 7 -35 6 -19 -1 -38 2 -41 7 -8 13 -42 -23
-47 -51 -3 -19 -5 -16 -6 12 0 20 -6 40 -11 43 -7 4 -9 -2 -5 -18 5 -20 2 -28
-15 -37 -15 -8 -19 -17 -15 -33 5 -18 4 -19 -4 -7 -9 12 -12 13 -20 1 -6 -9
-11 -10 -15 -2 -10 16 -26 14 -20 -2 3 -8 -2 -20 -11 -27 -8 -7 -15 -18 -15
-25 0 -7 -8 -12 -17 -11 -12 1 -17 -5 -15 -16 2 -10 -2 -18 -8 -18 -16 0 -45
-31 -64 -67 -16 -33 -33 -46 -23 -19 6 16 -11 26 -30 19 -18 -6 -16 -43 2 -43
8 0 15 -4 15 -10 0 -5 -4 -10 -10 -10 -5 0 -10 -8 -10 -17 0 -14 -2 -15 -9 -4
-5 8 -14 10 -21 6 -7 -4 -16 -2 -21 6 -7 11 -9 10 -9 -4 0 -11 -4 -15 -12 -11
-7 4 -8 3 -4 -5 4 -6 2 -19 -6 -28 -11 -14 -10 -15 12 -8 22 7 23 6 12 -8 -10
-11 -23 -14 -43 -10 -18 3 -29 1 -29 -6 0 -6 15 -12 33 -12 l32 -1 -38 -8
c-21 -4 -42 -12 -48 -18 -5 -7 -6 -10 -2 -7 8 6 37 -34 29 -42 -3 -3 -11 -1
-18 4 -9 7 -25 5 -52 -7 -31 -14 -35 -19 -20 -23 12 -3 6 -5 -13 -6 -23 -1
-33 -6 -33 -17 0 -8 -5 -12 -11 -8 -6 3 -15 1 -19 -7 -7 -10 -11 -10 -24 0
-13 11 -16 11 -17 0 0 -8 -4 -5 -9 6 -7 16 -9 17 -9 3 -1 -17 -16 -19 -38 -5
-8 5 -13 4 -13 -2 0 -6 5 -11 11 -11 6 0 9 -6 6 -12 -2 -7 -12 -12 -21 -10
-10 2 -25 -3 -34 -10 -13 -11 -14 -11 -8 0 6 10 3 13 -10 10 -11 -2 -18 -10
-16 -16 1 -7 -2 -12 -8 -12 -5 0 -10 4 -10 9 0 6 -9 8 -19 6 -14 -3 -18 1 -14
11 7 19 -7 18 -22 -2 -11 -15 -14 -15 -37 0 -23 15 -26 15 -46 -5 -19 -17 -23
-18 -28 -5 -6 16 -25 23 -23 9 3 -20 -2 -26 -11 -13 -8 12 -10 12 -10 -5 0
-11 -5 -27 -11 -35 -9 -13 -10 -13 -6 1 3 9 -3 26 -14 38 -20 21 -35 29 -25
12 3 -5 -5 -12 -19 -15 -14 -4 -25 -14 -25 -22 0 -11 -5 -14 -16 -10 -12 4
-15 2 -11 -9 8 -18 -13 -32 -23 -15 -9 15 -46 8 -42 -9 1 -7 -2 -10 -8 -6 -18
11 -10 26 23 41 29 14 30 15 5 9 -22 -4 -28 -2 -29 12 0 10 -6 0 -14 -22 l-13
-40 -1 33 c-1 25 -5 32 -20 32 -11 0 -23 -4 -26 -10 -8 -13 -45 -13 -45 0 0 5
8 6 18 3 15 -6 15 -5 3 10 -13 16 -15 16 -26 1 -14 -19 -55 -11 -55 11 0 9 -6
12 -16 8 -13 -5 -13 -8 -2 -15 8 -6 -7 -7 -42 -4 -38 4 -49 3 -35 -4 17 -7 15
-9 -13 -7 -26 1 -32 5 -29 18 3 12 0 16 -9 12 -7 -2 -10 -11 -7 -19 4 -10 0
-12 -11 -8 -9 3 -16 10 -16 15 0 5 -4 9 -10 9 -5 0 -10 -8 -10 -17 0 -15 -2
-15 -9 -4 -8 12 -13 12 -34 -2 -19 -12 -33 -14 -55 -7 -20 5 -32 5 -34 -2 -2
-6 -11 -3 -21 6 -9 10 -17 13 -17 7 0 -6 -15 -12 -32 -12 l-33 -1 30 -9 c24
-7 20 -7 -17 -4 -27 3 -48 1 -48 -4 0 -5 -12 -6 -27 -2 -17 5 -38 2 -55 -7
-15 -7 -37 -11 -47 -7 -11 3 -22 1 -26 -5 -3 -5 -15 -10 -26 -10 -11 0 -17 -4
-14 -10 3 -5 -1 -10 -9 -10 -10 0 -14 6 -10 18 4 12 0 10 -12 -5 -9 -13 -25
-23 -35 -23 -24 0 -70 -21 -64 -29 2 -4 -5 -12 -15 -19 -12 -7 -21 -8 -25 -2
-3 6 -11 10 -16 10 -6 0 -8 -4 -5 -9 3 -4 -6 -13 -19 -19 -14 -7 -25 -16 -25
-21 0 -5 -9 -7 -19 -4 -20 5 -47 -28 -34 -41 3 -3 -1 -6 -9 -6 -9 0 -18 3 -21
8 -4 8 0 -9 9 -35 3 -11 2 -14 -3 -8 -19 23 -35 16 -31 -15 3 -19 0 -30 -7
-30 -8 0 -10 10 -7 25 2 15 0 25 -7 25 -6 0 -11 -9 -11 -19 0 -11 -7 -26 -15
-34 -8 -8 -12 -17 -10 -19 3 -3 -3 -5 -12 -5 -10 0 -20 4 -23 8 -3 5 -11 -5
-17 -22 -10 -27 -10 -29 6 -24 14 4 18 -1 18 -25 0 -17 -6 -30 -13 -30 -6 0
-15 -7 -18 -16 -4 -9 -13 -14 -22 -10 -8 3 -12 2 -9 -4 3 -6 1 -10 -6 -10 -7
0 -10 -3 -7 -6 4 -3 16 -1 27 5 19 11 20 10 11 -14 -13 -33 -13 -44 0 -25 8
12 10 10 11 -10 1 -14 5 -2 8 25 4 32 10 49 19 47 6 -1 12 2 12 8 0 5 8 6 18
3 15 -6 15 -5 3 10 -11 15 -10 18 12 26 14 5 27 16 30 23 2 7 8 9 13 5 5 -5 1
-14 -9 -21 -22 -17 -22 -26 2 -26 10 0 26 10 34 22 l16 23 -2 -25 c-1 -16 3
-24 11 -22 6 1 12 -3 12 -9 0 -5 5 -7 10 -4 15 9 12 31 -6 49 -18 19 -6 21 18
3 16 -13 19 -52 4 -75 -5 -8 -1 -10 10 -5 11 4 15 3 10 -5 -3 -6 -2 -13 4 -17
9 -5 5 67 -5 101 -6 20 58 24 78 5 19 -19 31 -61 16 -61 -5 0 -9 10 -9 22 0
32 -7 18 -13 -25 -8 -61 -16 -54 -13 12 1 34 -2 57 -6 53 -5 -5 -9 -30 -10
-55 0 -26 -4 -44 -8 -42 -4 3 -11 -6 -14 -20 -4 -14 -11 -25 -17 -25 -6 0 -8
4 -4 9 3 5 1 12 -5 16 -5 3 -10 -3 -10 -14 0 -12 -4 -21 -9 -21 -5 0 -16 -3
-24 -6 -11 -4 -13 1 -10 19 3 14 -1 28 -7 32 -9 5 -10 2 -6 -13 4 -11 2 -23
-4 -27 -5 -3 -10 -1 -10 6 0 7 -3 9 -6 6 -4 -4 -1 -13 6 -22 16 -19 6 -32 -13
-17 -17 14 -27 6 -20 -16 4 -15 3 -15 -6 -2 -10 13 -12 13 -21 0 -8 -12 -10
-11 -10 7 0 12 -4 24 -10 28 -15 9 -50 -18 -50 -38 0 -15 -4 -17 -17 -11 -10
4 -35 6 -55 5 -27 -1 -38 3 -41 16 -4 15 -5 15 -6 -2 -1 -17 -3 -18 -11 -5 -8
12 -10 11 -10 -7 0 -13 5 -23 11 -23 5 0 7 -4 4 -10 -3 -5 -1 -10 4 -10 6 0
11 5 11 10 0 6 5 10 10 10 6 0 10 -12 10 -27 0 -16 5 -35 10 -43 7 -11 9 -8 7
14 -1 17 3 30 11 32 7 1 8 0 2 -3 -5 -2 -10 -12 -10 -21 0 -15 2 -15 10 -2 8
11 9 8 4 -12 -4 -18 -2 -28 5 -28 6 0 10 3 10 8 -3 20 2 32 16 32 18 0 18 -1
5 -35 -6 -16 -14 -23 -22 -19 -7 5 -8 3 -3 -6 8 -14 -5 -12 -50 6 -20 7 -20 7
-1 -14 11 -12 14 -22 8 -22 -7 0 -12 5 -12 11 0 6 -7 8 -16 5 -12 -5 -15 -2
-9 11 4 10 8 24 8 31 0 7 7 10 15 7 10 -4 12 0 8 11 -3 8 -6 19 -6 22 0 12
-60 34 -76 28 -11 -4 -14 -1 -10 12 4 13 1 19 -9 19 -8 0 -15 -7 -15 -14 0 -8
-5 -11 -11 -7 -7 4 -9 -1 -7 -12 2 -11 11 -18 21 -18 21 2 22 -12 2 -20 -8 -3
-15 -1 -15 4 0 6 -11 10 -25 10 -29 0 -34 -24 -10 -50 13 -15 13 -17 0 -17 -8
0 -15 6 -15 13 0 7 -6 14 -12 17 -10 3 -10 9 0 26 10 17 10 21 -2 21 -8 0 -16
-6 -18 -12 -4 -10 -10 -10 -31 -1 -34 16 -43 -4 -13 -28 12 -10 17 -21 13 -26
-5 -4 -13 0 -18 10 -6 9 -14 15 -20 12 -5 -4 -12 1 -15 9 -3 9 -10 16 -15 16
-4 0 -6 -6 -3 -14 3 -8 0 -17 -5 -21 -6 -3 -9 -10 -6 -15 3 -4 -4 -6 -15 -3
-14 4 -20 0 -20 -11 0 -12 -9 -16 -35 -16 -19 0 -35 -4 -35 -8 0 -8 -55 -32
-68 -29 -4 1 -6 8 -5 17 2 9 0 10 -3 3 -3 -7 -14 -13 -25 -13 -10 0 -19 -5
-19 -11 0 -6 6 -9 14 -6 10 4 12 0 8 -16 -3 -12 -7 -16 -10 -9 -6 19 -22 4
-22 -21 0 -12 -4 -17 -8 -12 -12 16 -32 16 -32 0 0 -10 -10 -15 -30 -15 -23 0
-30 -4 -30 -20 0 -11 -5 -20 -11 -20 -5 0 -8 -4 -5 -9 3 -5 -1 -12 -10 -15 -8
-3 -12 -11 -9 -16 4 -6 1 -9 -7 -8 -9 2 -12 -8 -11 -32 1 -19 -1 -28 -3 -19
-3 11 -12 15 -25 12 -14 -4 -18 -11 -13 -25 4 -14 2 -18 -5 -14 -7 5 -9 1 -5
-9 4 -9 13 -14 20 -11 8 3 14 1 14 -4 0 -6 -7 -10 -15 -10 -8 0 -15 -5 -15
-10 0 -6 -16 -27 -35 -47 -25 -26 -34 -42 -29 -56 4 -13 2 -17 -5 -13 -6 4
-11 16 -11 27 0 11 -4 18 -9 15 -4 -3 -7 -18 -5 -33 4 -24 3 -25 -5 -8 -9 18
-10 17 -10 -8 -1 -16 -8 -35 -17 -44 -8 -9 -13 -22 -10 -29 3 -8 0 -27 -6 -42
-6 -15 -12 -31 -13 -37 -6 -48 -22 -97 -42 -135 -13 -25 -22 -53 -19 -62 3
-13 -2 -18 -15 -18 -10 0 -19 -4 -19 -10 0 -5 4 -10 10 -10 9 0 -23 -95 -40
-115 -5 -6 -25 -91 -45 -190 -20 -99 -42 -190 -50 -201 -8 -12 -25 -68 -39
-125 -14 -57 -35 -130 -46 -163 -12 -32 -19 -65 -16 -72 3 -7 0 -14 -6 -16 -5
-2 -13 -21 -18 -43 -4 -22 -19 -78 -33 -125 -14 -47 -28 -102 -32 -123 -4 -20
-11 -40 -16 -43 -5 -3 -9 -17 -9 -31 0 -32 -21 -93 -32 -93 -4 0 -8 -22 -8
-50 0 -27 -4 -50 -9 -50 -5 0 -12 -19 -16 -43 -4 -23 -13 -62 -22 -87 -8 -24
-15 -62 -15 -82 0 -21 -4 -41 -9 -44 -5 -3 -9 -19 -9 -35 0 -17 -5 -40 -12
-52 -6 -12 -17 -55 -24 -97 -7 -41 -25 -115 -39 -163 -24 -83 -44 -185 -50
-252 -3 -32 -11 -60 -26 -87 -5 -10 -9 -40 -9 -68 0 -27 -4 -50 -9 -50 -5 0
-11 -19 -14 -43 -3 -23 -12 -76 -20 -117 -8 -41 -13 -78 -11 -82 2 -3 -3 -32
-11 -64 -8 -32 -15 -73 -15 -91 0 -18 -5 -33 -10 -33 -7 0 -9 -18 -5 -49 3
-30 0 -66 -9 -93 -19 -60 -27 -96 -32 -148 -2 -25 -7 -61 -11 -80 -3 -19 -5
-45 -4 -56 1 -12 -5 -38 -13 -58 -14 -34 -22 -96 -31 -241 -6 -95 -33 -282
-46 -324 -6 -19 -13 -64 -14 -100 -2 -36 -8 -95 -13 -131 -6 -36 -13 -92 -16
-125 -3 -33 -8 -78 -11 -100 -13 -101 -14 -124 -3 -127 8 -3 6 -19 -5 -53 -15
-47 -21 -117 -32 -350 -2 -55 -8 -156 -11 -225 -4 -69 -7 -179 -9 -245 -1 -66
-5 -145 -9 -175 -4 -30 -9 -143 -12 -250 -5 -210 -9 -275 -18 -330 -5 -34 -18
-380 -15 -410 1 -8 3 -109 5 -225 2 -116 5 -239 7 -275 3 -36 8 -110 11 -165
4 -55 9 -119 12 -143 l5 -42 8742 2 8742 3 0 67 c0 36 -4 64 -9 61 -4 -3 -5 3
-2 14 3 11 7 41 8 66 1 26 6 47 11 47 9 0 3 91 -7 108 -4 7 -2 12 4 12 6 0 10
8 8 18 -1 9 1 23 5 30 5 7 2 25 -6 42 -9 16 -11 30 -5 32 6 2 6 13 -1 29 -7
19 -6 30 2 39 9 10 9 11 -1 6 -14 -8 -17 10 -3 19 5 3 7 39 4 81 -4 55 -2 75
6 70 6 -4 11 0 11 9 0 9 -4 14 -9 10 -6 -3 -8 14 -7 40 2 24 0 42 -5 40 -12
-8 -16 27 -7 54 5 13 5 33 2 45 -11 33 -16 77 -15 124 1 23 -3 42 -7 42 -5 0
-9 28 -10 63 -7 278 -11 355 -20 377 -11 28 -9 54 5 90 8 19 7 27 -3 33 -15 8
-19 37 -6 37 4 0 13 9 19 20 11 16 10 18 -2 14 -7 -3 -22 -1 -32 5 -17 10 -16
11 5 17 16 5 22 13 21 33 -2 23 -2 24 -6 4 -2 -13 -11 -23 -18 -23 -22 0 -27
18 -8 29 10 6 14 11 9 11 -5 0 -3 7 4 15 11 13 10 14 -4 9 -9 -3 -16 -1 -16 5
0 6 10 11 23 12 l22 0 -22 11 c-22 10 -34 58 -15 58 4 0 8 9 8 20 0 11 -6 20
-12 20 -7 0 -10 8 -7 20 3 11 0 26 -6 34 -6 7 -9 20 -6 28 3 8 1 26 -4 41 -7
18 -7 27 2 31 8 3 6 8 -5 16 -10 6 -18 16 -18 22 0 7 5 6 14 -1 12 -10 13 -8
9 8 -3 12 -9 18 -14 15 -5 -3 -9 -1 -9 5 0 5 8 15 18 20 9 6 11 11 5 11 -7 0
-13 5 -13 11 0 5 5 7 12 3 7 -4 8 -3 4 4 -12 19 -26 14 -27 -10 0 -22 -1 -22
-8 -3 -5 11 -4 22 0 23 5 2 9 10 9 18 0 9 -4 13 -9 10 -15 -10 -19 43 -5 70 8
14 13 38 13 53 -1 26 -1 26 -8 -3 -5 -26 -7 -28 -20 -13 -7 10 -9 17 -4 17 8
0 9 19 4 70 -1 12 -3 13 -10 1 -16 -25 -22 7 -10 54 13 52 6 68 -17 39 -14
-18 -15 -18 -4 4 12 25 -4 132 -20 132 -5 0 -4 14 2 32 9 24 8 33 0 36 -14 4
-15 45 -3 88 6 21 5 36 -4 47 -6 9 -14 15 -16 13 -2 -2 -4 12 -5 32 0 20 -6
38 -12 40 -16 5 -15 42 1 42 7 0 4 7 -7 15 -20 15 -20 15 0 31 18 15 18 15 -6
10 l-25 -5 24 19 c19 17 21 21 7 26 -9 3 -16 14 -16 23 0 13 -2 13 -9 2 -6 -9
-8 -4 -6 17 1 17 8 39 16 48 12 15 12 16 -8 10 -16 -5 -23 -2 -28 13 -3 12 -3
25 0 31 3 5 1 10 -5 10 -8 0 -8 6 0 20 8 15 8 30 0 55 -6 19 -9 39 -6 44 7 11
-18 33 -27 24 -4 -3 -7 -1 -7 5 0 7 6 12 13 12 7 0 8 3 2 8 -5 4 -11 21 -12
37 -1 17 1 22 3 13 3 -9 11 -15 19 -12 11 5 10 9 -3 24 -8 11 -20 16 -25 13
-6 -4 -8 1 -4 11 4 9 0 27 -8 40 -8 12 -12 25 -9 28 3 4 1 16 -5 27 -10 17 -9
20 4 15 8 -4 15 -1 15 5 0 6 -4 11 -8 11 -5 0 -14 11 -20 25 -8 18 -8 25 -1
25 8 0 8 4 1 13 -6 7 -10 22 -8 32 2 11 -1 23 -7 26 -5 4 -9 33 -9 65 0 39 -2
52 -7 39 -7 -16 -10 -12 -15 23 -5 26 -12 40 -19 35 -7 -4 -8 0 -4 11 4 10 7
25 7 34 0 15 2 15 10 2 5 -8 10 -10 10 -4 0 5 -9 20 -20 31 -14 15 -16 23 -7
27 8 3 9 7 1 13 -6 4 -14 21 -18 37 -6 23 -9 27 -16 15 -7 -10 -9 -5 -7 16 1
17 7 34 12 38 7 6 6 10 -2 13 -8 4 -10 18 -7 37 3 24 2 27 -4 12 -9 -19 -9
-19 -16 2 -4 13 -5 27 -2 32 3 5 -1 12 -10 15 -9 4 -14 13 -10 21 3 10 -1 15
-12 15 -15 0 -15 2 -2 10 8 5 11 10 5 10 -5 0 -11 10 -12 23 -5 64 -17 117
-27 117 -6 0 -13 11 -14 25 -1 14 3 25 8 25 6 0 10 5 10 11 0 5 -5 7 -10 4 -5
-3 -10 0 -10 7 0 10 -2 10 -9 -1 -6 -9 -10 -2 -13 23 -5 41 4 62 21 52 6 -4
11 0 11 8 0 9 -5 16 -11 16 -6 0 -8 9 -4 23 7 22 7 22 -8 2 -15 -20 -16 -19
-22 8 -4 16 -3 33 4 41 6 7 8 16 4 19 -3 4 -12 -1 -19 -11 -11 -14 -12 -11 -3
21 12 45 6 67 -17 67 -13 0 -14 3 -5 14 12 14 2 27 -29 39 -12 4 -11 6 3 6 10
1 16 5 12 10 -3 5 3 12 12 14 13 3 14 5 3 6 -9 0 -21 15 -27 32 -10 26 -15 30
-27 20 -11 -9 -13 -6 -12 18 1 29 26 70 26 43 0 -7 -4 -12 -10 -12 -5 0 -10
-4 -10 -10 0 -5 7 -10 15 -10 21 0 19 37 -2 50 -15 8 -13 9 9 4 27 -6 27 -5
18 27 -6 19 -10 35 -10 36 0 2 -10 3 -22 2 l-23 0 23 -9 c12 -5 22 -17 22 -26
0 -13 -3 -14 -15 -4 -12 10 -18 10 -31 -1 -9 -7 -24 -13 -34 -14 -14 -1 -18 6
-17 34 1 19 -4 36 -11 39 -15 5 -16 42 -1 42 7 0 9 10 7 25 -3 13 -2 24 1 23
31 -3 42 4 39 24 -2 13 -9 22 -16 21 -6 -2 -12 2 -12 7 0 6 5 10 10 10 6 0 10
7 10 15 0 10 10 15 34 15 28 0 35 -4 40 -25 5 -21 12 -25 33 -23 21 2 28 -2
34 -25 4 -15 4 -25 -1 -22 -4 3 -7 -6 -6 -19 0 -13 4 -22 9 -19 4 2 7 -3 7
-11 0 -17 34 -39 44 -29 3 3 6 1 6 -6 0 -7 -6 -11 -13 -8 -10 4 -13 -4 -12
-26 1 -18 -2 -35 -7 -38 -5 -3 -2 -9 7 -12 9 -4 14 -3 11 2 -3 5 1 12 10 15
24 9 28 7 14 -9 -7 -8 -9 -15 -4 -15 5 0 2 -5 -6 -10 -13 -8 -12 -10 3 -10 9
0 17 -7 17 -16 0 -8 -4 -13 -9 -10 -14 9 -22 -24 -11 -42 9 -14 10 -13 5 6 -4
13 -2 22 5 22 6 0 15 10 21 22 9 22 9 22 4 -2 -12 -48 -9 -104 4 -95 6 3 9 -4
8 -15 -1 -11 -4 -20 -8 -20 -13 0 -31 29 -24 39 4 7 -4 10 -19 9 -14 -1 -28
-8 -31 -16 -2 -7 0 -10 5 -7 6 3 10 1 10 -4 0 -6 5 -11 11 -11 5 0 7 5 3 12
-5 7 -3 8 5 4 7 -5 10 -14 7 -22 -3 -8 0 -14 8 -14 7 0 13 -7 13 -15 0 -8 -7
-15 -16 -15 -11 0 -12 -3 -5 -8 7 -4 14 -16 17 -27 4 -17 5 -17 6 4 1 17 5 21
17 17 9 -3 18 -6 20 -6 3 0 2 -5 -2 -11 -4 -8 -9 -7 -15 2 -7 11 -9 10 -9 -3
0 -9 7 -24 16 -33 9 -8 13 -22 10 -31 -7 -19 -38 -15 -43 6 -4 13 -3 13 6 0 9
-13 11 -13 11 3 0 23 -17 22 -30 -3 -9 -17 -7 -20 14 -26 14 -3 33 -3 43 0 12
4 23 -1 31 -14 14 -22 9 -25 -18 -10 -15 8 -17 6 -13 -10 3 -11 9 -20 14 -20
5 0 9 -7 9 -15 0 -22 -17 -18 -23 5 -3 11 -13 20 -23 20 -17 0 -17 -1 0 -13
17 -12 17 -14 2 -20 -9 -4 -16 -12 -16 -18 0 -8 4 -8 15 1 9 7 19 10 22 6 4
-4 1 -11 -6 -15 -10 -6 -11 -13 -3 -27 10 -17 11 -17 17 7 3 14 13 26 21 26 8
0 14 -3 14 -6 -1 -13 -36 -48 -54 -55 -10 -3 -17 -9 -14 -12 3 -2 17 0 31 5
21 8 25 7 20 -4 -3 -9 1 -15 11 -15 9 0 16 -8 16 -19 0 -11 6 -22 13 -25 6 -3
2 -3 -10 -1 -12 3 -25 0 -29 -6 -4 -8 -3 -9 4 -5 7 4 12 2 12 -3 0 -6 -5 -11
-10 -11 -6 0 -9 -16 -6 -38 2 -27 8 -37 20 -36 9 1 16 -6 16 -16 0 -10 6 -20
13 -23 9 -3 9 -8 -2 -18 -9 -9 -11 -9 -7 -1 4 6 2 12 -3 12 -6 0 -11 7 -11 15
0 8 -5 15 -11 15 -6 0 -8 -7 -5 -16 3 -9 6 -19 6 -24 0 -5 14 -16 32 -24 25
-13 33 -14 40 -4 6 11 8 11 8 0 0 -7 -11 -18 -25 -24 -14 -6 -25 -16 -25 -21
0 -5 -8 -16 -17 -23 -17 -12 -17 -13 3 -14 16 0 21 -5 19 -24 -2 -18 1 -23 11
-19 8 3 14 -1 14 -11 0 -9 6 -16 14 -16 16 0 32 -33 18 -38 -5 -1 -18 -10 -28
-18 -17 -14 -17 -15 -1 -10 12 4 17 0 18 -17 0 -21 1 -21 9 -2 8 18 9 17 9 -7
1 -19 -4 -28 -14 -28 -8 0 -15 -4 -15 -10 0 -5 5 -10 10 -10 14 0 50 -38 50
-52 0 -9 -3 -8 -10 2 -5 8 -12 11 -17 7 -4 -4 -2 -17 5 -27 7 -11 12 -28 11
-37 0 -13 -3 -11 -11 7 l-11 25 -5 -23 c-6 -39 4 -55 27 -40 26 16 42 1 18
-17 -19 -13 -7 -32 13 -20 18 11 11 -34 -7 -45 -17 -11 -17 -11 0 -6 22 7 22
-10 0 -23 -12 -7 -13 -10 -4 -11 8 0 11 -6 7 -16 -3 -9 -2 -12 5 -9 6 4 8 13
5 21 -7 18 2 18 20 -1 9 -8 11 -15 5 -15 -6 0 -11 -5 -11 -11 0 -6 8 -8 19 -4
11 3 21 0 24 -8 3 -9 -5 -12 -29 -12 -31 2 -33 0 -19 -15 18 -20 20 -90 3 -90
-6 0 -8 -3 -5 -6 4 -4 13 -1 22 6 9 7 19 10 23 6 4 -4 -1 -12 -11 -17 -21 -12
-21 -28 0 -54 13 -16 15 -17 10 -3 -4 10 -3 18 1 18 8 0 32 -58 32 -77 0 -6
-13 -9 -30 -7 -16 2 -32 -2 -36 -8 -5 -8 -2 -9 10 -5 13 5 19 1 23 -12 4 -16
44 -37 64 -33 10 2 -1 -149 -12 -169 -6 -13 -6 -19 1 -19 5 0 10 8 10 18 0 14
2 15 10 2 14 -21 12 -30 -6 -30 -8 0 -13 -4 -9 -10 3 -5 12 -7 20 -4 7 3 22 1
32 -6 16 -10 15 -10 -4 -5 -27 7 -29 -3 -8 -31 13 -16 14 -16 9 -2 -3 10 -1
18 5 18 6 0 11 -7 11 -16 0 -9 5 -12 13 -8 10 6 10 4 0 -7 -7 -7 -13 -22 -13
-32 0 -11 -8 -26 -17 -33 -17 -13 -17 -15 0 -28 18 -14 18 -14 0 -19 -14 -4
-14 -5 5 -6 12 0 22 4 22 9 0 6 8 10 18 9 10 0 12 -3 5 -6 -7 -2 -12 -19 -12
-36 1 -18 3 -24 6 -14 2 9 9 17 14 17 12 0 12 -47 -1 -55 -6 -3 -9 -26 -8 -51
3 -43 10 -54 23 -34 4 6 11 8 16 5 5 -4 9 -1 9 5 0 6 5 8 11 4 8 -4 7 -9 -2
-15 -7 -4 -17 -5 -21 -3 -4 3 -8 -2 -8 -10 0 -9 -5 -16 -12 -16 -6 0 -8 -3 -5
-7 4 -3 2 -12 -5 -20 -6 -7 -8 -16 -4 -20 3 -4 13 2 22 13 13 16 15 17 10 1
-3 -11 0 -17 10 -17 8 0 13 -4 9 -10 -3 -5 -12 -7 -19 -4 -7 3 -16 -2 -19 -10
-4 -9 -2 -16 3 -16 5 0 7 -7 4 -15 -4 -8 -2 -15 4 -15 5 0 12 9 15 21 6 22 29
22 33 1 1 -7 0 -8 -3 -2 -9 19 -24 10 -21 -12 2 -13 -2 -22 -8 -21 -7 1 -10
-6 -7 -18 3 -12 11 -18 19 -15 8 3 18 -4 24 -14 7 -14 7 -20 0 -20 -5 0 -10 7
-10 16 0 8 -4 12 -10 9 -19 -12 -10 -35 13 -35 17 0 19 -2 8 -9 -12 -8 -12
-12 -2 -25 15 -18 31 -21 31 -5 0 5 -5 7 -10 4 -13 -8 -13 8 0 21 8 8 8 19 0
38 -6 17 -6 25 0 21 6 -3 10 0 10 9 0 8 -6 17 -12 19 -9 4 -9 6 -1 6 7 1 9 14
6 39 -3 21 0 55 5 76 11 39 6 70 -9 60 -5 -3 -9 0 -9 5 0 6 4 11 9 11 13 0 1
426 -14 449 -3 6 -1 19 5 30 5 11 6 22 1 25 -11 7 -21 56 -11 56 4 0 7 7 7 15
0 8 -4 15 -8 15 -4 0 -6 16 -4 35 2 19 0 35 -5 35 -5 0 -8 33 -8 74 0 41 -4
80 -8 87 -4 7 -8 38 -9 68 0 31 -4 62 -8 69 -5 7 -6 21 -2 31 3 11 2 22 -4 25
-5 3 -8 22 -7 41 2 19 0 35 -3 35 -3 0 -7 10 -7 23 -2 37 -12 98 -29 177 -8
41 -17 87 -18 101 -2 15 -8 40 -14 55 -6 16 -19 58 -28 94 -10 36 -24 85 -32
110 -23 72 -45 180 -50 249 -4 47 -8 60 -15 50 -8 -11 -9 -10 -4 5 3 10 1 37
-5 60 -14 52 -15 55 -24 93 -4 18 -10 31 -14 29 -3 -2 -7 16 -8 41 -1 25 -7
68 -14 97 -7 28 -12 54 -11 59 1 4 -3 7 -8 7 -6 0 -10 11 -10 24 0 13 -7 29
-15 36 -8 6 -13 19 -12 28 3 26 -26 152 -35 152 -4 0 -8 10 -8 22 0 12 -8 30
-17 41 -10 11 -12 17 -5 13 16 -10 15 5 -3 40 -8 16 -15 39 -15 52 0 12 -4 22
-8 22 -5 0 -9 12 -10 28 -1 38 -58 206 -71 210 -6 2 -11 8 -11 13 0 6 5 7 10
4 13 -8 13 4 -1 43 -6 18 -15 29 -20 26 -5 -3 -8 3 -7 13 3 44 -2 74 -13 67
-9 -5 -10 1 -5 20 4 16 3 25 -3 22 -5 -3 -9 4 -9 17 -1 32 -13 80 -25 95 -6 7
-12 27 -14 44 -2 17 -7 36 -12 42 -5 6 -12 30 -16 53 -3 23 -13 44 -21 47 -9
3 -12 11 -9 16 4 6 2 16 -3 23 -5 7 -20 47 -33 89 -13 42 -27 74 -32 71 -5 -3
-8 1 -6 8 3 29 -1 50 -11 44 -5 -3 -10 3 -10 15 0 12 -7 34 -15 51 -9 16 -13
34 -10 39 3 5 0 12 -6 15 -5 4 -8 13 -5 21 3 8 -3 31 -14 52 -11 20 -20 45
-20 54 0 10 -4 18 -10 18 -5 0 -9 10 -8 23 1 12 -8 40 -20 62 -12 22 -18 41
-13 43 6 2 7 10 4 18 -3 7 -9 12 -13 9 -4 -2 -7 10 -7 28 1 36 -10 60 -23 52
-4 -3 -6 4 -3 15 3 11 0 20 -6 20 -9 0 -9 6 0 23 6 12 8 19 4 14 -7 -6 -24 29
-39 78 -3 10 -5 17 -28 77 -6 15 -14 25 -19 22 -5 -3 -9 5 -9 16 0 12 -11 35
-25 52 -14 16 -25 38 -25 49 0 10 -4 19 -8 19 -4 0 -26 24 -47 53 -22 28 -83
95 -135 148 -52 54 -113 118 -135 144 -22 26 -55 63 -72 83 -18 20 -36 45 -39
56 -4 11 -10 24 -15 30 -5 6 -20 25 -34 42 -14 18 -25 34 -25 37 0 9 -45 73
-64 92 -9 9 -16 25 -16 35 0 29 -21 69 -40 75 -9 3 -23 16 -30 30 -7 13 -18
23 -24 22 -6 -1 -10 4 -8 11 1 8 -2 11 -8 7 -5 -3 -10 -1 -10 5 0 6 -4 8 -10
5 -5 -3 -10 -1 -10 4 0 6 -6 11 -13 11 -7 0 -24 8 -37 17 -14 10 -33 16 -42
15 -13 -2 -16 1 -11 14 5 14 3 16 -11 11 -10 -4 -15 -3 -11 3 3 6 1 10 -5 10
-6 0 -8 5 -4 12 5 8 2 9 -10 5 -21 -8 -56 13 -56 34 0 22 -26 44 -35 29 -11
-18 -27 -11 -20 9 4 14 0 21 -17 27 -13 4 -26 7 -30 6 -4 -1 -4 6 -1 15 5 12
2 15 -10 10 -12 -5 -17 -1 -17 13 0 11 -5 20 -11 20 -5 0 -7 -4 -4 -10 3 -6
-1 -7 -9 -4 -9 3 -13 10 -11 15 3 5 -5 11 -19 15 -14 3 -24 9 -23 13 1 3 -1 7
-5 9 -4 1 -19 14 -32 27 -15 15 -31 22 -41 19 -21 -8 -45 14 -38 33 5 12 3 14
-7 8 -8 -5 -18 -1 -27 11 -12 16 -15 17 -24 4 -8 -12 -9 -11 -7 5 2 12 -2 19
-9 17 -7 -1 -13 2 -13 8 0 5 -5 10 -11 10 -6 0 -26 12 -45 27 -20 14 -48 26
-64 26 -17 0 -26 5 -24 12 5 12 -79 59 -106 60 -8 0 -14 6 -12 13 1 6 -7 12
-18 12 -20 0 -26 2 -86 32 -17 8 -45 14 -63 13 -24 -1 -31 2 -27 12 3 8 1 11
-5 8 -5 -4 -17 -1 -25 6 -13 10 -17 10 -23 0 -6 -10 -10 -9 -15 4 -3 10 -12
15 -21 11 -8 -3 -17 -1 -21 5 -3 6 -12 8 -20 5 -8 -3 -14 1 -14 10 0 10 -8 14
-27 11 -16 -3 -35 2 -43 9 -9 7 -34 16 -55 20 -22 3 -43 11 -46 16 -4 6 -14 8
-23 5 -9 -4 -16 -3 -16 2 0 5 -11 9 -25 10 -47 3 -55 4 -55 12 0 12 -39 17
-44 5 -3 -8 -7 -8 -13 0 -4 6 -18 14 -30 18 -13 4 -23 12 -23 18 0 5 -7 8 -15
4 -8 -3 -15 -1 -15 5 0 6 -6 9 -14 6 -8 -3 -26 3 -40 14 -15 12 -27 15 -31 9
-4 -6 -12 -4 -22 6 -9 8 -24 13 -35 11 -10 -3 -15 -1 -12 4 5 9 -15 20 -44 24
-20 2 -40 9 -104 37 -27 12 -51 19 -54 15 -4 -3 -13 0 -20 8 -8 7 -47 24 -87
36 -39 12 -88 30 -107 39 -19 9 -62 22 -95 30 -33 7 -82 23 -109 36 -27 13
-52 21 -57 19 -4 -3 -10 -1 -14 5 -4 6 -11 8 -16 5 -5 -4 -9 -2 -9 3 0 4 -24
14 -52 22 -29 7 -60 17 -68 21 -23 11 -53 22 -70 24 -8 1 -32 9 -52 18 -21 10
-42 17 -47 17 -6 0 -30 7 -54 15 -24 8 -52 16 -63 18 -10 2 -32 9 -47 16 -16
6 -33 8 -39 5 -7 -4 -8 -2 -4 4 5 8 -4 12 -27 12 -19 0 -40 6 -47 14 -6 8 -18
12 -26 9 -8 -3 -20 0 -28 6 -7 6 -26 12 -42 14 -17 2 -36 7 -43 11 -7 4 -15 5
-18 2 -3 -3 -11 -2 -17 3 -6 4 -31 13 -56 19 -89 22 -155 37 -165 37 -5 0 -15
3 -20 7 -6 3 -46 14 -90 22 -44 9 -105 23 -135 32 -30 9 -91 25 -135 36 -99
24 -274 67 -296 72 -9 3 -37 11 -63 20 -25 9 -65 19 -89 22 -38 5 -78 17 -215
60 -23 8 -48 14 -54 14 -6 0 -19 6 -27 13 -9 8 -77 26 -151 40 -74 15 -160 34
-190 42 -30 8 -67 15 -83 15 -16 0 -34 6 -41 13 -17 16 -86 136 -86 148 0 5
-4 9 -9 9 -5 0 -13 10 -16 21 -4 12 -23 37 -41 56 -19 18 -34 38 -34 43 0 5
-11 18 -26 29 -14 11 -25 22 -25 25 2 22 -1 27 -13 23 -9 -4 -17 1 -21 12 -11
36 -248 261 -274 261 -6 0 -11 4 -11 10 0 5 -11 12 -24 16 -13 3 -29 16 -36
30 -9 17 -22 24 -42 24 -24 0 -28 -4 -25 -22 2 -13 2 -17 0 -10 -13 38 -48
-35 -46 -96 1 -24 -1 -41 -4 -38 -9 9 -35 -23 -27 -35 5 -8 0 -10 -14 -7 -12
3 -21 3 -20 -1 2 -19 -4 -29 -23 -34 -17 -5 -19 -9 -10 -26 6 -11 11 -30 11
-43 0 -19 -2 -20 -11 -8 -8 11 -9 5 -4 -24 5 -32 4 -38 -8 -33 -16 6 -17 -17
-2 -58 6 -18 5 -18 -5 -2 -14 21 -30 22 -30 2 0 -8 -5 -15 -11 -15 -5 0 -7 -5
-3 -12 5 -7 2 -9 -8 -5 -10 3 -19 -3 -27 -19 l-11 -25 -32 23 c-18 13 -39 30
-46 38 -11 13 -11 12 -3 -7 14 -29 15 -28 -13 -31 -17 -1 -27 5 -31 18 -4 11
-13 20 -20 20 -10 0 -6 -8 9 -25 15 -16 35 -25 57 -26 l34 -1 -30 -8 c-28 -7
-29 -8 -5 -9 15 0 31 -6 38 -13 9 -9 12 -9 12 0 0 7 6 12 13 12 8 0 14 -7 14
-15 0 -14 -30 -16 -43 -2 -4 4 -13 7 -20 7 -10 0 -11 -6 -4 -24 7 -18 5 -26
-5 -30 -10 -3 -17 3 -21 19 -8 33 -28 32 -52 -2 l-21 -28 -10 25 c-5 14 -10
21 -11 15 -1 -5 -5 -1 -10 10 -7 16 -9 17 -9 3 -1 -9 6 -23 14 -32 8 -8 15
-23 15 -33 0 -14 2 -15 9 -5 6 10 10 4 16 -20 6 -26 9 -29 12 -13 3 11 10 23
17 27 7 5 5 8 -6 8 -10 0 -18 4 -18 9 0 11 53 1 62 -13 13 -19 9 -36 -9 -36
-10 0 -34 -14 -53 -30 -39 -34 -39 -34 -60 -19 -13 9 -12 10 3 5 9 -3 17 -1
17 4 0 5 8 11 18 14 9 3 -2 4 -25 3 -39 -2 -43 0 -45 23 -1 14 -4 -4 -8 -40
-5 -49 -9 -59 -15 -42 -9 26 -15 27 -41 7 -10 -8 -22 -15 -26 -15 -13 0 -9 21
7 36 17 18 20 34 5 34 -5 0 -10 -7 -10 -16 0 -9 -9 -18 -20 -21 -16 -4 -18 -8
-9 -20 10 -11 8 -15 -9 -20 -12 -3 -22 -9 -22 -14 0 -12 17 -11 25 1 10 17 22
11 29 -12 3 -13 0 -27 -6 -33 -8 -7 -9 -5 -5 8 4 9 2 17 -3 17 -6 0 -10 -5
-10 -11 0 -8 -4 -8 -14 1 -11 8 -20 9 -33 1 -16 -9 -15 -10 7 -8 20 2 25 -3
25 -23 1 -20 -4 -25 -25 -26 -14 -1 -19 1 -12 3 24 9 11 22 -18 18 -16 -2 -30
1 -30 7 0 5 7 8 15 4 12 -4 15 3 15 34 0 22 5 40 11 40 12 0 7 50 -9 91 -10
25 -9 27 14 25 27 -1 32 -11 8 -20 -13 -5 -13 -10 6 -36 26 -36 44 -30 59 21
7 22 16 37 21 34 5 -3 7 -12 3 -20 -7 -20 11 -19 27 0 9 11 15 13 20 5 5 -7 9
-4 13 9 7 28 -27 49 -41 26 -6 -12 -14 -14 -33 -6 -13 5 -18 10 -11 10 6 1 12
9 12 19 0 10 3 22 7 26 4 3 8 13 9 22 2 10 -3 13 -16 9 -10 -3 -21 -1 -25 4
-4 7 -14 7 -32 0 -18 -7 -30 -6 -37 1 -7 7 -3 10 13 10 13 0 19 4 16 10 -8 13
12 40 29 40 6 0 4 -4 -4 -10 -8 -5 -11 -12 -7 -16 4 -4 15 0 24 9 19 19 18 22
-19 31 -24 5 -28 3 -28 -14 0 -12 -7 -20 -16 -20 -12 0 -14 4 -7 13 6 6 13 34
16 60 4 38 2 47 -9 43 -8 -3 -11 0 -7 10 3 8 -1 14 -8 14 -8 0 -23 8 -34 17
-20 15 -20 15 1 11 18 -5 21 0 23 38 2 36 -1 44 -16 44 -14 0 -15 2 -5 9 8 4
13 11 13 15 -3 22 2 16 14 -14 10 -27 14 -31 20 -18 5 14 12 15 36 6 17 -6 33
-8 36 -4 4 3 -1 6 -11 6 -9 0 -15 4 -11 9 3 5 0 13 -6 17 -8 4 -9 3 -5 -4 4
-7 1 -12 -8 -12 -9 0 -16 6 -16 13 0 8 -3 7 -10 -3 -11 -18 -23 -8 -14 14 3 9
16 16 28 16 11 0 28 5 36 11 11 8 4 9 -27 5 -34 -5 -44 -3 -52 12 -6 11 -6 24
0 33 5 7 9 11 10 7 1 -5 3 -12 4 -18 1 -5 3 -14 4 -19 0 -5 10 -7 21 -4 11 3
17 10 13 17 -3 6 0 6 8 -1 18 -18 30 -16 22 4 -4 11 -3 14 5 9 8 -5 12 1 12
16 0 13 -4 18 -8 12 -10 -15 -42 -25 -42 -14 0 6 6 10 14 10 16 0 29 27 20 41
-3 5 -11 9 -17 9 -8 0 -8 -3 2 -9 8 -5 9 -11 3 -15 -5 -3 -12 0 -15 8 -8 19 3
57 14 50 5 -3 9 2 9 10 0 9 3 16 8 16 4 0 5 21 3 47 -3 41 -1 45 15 39 15 -6
16 -4 7 5 -14 14 -33 4 -33 -17 0 -8 -4 -12 -10 -9 -5 3 -10 2 -10 -4 0 -5 6
-11 12 -13 9 -3 8 -9 -4 -21 -23 -24 -24 -22 -23 27 2 33 -2 43 -14 42 -8 0
-16 8 -18 19 l-3 20 9 -20 c8 -16 10 -13 12 20 1 26 3 32 6 17 4 -23 5 -23 24
-6 19 17 20 17 26 -5 4 -14 11 -20 20 -17 8 3 17 6 20 6 3 0 0 7 -7 15 -9 11
-9 15 -1 15 7 0 9 5 6 11 -4 6 -13 8 -21 5 -8 -3 -22 3 -31 14 -10 11 -24 20
-33 20 -8 1 -26 7 -40 15 -24 14 -24 14 -3 15 12 0 24 -4 27 -9 4 -5 19 -3 36
6 31 15 42 30 15 19 -16 -6 -21 33 -17 114 1 22 -1 30 -7 22 -6 -10 -10 -9
-14 7 -4 16 0 22 19 27 29 7 31 20 4 27 -13 3 -20 0 -20 -10 0 -9 -8 -13 -22
-11 -17 2 -23 -2 -21 -15 1 -13 -3 -16 -15 -11 -10 3 -26 7 -36 9 -29 2 -31
23 -4 28 l23 4 -22 8 c-14 4 -23 15 -23 29 0 17 -2 18 -10 6 -8 -12 -10 -11
-10 8 0 12 4 22 10 22 5 0 0 12 -12 26 l-23 25 -8 -31 c-4 -18 -11 -30 -14
-27 -3 3 0 20 6 38 6 17 8 35 5 40 -7 12 23 42 35 34 6 -3 9 3 9 12 0 10 2 27
6 38 5 15 4 14 -5 -2 -15 -28 -33 -30 -26 -3 3 12 0 20 -7 20 -8 0 -11 -12 -9
-32 l3 -33 -10 35 c-6 19 -15 43 -20 52 -12 22 5 34 25 18 20 -17 19 -1 -2 22
-9 11 -11 18 -5 18 7 0 12 5 12 10 0 7 -7 7 -21 0 -23 -13 -41 -4 -20 9 9 6
10 11 2 15 -6 4 -11 1 -11 -6 -1 -9 -5 -7 -14 5 -17 21 -26 22 -26 1 0 -13 -6
-10 -25 10 -14 15 -25 34 -25 42 0 24 -20 6 -21 -19 -1 -18 -2 -19 -6 -4 -3
13 -11 17 -24 14 -17 -5 -18 -3 -8 9 10 12 10 17 0 27 -10 9 -12 9 -9 -2 2 -7
-3 -16 -10 -18 -11 -4 -11 0 0 23 7 16 13 53 12 82 -1 30 2 49 5 44 4 -7 13
-5 25 4 19 13 18 14 -12 14 -19 0 -32 5 -33 13 0 6 -5 3 -10 -8 -7 -15 -8 -10
-4 18 4 22 2 37 -4 37 -6 0 -8 -7 -5 -15 4 -9 0 -15 -10 -15 -11 0 -16 9 -16
29 0 41 9 61 26 54 8 -3 14 0 14 6 0 7 -7 14 -15 17 -12 5 -12 10 2 32 9 15
23 32 30 38 18 16 5 44 -21 45 -11 0 -29 2 -38 4 -10 2 -20 -1 -24 -6 -3 -5 2
-9 10 -9 8 0 18 -5 22 -12 4 -6 3 -8 -3 -5 -6 4 -13 -4 -15 -18 -3 -15 -1 -22
5 -18 6 4 7 0 3 -8 -4 -8 0 -5 8 5 9 11 16 28 16 38 0 10 5 18 10 18 6 0 10
-9 10 -20 0 -11 -4 -20 -10 -20 -5 0 -10 -9 -10 -21 0 -11 -4 -18 -9 -14 -5 3
-12 -3 -14 -12 -4 -17 -5 -17 -6 0 -1 20 -16 23 -27 5 -4 -6 -2 -14 4 -16 7
-2 9 -8 6 -13 -3 -6 -15 0 -25 13 -20 22 -20 22 1 30 14 5 20 16 19 35 -1 21
-3 23 -6 7 -3 -16 -10 -20 -34 -16 -25 4 -29 8 -27 33 1 16 6 29 10 29 4 0 8
6 8 13 0 7 9 13 20 14 17 2 20 -2 15 -18 -6 -18 -5 -19 14 -7 12 7 17 14 11
16 -20 7 -10 23 13 20 15 -2 21 1 18 12 -2 8 -4 21 -4 29 0 8 -7 4 -18 -10
-11 -15 -28 -23 -53 -24 -30 -2 -36 1 -37 19 0 12 -3 15 -6 9 -2 -7 -14 -13
-25 -13 -15 0 -19 5 -14 18 6 16 5 16 -7 0 -11 -14 -16 -15 -26 -5 -9 9 -14 9
-21 -3 -9 -13 -10 -13 -10 0 0 12 -2 12 -9 2 -6 -10 -17 -11 -42 -5 -24 7 -41
6 -59 -3 -16 -9 -26 -10 -31 -3 -3 6 -19 9 -34 7 -16 -1 -30 2 -32 7 -4 14 62
33 81 23 9 -5 20 -3 30 7 10 11 17 12 22 4 5 -8 9 -7 16 4 7 13 14 14 39 5 25
-8 33 -7 49 7 12 11 20 13 20 7 0 -7 14 -12 30 -12 17 0 30 5 30 11 0 6 -9 8
-21 4 -15 -5 -19 -4 -15 4 4 6 16 11 27 11 10 0 19 4 19 9 0 6 -9 8 -21 6 -17
-3 -19 -2 -9 10 6 8 8 20 4 26 -5 9 -10 7 -16 -7 -6 -14 -7 -10 -4 13 3 20 0
36 -9 43 -8 7 -12 16 -9 21 10 17 20 9 33 -26 11 -32 41 -50 41 -25 0 6 -5 10
-12 10 -6 0 -4 8 7 20 12 13 16 30 13 55 -4 38 2 43 26 20 17 -17 30 -20 21
-5 -3 6 -1 10 4 10 6 0 11 4 11 10 0 5 -7 7 -15 4 -8 -4 -15 -1 -15 5 0 6 10
13 23 16 13 4 29 20 37 38 l14 32 9 -32 c12 -39 30 -45 21 -7 -5 19 -4 25 5
20 7 -5 11 2 11 18 0 21 5 26 24 26 16 0 26 7 29 21 3 12 10 18 17 14 14 -9
40 24 33 42 -3 8 3 13 19 13 14 0 37 14 57 35 18 19 37 33 42 30 4 -3 11 6 15
20 7 27 19 33 27 13 3 -7 6 -3 6 9 1 15 9 25 26 29 14 3 25 12 25 20 0 8 6 14
13 14 15 0 41 39 32 48 -3 4 -11 0 -16 -8 -9 -12 -10 -12 -5 3 3 10 6 28 6 40
0 18 2 19 10 7 8 -13 11 -13 22 1 12 15 85 35 159 44 17 3 38 7 48 9 9 3 22 2
30 -3 9 -6 32 -3 63 10 27 10 58 17 71 15 12 -3 25 -5 28 -5 4 -1 9 -10 12
-21 4 -17 13 -20 54 -20 78 0 77 -4 58 166 l-16 149 51 105 c61 126 108 218
183 364 32 60 62 127 67 148 10 35 30 53 30 26 0 -6 3 -8 7 -5 11 12 34 -47
31 -81 -1 -20 3 -36 11 -42 23 -14 41 0 42 34 1 30 1 30 9 6 7 -23 8 -23 9 -3
1 12 10 24 21 28 11 3 20 11 20 17 0 6 -7 5 -17 -3 -16 -13 -17 -12 -5 3 8 9
19 15 26 12 8 -3 20 1 27 8 8 7 23 13 34 13 16 0 19 6 17 28 -3 25 5 32 31 28
4 0 7 4 7 10 0 5 5 7 12 3 6 -4 8 -3 5 4 -9 14 3 43 15 36 5 -3 8 0 7 7 -4 26
14 74 35 92 13 12 15 17 5 14 -12 -4 -14 1 -11 24 5 31 27 38 61 20 13 -7 17
-5 17 10 0 10 -4 19 -8 19 -4 0 -8 -4 -8 -9 0 -19 -48 3 -63 29 -17 27 -16 29
3 35 19 6 29 35 11 35 -17 0 -21 87 -6 117 8 15 15 24 15 19 0 -5 7 -3 15 4 8
7 15 16 15 21 0 5 -7 9 -15 9 -8 0 -15 4 -15 10 0 5 -5 9 -11 7 -6 -1 -13 3
-16 9 -2 6 3 11 12 11 8 0 15 -4 15 -9 0 -4 5 -8 11 -8 6 0 9 6 6 14 -6 16 10
36 27 32 6 -2 8 -1 4 1 -14 8 -9 43 6 49 11 4 13 12 5 30 -6 17 -6 23 1 19 6
-4 9 7 7 27 -2 27 -7 33 -26 34 -24 1 -43 -27 -23 -34 7 -2 12 -10 12 -17 0
-19 -33 -8 -48 16 -15 23 -8 39 16 40 13 0 12 2 -4 9 -22 8 -38 56 -26 75 4 5
7 25 7 43 1 28 -1 31 -11 18 -9 -13 -11 -10 -12 16 -1 23 2 28 8 18 8 -13 10
-13 10 1 0 9 -6 22 -14 29 -8 6 -13 17 -10 24 6 16 -21 40 -35 31 -7 -3 -8 0
-5 9 4 10 1 16 -7 16 -7 0 -10 3 -7 6 4 3 17 0 30 -7 22 -12 23 -11 5 8 -15
18 -16 22 -3 32 8 7 17 22 19 34 2 12 3 7 1 -10 -1 -18 1 -33 7 -33 22 0 -1
100 -31 130 -11 11 -9 30 3 30 6 0 4 5 -5 11 -10 5 -18 15 -18 20 0 6 5 7 10
4 10 -6 21 13 25 43 1 10 6 33 10 52 7 29 9 31 16 15 5 -14 8 -16 8 -4 1 8 -6
24 -14 35 -20 26 -19 34 6 34 11 0 18 4 15 9 -3 5 1 14 9 21 8 7 15 23 15 36
0 14 6 24 14 24 9 0 16 12 18 28 2 15 8 26 15 25 8 -2 10 4 6 14 -4 10 -2 14
4 10 12 -8 74 52 85 83 6 17 4 18 -19 9 -14 -5 -35 -7 -45 -3 -16 5 -19 12
-14 36 3 17 6 35 6 40 0 5 4 6 10 3 6 -3 7 1 4 9 -3 9 -10 13 -15 10 -5 -3 -9
4 -9 15 0 10 5 21 10 23 6 2 8 17 4 38 -6 29 -9 31 -15 15 -7 -17 -8 -18 -8
-3 -1 10 -14 30 -29 45 -16 16 -31 36 -35 46 -7 19 -24 22 -46 8 -9 -6 -22 -6
-32 0 -12 6 -19 5 -21 -3 -3 -7 -7 -8 -10 -3 -9 16 10 55 27 55 8 0 15 -5 15
-11 0 -5 4 -7 10 -4 6 3 7 -1 4 -9 -3 -9 -1 -16 5 -16 6 0 11 7 11 17 0 9 3
14 6 10 3 -3 15 4 26 15 18 18 19 24 9 40 -8 13 -9 24 -3 31 5 7 13 23 16 37
6 19 5 21 -3 10 -18 -26 -13 9 6 41 16 26 16 31 3 39 -13 8 -12 10 3 10 10 0
17 6 16 13 -1 6 -1 19 0 27 1 13 2 13 11 0 8 -12 10 -10 11 10 1 14 2 32 3 40
1 8 -3 21 -8 28 -6 9 -4 11 8 6 18 -7 19 5 6 46 l-8 25 -2 -25 c-1 -17 -6 -9
-14 25 -7 28 -17 49 -24 48 -6 -2 -9 3 -6 11 7 18 -28 27 -64 16 -15 -5 -21
-9 -14 -9 7 -1 10 -6 6 -12 -4 -8 -9 -7 -15 2 -14 22 -10 39 6 33 8 -4 15 -1
15 5 0 6 -9 11 -20 11 -11 0 -20 4 -20 8 0 5 14 6 31 4 19 -3 34 0 39 8 13 21
0 40 -25 40 -13 0 -27 5 -31 12 -5 8 2 9 23 5 28 -5 32 -3 44 26 7 18 19 38
26 45 11 12 9 17 -13 35 -15 11 -39 21 -53 21 -29 1 -51 12 -51 27 0 6 3 8 8
6 4 -3 7 6 7 19 0 13 -3 24 -7 24 -5 0 -8 7 -8 15 0 9 -8 19 -17 22 -24 9 -43
29 -43 44 0 9 -4 8 -15 -1 -10 -9 -15 -9 -15 -1 0 6 -8 11 -17 11 -15 0 -15 2
-4 9 8 5 24 6 37 1 19 -7 23 -5 28 16 4 14 4 30 0 36 -4 6 -3 8 3 5 6 -4 13 0
17 8 3 8 0 17 -6 21 -7 4 -8 3 -4 -4 4 -7 2 -12 -3 -12 -6 0 -11 8 -11 18 0
13 -2 14 -9 4 -7 -12 -14 -11 -40 2 -17 9 -31 21 -31 26 0 9 -39 24 -64 25 -5
0 -11 7 -13 15 -4 12 -3 12 5 2 7 -11 10 -11 15 2 4 9 3 15 -1 15 -4 -1 -14
-1 -22 0 -13 1 -13 2 0 11 13 8 12 10 -3 10 -10 0 -16 4 -13 8 13 22 13 59 0
59 -15 0 -19 -13 -5 -19 5 -2 5 -13 0 -25 -8 -22 -9 -22 -38 -5 -22 12 -27 20
-19 29 6 7 7 13 2 13 -5 0 -2 5 6 11 12 9 11 10 -7 6 -18 -4 -23 -1 -23 14 0
10 -6 18 -12 17 -9 -2 -12 8 -12 30 2 31 -10 44 -18 20 -3 -7 -7 -5 -11 6 -4
10 -3 15 3 11 6 -3 13 1 16 9 3 8 15 18 26 22 19 6 19 6 1 19 -18 13 -12 30
10 30 7 0 12 7 12 15 0 8 -5 14 -12 13 -7 -2 -10 4 -7 12 4 8 1 15 -6 15 -7 0
-10 6 -7 13 3 8 1 20 -5 28 -8 11 -9 10 -4 -3 9 -30 -2 -20 -20 17 -9 19 -23
35 -30 35 -8 0 -14 5 -14 11 0 5 -4 8 -9 4 -6 -3 -6 9 0 29 5 19 9 38 8 43 -1
4 3 21 9 36 19 46 15 77 -9 77 -13 0 -19 5 -16 13 2 6 -2 18 -9 25 -8 7 -14 9
-14 3 0 -5 -9 -7 -20 -4 -15 4 -18 9 -10 18 9 11 7 12 -8 8 -14 -3 -22 1 -27
17 -8 26 -43 40 -97 40 -53 0 -80 23 -68 56 7 16 6 24 -1 24 -6 0 -9 7 -5 15
3 8 1 15 -4 15 -6 0 -10 4 -10 9 0 6 8 8 18 6 15 -3 18 2 14 21 -3 19 0 24 17
24 17 0 21 6 21 32 0 17 -2 29 -6 26 -3 -3 -20 -2 -38 2 -30 6 -35 4 -45 -16
-18 -41 -44 -29 -74 34 -26 55 -27 55 -23 20 l5 -38 -45 5 c-24 2 -44 1 -44
-4 0 -4 -34 -11 -76 -14 -61 -5 -79 -3 -95 11 -10 9 -19 22 -19 30 0 7 -7 15
-15 18 -19 8 -20 34 -1 34 8 0 18 5 22 12 4 7 3 8 -5 4 -6 -4 -3 8 7 26 21 37
12 56 -23 50 -13 -2 -16 0 -8 5 16 11 29 73 15 73 -5 0 -13 20 -16 44 -8 53
-22 67 -70 69 -30 2 -35 5 -30 21 5 15 3 18 -10 13 -9 -4 -47 -12 -84 -18 -37
-7 -71 -17 -77 -22 -7 -7 -6 -8 3 -3 7 5 12 1 12 -9 0 -10 -5 -13 -12 -9 -7 4
-5 -2 5 -13 21 -24 22 -44 2 -37 -8 4 -15 1 -15 -6 0 -7 -6 -10 -14 -7 -24 9
-29 -26 -7 -44 11 -9 17 -19 14 -23 -11 -11 31 -6 47 5 13 9 12 10 -2 5 -10
-3 -18 -1 -18 4 0 6 9 10 19 10 17 0 38 40 33 63 -1 4 3 7 9 7 6 0 8 -9 4 -20
-5 -16 -3 -19 12 -14 14 4 15 4 4 -4 -7 -5 -11 -14 -7 -20 3 -6 1 -14 -5 -18
-8 -4 -7 -9 2 -15 22 -14 27 -11 32 19 4 25 4 24 6 -6 0 -19 5 -31 11 -27 6 3
7 -1 4 -9 -3 -9 -2 -16 4 -16 5 0 13 -12 17 -27 4 -19 9 -23 14 -14 6 9 11 1
15 -23 4 -23 11 -34 18 -30 6 4 9 1 6 -7 -3 -8 -12 -13 -22 -11 -10 2 -16 -4
-17 -15 -1 -10 -2 -25 -3 -33 -2 -8 -4 -24 -5 -35 -2 -15 -5 -11 -12 13 -10
35 -39 44 -39 12 0 -11 -3 -20 -7 -20 -5 0 -9 -10 -10 -23 -2 -39 -22 -77 -39
-77 -16 0 -16 1 0 19 11 12 14 21 7 26 -6 3 -11 -2 -11 -12 0 -15 -2 -16 -10
-3 -8 12 -10 9 -10 -13 0 -16 -4 -26 -10 -22 -5 3 -10 1 -10 -5 0 -7 6 -10 14
-7 13 5 31 -31 21 -42 -3 -2 -5 1 -5 7 0 7 -9 12 -20 12 -12 0 -20 -7 -20 -16
0 -13 3 -14 14 -5 11 10 14 7 13 -11 0 -27 5 -51 15 -58 3 -3 0 -18 -8 -35 -7
-16 -13 -23 -13 -15 2 29 -1 41 -9 36 -5 -3 -15 10 -22 29 -8 19 -17 35 -22
35 -4 0 -8 7 -8 15 0 8 -4 15 -9 15 -5 0 -5 15 -2 33 5 21 12 31 22 29 9 -1
16 5 16 13 0 18 -3 18 -25 6 -15 -8 -17 -4 -15 30 1 26 -2 37 -9 33 -7 -4 -8
1 -3 16 5 15 4 20 -3 16 -6 -4 -16 4 -23 16 -11 21 -11 22 5 9 14 -12 16 -12
10 3 -11 29 5 106 23 106 13 0 13 3 3 15 -7 8 -9 15 -6 15 4 0 0 7 -9 16 -9 9
-14 23 -11 30 3 8 1 14 -4 14 -6 0 -10 5 -10 11 0 5 4 8 9 4 5 -3 12 -1 15 4
4 5 2 12 -4 16 -5 3 -10 11 -10 16 0 6 5 7 10 4 6 -3 10 -1 10 5 0 7 -7 9 -16
6 -9 -3 -20 -6 -26 -6 -6 0 -8 -10 -4 -25 7 -27 -3 -32 -21 -14 -9 9 -16 8
-27 -4 -9 -9 -16 -20 -16 -26 0 -6 -5 -11 -11 -11 -5 0 -7 6 -3 13 5 8 2 7 -9
-2 -13 -10 -16 -23 -12 -50 l5 -36 -11 33 -10 33 -28 -21 c-30 -21 -61 -27
-61 -11 0 5 -10 7 -22 5 -13 -2 -18 -2 -12 1 7 4 10 32 8 73 -1 43 1 60 6 47
7 -16 9 -17 9 -3 1 9 4 24 8 34 5 13 3 15 -8 9 -11 -7 -12 -6 -3 6 8 10 8 22
-2 44 -7 17 -13 26 -14 20 0 -5 -9 0 -20 13 -10 13 -17 29 -14 36 3 7 -7 18
-21 24 -14 7 -23 17 -20 22 4 6 10 8 14 6 4 -3 13 -1 20 3 8 6 3 12 -18 21
-17 7 -28 16 -25 21 3 5 -2 9 -10 9 -20 0 -21 -16 -1 -24 13 -5 13 -9 3 -26
-11 -17 -11 -22 0 -29 11 -7 11 -11 -1 -22 -21 -21 -11 -41 13 -27 11 7 22 9
25 6 4 -3 8 -41 10 -84 2 -61 0 -74 -8 -56 -5 12 -14 22 -20 22 -5 0 -6 7 -3
16 3 8 2 12 -4 9 -6 -3 -10 -20 -10 -36 0 -21 -4 -28 -12 -23 -8 5 -9 2 -5
-10 5 -14 3 -16 -12 -11 -11 3 -26 -1 -35 -10 -15 -15 -16 -15 -16 4 0 24 -37
61 -60 61 -9 0 -25 8 -36 18 -11 9 -26 18 -34 20 -11 2 -10 -2 3 -12 10 -8 14
-17 8 -20 -5 -3 -11 0 -14 6 -2 7 -8 10 -12 6 -4 -4 -2 -14 4 -22 13 -16 7
-36 -11 -36 -5 0 -7 7 -4 16 5 12 2 15 -10 10 -13 -5 -15 -1 -11 19 3 20 1 25
-11 20 -13 -5 -13 -3 1 17 8 13 22 22 31 22 9 -1 16 4 16 12 0 11 -5 11 -25 2
-14 -6 -25 -15 -25 -20 0 -14 -15 -9 -38 12 l-21 20 -20 -22 c-20 -21 -21 -21
-41 -3 -11 10 -17 21 -15 26 3 4 1 10 -5 14 -16 10 -12 28 5 21 20 -7 19 0 -3
22 -20 20 -34 12 -46 -25 -5 -15 -13 -19 -26 -16 -14 4 -21 -1 -26 -21 l-6
-25 -29 21 c-18 13 -25 24 -18 29 7 4 5 8 -5 12 -10 4 -16 1 -16 -8 0 -8 -9
-15 -21 -15 -11 0 -17 -4 -14 -10 3 -5 1 -10 -4 -10 -6 0 -11 6 -11 14 0 9 -7
12 -19 9 -16 -4 -19 -1 -14 17 5 17 2 21 -13 18 -11 -2 -20 4 -22 15 -2 11 3
17 14 17 16 0 16 1 -2 15 -10 8 -14 14 -9 13 6 -2 10 2 10 7 0 6 -3 9 -7 8
-11 -4 -28 56 -17 62 5 4 9 12 8 18 0 8 -2 8 -5 1 -3 -6 -16 -9 -29 -6 -14 2
-25 0 -25 -6 0 -6 -7 -17 -15 -25 -8 -8 -16 -28 -17 -44 -1 -20 -7 -29 -20
-29 -24 0 -31 23 -10 35 13 8 15 14 6 27 -6 10 -17 20 -25 22 -8 3 -7 -1 4
-10 18 -13 18 -14 -2 -32 -11 -10 -24 -15 -30 -12 -5 4 -12 2 -15 -3 -4 -5 3
-12 14 -16 11 -3 20 -14 20 -23 0 -13 -2 -14 -9 -4 -6 10 -10 6 -14 -15 -8
-38 -107 -143 -135 -143 -15 0 -20 4 -16 15 5 12 9 13 21 4 8 -7 13 -8 11 -2
-2 5 11 24 27 40 48 49 56 61 44 68 -6 5 -4 12 7 19 16 12 15 14 -7 19 -19 5
-25 14 -27 38 -4 45 5 65 27 65 11 0 18 -3 16 -6 -2 -3 0 -12 5 -20 8 -13 12
-12 24 5 20 26 20 49 1 41 -10 -3 -15 1 -15 11 0 13 -3 14 -12 5 -7 -7 -16
-12 -20 -12 -11 0 -7 52 6 69 8 10 5 18 -11 31 -12 10 -19 20 -16 24 4 3 1 6
-6 6 -7 0 -11 6 -8 14 5 13 -12 27 -29 25 -4 0 -10 5 -14 11 -10 17 -50 3 -51
-18 0 -11 -4 -9 -10 8 -13 33 -49 55 -49 30z m-797 -320 c3 -11 1 -18 -3 -15
-8 5 -18 -3 -46 -38 -6 -7 -9 -27 -7 -44 4 -27 1 -32 -26 -41 -17 -6 -31 -18
-31 -27 0 -9 -4 -13 -10 -10 -5 3 -10 0 -10 -8 0 -19 -37 -29 -44 -12 -3 8 2
19 10 26 14 12 14 14 0 24 -19 15 -10 52 15 60 11 4 16 12 12 22 -5 12 -1 14
15 8 14 -4 22 -2 22 5 0 6 4 8 10 5 5 -3 7 0 4 8 -3 8 2 20 11 27 14 11 18 11
25 1 5 -10 10 -4 15 18 5 25 10 30 20 21 7 -6 15 -20 18 -30z m102 -256 c-10
-10 -13 -24 -9 -37 5 -15 3 -19 -10 -14 -17 7 -46 -17 -46 -39 0 -8 -7 -14
-15 -14 -8 0 -15 -9 -15 -20 l0 -21 22 21 c21 19 23 20 29 3 3 -10 4 -23 2
-30 -3 -8 3 -10 19 -6 19 5 21 3 11 -8 -7 -7 -13 -22 -13 -33 0 -17 -2 -18
-10 -6 -5 8 -10 10 -10 5 0 -6 -10 -16 -22 -24 -21 -13 -22 -13 -10 1 14 17 6
48 -13 48 -6 0 -22 -9 -35 -20 -13 -11 -27 -20 -32 -20 -4 0 -8 -7 -8 -16 0
-8 -5 -24 -11 -35 -8 -16 -13 -18 -25 -8 -16 13 -20 44 -4 34 6 -3 10 -2 10 4
0 5 -4 12 -9 15 -4 3 -7 24 -5 46 3 45 42 109 54 90 5 -8 10 -9 14 -2 3 6 1
12 -6 14 -9 3 -6 13 9 31 11 14 23 23 27 20 3 -3 6 -1 6 5 0 7 7 12 17 12 15
0 15 -2 -1 -19 -11 -12 -13 -21 -7 -25 6 -4 17 7 26 24 9 17 20 28 25 25 5 -3
11 -1 15 5 3 5 15 10 26 10 19 0 19 -1 4 -16z m-645 -648 c0 -2 3 -13 6 -23 5
-15 4 -15 -5 -3 -7 9 -11 11 -11 3 0 -7 6 -16 13 -20 16 -10 42 -61 35 -69 -7
-7 -64 -8 -100 -2 -16 3 -28 1 -28 -3 0 -12 -110 -7 -111 6 0 5 -2 22 -4 38
-3 24 -1 27 23 25 15 -1 32 1 38 5 6 4 19 -2 29 -13 19 -21 35 -26 35 -11 0 5
-9 13 -20 16 -29 9 -27 39 3 31 12 -3 29 -6 37 -7 10 0 8 -3 -5 -9 -17 -7 -17
-9 -2 -9 9 -1 17 -6 17 -12 0 -16 25 -5 26 12 3 43 5 49 14 49 6 0 10 -2 10
-4z m-823 -80 c-4 -11 7 -15 46 -18 29 -2 57 0 64 5 17 12 29 2 42 -35 6 -17
8 -29 4 -25 -9 9 -36 -31 -28 -42 3 -5 -4 -12 -15 -16 -11 -3 -20 -10 -20 -15
0 -5 -7 -7 -15 -4 -8 4 -13 9 -10 13 2 4 -2 8 -10 8 -8 0 -15 -6 -15 -14 0
-17 -24 -17 -39 1 -8 10 -9 16 -2 21 21 12 -58 72 -87 67 -16 -4 -11 17 9 39
11 11 26 15 43 12 15 -3 26 -1 26 6 0 6 3 11 6 11 3 0 4 -6 1 -14z m1422 -203
c-6 -16 -18 -36 -27 -46 -12 -14 -13 -20 -4 -26 8 -4 10 -15 6 -26 -5 -12 -4
-16 3 -12 7 4 10 -4 9 -21 0 -15 -6 -27 -11 -27 -6 0 -8 6 -7 14 3 12 1 12
-10 3 -8 -6 -24 -9 -36 -5 -15 4 -27 0 -36 -12 -19 -27 -38 -11 -25 22 7 19 6
28 -2 34 -21 12 105 125 143 128 4 1 3 -11 -3 -26z m-1389 -115 c5 -13 9 -18
9 -12 1 6 7 11 14 11 6 0 19 4 28 7 13 6 16 2 12 -18 -3 -16 -1 -26 6 -26 7 0
9 -4 6 -10 -3 -5 -3 -15 1 -21 4 -8 9 -8 13 -1 11 18 29 -1 36 -38 6 -34 5
-36 -19 -35 -15 1 -33 10 -42 21 -8 10 -12 13 -9 6 5 -10 -3 -12 -34 -8 -40 4
-41 3 -41 -25 0 -16 7 -40 15 -53 15 -22 15 -22 -26 -19 -25 2 -38 -1 -34 -7
3 -5 1 -10 -4 -10 -6 0 -11 4 -11 8 0 10 -49 36 -70 37 -8 1 -14 6 -12 13 4
20 -39 14 -45 -6 -2 -10 -14 -19 -26 -19 -12 -1 -23 -7 -25 -12 -3 -8 -10 -8
-23 0 -11 5 -17 14 -14 19 5 8 -32 40 -47 40 -4 0 -4 -8 -1 -17 6 -17 6 -17
-10 -1 -9 9 -17 21 -17 26 0 6 -9 8 -19 5 -17 -4 -18 -8 -8 -23 6 -10 15 -16
19 -14 4 3 8 -2 8 -10 0 -9 4 -16 9 -16 9 0 23 -41 16 -48 -3 -3 -11 1 -20 8
-9 7 -18 10 -22 6 -4 -3 -22 11 -41 31 -36 40 -62 80 -44 69 6 -3 13 -2 17 3
3 6 24 9 47 8 24 -1 43 3 45 10 4 10 9 9 26 0 28 -16 47 -34 42 -39 -3 -3 9
-3 25 0 21 3 30 10 30 23 0 11 -4 19 -10 19 -5 0 -10 7 -10 15 0 8 7 15 15 15
11 0 15 -11 15 -36 0 -34 1 -35 17 -18 12 11 14 19 6 21 -6 2 -9 13 -6 23 5
18 21 25 46 21 4 0 7 6 7 15 0 8 4 12 10 9 5 -3 18 -1 29 5 11 5 33 11 48 12
36 3 60 23 37 32 -8 3 -12 10 -9 16 11 18 35 11 45 -12z m-620 -662 c11 -17 9
-18 -9 -13 -12 3 -21 1 -21 -3 0 -5 -11 -7 -25 -6 -13 2 -22 0 -20 -4 8 -13
-23 -32 -37 -24 -7 4 -4 -3 7 -16 21 -25 23 -25 -32 -3 -16 6 -16 5 -4 -10 12
-15 12 -17 -4 -11 -11 5 -16 3 -12 -2 3 -5 -3 -10 -13 -10 -10 0 -16 6 -13 13
3 9 0 11 -10 7 -9 -3 -23 3 -34 15 -9 12 -27 21 -38 20 -17 -1 -16 -2 5 -10
l25 -8 -24 2 c-33 3 -40 27 -8 27 13 0 27 3 31 8 4 4 11 7 14 7 4 1 17 6 29
13 22 12 105 27 154 27 16 0 32 -8 39 -19z m-655 -372 c0 -11 4 -26 10 -34 5
-8 11 -24 12 -35 2 -11 8 -21 13 -23 6 -2 10 -10 10 -17 0 -8 9 -17 20 -20 11
-3 20 -10 20 -14 0 -5 20 -16 43 -25 24 -9 44 -23 44 -31 0 -10 -4 -12 -12 -5
-7 5 -15 7 -18 3 -4 -3 -7 -1 -7 6 0 7 -5 9 -11 5 -17 -10 3 -23 41 -26 19 -2
39 -7 43 -13 6 -7 10 -6 13 2 3 7 13 9 22 6 14 -5 14 -2 -3 17 -18 21 -18 23
-2 17 10 -4 23 -7 28 -7 6 0 7 -4 4 -10 -4 -6 5 -10 19 -10 37 0 41 3 38 23
-2 9 0 17 5 17 9 -1 66 -80 61 -85 -2 -2 -46 -5 -98 -7 -65 -3 -105 0 -127 9
-18 7 -44 13 -57 13 -35 0 -87 34 -106 68 -8 16 -24 45 -34 63 -41 72 -35 132
10 115 10 -4 14 -2 11 6 -2 7 -9 12 -15 11 -5 -1 -13 5 -16 14 -6 14 -4 14 16
1 13 -9 23 -24 23 -34z m4466 -836 c1 -13 1 -26 0 -30 0 -5 4 -8 9 -8 6 0 10
-9 10 -20 0 -19 11 -25 35 -20 6 1 0 -9 -12 -22 -13 -14 -23 -33 -24 -44 0
-18 -1 -18 -9 1 -8 19 -9 19 -9 -2 -1 -13 5 -24 12 -24 6 -1 18 -2 26 -3 16
-1 28 -26 13 -26 -6 0 -13 6 -16 13 -4 6 -4 2 -2 -10 2 -13 0 -23 -4 -23 -4 0
-6 -10 -2 -22 3 -12 7 -17 10 -10 4 13 23 17 20 5 -3 -14 25 -63 32 -58 8 5
-13 -116 -25 -147 -5 -13 -12 -14 -38 -7 -51 14 -55 10 -12 -13 22 -11 43 -26
47 -32 5 -7 8 -3 8 9 0 11 5 38 11 59 8 28 13 35 19 25 5 -7 5 -16 1 -19 -4
-3 -10 -13 -14 -23 -6 -15 -3 -17 13 -12 16 5 20 2 20 -15 0 -13 4 -19 12 -14
7 4 8 3 4 -5 -4 -6 -12 -9 -17 -6 -12 8 -11 -6 4 -30 12 -21 29 -26 43 -13 4
4 1 14 -6 23 -23 27 -4 16 29 -19 24 -24 29 -36 20 -41 -8 -6 -10 -4 -4 6 4 8
-1 5 -12 -6 -15 -15 -18 -25 -11 -37 5 -10 13 -18 19 -18 6 0 8 -4 5 -9 -9
-14 -86 -7 -96 9 -6 8 -10 11 -10 6 0 -6 -7 -1 -15 10 -14 18 -14 17 -5 -11
l11 -29 -22 19 c-11 11 -24 20 -28 20 -3 0 -5 3 -4 7 2 4 -9 3 -23 -2 -33 -13
-31 -13 -37 11 -5 17 -3 18 9 8 12 -10 17 -9 27 1 8 8 8 11 1 7 -7 -4 -17 0
-24 8 -7 8 -19 15 -26 15 -17 0 -18 16 -1 24 6 3 0 3 -15 0 -17 -4 -28 -2 -28
5 0 6 7 11 15 11 8 0 15 5 15 11 0 6 8 8 19 4 11 -3 22 -1 26 5 3 6 -3 10 -15
10 -13 0 -19 4 -14 11 5 9 -1 10 -20 5 -14 -3 -26 -2 -26 3 0 5 9 11 20 14 23
6 17 37 -6 37 -8 0 -14 10 -14 24 0 25 -20 48 -20 24 -1 -8 -6 -6 -15 6 -18
23 -19 36 -4 36 5 0 7 -6 3 -12 -5 -10 -4 -10 6 -1 15 14 3 36 -16 29 -8 -3
-11 0 -7 10 3 7 10 14 15 14 6 0 8 6 5 14 -3 8 1 20 9 26 9 8 14 9 14 2 0 -6
-6 -13 -12 -16 -7 -3 -3 -3 9 0 15 3 23 0 25 -13 3 -12 8 -4 16 22 13 44 7 52
-38 49 -16 -1 -28 1 -26 5 3 4 1 13 -5 21 -7 13 -9 12 -9 -2 0 -10 -4 -18 -10
-18 -5 0 -10 5 -10 12 0 6 -7 20 -17 30 -15 17 -15 18 0 18 10 0 17 -5 17 -11
0 -5 5 -7 11 -4 6 4 8 14 5 22 -4 9 -1 22 5 29 9 11 8 14 0 14 -8 0 -7 5 2 15
9 8 17 20 20 27 2 7 8 9 13 5 5 -4 2 -12 -6 -17 -8 -6 -10 -10 -5 -10 6 0 17
5 25 10 13 9 12 12 -4 25 -18 13 -15 20 7 16 12 -2 8 17 -5 22 -21 9 13 27 50
27 26 0 32 -4 33 -22z m-62 -717 c17 -11 -3 -25 -21 -15 -9 5 -10 4 -3 -4 8
-9 21 -9 45 -2 50 14 60 13 60 -10 0 -19 5 -21 53 -17 28 3 46 2 40 0 -7 -3
-13 -9 -13 -13 0 -12 43 -8 52 4 4 6 15 3 27 -8 12 -11 21 -14 21 -8 0 7 7 12
15 12 9 0 15 -9 15 -21 0 -18 2 -19 15 -9 12 10 15 10 15 -3 0 -8 5 -17 11
-19 21 -7 79 4 73 14 -3 5 3 4 15 -4 24 -15 36 -42 25 -59 -4 -7 -3 -10 2 -7
5 3 15 0 22 -8 10 -11 10 -14 0 -14 -9 0 -9 -3 2 -10 13 -8 12 -11 -5 -24 -18
-14 -18 -15 -3 -16 15 0 16 -4 8 -26 -13 -32 -13 -31 4 -31 17 0 40 44 37 70
-2 12 5 17 21 18 21 0 21 1 3 8 -18 7 -17 8 7 13 36 7 52 -5 43 -31 -5 -18 -2
-21 19 -21 16 0 26 -6 26 -14 0 -21 -20 -30 -33 -16 -9 10 -9 11 1 6 6 -4 12
-2 12 3 0 6 -9 11 -20 11 -13 0 -20 -7 -20 -20 0 -13 7 -20 18 -20 10 0 24 -6
31 -12 11 -11 13 -10 7 0 -4 6 0 19 8 28 20 19 20 30 1 38 -8 3 -15 12 -15 21
0 18 12 19 29 3 10 -11 15 -9 28 7 l16 20 -8 -20 c-4 -11 -8 -27 -9 -35 0 -8
-9 -24 -18 -34 -10 -11 -15 -22 -12 -25 3 -3 13 3 20 15 13 19 19 20 55 10 22
-6 38 -15 35 -22 -4 -10 26 -44 39 -44 12 0 3 28 -10 34 -8 3 -15 14 -15 24 0
10 -10 24 -22 30 -22 11 -21 11 5 6 21 -5 27 -2 27 11 0 9 -4 14 -9 10 -5 -3
-12 -1 -15 4 -4 5 2 8 11 7 10 -2 20 1 24 5 3 5 5 -7 5 -26 0 -21 -3 -30 -8
-22 -6 9 -8 9 -8 -1 0 -7 6 -20 14 -28 8 -8 18 -34 22 -59 3 -25 10 -45 15
-45 5 0 8 3 7 8 -2 12 13 42 22 42 11 0 90 -81 90 -92 0 -5 12 -5 27 -2 21 6
25 4 20 -9 -4 -11 -2 -14 7 -11 8 3 16 -4 20 -18 5 -19 8 -20 16 -8 8 12 10
12 10 1 0 -10 3 -11 13 -3 10 8 16 5 27 -11 12 -21 12 -21 -5 -7 -17 14 -17
14 -7 -6 6 -11 18 -26 26 -33 9 -8 13 -17 10 -23 -3 -5 6 -21 21 -35 14 -15
24 -32 21 -39 -3 -7 2 -15 10 -18 8 -3 14 -17 14 -31 0 -14 5 -25 11 -25 6 0
9 -7 5 -15 -3 -8 -2 -15 2 -15 7 0 8 -3 15 -118 3 -51 1 -70 -6 -63 -20 20
-26 11 -16 -21 11 -41 11 -41 -1 -33 -5 3 -10 1 -10 -6 0 -8 -4 -8 -15 1 -13
11 -18 11 -28 0 -10 -10 -9 -12 5 -7 13 4 18 -2 24 -26 7 -32 7 -32 16 -7 12
33 15 35 33 20 12 -10 15 -10 16 1 1 8 5 -5 10 -28 4 -24 17 -52 28 -64 32
-34 41 -72 26 -105 -7 -16 -16 -36 -19 -44 -6 -15 -24 -42 -60 -94 -24 -34
-24 -140 0 -163 10 -11 12 -19 4 -27 -5 -7 -7 -16 -3 -19 10 -10 -66 -39 -87
-32 -10 3 -36 -2 -59 -11 -23 -9 -51 -14 -63 -11 -11 3 -46 0 -77 -8 -31 -8
-73 -13 -93 -11 -22 2 -36 -1 -35 -7 3 -17 -27 -19 -48 -3 -18 13 -19 18 -7
48 8 21 9 34 2 36 -6 2 -7 8 -4 14 3 5 0 8 -7 7 -22 -3 -49 12 -49 27 0 8 -11
19 -25 26 -13 6 -23 14 -21 17 7 11 -22 43 -33 36 -6 -3 -11 -1 -11 5 0 6 7
13 15 16 8 4 12 11 8 17 -4 6 -1 7 8 1 25 -15 34 -12 35 12 1 16 -2 21 -10 17
-16 -10 -36 -13 -36 -4 0 10 72 47 84 43 6 -2 7 0 3 4 -11 11 -37 14 -37 3 0
-16 -28 2 -33 22 -6 21 -27 26 -27 6 0 -8 -7 -14 -15 -14 -8 0 -15 4 -15 9 0
4 5 8 10 8 6 0 10 10 9 23 0 21 -1 21 -9 2 -8 -18 -9 -17 -9 8 -1 18 4 27 14
27 8 0 15 -7 15 -15 0 -17 17 -20 22 -5 2 6 19 13 38 15 19 3 36 9 38 15 2 5
10 10 18 10 9 0 14 11 14 28 0 21 2 24 10 12 8 -13 10 -12 10 3 0 9 -5 17 -12
17 -6 0 -8 3 -5 7 4 4 -10 15 -30 24 -31 14 -35 19 -20 24 9 4 17 17 17 29 0
16 2 18 9 7 6 -9 16 -11 27 -6 13 5 15 9 7 12 -20 7 -16 18 20 53 28 28 29 32
10 27 -14 -3 -24 1 -27 10 -3 8 -1 11 5 8 18 -12 59 4 59 23 0 12 -2 14 -8 4
-9 -13 -42 -7 -42 8 0 4 -8 16 -18 27 -13 15 -26 20 -51 17 -26 -3 -32 -1 -27
11 4 11 -1 15 -17 15 -13 0 -32 7 -43 15 -23 17 -54 20 -54 4 0 -6 7 -8 18 -4
13 5 14 4 5 -6 -9 -9 -16 -9 -26 -1 -8 7 -17 9 -20 5 -4 -3 -18 4 -32 17 l-24
23 -7 -28 c-5 -20 -9 -23 -15 -13 -7 11 -9 10 -9 -1 0 -11 -3 -10 -13 3 -12
16 -14 17 -15 2 -1 -9 -3 -23 -4 -31 -1 -8 -5 -15 -10 -15 -5 0 -6 11 -3 23 4
16 2 24 -7 24 -7 0 -21 4 -30 8 -13 5 -15 2 -11 -14 3 -12 12 -21 19 -21 8 0
14 -5 14 -11 0 -5 -5 -7 -11 -3 -8 4 -8 0 0 -15 16 -30 -5 -27 -25 4 -8 13
-14 28 -11 32 3 4 -9 9 -26 9 -18 1 -25 0 -15 -3 9 -2 19 -11 22 -19 6 -16
-10 -19 -19 -4 -4 7 -11 8 -18 2 -7 -6 -33 -7 -60 -2 -26 4 -44 4 -40 -1 4 -4
19 -9 33 -11 21 -2 17 -5 -20 -16 -25 -8 -52 -18 -61 -22 -22 -11 -40 2 -29
20 7 10 10 11 10 3 0 -7 5 -13 11 -13 8 0 8 5 -1 15 -14 17 -28 11 -40 -19 -8
-20 -9 -20 -10 4 0 19 -2 22 -9 11 -8 -13 -12 -13 -26 -1 -15 13 -19 12 -34
-6 -13 -16 -22 -19 -39 -13 -17 7 -24 5 -29 -8 -6 -14 -9 -12 -19 12 l-13 30
-1 -33 c0 -20 -4 -31 -10 -27 -5 3 -10 18 -10 32 0 20 -4 24 -19 20 -24 -6
-36 30 -18 52 10 12 9 12 -10 0 -26 -16 -29 -25 -10 -33 6 -3 3 -5 -8 -3 -11
1 -26 -2 -33 -7 -11 -6 -10 -11 3 -26 14 -16 14 -18 0 -23 -8 -4 -15 -2 -15 4
0 6 -4 7 -10 4 -5 -3 -10 3 -10 14 0 11 -13 30 -30 43 -31 22 -39 38 -19 38 5
0 7 -4 4 -10 -3 -5 3 -10 14 -10 12 0 21 -5 21 -11 0 -5 5 -7 11 -3 11 6 -70
64 -91 64 -23 0 -7 -37 28 -64 20 -16 30 -26 22 -24 -8 3 -21 -1 -28 -8 -10
-11 -10 -17 0 -33 15 -25 4 -38 -16 -18 -15 15 -11 57 5 57 21 0 7 28 -16 32
-14 3 -25 2 -25 -2 0 -5 -10 -6 -22 -3 -23 5 -23 5 -3 -10 23 -18 39 -22 30
-7 -3 6 3 10 15 10 18 0 19 -2 7 -14 -23 -23 -67 -15 -74 14 -6 23 -7 23 -14
5 -7 -17 -8 -16 -8 7 -1 15 4 30 9 33 6 3 10 3 10 -2 0 -4 11 -8 25 -8 14 0
25 3 25 6 0 4 -11 10 -25 13 -25 6 -37 46 -14 46 6 0 9 -7 5 -15 -4 -11 1 -15
19 -15 17 0 25 6 25 18 0 25 -28 60 -37 47 -5 -5 -19 -16 -33 -23 -22 -11 -21
-9 5 12 30 26 21 35 -15 16 -30 -16 -53 -2 -45 29 4 14 12 29 18 33 7 5 -1 8
-18 9 -26 1 -26 2 -6 6 13 3 28 0 33 -5 12 -12 38 -5 38 9 0 5 -8 9 -17 9 -9
0 -13 3 -9 7 4 4 15 8 24 8 13 0 17 8 15 38 -1 20 3 37 8 37 5 0 9 -8 10 -17
0 -13 2 -14 6 -4 5 11 7 11 14 0 6 -10 9 -8 9 9 0 12 -4 22 -10 22 -15 0 -12
47 3 53 7 3 5 6 -5 6 -10 1 -18 -6 -18 -15 0 -8 -4 -12 -10 -9 -16 10 -12 24
15 47 31 27 32 38 2 38 -14 0 -24 6 -24 15 0 8 7 15 14 15 8 0 12 -4 9 -8 -3
-5 1 -9 9 -9 22 0 18 18 -4 24 -27 7 -55 73 -31 73 6 0 10 -8 10 -17 0 -10 5
-25 11 -33 8 -12 9 -10 4 9 -5 15 -3 21 3 17 14 -9 53 34 50 54 -2 8 -12 16
-23 17 -11 2 -15 0 -9 -3 15 -7 5 -54 -12 -54 -8 0 -14 6 -14 14 0 8 -7 16
-15 20 -10 3 -15 19 -15 46 0 38 -1 40 -32 40 l-33 1 25 13 c14 8 29 12 33 9
5 -3 4 4 -2 15 -16 29 -14 52 4 52 13 0 14 -4 5 -20 -6 -11 -7 -20 -2 -20 6 0
13 10 17 23 6 19 8 20 12 4 3 -10 0 -24 -6 -31 -11 -13 -5 -26 10 -26 5 0 5 7
2 17 -4 10 -2 14 5 9 6 -3 13 -2 17 4 4 6 11 7 17 4 7 -5 9 2 4 22 -4 16 -13
32 -19 36 -8 5 -7 11 2 22 15 18 41 21 41 6 0 -5 -7 -10 -15 -10 -20 0 -19 -6
5 -30 18 -18 20 -18 21 -2 1 16 2 16 6 0 6 -24 20 -23 28 2 3 11 10 20 14 20
13 0 35 -30 27 -37 -4 -4 -11 -1 -16 7 -9 13 -9 -6 -1 -59 1 -3 6 0 13 7 7 7
22 12 35 12 26 0 31 15 8 24 -8 3 -15 0 -15 -6 0 -6 -2 -9 -5 -6 -3 3 -1 16 4
29 8 19 10 20 10 5 1 -12 6 -16 17 -12 8 3 12 2 9 -4 -3 -6 -2 -10 4 -10 6 0
16 10 22 22 11 21 12 21 25 3 8 -10 14 -15 14 -11 0 5 6 3 14 -3 11 -9 16 -9
22 0 4 8 3 9 -4 5 -7 -4 -12 -1 -12 8 0 9 6 15 13 14 7 -2 11 6 9 21 -3 17 0
21 10 16 10 -6 10 -5 1 5 -9 9 -9 16 0 26 14 16 27 17 46 5z m-4054 -1511 c9
-16 20 -30 26 -30 6 0 7 -4 4 -10 -3 -5 -1 -10 4 -10 6 0 11 -6 11 -12 0 -7
11 -26 24 -41 14 -16 26 -32 28 -35 2 -4 20 -15 41 -24 20 -10 37 -25 37 -34
0 -25 41 -76 56 -70 7 3 16 1 19 -4 4 -6 2 -10 -4 -10 -13 0 7 -38 37 -70 12
-13 22 -32 22 -42 0 -10 6 -18 13 -19 10 0 10 -2 0 -6 -23 -9 -15 -36 8 -30
58 15 65 -24 9 -47 -39 -15 -41 -18 -35 -51 3 -19 7 -50 10 -67 3 -18 8 -44
10 -58 3 -14 8 -50 11 -80 5 -63 13 -71 -91 88 -39 59 -82 123 -96 142 -15 19
-39 71 -54 115 -15 44 -47 121 -71 172 -24 50 -44 98 -44 107 0 8 -4 17 -9 20
-4 3 -9 35 -9 71 -1 74 16 88 43 35z m4458 -62 c16 -19 16 -21 1 -33 -12 -8
-14 -14 -6 -19 7 -4 12 -2 12 3 0 6 5 11 11 11 5 0 7 -5 3 -12 -5 -7 -3 -8 5
-4 7 5 10 14 7 22 -3 7 -1 16 4 19 6 4 10 0 11 -7 0 -10 2 -10 6 0 7 18 20 15
26 -7 3 -13 0 -18 -8 -15 -7 3 -19 -4 -27 -15 -8 -12 -18 -18 -21 -14 -4 3 -7
0 -7 -8 0 -11 -2 -11 -10 1 -8 13 -10 12 -10 -3 0 -10 -7 -25 -15 -33 -16 -16
-65 -15 -77 1 -5 6 -8 6 -8 -1 0 -7 -7 -15 -16 -18 -13 -5 -14 -3 -7 6 13 17
23 69 12 62 -14 -8 -10 9 6 30 8 11 15 28 15 37 0 34 62 32 93 -3z m201 -74
c9 -3 16 -12 16 -19 0 -8 9 -17 20 -20 11 -4 18 -10 15 -15 -3 -5 -1 -11 5
-15 5 -3 10 -14 10 -23 0 -15 -2 -15 -10 -2 -7 11 -8 5 -3 -19 4 -23 3 -32 -4
-28 -6 4 -16 -6 -22 -23 -12 -35 -26 -41 -18 -8 6 22 6 21 -16 -2 -12 -14 -29
-26 -37 -28 -12 -3 -13 -1 -2 9 16 17 15 30 -1 23 -8 -3 -18 1 -24 8 -12 15
-13 49 -2 42 5 -3 6 13 3 36 -5 34 -3 40 12 40 13 0 15 3 7 11 -22 22 16 47
51 33z m-3718 -172 c-2 -4 4 -8 15 -8 10 0 19 4 19 8 0 4 5 8 11 8 8 0 8 -5
-1 -15 -7 -8 -19 -15 -27 -15 -11 0 -13 -4 -5 -12 7 -9 6 -17 -4 -26 -8 -7
-14 -10 -14 -6 0 3 -6 2 -12 -3 -7 -6 -41 -18 -75 -28 -40 -12 -63 -24 -63
-33 0 -12 2 -12 16 -1 15 12 16 11 10 -9 -15 -52 -17 -67 -9 -55 7 9 13 7 23
-8 17 -23 67 -52 78 -45 10 6 21 -2 45 -30 14 -17 15 -27 8 -48 -12 -29 -51
-37 -51 -10 0 14 -7 15 -37 10 -79 -13 -188 -29 -198 -27 -44 5 -57 10 -75 33
-22 29 -26 43 -8 32 6 -4 8 -3 4 4 -8 14 -47 11 -39 -3 3 -5 13 -18 21 -27 13
-16 13 -18 -1 -18 -8 0 -18 -6 -21 -12 -3 -7 -5 -2 -4 12 2 25 -20 70 -34 70
-5 0 -8 -7 -8 -15 0 -8 4 -15 9 -15 16 0 22 -33 9 -46 -15 -15 -27 -9 -50 24
-14 21 -15 28 -2 58 12 29 12 34 0 34 -7 0 -16 9 -19 20 -4 15 0 20 16 20 18
0 19 2 7 10 -13 9 -13 10 0 11 8 0 4 5 -10 9 l-25 8 25 1 c16 1 21 4 13 9 -7
4 -10 17 -7 29 5 20 8 21 21 8 10 -10 14 -30 11 -63 -2 -36 0 -47 12 -48 8 -1
19 -2 25 -3 5 0 4 -6 -3 -13 -17 -17 -15 -33 2 -19 11 10 17 8 26 -6 10 -16
10 -15 5 5 -4 13 -2 22 4 22 6 0 11 10 11 23 0 16 3 18 9 8 6 -9 8 -4 7 16 -2
17 -10 41 -19 54 -10 13 -17 28 -17 34 0 5 5 3 10 -5 7 -12 10 -11 17 5 4 11
13 20 18 21 13 0 54 11 130 33 33 10 83 19 110 20 28 1 54 6 60 12 11 11 38
12 31 1z m2123 -162 c14 0 111 -98 111 -112 0 -5 7 -8 15 -8 8 0 12 -6 10 -12
-6 -17 3 -29 37 -51 17 -11 25 -23 22 -32 -4 -9 0 -15 10 -15 8 0 20 -9 26
-20 6 -10 16 -17 23 -15 7 3 20 -13 31 -36 20 -41 33 -55 42 -46 5 5 -24 80
-46 119 -6 11 -6 19 0 23 6 4 15 -7 21 -24 6 -18 18 -31 27 -31 15 0 15 -2 2
-10 -8 -5 -12 -10 -7 -10 4 0 10 -1 15 -2 9 -3 52 -66 52 -78 0 -11 24 -25 78
-43 23 -8 42 -11 42 -5 0 5 7 5 18 0 9 -5 42 -12 72 -15 30 -4 67 -8 83 -10
15 -3 27 0 27 5 0 4 12 6 28 2 15 -3 50 -7 77 -8 28 -1 56 -6 63 -10 7 -4 12
-2 12 3 0 6 7 11 15 11 9 0 12 -6 9 -15 -7 -17 -37 -20 -65 -5 -14 8 -19 7
-19 -3 0 -18 -69 -15 -81 4 -7 11 -9 10 -9 -5 0 -13 -4 -16 -12 -9 -19 13 -68
16 -68 4 0 -6 -7 -11 -15 -11 -8 0 -15 5 -15 11 0 7 -15 9 -42 5 -22 -3 -46
-2 -53 4 -6 5 -22 9 -36 7 -32 -2 -98 21 -123 44 -11 10 -22 16 -25 13 -3 -3
3 -12 13 -20 21 -15 31 -44 15 -44 -5 0 -9 5 -9 12 0 6 -2 9 -5 6 -9 -9 7 -38
21 -38 8 0 14 -7 14 -15 0 -8 5 -15 10 -15 6 0 10 -5 10 -12 0 -6 7 -18 15
-27 33 -34 85 -103 85 -112 0 -5 8 -18 17 -29 12 -14 19 -16 25 -7 4 7 10 -6
14 -30 3 -23 9 -42 13 -41 30 3 43 -4 38 -22 -3 -13 0 -20 9 -20 8 0 14 -4 14
-9 0 -5 3 -17 7 -26 5 -14 2 -16 -18 -10 -16 4 -20 3 -10 -3 10 -7 10 -11 1
-17 -6 -4 -9 -13 -6 -20 4 -11 -2 -11 -29 1 -40 17 -45 17 -45 5 0 -5 12 -11
28 -13 l27 -4 -35 -17 c-20 -9 -28 -16 -17 -17 19 0 23 -26 5 -33 -7 -3 3 -4
22 -3 19 0 40 8 47 16 11 13 12 13 13 -2 0 -10 4 -18 9 -18 18 0 21 -33 6 -56
-9 -13 -11 -24 -5 -24 5 0 10 5 10 10 0 16 27 11 34 -6 9 -23 7 -36 -3 -30 -5
3 -16 -14 -24 -38 -13 -39 -13 -46 -1 -57 8 -6 14 -8 15 -3 0 5 4 -1 9 -13 5
-12 7 -31 5 -42 -3 -18 -1 -19 22 -10 14 5 28 8 30 5 3 -2 -5 -7 -16 -11 -12
-3 -21 -11 -21 -16 0 -15 19 -10 38 9 20 20 42 18 42 -4 0 -17 20 -19 21 -1 0
10 2 10 6 0 8 -22 41 -15 46 10 2 12 4 0 3 -27 -1 -37 3 -49 15 -51 10 -2 15
5 15 18 -1 12 6 22 14 23 8 0 10 -1 3 -3 -18 -6 -16 -23 2 -23 9 0 15 -9 15
-22 0 -19 2 -20 10 -8 6 9 10 10 10 3 0 -6 -5 -15 -11 -19 -8 -4 -7 -9 2 -15
10 -6 7 -9 -11 -9 -18 0 -21 -3 -11 -9 11 -7 10 -11 -5 -20 -14 -7 -16 -13 -7
-18 6 -5 13 -26 16 -48 3 -38 4 -38 5 9 2 46 22 86 44 86 15 0 8 -23 -13 -46
-19 -21 -20 -24 -5 -51 8 -15 15 -24 16 -20 0 5 -4 17 -10 27 -12 23 14 50 32
32 6 -6 17 -8 24 -5 9 3 14 -2 14 -13 0 -16 -2 -17 -11 -4 -8 12 -9 11 -7 -5
3 -13 11 -20 26 -19 12 0 22 -5 22 -12 0 -7 10 -15 23 -17 19 -4 18 -4 -5 -6
-16 0 -28 4 -28 9 0 6 -7 10 -17 10 -9 0 -13 -3 -9 -7 3 -4 -2 -12 -13 -18
-15 -7 -18 -14 -11 -25 8 -13 10 -12 10 3 0 9 4 17 10 17 6 0 6 -9 2 -22 -12
-34 -3 -58 21 -59 18 -1 19 -2 4 -6 -15 -4 -18 -12 -14 -41 2 -21 2 -29 0 -20
-2 9 -15 24 -29 32 -30 20 -31 14 -1 -15 16 -16 18 -20 5 -16 -10 3 -20 2 -23
-3 -4 -6 -1 -10 4 -10 6 0 11 -4 11 -9 0 -5 -9 -7 -19 -4 -13 3 -21 -2 -26
-16 -3 -12 -13 -21 -21 -21 -8 0 -13 4 -10 8 2 4 -13 8 -35 7 -31 0 -36 -2
-24 -11 21 -16 19 -21 -11 -27 -18 -3 -24 -1 -20 9 3 8 1 14 -5 14 -5 0 -13 8
-16 18 -11 29 -35 42 -51 26 -7 -8 -11 -18 -7 -24 4 -6 -1 -7 -11 -3 -12 4
-15 3 -10 -5 5 -8 -1 -12 -18 -12 -19 0 -26 5 -26 19 0 11 -7 26 -15 35 -8 8
-15 21 -15 30 0 8 -4 17 -8 20 -4 3 -7 -9 -6 -25 2 -25 -1 -29 -17 -24 -11 4
-19 2 -19 -4 0 -16 -27 -13 -33 3 -3 7 -18 16 -34 19 -15 3 -35 7 -43 10 -8 2
-12 2 -7 0 16 -10 6 -23 -18 -23 -16 0 -25 -6 -25 -16 0 -9 5 -12 13 -8 8 5 8
2 -2 -9 -7 -9 -10 -17 -6 -17 5 0 6 -3 3 -6 -3 -3 -15 0 -26 7 -19 12 -19 12
-1 30 11 11 19 28 19 40 0 11 7 27 15 35 17 18 20 38 4 29 -6 -4 -5 2 2 13 7
12 15 20 18 19 21 -5 51 17 50 36 0 21 -1 21 -9 2 -8 -18 -9 -19 -9 -1 -1 12
-6 16 -16 12 -17 -6 -21 19 -5 29 6 3 10 12 10 18 0 7 -4 6 -10 -3 -5 -8 -10
-10 -10 -5 0 6 -5 2 -10 -7 -8 -13 -16 -15 -43 -7 -17 5 -33 9 -34 9 -1 0 0
-7 3 -15 4 -8 1 -15 -5 -15 -6 0 -11 5 -11 10 0 15 -26 12 -39 -4 -10 -12 -8
-14 11 -10 21 5 21 4 5 -6 -25 -16 -87 -4 -87 16 0 21 -27 47 -35 34 -3 -5 -1
-10 4 -10 6 0 11 -5 11 -10 0 -7 -7 -7 -20 0 -12 6 -18 16 -14 23 5 8 3 8 -7
-1 -11 -10 -9 -17 15 -37 16 -14 36 -25 45 -26 9 0 3 -5 -13 -11 -21 -8 -25
-13 -15 -19 11 -7 10 -9 -3 -9 -27 0 -31 19 -6 30 22 10 21 10 -4 5 -21 -4
-28 -1 -28 10 0 10 5 13 13 9 6 -4 2 2 -9 14 -12 11 -25 37 -28 56 -4 20 -11
34 -16 31 -5 -3 -12 0 -16 6 -3 6 -2 14 4 18 13 8 -6 35 -33 45 -11 4 -15 10
-9 14 5 4 9 13 8 20 -1 6 -2 21 -3 33 -1 14 -6 19 -16 16 -8 -4 -17 -2 -20 3
-4 6 1 10 9 10 10 0 13 6 9 15 -5 14 -7 14 -23 0 -26 -24 -30 -18 -14 20 8 19
13 40 12 47 -3 12 3 12 45 1 20 -6 23 17 5 35 -9 9 -14 7 -24 -6 -13 -16 -13
-16 -14 1 0 24 -20 22 -20 -3 0 -22 -15 -27 -24 -7 -3 6 -4 0 -1 -15 3 -16 1
-28 -5 -28 -5 0 -10 16 -10 36 0 19 -6 42 -14 50 -20 19 -26 18 -26 -5 0 -11
-4 -22 -9 -25 -4 -3 -8 8 -7 24 1 17 4 30 9 30 15 0 6 48 -10 55 -16 6 -15 8
5 16 12 4 22 14 21 21 0 10 -2 10 -6 1 -8 -22 -28 -14 -41 17 -8 17 -18 28
-23 24 -8 -4 -11 9 -8 33 0 3 -6 10 -15 15 -18 10 -13 28 7 28 7 0 6 -4 -3
-10 -13 -8 -12 -10 3 -10 9 0 17 4 17 9 0 5 10 7 23 4 15 -3 18 -2 9 5 -10 7
-10 11 3 22 17 14 19 38 5 60 -9 13 -11 13 -19 0 -17 -26 -24 -2 -8 29 12 24
12 31 2 35 -16 6 -11 129 5 134 17 6 11 19 -12 26 -14 3 -19 9 -13 13 6 5 11
27 12 51 1 40 0 42 -16 28 -15 -14 -17 -13 -15 12 1 18 6 27 17 26 21 -2 28
32 10 48 -14 11 -15 10 -8 -12 8 -25 8 -25 -14 -6 -11 11 -21 24 -21 30 0 6 5
4 10 -4 8 -13 10 -12 10 3 0 10 5 15 10 12 6 -3 10 -1 10 4 0 6 -8 11 -17 12
-16 0 -16 1 -2 7 12 5 14 13 8 27 -4 11 -8 14 -8 7 -1 -7 -5 -11 -10 -8 -5 3
-7 16 -3 29 5 20 4 21 -11 8 -15 -12 -17 -11 -17 3 0 21 29 33 40 16 5 -8 10
-8 14 -2 9 15 -4 42 -19 42 -19 0 -49 62 -35 70 7 5 6 11 -4 19 -12 10 -15 9
-20 -6 -4 -15 -4 -14 -2 2 1 11 8 19 14 18 7 -2 12 4 12 12 0 8 -4 15 -10 15
-5 0 -10 5 -10 11 0 5 5 7 10 4 6 -3 10 3 10 15 0 13 4 19 11 14 8 -4 8 0 0
15 -16 29 -5 44 28 37 14 -3 20 -3 12 1 -10 4 -10 7 -1 13 7 4 24 1 39 -6 14
-8 32 -14 40 -14z m-2206 -237 c-18 -6 -16 -23 2 -23 11 0 15 -13 15 -54 0
-49 2 -55 22 -58 14 -2 24 -12 28 -28 6 -24 7 -23 13 9 4 18 4 37 1 42 -3 5 0
9 5 9 6 0 11 -5 11 -11 0 -5 3 -8 8 -6 4 3 14 -2 21 -11 13 -14 12 -15 -7 -10
-12 4 -22 2 -22 -3 0 -5 5 -9 10 -9 6 0 10 -7 10 -15 0 -8 5 -15 11 -15 6 0 9
7 5 15 -3 8 -1 15 5 15 20 0 22 -33 3 -48 -16 -12 -16 -14 -2 -9 10 3 20 2 23
-3 4 -6 -1 -10 -9 -10 -19 0 -21 -26 -3 -33 7 -3 5 -6 -5 -6 -10 -1 -18 -6
-18 -12 0 -5 4 -7 10 -4 5 3 18 1 27 -5 17 -11 17 -11 0 -6 -15 5 -17 2 -12
-14 7 -22 -20 -29 -28 -7 -4 7 -6 8 -6 1 -2 -22 29 -39 49 -27 13 9 20 9 29 0
14 -14 14 -30 0 -21 -8 4 -8 0 0 -15 11 -20 8 -26 -13 -22 -5 1 -13 -4 -17
-11 -7 -10 -9 -9 -9 4 0 9 5 20 10 23 11 7 4 25 -10 25 -5 0 -6 -7 -3 -17 4
-10 2 -14 -4 -10 -6 4 -9 -4 -6 -21 3 -23 2 -24 -6 -7 -6 12 -10 15 -10 6 -1
-8 -9 -23 -18 -34 -11 -12 -12 -17 -4 -12 11 6 13 3 8 -14 -3 -14 -1 -21 6
-18 6 2 23 -2 36 -9 14 -7 28 -11 33 -8 5 3 16 0 24 -7 8 -6 17 -9 21 -5 3 3
1 6 -6 6 -7 0 -9 5 -6 10 4 6 11 8 16 5 5 -4 47 -6 94 -6 47 -1 85 -5 85 -10
0 -5 8 -9 18 -9 13 0 14 2 4 9 -9 5 18 9 67 9 51 1 80 -2 76 -8 -8 -13 30 -13
73 -1 17 5 32 6 32 1 0 -11 252 0 267 12 8 6 18 6 30 0 14 -9 11 -12 -22 -18
-22 -4 -47 -8 -55 -9 -8 -1 -22 -5 -30 -8 -8 -3 -33 -8 -55 -11 -137 -18 -191
-29 -197 -39 -6 -9 -8 -9 -8 1 0 6 -7 12 -15 12 -8 0 -15 -4 -15 -10 0 -5 -7
-10 -16 -10 -8 0 -12 5 -8 11 4 7 -1 7 -16 -1 -16 -9 -90 -11 -266 -9 -158 3
-244 0 -244 -6 0 -5 -7 -2 -15 8 -10 15 -21 17 -44 12 -17 -4 -35 -13 -39 -22
-7 -11 -12 -3 -22 31 -7 26 -18 50 -25 54 -6 4 -17 16 -24 27 -11 18 -12 18
-7 1 6 -16 4 -17 -9 -6 -9 7 -14 19 -11 27 3 8 -1 16 -9 19 -7 3 -11 12 -8 19
2 8 -1 30 -7 50 -15 45 -8 53 19 26 13 -13 21 -16 21 -8 0 19 -21 37 -42 37
-10 0 -19 8 -19 18 -1 16 -2 16 -6 -1 -3 -13 -10 -16 -26 -11 -29 9 -35 16
-19 21 6 3 12 13 12 24 0 20 13 23 45 9 19 -8 19 -9 1 -9 -20 -1 -20 -1 0 -16
23 -17 34 -19 34 -4 0 5 -4 8 -8 5 -5 -3 -9 7 -9 22 0 45 -12 82 -28 82 -8 0
-15 -7 -15 -17 0 -9 -3 -14 -6 -10 -9 9 6 48 17 42 5 -4 9 1 9 10 0 14 -4 14
-28 -4 -22 -15 -32 -17 -40 -9 -9 9 -12 9 -12 0 0 -7 5 -12 10 -12 6 0 10 -4
10 -10 0 -21 -30 -9 -36 15 -5 20 -9 23 -20 14 -8 -6 -14 -7 -14 -2 0 6 9 14
19 19 15 7 17 14 10 32 -4 12 -15 22 -24 22 -8 0 -15 7 -15 15 0 9 -6 12 -17
9 -15 -5 -15 -3 1 10 17 14 18 16 3 16 -9 0 -17 4 -17 9 0 5 25 11 55 13 47 2
58 0 71 -17 8 -11 12 -14 9 -7 -11 21 2 41 22 36 12 -3 28 -29 43 -67 l25 -62
5 40 c3 22 1 43 -4 47 -6 4 -6 16 1 31 10 21 17 23 67 22 31 -1 59 2 62 7 4 6
11 5 18 -2 8 -9 8 -14 -1 -17z m-411 -149 c-7 -30 -5 -46 8 -69 10 -16 23 -29
29 -27 6 1 11 -7 11 -19 0 -11 -4 -17 -10 -14 -5 3 -10 -1 -10 -10 0 -9 4 -13
10 -10 6 3 7 -1 4 -9 -3 -9 -10 -16 -16 -16 -5 0 -3 -7 6 -15 8 -8 18 -15 22
-15 3 0 1 7 -6 15 -7 8 -8 15 -2 15 5 0 15 -6 21 -14 9 -10 8 -15 -4 -20 -17
-6 -21 -56 -5 -56 7 0 7 -6 0 -20 -8 -15 -8 -20 1 -20 6 0 9 -7 5 -15 -3 -9 0
-15 10 -15 13 0 15 -8 10 -42 -3 -24 -3 -35 0 -26 5 16 7 16 20 4 8 -8 11 -22
8 -31 -4 -10 -2 -15 7 -13 8 2 13 -5 13 -15 -2 -13 3 -16 17 -12 11 4 19 2 19
-5 0 -6 -4 -8 -10 -5 -12 7 -12 -1 -4 -44 4 -17 10 -28 15 -25 5 3 9 -2 9 -10
0 -9 5 -16 11 -16 13 0 1 -42 -15 -52 -6 -4 -7 -8 -2 -8 5 0 18 8 28 17 18 16
18 16 12 -3 -6 -16 -5 -17 7 -6 16 15 33 16 24 2 -4 -6 -9 -41 -11 -77 -3 -47
-9 -70 -22 -79 -15 -12 -14 -12 7 -7 17 4 22 3 17 -6 -4 -6 2 -23 13 -37 16
-20 18 -31 10 -50 -7 -19 -5 -29 6 -40 19 -20 19 -25 -1 -17 -13 5 -15 2 -10
-15 4 -11 2 -23 -4 -27 -5 -3 -10 -14 -10 -23 0 -12 3 -14 8 -4 5 7 8 -3 8
-25 -1 -21 -5 -44 -10 -51 -15 -24 4 -26 24 -2 15 17 20 19 20 8 0 -9 -6 -20
-13 -27 -10 -8 -12 -26 -5 -78 5 -44 4 -69 -2 -71 -6 -2 -10 -8 -10 -13 0 -14
28 -11 33 4 3 6 6 -7 6 -31 1 -30 -2 -41 -11 -36 -8 5 -9 -2 -5 -25 5 -23 2
-37 -8 -48 -8 -8 -15 -19 -15 -26 0 -6 7 -2 16 9 8 10 13 13 9 7 -3 -7 -1 -13
4 -13 6 0 11 -4 11 -10 0 -5 -3 -9 -7 -9 -19 3 -33 -2 -33 -12 0 -6 7 -9 15
-5 10 4 15 -1 15 -14 0 -29 1 -34 9 -45 5 -5 4 -25 -1 -44 -7 -26 -12 -31 -19
-20 -12 19 -11 42 1 34 6 -3 10 1 10 11 0 11 -6 15 -20 11 -11 -3 -20 -1 -20
4 0 5 5 9 10 9 6 0 10 5 10 11 0 5 -4 7 -10 4 -5 -3 -10 1 -10 9 0 9 -5 16
-11 16 -7 0 -9 10 -5 25 5 20 3 25 -11 25 -15 0 -16 2 -3 10 12 8 12 10 1 10
-8 0 -11 3 -8 7 4 3 2 13 -5 20 -9 11 -9 17 3 24 11 7 11 9 -3 9 -10 0 -17 3
-16 8 5 14 -25 102 -34 102 -5 0 -6 9 -3 20 3 11 3 30 0 41 -6 17 -9 19 -17 8
-7 -10 -8 -6 -4 13 3 15 1 30 -5 33 -6 4 -8 13 -5 21 3 7 1 16 -4 19 -5 3 -7
12 -4 19 3 7 -1 20 -8 27 -17 18 -21 33 -26 94 -4 39 -6 46 -13 30 -6 -13 -8
3 -5 45 2 36 2 57 -1 48 -2 -10 -8 -18 -13 -18 -10 0 -7 61 4 79 5 7 2 10 -6
9 -8 -2 -12 4 -10 16 2 11 -1 15 -7 11 -7 -4 -9 6 -6 32 3 26 2 33 -5 23 -13
-21 -22 -7 -23 42 -1 24 -4 45 -7 48 -3 3 -11 15 -18 28 -10 18 -10 22 0 22
10 0 9 3 -1 9 -7 5 -10 14 -7 20 4 6 2 11 -3 11 -6 0 -10 8 -9 18 3 37 -2 63
-12 57 -6 -4 -10 11 -10 37 -1 24 -7 59 -14 79 -7 20 -11 53 -10 73 2 20 0 35
-4 32 -4 -2 -8 14 -9 37 0 23 -3 65 -5 94 -2 29 0 49 5 46 5 -3 6 4 2 16 -5
17 -3 20 10 15 12 -5 16 -15 13 -35 -3 -15 0 -25 4 -22 12 7 6 66 -7 75 -6 5
-3 8 8 8 10 0 17 -8 17 -20 0 -14 5 -18 17 -13 12 5 15 2 10 -10 -4 -11 -1
-17 9 -17 10 0 13 7 8 24 -7 29 4 52 18 38 5 -5 5 -24 0 -48z m3389 -1531 c8
-10 16 -22 17 -28 2 -5 10 -9 19 -7 8 2 12 -1 8 -7 -3 -7 2 -11 14 -11 12 0
21 -5 21 -11 0 -5 5 -7 11 -3 8 5 6 10 -5 16 -9 5 -16 13 -16 19 0 5 16 -6 36
-25 20 -20 41 -33 45 -30 5 3 9 0 9 -6 0 -6 5 -8 10 -5 6 3 10 11 10 17 0 6
-3 8 -6 5 -11 -10 -44 12 -44 30 0 13 3 12 18 -5 13 -15 22 -18 33 -11 12 8
11 11 -3 23 -10 7 -18 21 -18 30 0 14 2 15 14 4 8 -7 12 -15 10 -17 -2 -2 3
-13 11 -25 17 -23 20 -50 5 -41 -5 3 -10 2 -10 -4 0 -5 5 -13 10 -16 6 -3 10
-10 10 -16 0 -11 -22 -7 -32 6 -4 5 -10 6 -14 2 -4 -4 -2 -13 4 -19 7 -7 12
-16 12 -21 0 -14 -27 18 -34 41 -4 12 -11 22 -16 22 -5 0 -17 3 -27 6 -13 4
-11 0 7 -14 l25 -21 -25 -9 c-14 -5 -26 -6 -28 -1 -2 5 -8 9 -13 9 -6 0 -7 -4
-4 -10 3 -5 1 -10 -4 -10 -6 0 -11 6 -12 13 0 6 -4 3 -9 -8 -6 -14 -9 -15 -9
-5 -1 8 -12 28 -27 43 -14 15 -22 32 -19 37 3 6 1 10 -4 10 -20 0 -26 -5 -23
-19 3 -9 -2 -12 -14 -7 -16 6 -16 5 1 -16 11 -13 22 -25 24 -28 2 -3 0 6 -4
18 -6 22 -5 23 17 11 12 -7 18 -14 12 -16 -7 -2 -10 -13 -7 -23 8 -29 -14 -25
-43 8 -14 15 -23 22 -20 15 4 -6 -1 -16 -10 -21 -19 -11 -64 -4 -64 10 0 5 4
7 9 4 5 -3 8 8 7 25 -1 24 4 33 21 40 13 4 22 5 22 1 -4 -26 4 -28 26 -6 14
14 30 22 37 18 8 -5 9 2 5 24 -7 36 1 41 24 15z m289 -419 c0 -15 5 -22 13
-18 8 3 24 -4 38 -14 20 -17 22 -22 10 -36 -11 -13 -16 -14 -22 -4 -7 10 -9 9
-9 -4 0 -9 -6 -18 -12 -20 -10 -4 -10 -10 -1 -31 8 -18 9 -34 3 -49 -8 -21 -9
-19 -9 11 -1 48 -7 36 -14 -29 -4 -37 -3 -50 3 -40 8 13 10 12 10 -2 0 -10 -6
-18 -12 -19 -9 0 -9 -2 1 -6 11 -5 11 -7 0 -14 -12 -8 -12 -11 1 -18 8 -6 11
-13 7 -17 -4 -4 -13 -2 -19 4 -15 15 -28 16 -28 2 0 -5 6 -10 14 -10 8 0 16
-5 18 -12 3 -8 14 -3 32 15 28 28 46 35 46 17 0 -5 4 -10 8 -10 5 0 8 10 8 22
-1 14 6 24 18 26 12 3 16 0 11 -8 -5 -8 -3 -11 4 -9 21 7 13 24 -13 27 -13 2
-32 13 -42 24 -17 19 -17 21 -2 15 10 -3 20 -2 23 3 4 6 -3 10 -14 10 -15 0
-21 6 -20 23 0 12 3 16 6 10 2 -7 11 -13 19 -13 8 0 14 6 14 13 0 8 4 7 10 -3
8 -13 10 -12 10 3 0 9 7 17 15 17 8 0 15 5 15 10 0 6 -5 10 -10 10 -6 0 -5 6
2 14 16 17 31 9 24 -13 -5 -13 -3 -13 8 2 13 17 15 16 21 -12 4 -19 13 -31 23
-32 12 0 10 -3 -5 -9 -28 -11 -31 -30 -4 -23 10 3 22 0 25 -6 4 -6 0 -12 -8
-12 -9 -1 -21 -2 -28 -3 -14 -1 -24 -38 -24 -87 1 -33 -1 -36 -26 -35 -17 1
-28 7 -28 15 0 11 -4 10 -19 -3 -14 -13 -20 -14 -23 -5 -3 8 -7 6 -12 -6 -4
-11 -4 -16 0 -12 4 4 14 -2 22 -14 8 -11 12 -23 9 -26 -11 -10 18 -30 37 -25
13 3 17 1 12 -6 -4 -7 -2 -12 3 -12 6 0 11 10 11 21 0 17 -5 20 -25 17 -16 -4
-25 -1 -25 8 0 7 -3 19 -6 27 -4 11 1 15 20 13 19 -1 26 -7 27 -21 0 -15 2
-16 6 -5 8 21 26 31 34 19 3 -6 4 11 2 38 -3 35 0 54 12 68 16 20 16 20 5 -3
-6 -12 -7 -22 -3 -21 21 4 33 -2 33 -16 0 -8 5 -15 10 -15 19 0 10 31 -12 40
-19 7 -19 9 -5 9 10 1 15 6 12 11 -3 6 -2 10 4 10 5 0 14 -12 19 -27 6 -16 11
-21 11 -13 1 8 11 0 22 -19 15 -25 19 -45 16 -68 -5 -30 -4 -32 9 -18 19 19
24 19 24 -1 0 -8 -4 -12 -10 -9 -5 3 -10 2 -10 -4 0 -15 23 -26 28 -13 5 17
23 15 38 -5 13 -17 13 -17 14 2 0 29 -16 49 -34 42 -9 -4 -16 -2 -16 3 0 6 11
10 23 10 16 0 28 -9 37 -27 13 -27 14 -27 18 -5 2 12 8 22 13 22 14 0 0 -60
-17 -78 -8 -7 -12 -18 -9 -23 4 -5 1 -9 -5 -9 -16 0 -40 -26 -40 -44 0 -9 10
-4 30 16 17 16 30 36 30 44 0 22 17 17 23 -8 5 -18 8 -19 21 -8 9 7 16 9 16 4
0 -5 7 0 15 10 12 16 17 17 30 6 23 -19 18 -34 -14 -47 -24 -9 -31 -8 -33 3
-2 8 -8 10 -16 5 -10 -6 -10 -14 -2 -36 6 -15 8 -37 4 -48 -4 -13 -2 -17 5
-13 6 4 11 2 11 -3 0 -6 -4 -11 -10 -11 -5 0 -10 -5 -10 -11 0 -7 9 -9 23 -6
21 6 21 6 3 -8 -11 -8 -24 -15 -30 -15 -5 0 -1 -7 10 -15 18 -13 18 -14 -5 -8
-13 3 -26 14 -28 25 -7 24 -23 23 -23 -2 0 -11 7 -20 15 -20 8 0 13 -6 11 -12
-1 -7 -1 -10 1 -5 8 12 21 8 27 -10 4 -10 4 -14 0 -11 -3 4 -13 1 -21 -7 -19
-19 -43 -19 -43 0 0 8 -4 15 -10 15 -5 0 -10 -9 -10 -20 0 -15 7 -20 25 -20
14 0 25 -4 25 -10 0 -5 -7 -7 -15 -4 -8 4 -15 1 -15 -5 0 -6 5 -11 10 -11 6 0
10 -9 10 -20 0 -11 -4 -20 -10 -20 -5 0 -7 7 -4 15 4 8 1 15 -5 15 -6 0 -11 7
-11 16 0 10 -6 14 -15 11 -18 -8 -32 13 -15 23 8 5 7 9 -5 13 -9 4 -13 3 -10
-3 3 -6 -1 -10 -9 -10 -9 0 -16 -7 -16 -15 0 -8 -5 -14 -11 -13 -6 2 -13 -2
-16 -8 -2 -7 5 -10 22 -7 19 4 25 1 25 -11 0 -10 5 -14 10 -11 6 4 10 -12 10
-39 0 -50 -11 -57 -42 -29 -10 9 -18 11 -18 6 0 -6 6 -13 13 -16 9 -3 12 -17
9 -43 -5 -37 -5 -37 -18 -13 l-13 24 -1 -32 c0 -17 6 -34 13 -36 6 -3 2 -6 -9
-6 -12 -1 -24 -8 -28 -16 -3 -8 -12 -15 -21 -15 -18 0 -20 -16 -2 -23 6 -3 2
-6 -10 -6 -23 -1 -33 -21 -11 -21 6 0 9 -2 6 -5 -10 -10 -39 8 -34 21 3 8 -1
14 -8 14 -8 0 -13 -7 -12 -16 0 -9 -5 -19 -12 -22 -10 -3 -13 4 -11 24 3 31
-12 66 -27 66 -5 -1 -7 7 -6 16 3 13 1 14 -9 5 -10 -10 -9 -16 2 -29 11 -13
11 -18 2 -21 -17 -6 -17 -60 -1 -65 7 -3 3 -7 -8 -10 -20 -5 -21 -2 -16 38 4
40 3 44 -17 44 -11 0 -21 -4 -21 -10 0 -5 6 -10 14 -10 9 0 12 -9 10 -27 -2
-16 2 -38 8 -51 10 -19 8 -26 -10 -45 -19 -18 -22 -19 -22 -4 0 9 5 17 10 17
6 0 10 7 10 15 0 23 -30 6 -31 -19 -2 -20 -2 -20 -6 2 -4 18 -9 21 -30 16 -19
-5 -24 -3 -21 7 3 8 13 13 22 13 9 -1 16 4 16 12 0 8 -8 14 -17 15 -15 0 -15
2 2 9 19 8 19 9 -1 9 -12 1 -24 8 -28 16 -3 8 -10 15 -15 15 -6 0 -7 -7 -4
-17 4 -11 3 -14 -5 -9 -7 4 -12 3 -12 -2 0 -6 7 -12 15 -16 25 -9 17 -26 -12
-27 -26 0 -26 -1 -7 -9 21 -8 43 -74 30 -88 -3 -3 -6 2 -6 11 0 10 -8 17 -20
17 -11 0 -20 5 -20 10 0 6 -11 10 -25 10 -14 0 -25 5 -25 11 0 6 9 9 20 6 11
-3 23 -1 26 4 3 5 -4 9 -15 9 -12 0 -20 3 -19 8 1 4 -4 18 -11 31 -12 22 -11
26 5 38 16 12 17 15 4 23 -13 8 -13 10 0 10 11 0 11 4 -3 18 -17 16 -19 16
-32 -2 -14 -18 -16 -18 -33 -3 -23 21 -32 21 -32 1 0 -8 -5 -12 -10 -9 -6 4
-8 11 -5 16 11 16 -12 10 -36 -11 -19 -15 -20 -19 -8 -20 19 0 36 -33 20 -38
-6 -2 -11 -11 -11 -19 0 -13 -3 -13 -15 -3 -8 7 -22 9 -31 6 -12 -5 -15 -2
-10 10 3 8 -1 22 -9 30 -12 12 -15 13 -15 2 0 -8 -9 -14 -19 -15 -25 -2 -33
40 -12 63 15 17 15 17 -1 5 -13 -9 -22 -10 -37 -1 -20 10 -26 31 -23 74 2 12
-3 16 -13 12 -22 -8 -18 4 11 30 31 30 40 30 49 2 6 -20 8 -21 12 -5 3 10 0
24 -7 32 -7 9 -8 15 0 20 5 3 10 -1 10 -10 0 -10 5 -13 11 -9 9 5 10 -1 5 -21
-6 -24 -5 -26 8 -12 8 8 18 26 22 41 7 31 24 25 24 -9 0 -30 7 -33 45 -24 l30
7 -35 1 c-19 1 -30 5 -24 9 6 4 14 14 17 22 4 12 6 11 6 -2 1 -10 6 -18 11
-18 6 0 10 8 10 18 1 15 2 14 12 -3 23 -40 68 -60 68 -30 0 8 -4 15 -10 15 -5
0 -10 -5 -10 -11 0 -8 -5 -8 -15 1 -22 19 -18 28 10 22 18 -3 25 0 25 11 0 20
28 36 69 39 18 1 31 8 31 16 0 7 5 10 10 7 6 -3 10 -1 10 4 0 6 -4 11 -10 11
-5 0 -11 8 -11 18 -1 9 -4 4 -8 -12 -3 -16 -13 -30 -23 -32 -11 -1 -15 3 -11
13 5 12 7 12 14 1 6 -8 9 3 9 31 0 38 2 43 19 38 14 -3 18 -1 14 9 -5 14 17
19 60 16 9 -1 17 3 17 8 0 6 -8 10 -18 10 -23 0 -41 30 -31 55 7 19 8 19 8 -2
1 -29 31 -31 31 -3 0 12 -10 24 -22 30 -13 5 -20 10 -15 11 4 1 12 3 17 4 6 1
15 3 22 4 18 2 3 11 -28 17 -35 6 -46 13 -39 25 7 10 -3 14 -60 25 -22 3 -34
9 -27 11 20 8 14 31 -10 36 -21 4 -20 4 3 6 16 0 29 -5 33 -14 3 -8 13 -15 23
-14 16 0 16 1 -2 9 -19 8 -19 9 2 9 27 1 41 -18 22 -30 -11 -7 -10 -9 4 -9 11
0 17 8 18 23 0 14 3 17 6 7 7 -17 33 -44 37 -39 17 20 24 53 19 85 -5 31 -8
34 -14 19 -7 -17 -8 -18 -8 -2 -1 9 -9 17 -18 17 -11 0 -14 -3 -8 -8 15 -10
35 -82 24 -82 -5 0 -9 9 -9 19 0 25 -24 33 -77 25 -27 -4 -43 -2 -43 4 0 6 8
8 19 5 14 -3 20 2 23 21 3 14 1 23 -3 20 -5 -3 -9 -12 -9 -20 0 -8 -5 -14 -11
-14 -5 0 -7 6 -3 13 5 9 4 9 -6 0 -7 -6 -27 -9 -46 -6 -21 3 -34 1 -34 -5 0
-6 -3 -18 -7 -28 -5 -13 -3 -15 7 -9 9 5 11 4 6 -4 -10 -15 -32 2 -41 29 -7
23 -35 15 -34 -9 0 -10 2 -11 6 -3 2 6 9 12 14 12 5 0 4 -9 -3 -20 -11 -17
-14 -18 -21 -4 -8 14 -11 14 -19 3 -8 -11 -8 -10 -4 4 3 10 -1 25 -9 34 -13
12 -13 18 -3 30 11 14 14 13 19 -8 4 -13 7 -18 8 -11 1 6 9 12 19 13 10 0 12
3 5 6 -10 3 -9 9 3 20 9 9 14 26 11 40 -3 15 0 22 7 20 6 -2 11 -14 10 -26 0
-16 4 -21 19 -19 23 3 57 48 37 48 -6 0 -14 -9 -17 -20 -3 -11 -9 -20 -14 -20
-12 0 -11 27 1 35 5 3 6 13 3 23 -6 14 -4 15 8 5 9 -8 20 -9 29 -3 12 8 11 10
-7 10 -17 0 -20 4 -15 23 3 12 10 26 16 30 6 4 -4 7 -23 5 -19 -2 -36 2 -37 7
-2 6 13 11 34 13 20 1 39 7 40 12 2 6 10 10 18 10 8 0 14 5 14 11 0 5 6 7 13
4 6 -4 1 3 -12 15 -21 18 -22 23 -10 31 11 7 9 9 -8 9 -13 0 -23 5 -23 10 0 6
12 10 26 10 14 0 23 4 19 10 -3 6 1 10 9 10 12 0 13 -6 5 -32 -5 -18 -9 -34
-9 -34 0 -1 9 0 20 3 22 6 28 -12 8 -20 -10 -4 -10 -6 0 -6 13 -1 28 30 36 74
3 17 0 25 -10 25 -11 0 -11 3 2 19 22 25 54 16 54 -15z m-317 -20 c16 -6 12
-44 -5 -44 -6 0 -8 -7 -5 -14 4 -10 1 -13 -8 -10 -9 4 -15 -4 -17 -23 -2 -16
-8 -27 -15 -25 -7 1 -13 -2 -13 -8 0 -15 -21 -12 -41 6 -17 16 -18 15 -14 -15
2 -17 0 -31 -5 -31 -5 0 -7 -7 -4 -15 4 -8 2 -15 -4 -15 -16 0 -37 32 -34 53
2 12 -1 17 -7 12 -8 -4 -8 2 0 19 7 14 16 23 20 20 5 -3 9 0 9 5 0 6 5 11 10
11 6 0 20 9 32 20 12 11 18 20 13 20 -4 0 2 9 15 20 23 20 46 25 73 14z
m-2816 -1209 c-3 -6 3 -19 12 -27 25 -21 88 -1 83 26 -2 11 1 15 7 11 6 -3 11
-14 12 -23 0 -13 3 -12 11 6 6 12 16 22 21 22 6 0 7 -3 4 -7 -4 -3 -3 -11 1
-17 4 -6 5 -27 1 -46 -4 -21 -7 -26 -8 -13 -1 25 -16 38 -26 23 -3 -5 -1 -10
4 -10 6 0 11 -4 11 -9 0 -4 -11 -6 -25 -3 -20 3 -24 1 -19 -12 3 -9 1 -16 -5
-16 -6 0 -11 -7 -11 -16 0 -8 -4 -12 -10 -9 -5 3 -10 0 -11 -7 0 -10 -2 -10
-6 0 -8 20 -22 14 -63 -28 -43 -44 -50 -47 -50 -25 0 18 -16 20 -23 3 -4 -10
-8 -9 -16 2 -6 8 -11 20 -11 25 0 6 4 3 10 -5 7 -12 10 -11 15 5 4 11 11 28
16 37 12 24 12 26 -8 31 -13 3 -8 7 14 12 22 5 30 12 26 22 -5 12 -7 12 -14 1
-10 -15 -11 -2 -3 29 4 13 10 20 15 17 5 -3 9 1 9 8 0 9 3 9 10 -2 8 -13 10
-12 10 3 0 10 5 15 11 12 6 -4 8 -13 6 -20z m-117 -561 c0 -8 7 -14 15 -14 8
0 15 -4 15 -10 0 -5 7 -10 16 -10 13 0 14 3 5 14 -7 8 -8 17 -3 20 10 6 46
-33 37 -42 -10 -10 -49 -8 -57 3 -4 6 -16 1 -28 -13 -26 -28 -40 -28 -40 -1 0
11 -4 17 -10 14 -6 -4 -10 -16 -8 -28 2 -13 -2 -21 -9 -19 -7 1 -13 -3 -13 -9
0 -7 -7 -8 -17 -4 -10 4 -24 9 -30 12 -8 3 -13 -2 -13 -12 0 -9 -4 -14 -9 -10
-5 3 -11 -7 -13 -22 -3 -28 -28 -45 -28 -19 0 9 6 16 13 16 6 1 -1 8 -17 16
-21 12 -25 18 -16 24 7 4 10 17 8 28 -4 14 -2 19 7 16 7 -3 16 -1 19 5 4 6 13
8 21 4 9 -3 15 1 15 11 0 20 36 40 45 26 5 -8 12 -7 23 2 10 8 13 9 9 1 -5 -8
1 -11 20 -9 19 3 28 9 27 20 -1 9 2 13 7 10 5 -3 9 -12 9 -20z m1429 -1510 c7
5 11 -1 11 -13 0 -12 3 -20 8 -19 14 3 42 -14 42 -27 0 -15 27 -28 41 -20 5 4
6 0 3 -8 -3 -8 9 -25 31 -41 19 -15 35 -34 35 -42 0 -7 4 -14 8 -14 5 0 17 -6
27 -14 17 -12 18 -16 5 -32 -9 -11 -10 -15 -2 -10 11 7 13 3 16 -34 1 -9 9
-14 21 -12 15 2 17 1 6 -6 -11 -8 -9 -18 10 -53 13 -24 26 -46 29 -49 5 -5 5
-26 1 -32 -2 -2 -4 -13 -7 -26 -4 -22 -1 -23 28 -18 l33 6 -33 -15 c-25 -12
-32 -20 -27 -33 7 -26 -39 -69 -58 -54 -15 13 -60 5 -51 -9 8 -14 -13 -10 -29
5 -9 9 -19 11 -28 5 -8 -5 -10 -9 -5 -9 5 0 3 -6 -3 -13 -6 -8 -8 -16 -5 -20
3 -3 -4 -3 -15 0 -12 3 -20 8 -17 10 8 9 -16 63 -28 62 -23 -3 -36 1 -36 11 0
6 3 9 8 9 19 -3 22 3 12 21 -6 11 -15 18 -21 15 -5 -4 -9 4 -9 17 0 13 -9 29
-20 36 -11 7 -20 23 -20 36 0 13 -7 29 -15 36 -8 7 -15 19 -15 26 0 8 -7 14
-15 14 -8 0 -15 4 -15 10 0 5 7 6 17 3 12 -5 14 -3 8 7 -12 20 -17 57 -20 149
-2 71 0 86 16 99 11 9 19 22 19 29 0 7 7 13 15 13 8 0 15 6 15 13 0 9 3 8 9
-2 5 -7 14 -10 20 -7z m9725 -609 c-4 -8 -1 -15 5 -15 6 0 11 -9 11 -20 0 -14
-5 -18 -17 -14 -16 5 -16 4 0 -6 10 -6 25 -9 33 -6 8 3 14 1 14 -4 0 -6 -5
-10 -12 -10 -7 0 -6 -6 4 -17 9 -10 13 -23 11 -30 -2 -6 1 -14 6 -18 6 -3 10
-18 10 -33 l-1 -27 -8 30 c-5 21 -8 24 -9 9 -2 -29 22 -75 36 -69 7 2 15 0 18
-4 3 -5 -2 -11 -10 -15 -17 -6 -21 -46 -5 -46 6 0 10 7 10 15 0 8 4 15 10 15
14 0 6 -40 -10 -50 -11 -7 -8 -11 13 -19 15 -6 27 -17 27 -25 0 -8 3 -23 7
-33 6 -17 5 -17 -13 -2 -10 9 -26 19 -34 22 -9 3 -5 6 10 6 19 1 22 3 11 10
-9 6 -22 6 -32 0 -27 -14 -39 -11 -48 14 -9 25 -4 47 11 47 6 0 8 -7 4 -15 -3
-8 0 -15 6 -15 7 0 6 -5 -2 -15 -10 -12 -10 -15 4 -15 18 0 23 45 6 55 -6 4
-7 11 -4 17 4 7 2 8 -4 4 -7 -4 -12 -1 -12 8 0 9 -5 16 -11 16 -7 0 -8 14 -4
40 5 28 3 40 -5 40 -7 0 -10 -7 -6 -16 3 -8 2 -12 -4 -9 -6 3 -10 21 -9 38 0
18 3 26 6 20 7 -18 23 -16 23 2 0 8 -4 15 -10 15 -5 0 -10 9 -10 19 0 29 -18
35 -23 9 -4 -20 -4 -20 -6 4 0 15 -6 30 -12 34 -8 4 -3 12 12 20 l24 13 -30 1
c-16 1 -24 4 -17 7 6 2 12 11 12 19 0 8 7 14 15 14 9 0 12 -6 9 -15z m224
-762 c-13 -3 -18 -15 -18 -44 0 -21 3 -38 8 -37 15 6 52 -30 47 -44 -4 -9 1
-18 10 -22 10 -3 15 -13 12 -21 -4 -10 -1 -12 10 -8 12 5 15 2 11 -9 -4 -9 -3
-19 1 -24 5 -5 11 -22 15 -37 5 -22 4 -28 -6 -24 -7 2 -12 11 -10 18 3 11 1
11 -9 2 -10 -10 -9 -16 2 -29 8 -10 9 -15 2 -11 -6 4 -14 3 -18 -3 -3 -5 -2
-10 3 -10 6 0 8 -9 5 -20 -5 -20 21 -40 35 -25 4 4 1 10 -5 12 -7 3 -13 12
-12 21 0 11 2 12 6 5 2 -7 9 -13 14 -13 6 0 8 3 6 8 -3 4 5 8 18 8 16 1 22 -3
18 -12 -3 -8 -9 -11 -14 -8 -5 3 -9 0 -9 -6 0 -7 8 -9 20 -5 11 4 20 2 20 -4
0 -6 -4 -11 -10 -11 -5 0 -10 -5 -10 -11 0 -5 5 -7 10 -4 6 3 10 1 10 -4 0 -6
7 -11 15 -11 18 0 20 -16 3 -26 -6 -4 -14 -2 -16 5 -3 9 -7 9 -18 0 -21 -17
-47 -3 -39 21 4 11 2 20 -4 20 -6 0 -11 -11 -11 -25 0 -18 7 -26 24 -31 14 -3
29 -3 35 0 5 3 12 0 14 -6 4 -10 8 -9 16 2 5 8 11 12 13 10 2 -3 12 -15 23
-28 16 -20 16 -22 2 -16 -9 3 -17 11 -17 16 0 6 -7 5 -16 -3 -9 -7 -18 -9 -22
-3 -10 12 -75 12 -85 -1 -5 -6 -6 -2 -3 8 4 11 -2 29 -14 44 -18 24 -22 25
-19 7 0 -4 -5 -10 -12 -15 -8 -4 -10 -11 -6 -15 3 -4 13 -1 22 6 23 19 18 0
-5 -20 -13 -11 -17 -21 -10 -25 13 -8 13 -35 0 -35 -5 0 -10 7 -10 15 0 8 -5
15 -11 15 -8 0 -8 4 -2 13 5 6 8 28 7 47 -1 19 -3 43 -3 54 -1 12 -6 16 -16
12 -9 -3 -15 0 -15 10 0 11 5 14 17 9 12 -4 7 5 -11 24 -16 17 -28 33 -25 35
11 10 49 16 49 7 0 -5 -7 -11 -16 -13 -13 -2 -11 -8 10 -27 14 -14 26 -19 26
-13 0 7 -4 12 -10 12 -5 0 -10 7 -10 16 0 10 6 14 15 11 12 -5 12 -2 3 18 -6
13 -15 22 -19 19 -5 -3 -9 1 -9 10 0 8 -6 17 -12 20 -10 5 -10 7 0 12 6 3 12
12 12 19 0 7 -6 15 -12 18 -10 4 -10 7 0 18 17 18 15 30 -3 23 -11 -4 -15 1
-16 17 0 13 -3 18 -6 12 -7 -18 -23 -16 -23 2 0 9 -7 18 -15 21 -26 10 -16 27
12 21 26 -5 26 -4 8 9 -10 8 -24 15 -29 15 -6 1 7 5 29 9 46 8 80 10 53 3z"/>
<path d="M8330 18831 c0 -6 5 -13 10 -16 21 -13 9 -23 -35 -29 -52 -8 -66 -23
-39 -44 15 -11 15 -13 2 -9 -10 4 -24 -5 -39 -24 -12 -16 -31 -29 -43 -29 -18
0 -17 -2 8 -15 15 -8 39 -12 52 -9 14 4 24 2 24 -5 0 -6 7 -8 16 -4 12 4 14
14 9 46 -6 31 -4 38 6 35 8 -3 13 -12 11 -20 -1 -9 4 -18 13 -22 9 -3 15 0 15
8 0 13 35 30 54 27 8 -2 3 28 -11 65 -5 12 -3 15 6 9 10 -6 11 -3 2 13 -14 27
-61 44 -61 23z"/>
<path d="M12364 13941 c3 -5 -8 -23 -26 -40 -17 -17 -28 -31 -22 -31 14 0 36
-56 40 -107 5 -50 11 -66 23 -58 5 2 7 -11 5 -30 -1 -24 2 -35 11 -35 8 0 11
-7 8 -18 -2 -10 5 -26 16 -36 12 -11 21 -31 22 -45 0 -14 3 -21 5 -14 3 7 12
9 20 6 8 -3 14 0 14 6 0 6 -4 11 -10 11 -5 0 -10 5 -10 11 0 5 5 7 10 4 6 -3
10 3 10 15 0 13 4 19 11 14 6 -3 4 5 -5 18 -16 24 -13 63 4 53 4 -3 11 2 14
11 3 8 2 13 -3 10 -5 -3 -11 5 -13 18 -4 17 -1 23 8 19 10 -4 13 10 11 60 -1
36 -6 63 -11 60 -4 -3 -5 4 -1 16 4 12 2 21 -4 21 -6 0 -11 6 -11 13 -1 18
-87 60 -93 44 -4 -9 -6 -9 -6 1 -1 6 -6 12 -12 12 -5 0 -8 -4 -5 -9z"/>
<path d="M12123 13499 c-16 -16 -43 -21 -43 -8 0 6 -8 5 -20 -1 -11 -6 -20
-16 -20 -22 0 -6 -13 -32 -29 -57 -15 -26 -32 -58 -36 -72 -4 -13 -15 -33 -24
-43 -13 -16 -13 -18 -1 -12 11 5 10 4 -1 -6 -9 -7 -24 -34 -32 -60 -15 -43
-15 -49 3 -99 11 -29 19 -58 19 -64 -4 -32 2 -55 12 -49 8 4 9 -3 4 -26 -5
-25 -4 -31 6 -25 9 6 11 2 7 -13 -4 -12 -3 -22 2 -22 4 0 10 -18 14 -39 3 -22
12 -41 18 -44 10 -3 10 -9 -1 -30 -8 -14 -18 -24 -23 -21 -4 3 -8 1 -8 -5 0
-12 20 -19 41 -13 14 3 16 12 11 45 -3 23 -12 47 -21 54 -11 8 -12 12 -3 13 7
0 12 13 12 31 0 17 4 28 10 24 6 -3 10 3 10 14 0 12 -4 21 -10 21 -5 0 -9 12
-9 28 2 23 2 24 6 4 2 -12 8 -20 13 -17 9 6 2 35 -10 45 -8 7 16 76 26 72 5
-2 10 2 13 9 2 6 -1 9 -7 5 -6 -4 -16 2 -21 13 -14 26 -14 34 2 24 21 -13 37
-12 37 4 0 22 40 7 70 -26 14 -15 31 -26 38 -24 6 3 12 -1 12 -7 0 -19 33 -47
38 -32 2 6 8 12 13 12 6 0 6 -7 1 -17 -11 -22 -5 -43 13 -43 7 0 16 6 19 13 3
6 4 0 1 -15 -3 -16 -1 -28 5 -28 5 0 10 6 10 13 0 7 9 18 20 25 11 7 20 8 20
3 0 -14 33 -23 40 -11 4 6 17 12 29 13 21 1 21 2 4 15 -13 10 -14 16 -5 19 13
5 17 35 5 47 -4 3 -13 -6 -20 -21 l-13 -28 6 29 c3 17 13 35 22 42 14 10 13
11 -11 7 -16 -3 -27 -1 -27 6 0 5 7 8 15 5 8 -4 15 -3 15 1 0 3 -7 13 -15 21
-17 18 -20 34 -5 34 6 0 10 -7 10 -15 0 -8 5 -15 10 -15 7 0 7 7 -1 21 -9 17
-8 24 2 31 10 7 6 8 -13 5 -20 -3 -25 0 -20 11 4 11 1 14 -11 9 -11 -4 -14 -2
-10 9 3 7 0 14 -6 14 -6 0 -8 7 -5 15 4 8 10 15 16 15 5 0 6 -4 3 -10 -3 -5 1
-10 11 -10 13 0 12 6 -10 34 -14 19 -26 40 -26 46 0 6 -10 8 -24 4 -38 -9 -48
3 -29 33 17 26 17 26 -4 15 -12 -7 -24 -17 -26 -24 -3 -7 -6 -3 -6 9 -1 12 5
24 12 27 6 3 0 4 -15 2 -16 -2 -28 0 -28 5 0 4 -13 16 -30 25 -16 10 -31 24
-32 32 -2 10 -5 11 -15 1z"/>
<path d="M12250 12974 c0 -8 -5 -12 -11 -9 -6 4 -5 -3 3 -14 11 -18 11 -23 0
-30 -11 -7 -11 -9 2 -14 10 -4 16 -1 16 8 0 8 4 15 9 15 5 0 7 -9 4 -20 -3
-12 -14 -20 -27 -20 -17 0 -18 -2 -6 -10 13 -8 13 -10 -1 -10 -9 0 -16 -7 -16
-15 0 -8 4 -15 9 -15 5 0 3 -6 -4 -14 -9 -10 -15 -11 -20 -2 -5 6 -8 0 -8 -15
0 -15 -7 -29 -15 -33 -8 -3 -15 -13 -15 -22 0 -9 -8 -23 -17 -31 -11 -8 -12
-11 -3 -7 12 6 13 5 3 -7 -12 -15 -14 -37 -10 -114 2 -36 4 -40 27 -37 14 2
30 10 36 18 10 13 12 12 18 -2 6 -15 9 -14 26 6 23 27 24 32 9 47 -8 8 -7 13
2 18 8 5 10 4 5 -3 -4 -7 -1 -12 7 -12 11 0 13 9 7 38 -4 21 -10 45 -15 52 -5
8 -4 11 2 7 5 -3 17 9 26 27 12 26 13 36 4 46 -9 10 -9 11 1 6 8 -5 12 1 12
18 0 13 6 27 13 29 9 4 8 8 -3 16 -10 7 -11 11 -2 11 16 0 15 21 -2 56 -8 15
-13 31 -10 36 3 4 0 8 -6 8 -6 0 -8 -11 -5 -27 5 -26 4 -26 -10 5 -16 34 -35
43 -35 16z"/>
<path d="M12000 12440 c0 -14 -6 -32 -12 -39 -11 -11 -10 -12 1 -6 11 6 13 3
9 -13 -4 -12 -1 -22 4 -22 6 0 6 -6 -1 -14 -9 -11 -10 -20 -1 -35 8 -15 7 -26
-2 -40 -9 -16 -9 -23 3 -37 12 -15 12 -17 0 -9 -11 6 -13 4 -6 -11 4 -10 8
-29 8 -41 1 -27 17 -31 17 -5 0 14 2 14 9 3 11 -17 3 -41 -12 -38 -8 1 -11
-11 -9 -35 2 -21 -1 -38 -6 -38 -5 0 -7 -11 -4 -25 2 -14 8 -22 13 -19 5 3 9
-2 9 -11 0 -9 -3 -14 -8 -11 -4 2 -7 -13 -7 -34 0 -21 4 -36 9 -33 5 4 6 1 1
-7 -15 -24 -15 -91 -1 -106 20 -20 26 -18 26 9 0 18 2 19 11 7 9 -12 10 -11 4
5 -7 24 25 87 42 81 7 -3 10 1 6 10 -3 7 -1 14 5 14 6 0 13 -6 15 -12 3 -7 6
-4 6 7 1 11 4 31 6 45 3 14 3 19 -1 13 -11 -24 -23 -13 -20 20 2 17 1 23 -2
12 l-4 -20 -8 20 c-4 11 -2 28 4 38 7 12 8 20 1 25 -6 4 -16 19 -24 34 -11 22
-12 30 -1 43 10 12 10 18 0 30 -6 8 -9 19 -5 25 4 6 1 17 -5 25 -8 10 -9 23
-3 42 12 38 6 73 -13 66 -15 -5 -18 5 -8 31 3 9 11 13 18 9 6 -3 0 6 -14 22
-17 19 -21 29 -12 32 22 8 13 23 -13 21 -20 -2 -25 -8 -25 -28z"/>
</g>
</svg>
