<?xml version="1.0" standalone="no"?>
<!DOCTYPE svg PUBLIC "-//W3C//DTD SVG 20010904//EN"
 "http://www.w3.org/TR/2001/REC-SVG-20010904/DTD/svg10.dtd">
<svg version="1.0" xmlns="http://www.w3.org/2000/svg"
 width="1707.000000pt" height="1673.000000pt" viewBox="0 0 1707.000000 1673.000000"
 preserveAspectRatio="xMidYMid meet">
<metadata>
Created by potrace 1.11, written by Peter Selinger 2001-2013
</metadata>
<g transform="translate(0.000000,1673.000000) scale(0.100000,-0.100000)"
fill="#000000" stroke="none">
<path d="M9087 16270 c-6 -24 -30 -26 -52 -4 -14 15 -17 15 -28 1 -13 -17 -90
-25 -120 -12 -13 6 -27 -3 -56 -34 l-38 -42 -6 31 c-10 50 -57 32 -57 -21 0
-34 -19 -49 -27 -20 -6 24 -28 28 -36 7 -14 -35 -66 10 -67 57 0 26 -34 17
-38 -9 -4 -28 -68 -41 -92 -19 -23 21 -47 19 -53 -5 -3 -11 -14 -20 -24 -20
-11 0 -30 -11 -43 -25 -13 -14 -34 -25 -47 -25 -13 0 -22 -4 -19 -8 2 -4 -9
-14 -26 -21 -26 -12 -29 -18 -24 -41 3 -15 2 -44 -1 -64 -6 -36 -6 -36 -29
-21 -27 17 -38 19 -29 5 3 -5 1 -10 -4 -10 -6 0 -11 4 -11 9 0 5 -10 11 -23
15 -15 3 -34 24 -51 56 -17 31 -34 50 -45 50 -10 0 -33 18 -51 40 -18 22 -36
40 -39 40 -6 0 -8 -15 -14 -95 -2 -24 -41 -32 -64 -14 -21 18 -83 20 -76 3 6
-15 -17 -30 -26 -17 -3 6 -14 10 -24 10 -14 0 -17 -6 -12 -29 5 -23 3 -28 -12
-28 -10 0 -24 9 -31 20 -18 29 -32 24 -32 -11 0 -40 -16 -70 -35 -63 -18 7
-20 -17 -6 -79 6 -23 12 -65 14 -94 l4 -52 -31 6 c-17 3 -35 9 -41 13 -5 4
-26 10 -45 13 -19 3 -54 12 -76 20 -32 13 -50 14 -79 6 -24 -7 -46 -7 -65 0
-38 13 -58 -8 -42 -43 15 -34 -21 -90 -54 -82 -17 5 -26 1 -34 -13 -6 -12 -6
-22 -1 -25 5 -4 8 -14 7 -24 -2 -13 -13 -17 -44 -17 -23 0 -47 -6 -54 -13 -9
-9 -8 -12 8 -12 25 0 60 -35 45 -44 -10 -7 -42 8 -74 34 -15 12 -18 12 -15 0
4 -19 -64 -30 -176 -26 -51 1 -111 -3 -136 -10 -119 -33 -170 -44 -225 -49
-73 -8 -165 -36 -165 -51 0 -6 -9 -19 -20 -29 -12 -11 -20 -31 -20 -52 0 -26
-4 -33 -19 -33 -29 0 -51 -11 -51 -25 0 -7 -6 -15 -12 -18 -8 -3 -3 -9 12 -15
14 -6 20 -11 14 -11 -15 -1 -38 -51 -35 -77 2 -16 -7 -25 -36 -37 -21 -9 -30
-16 -20 -16 9 -1 17 -7 17 -15 0 -17 24 -28 45 -20 8 4 15 4 15 1 0 -8 -56
-35 -90 -42 -38 -8 -49 -25 -16 -25 16 0 26 -6 26 -15 0 -16 12 -20 24 -8 12
12 38 16 159 20 l117 5 0 -41 c0 -22 -4 -42 -10 -46 -5 -3 -7 -12 -3 -20 3
-10 -1 -15 -12 -15 -12 0 -15 -5 -10 -20 4 -12 1 -28 -6 -36 -13 -16 -14 -16
21 -31 23 -10 23 -12 6 -19 -11 -4 -27 -2 -38 5 -24 15 -78 5 -78 -15 0 -8 -8
-14 -19 -14 -10 0 -24 -7 -31 -15 -7 -8 -18 -14 -24 -14 -24 4 -66 -14 -71
-31 -3 -11 -22 -29 -41 -40 -18 -12 -34 -28 -34 -36 0 -8 -7 -14 -16 -14 -28
0 -71 -53 -68 -83 1 -14 -2 -26 -7 -24 -6 1 -12 -18 -13 -42 -2 -36 -9 -49
-44 -82 -23 -21 -42 -45 -42 -53 0 -8 -5 -16 -12 -18 -7 -3 -9 -12 -4 -23 6
-17 8 -17 23 5 27 38 48 57 96 83 24 14 53 31 65 38 19 12 24 11 44 -9 17 -17
18 -21 6 -17 -25 10 -45 -5 -24 -17 18 -10 22 -43 6 -53 -5 -3 -10 -1 -10 4 0
19 -22 12 -27 -9 -3 -11 -9 -20 -14 -20 -5 0 -14 -11 -19 -25 -5 -14 -14 -25
-20 -25 -5 0 -10 -7 -10 -15 0 -8 -6 -15 -14 -15 -8 0 -17 -12 -21 -27 -3 -15
-15 -33 -26 -41 -11 -8 -18 -20 -15 -27 2 -7 -2 -25 -10 -41 -8 -16 -13 -36
-11 -46 3 -9 -4 -27 -14 -39 -10 -12 -19 -25 -20 -28 -6 -43 -13 -70 -25 -99
-8 -19 -14 -47 -14 -63 0 -16 -4 -29 -9 -29 -14 0 -21 -43 -10 -57 8 -9 8 -22
0 -43 -5 -17 -7 -38 -4 -47 4 -11 3 -14 -5 -9 -12 7 -14 -3 -16 -71 -1 -12 -7
-28 -13 -34 -7 -7 -13 -19 -13 -26 0 -7 -4 -13 -8 -13 -12 0 -14 -72 -3 -89 8
-12 12 -12 24 -2 20 16 32 -2 18 -27 -22 -42 -51 -360 -31 -347 4 2 7 -37 7
-88 -1 -98 3 -125 23 -172 15 -34 38 -201 45 -320 9 -154 5 -640 -5 -705 -16
-96 -31 -386 -21 -405 3 -5 7 -14 8 -20 15 -65 23 -88 32 -99 9 -10 8 -15 -4
-20 -8 -3 -15 -17 -15 -31 0 -15 -5 -35 -10 -46 -7 -12 -7 -19 -1 -19 5 0 1
-20 -10 -45 -11 -25 -17 -50 -14 -56 4 -5 1 -16 -5 -24 -6 -8 -13 -40 -15 -72
-4 -73 -30 -192 -44 -206 -6 -6 -11 -21 -11 -34 0 -12 -9 -38 -19 -57 -11 -19
-23 -51 -27 -70 -3 -20 -10 -36 -15 -36 -12 0 6 -116 21 -135 5 -5 10 -21 12
-34 4 -28 47 -39 46 -12 -1 29 10 65 36 123 14 31 26 59 26 62 0 2 20 34 45
70 24 36 47 77 51 91 3 14 10 25 14 25 5 0 13 15 20 33 14 40 49 83 76 91 13
4 28 -1 44 -16 16 -15 34 -21 53 -19 27 3 28 2 21 -33 -4 -26 -3 -36 6 -36 21
0 4 -71 -23 -96 -13 -12 -40 -27 -60 -35 -84 -30 -142 -106 -138 -182 1 -26
-2 -36 -10 -31 -14 8 -1 -38 13 -47 11 -7 -1 -39 -16 -39 -8 0 -8 -2 0 -8 6
-4 17 -24 23 -44 7 -21 17 -38 23 -38 5 0 8 -6 5 -12 -2 -7 2 -25 9 -40 29
-58 244 -131 244 -83 0 21 22 65 32 65 5 0 6 -4 3 -10 -3 -5 1 -10 9 -10 27 0
18 17 -18 34 -38 18 -45 41 -52 175 -5 76 8 126 34 136 32 12 45 -25 67 -192
14 -111 51 -243 66 -243 5 0 9 -6 9 -13 0 -21 40 -17 63 6 12 12 20 30 19 40
-2 9 5 32 16 50 13 21 18 46 16 72 -5 60 -10 84 -17 91 -4 4 -4 18 -1 30 5 18
2 24 -11 24 -12 0 -16 6 -12 19 3 11 -1 22 -8 25 -17 6 -25 64 -9 70 14 5 11
38 -9 91 -20 53 -40 199 -42 310 -2 50 -4 92 -5 95 -1 3 -1 10 0 15 1 6 4 62
6 125 5 142 7 170 15 170 4 0 6 18 6 40 0 22 6 46 12 54 7 9 8 17 2 20 -8 5
-1 45 17 96 3 8 6 20 7 25 0 6 8 26 17 44 9 19 14 40 11 47 -2 7 0 15 6 19 6
3 11 15 11 26 0 10 4 19 9 19 5 0 12 13 16 29 3 16 15 37 26 47 10 9 19 23 19
31 0 7 5 13 12 13 6 0 9 3 5 6 -6 6 1 17 34 52 8 9 32 44 54 77 21 33 48 69
60 80 12 11 20 26 18 33 -3 6 0 12 7 12 6 0 9 4 5 9 -3 5 3 16 12 23 29 21 44
56 37 86 -4 20 -3 23 5 12 13 -19 21 -10 31 33 5 23 4 40 -4 48 -8 9 -8 10 0
6 7 -4 18 0 25 9 10 13 10 17 0 24 -8 4 -11 12 -7 18 3 6 2 13 -4 17 -14 9
-12 21 5 39 9 8 14 19 13 23 -1 4 6 22 15 40 10 19 13 34 7 38 -6 4 -6 15 0
31 15 39 13 87 -4 81 -18 -7 -10 27 10 44 8 6 14 22 14 35 0 12 5 26 11 29 6
5 4 11 -7 19 -9 7 -14 18 -10 24 3 6 -2 15 -11 21 -17 9 -17 12 -1 55 9 25 13
46 8 46 -5 0 -5 13 0 31 6 20 6 39 -1 50 -7 14 -5 23 11 39 20 20 22 55 5 111
-5 16 38 83 48 73 3 -3 12 9 20 28 10 24 28 41 56 55 22 11 38 23 34 27 -3 3
-2 6 4 6 6 0 16 -7 23 -15 20 -24 49 -18 56 10 4 16 13 25 25 25 11 0 22 6 25
13 3 8 25 14 56 15 29 1 71 11 93 22 23 11 47 20 53 20 7 0 17 9 24 20 7 11
17 20 23 20 5 1 21 10 35 21 22 19 23 22 7 30 -15 9 -16 12 -2 25 8 9 15 29
15 45 0 17 4 28 9 25 5 -4 7 3 4 15 -6 23 12 40 34 32 7 -3 13 -13 13 -22 1
-14 2 -14 13 -1 15 19 167 22 167 4 0 -7 8 -14 18 -16 26 -7 93 3 86 13 -3 5
2 6 10 3 9 -3 16 -1 16 5 0 6 7 8 17 4 10 -4 14 -2 10 4 -4 6 6 13 24 15 22 4
32 0 36 -11 10 -27 35 -51 55 -51 10 0 18 4 18 9 0 6 12 6 28 2 15 -4 33 -6
40 -4 14 5 42 -14 42 -28 0 -5 -7 -9 -15 -9 -8 0 -15 -4 -15 -10 0 -16 27 -12
34 5 3 8 12 15 21 15 22 0 65 -30 65 -45 0 -7 12 -24 27 -39 22 -22 24 -29 13
-36 -12 -7 -12 -11 1 -27 21 -23 30 -51 20 -57 -4 -3 -8 -21 -9 -41 -1 -19 -6
-44 -12 -54 -15 -29 -12 -48 11 -70 22 -20 63 -36 53 -20 -3 5 2 9 10 9 13 0
14 -5 5 -27 -23 -62 -8 -122 29 -108 6 2 12 0 12 -5 0 -6 -9 -10 -20 -10 -11
0 -20 -5 -20 -11 0 -5 4 -8 9 -5 5 4 12 0 15 -6 3 -9 10 -7 22 7 11 14 18 16
21 8 3 -7 11 -13 20 -13 8 0 21 -7 29 -15 9 -8 11 -15 5 -15 -6 0 -11 -7 -11
-15 0 -8 5 -15 10 -15 6 0 10 5 10 10 0 6 13 10 29 10 16 0 31 6 33 12 3 8 9
5 16 -8 9 -17 7 -28 -9 -58 -11 -21 -15 -34 -8 -30 9 5 10 1 6 -15 -4 -17 -2
-21 8 -17 10 3 12 0 8 -12 -11 -30 -15 -34 -23 -21 -7 10 -11 10 -24 0 -9 -8
-16 -19 -16 -26 0 -21 -25 -36 -38 -23 -9 9 -12 9 -12 0 0 -7 -7 -12 -15 -12
-9 0 -12 -6 -9 -15 4 -8 10 -12 15 -9 5 3 9 -7 9 -21 0 -20 -4 -26 -15 -21
-11 4 -17 -3 -22 -25 -6 -29 -32 -52 -56 -48 -6 2 -27 -1 -45 -5 -23 -5 -32
-12 -28 -22 3 -8 -1 -14 -9 -14 -8 0 -15 -5 -15 -11 0 -6 -7 -17 -16 -26 -13
-14 -32 -18 -116 -26 -10 -1 -18 -5 -18 -10 0 -5 -9 -5 -20 -2 -11 3 -20 2
-20 -2 0 -5 -28 -9 -61 -10 -46 0 -64 -4 -71 -17 -6 -11 -17 -14 -34 -10 -16
4 -31 1 -43 -10 -13 -12 -21 -14 -26 -7 -11 18 -25 12 -25 -10 0 -13 -4 -18
-12 -13 -16 10 -79 6 -94 -7 -6 -5 -18 -7 -26 -4 -9 4 -18 -1 -21 -9 -4 -9
-15 -16 -26 -16 -11 0 -40 -10 -63 -22 -35 -19 -60 -23 -133 -24 -91 0 -147
-17 -158 -46 -3 -9 -11 -6 -25 10 -19 22 -21 22 -38 5 -10 -10 -22 -19 -28
-19 -29 -4 -55 -17 -50 -25 3 -5 -2 -9 -10 -9 -9 0 -16 -4 -16 -10 0 -5 -15
-16 -33 -25 -44 -21 -111 -86 -128 -124 -7 -16 -23 -35 -35 -42 -12 -6 -25
-19 -28 -28 -3 -9 -19 -40 -36 -70 -33 -58 -38 -102 -16 -121 8 -6 12 -19 9
-27 -4 -11 -2 -14 5 -9 7 4 12 3 12 -2 0 -6 10 -8 21 -5 19 5 20 4 10 -15 -6
-12 -7 -23 -2 -26 5 -3 3 -23 -5 -43 -7 -21 -13 -50 -14 -65 0 -16 -5 -28 -12
-28 -6 0 -2 -10 9 -22 11 -13 18 -29 16 -36 -3 -7 0 -19 7 -26 6 -9 7 -17 2
-20 -13 -8 -5 -110 8 -114 5 -2 10 -8 10 -14 0 -6 -8 -7 -17 -4 -13 5 -12 1 6
-18 13 -13 29 -22 37 -19 8 3 12 8 10 12 -6 9 127 1 139 -9 6 -5 26 -8 45 -7
19 0 46 -5 59 -12 13 -7 21 -8 17 -3 -11 19 15 25 33 8 10 -9 20 -13 23 -10 3
3 12 -12 18 -33 14 -43 37 -73 55 -73 7 0 23 -8 36 -19 20 -16 21 -21 10 -35
-11 -14 -10 -19 10 -36 13 -10 34 -19 47 -20 12 0 34 -7 47 -16 13 -9 29 -13
35 -9 7 4 14 -2 17 -15 3 -13 11 -19 19 -16 8 3 14 2 14 -3 0 -5 25 -8 55 -7
33 1 55 -2 55 -8 0 -6 23 -12 53 -13 28 -1 62 -2 75 -2 12 -1 22 -6 22 -11 0
-6 6 -10 14 -10 8 0 16 -7 20 -15 3 -8 15 -15 27 -15 18 0 19 -2 9 -15 -11
-13 -10 -18 6 -30 35 -28 54 -36 54 -25 0 5 5 10 11 10 13 0 7 -38 -12 -85 -7
-16 -12 -43 -11 -58 1 -23 -3 -27 -19 -22 -12 4 -21 1 -25 -9 -3 -8 -18 -18
-33 -21 -27 -6 -51 -39 -51 -69 0 -18 -62 -58 -73 -47 -13 13 -59 0 -53 -15 3
-8 1 -14 -4 -14 -6 0 -10 -7 -10 -15 0 -9 -10 -19 -23 -24 -12 -5 -29 -22 -37
-37 -8 -16 -21 -35 -27 -42 -7 -7 -13 -18 -13 -23 0 -5 -9 -9 -21 -9 -12 0
-23 -8 -26 -20 -3 -11 -9 -20 -13 -20 -18 0 -40 13 -35 20 3 4 -4 10 -16 13
-13 4 -22 0 -26 -11 -4 -9 -16 -25 -26 -35 -11 -9 -25 -27 -31 -39 -6 -12 -22
-25 -36 -28 -16 -4 -21 -8 -13 -13 9 -6 8 -12 -5 -25 -11 -12 -20 -14 -24 -8
-5 6 -5 -3 -2 -20 4 -23 2 -33 -10 -37 -9 -4 -16 -15 -16 -25 0 -18 -50 -74
-50 -56 -1 20 -40 -42 -40 -63 0 -12 -9 -27 -19 -32 -13 -7 -21 -26 -25 -58
-9 -76 -10 -156 -1 -177 6 -14 5 -17 -4 -12 -8 6 -11 0 -8 -21 3 -19 -2 -34
-15 -45 -11 -9 -17 -21 -14 -26 8 -13 -31 -55 -44 -47 -6 3 -7 11 -4 17 5 8 1
9 -10 5 -10 -4 -27 -7 -38 -7 -18 0 -19 -2 -7 -17 13 -15 12 -16 -8 -11 -23 6
-33 -7 -12 -14 16 -5 19 -99 4 -104 -15 -6 -6 -67 12 -77 9 -6 11 -13 5 -20
-5 -7 -8 -25 -8 -42 1 -16 -3 -34 -9 -38 -7 -6 -6 -10 3 -14 21 -8 14 -60 -14
-88 -22 -22 -23 -27 -11 -40 18 -17 10 -68 -9 -61 -12 5 -74 -20 -74 -30 0 -6
39 1 46 9 12 11 64 8 64 -4 0 -6 -7 -8 -16 -5 -14 5 -15 4 -4 -9 10 -13 9 -15
-9 -16 -28 -2 -29 -2 -77 -24 -29 -13 -40 -23 -36 -34 3 -8 1 -12 -5 -8 -7 5
-9 0 -6 -12 3 -13 -2 -20 -17 -24 -22 -6 -22 -6 -2 -27 12 -13 18 -29 15 -41
-3 -11 0 -31 7 -44 11 -20 10 -26 -4 -40 -15 -15 -16 -15 -16 4 0 12 -4 21
-10 21 -12 0 -12 -2 -1 -34 7 -17 7 -26 -2 -30 -7 -2 -4 -5 6 -5 17 -1 24 -31
10 -45 -13 -12 -10 -44 3 -39 8 3 13 -3 12 -14 0 -10 3 -26 7 -35 4 -12 3 -18
-5 -18 -8 0 -10 -9 -6 -25 4 -16 0 -34 -10 -50 -14 -21 -14 -30 -5 -54 7 -15
10 -47 7 -70 -2 -24 1 -46 7 -54 7 -7 13 -19 15 -27 2 -8 9 -27 17 -42 7 -16
10 -28 6 -28 -5 0 -2 -24 6 -52 7 -29 11 -58 9 -65 -3 -6 2 -14 10 -17 8 -3
14 -13 14 -22 0 -10 3 -14 7 -11 3 4 12 2 20 -4 16 -14 18 -60 2 -57 -6 2 -14
-3 -16 -10 -4 -11 -1 -12 17 -2 28 15 35 8 35 -41 0 -21 3 -39 6 -39 12 0 2
-129 -10 -144 -9 -11 -9 -16 0 -21 6 -4 16 -1 21 6 8 11 9 10 4 -4 -4 -11 3
-25 20 -40 22 -19 25 -28 20 -59 -3 -20 -2 -40 4 -43 17 -10 12 -48 -5 -41 -8
3 -15 1 -15 -4 0 -6 5 -10 11 -10 5 0 7 -5 4 -10 -3 -6 1 -13 10 -16 12 -5 15
-14 10 -31 -4 -19 -1 -26 14 -30 26 -7 34 -33 22 -66 -7 -17 -7 -28 -1 -32 14
-9 12 -25 -2 -23 -16 4 -11 -33 6 -47 16 -12 27 -55 15 -55 -5 0 -9 5 -9 11 0
5 -5 7 -11 4 -7 -5 -5 -13 6 -25 13 -14 13 -19 3 -23 -8 -4 -7 -6 5 -6 22 -1
39 -41 25 -58 -7 -9 -7 -13 1 -13 12 0 5 -48 -10 -64 -4 -5 2 -17 14 -28 15
-14 18 -21 9 -24 -21 -10 -2 -24 24 -18 22 6 24 3 24 -26 0 -23 -5 -33 -20
-37 -11 -3 -20 -9 -20 -13 0 -15 61 -70 78 -70 14 0 14 -2 3 -9 -12 -8 -13
-14 -3 -36 16 -34 15 -45 -2 -45 -7 0 -16 -9 -19 -20 -3 -11 -1 -20 4 -20 5 0
9 -9 9 -21 0 -11 9 -34 21 -50 18 -26 18 -29 4 -29 -12 0 -16 -6 -12 -19 5
-19 -8 -30 -43 -37 -8 -2 -34 -7 -58 -12 -24 -5 -45 -6 -48 -1 -3 5 -20 1 -37
-8 -18 -9 -35 -16 -39 -15 -5 1 -8 -6 -8 -16 0 -12 9 -18 26 -20 30 -2 44 -9
44 -22 0 -5 -13 -8 -29 -6 -19 2 -55 25 -99 65 -38 33 -73 61 -79 61 -5 0 -16
11 -23 25 -7 13 -22 27 -32 31 -14 4 -17 11 -12 26 4 13 2 18 -4 14 -13 -8
-29 5 -133 107 -43 42 -82 77 -85 77 -8 0 -104 97 -104 105 0 4 -9 14 -19 23
-29 25 -62 90 -63 126 -1 18 7 44 17 59 10 15 15 30 12 33 -3 4 5 24 19 45 13
21 24 47 24 58 0 11 5 23 10 26 16 10 11 61 -7 76 -10 8 -34 23 -53 33 -19 11
-51 32 -70 47 -19 15 -46 30 -60 34 -14 4 -34 15 -45 25 -26 22 -102 60 -120
60 -8 0 -15 5 -15 10 0 6 -8 10 -18 10 -10 0 -23 5 -29 11 -25 25 -233 -43
-233 -76 0 -8 -4 -15 -10 -15 -5 0 -10 -4 -10 -10 0 -5 -11 -20 -25 -34 -14
-14 -25 -34 -25 -45 0 -11 -3 -21 -8 -23 -4 -1 -25 -38 -47 -81 -21 -43 -45
-83 -52 -89 -7 -6 -13 -17 -13 -24 0 -8 -4 -14 -10 -14 -10 0 -29 -14 -83 -62
-18 -16 -39 -28 -49 -28 -10 0 -18 -7 -18 -16 0 -9 -13 -33 -30 -54 -16 -21
-30 -42 -30 -47 0 -4 -9 -14 -20 -21 -11 -7 -20 -18 -20 -26 0 -7 -7 -19 -15
-26 -8 -7 -15 -23 -15 -36 0 -13 -4 -24 -10 -24 -5 0 -10 -9 -10 -19 0 -11 -4
-23 -10 -26 -5 -3 -10 -15 -10 -26 0 -10 -9 -24 -20 -31 -11 -7 -20 -18 -20
-24 0 -6 -24 -21 -52 -35 -29 -13 -54 -27 -56 -31 -2 -5 -12 -8 -22 -8 -10 0
-27 -11 -38 -25 -11 -13 -31 -30 -46 -36 -14 -7 -26 -16 -26 -22 0 -5 -25 -33
-55 -62 -30 -28 -55 -56 -55 -62 0 -5 -9 -20 -20 -33 -16 -18 -20 -37 -20 -91
l0 -69 -47 -21 c-27 -11 -88 -41 -136 -65 -48 -24 -97 -44 -108 -44 -11 0 -22
-7 -25 -15 -4 -8 -15 -15 -25 -15 -10 0 -19 -4 -19 -10 0 -5 -12 -13 -27 -16
-16 -4 -33 -11 -40 -16 -21 -16 -87 -48 -100 -48 -7 0 -32 -9 -55 -19 -79 -36
-265 -111 -316 -127 -28 -9 -60 -25 -71 -35 -11 -11 -31 -19 -45 -19 -14 0
-27 -4 -30 -9 -3 -5 -18 -11 -33 -14 -79 -15 -200 -50 -214 -63 -8 -8 -21 -14
-28 -14 -15 0 -124 -41 -197 -75 -28 -13 -71 -29 -94 -35 -23 -6 -50 -15 -59
-20 -37 -18 -68 -29 -101 -36 -19 -3 -38 -11 -41 -16 -3 -5 -26 -12 -50 -14
-23 -2 -47 -8 -53 -14 -5 -5 -17 -10 -26 -10 -9 0 -39 -11 -66 -25 -27 -14
-54 -25 -60 -25 -16 0 -64 -24 -64 -32 0 -5 -7 -8 -17 -8 -20 0 -123 -52 -123
-62 0 -4 -11 -8 -24 -8 -13 0 -26 -7 -30 -15 -3 -8 -13 -15 -21 -15 -9 0 -23
-6 -30 -13 -33 -29 -45 -37 -92 -61 -28 -14 -53 -32 -56 -41 -4 -8 -13 -15
-20 -15 -8 0 -27 -11 -43 -25 -16 -14 -35 -25 -41 -25 -7 0 -13 -7 -13 -15 0
-8 -7 -15 -15 -15 -9 0 -28 -12 -44 -28 -29 -29 -85 -62 -104 -62 -7 0 -30
-16 -52 -35 -75 -65 -87 -75 -91 -75 -2 0 -25 -20 -52 -45 -26 -25 -50 -45
-54 -45 -5 0 -8 -7 -8 -15 0 -8 -4 -15 -10 -15 -5 0 -10 -7 -10 -15 0 -8 -9
-24 -20 -35 -11 -11 -23 -34 -27 -50 -3 -16 -14 -32 -24 -35 -11 -4 -19 -15
-19 -26 0 -10 -4 -19 -10 -19 -5 0 -10 -6 -10 -13 0 -7 -9 -19 -20 -27 -11 -8
-20 -18 -20 -23 0 -5 -7 -15 -15 -23 -8 -9 -15 -23 -15 -33 0 -9 -9 -27 -20
-39 -11 -12 -20 -26 -20 -32 0 -5 -6 -10 -14 -10 -18 0 -47 -56 -39 -76 3 -8
1 -20 -5 -27 -5 -6 -12 -25 -16 -41 -4 -15 -14 -35 -21 -43 -8 -8 -15 -26 -15
-41 0 -30 -20 -91 -44 -137 -9 -16 -16 -37 -16 -46 0 -15 -20 -66 -55 -144 -8
-16 -22 -51 -32 -77 -10 -27 -21 -48 -25 -48 -3 0 -9 -23 -13 -50 -4 -28 -11
-50 -16 -50 -5 0 -9 -9 -9 -21 0 -12 -6 -35 -14 -52 -8 -18 -21 -50 -29 -72
-19 -50 -66 -155 -78 -175 -5 -8 -12 -23 -15 -33 -4 -9 -10 -17 -15 -17 -4 0
-11 -17 -15 -37 -4 -21 -10 -42 -14 -48 -5 -5 -11 -27 -15 -48 -4 -20 -11 -37
-15 -37 -5 0 -11 -18 -15 -40 -4 -22 -11 -40 -16 -40 -5 0 -9 -9 -9 -20 0 -11
-6 -23 -14 -26 -8 -3 -18 -20 -22 -36 -3 -17 -14 -40 -24 -50 -10 -11 -23 -46
-29 -78 -7 -32 -17 -60 -23 -62 -6 -2 -10 -17 -10 -33 0 -17 -5 -36 -11 -43
-15 -18 -46 -112 -47 -139 0 -12 -5 -25 -10 -28 -6 -3 -10 -24 -10 -46 0 -21
-4 -39 -10 -39 -5 0 -10 -11 -10 -25 0 -14 -4 -25 -9 -25 -12 0 -20 -49 -9
-56 6 -4 7 -18 4 -33 -8 -31 -26 -152 -26 -166 6 -133 13 -210 21 -250 5 -27
15 -79 22 -115 7 -36 15 -70 19 -76 4 -6 10 -31 14 -55 4 -24 11 -47 17 -50
15 -11 16 -118 0 -189 -8 -36 -16 -83 -19 -105 -3 -22 -8 -47 -11 -55 -3 -8
-7 -46 -9 -85 -6 -125 -8 -138 -64 -420 -12 -60 -26 -118 -31 -127 -5 -10 -9
-25 -9 -33 0 -8 -7 -15 -15 -15 -15 0 -22 -48 -17 -128 1 -17 -2 -32 -7 -32
-4 0 -11 -48 -14 -108 -3 -59 -10 -120 -14 -137 -5 -16 -7 -40 -5 -52 l3 -23
2955 0 c2130 0 2961 3 2976 11 14 8 18 8 14 0 -5 -7 185 -11 649 -11 567 0
655 2 655 14 0 8 -4 18 -10 21 -5 3 -8 35 -6 71 1 43 -2 71 -10 78 -17 18 -25
110 -12 146 11 32 -1 73 -27 93 -6 4 -4 11 5 17 13 9 13 12 -2 21 -10 5 -18
17 -18 25 0 9 5 12 12 8 8 -5 9 0 6 14 -4 12 -2 22 3 22 5 0 2 15 -8 32 -10
18 -18 44 -20 58 -1 13 -9 30 -18 36 -8 6 -15 22 -15 35 0 43 -12 70 -27 65
-21 -8 -27 21 -8 40 11 12 13 19 5 24 -6 4 -8 14 -5 22 4 9 2 19 -4 22 -5 4
-8 22 -6 41 4 27 1 35 -10 35 -9 0 -18 7 -22 16 -3 8 -12 13 -19 10 -16 -6
-19 10 -4 19 25 15 -18 130 -55 147 -13 6 -22 15 -19 19 3 5 0 9 -6 9 -7 0 -9
8 -5 21 6 17 4 20 -12 15 -12 -4 -20 -2 -20 6 0 7 -11 31 -24 53 -23 39 -46
50 -62 30 -4 -6 -11 -3 -18 8 -9 15 -13 16 -27 5 -13 -11 -14 -11 -7 2 5 8 9
23 10 32 0 10 3 18 8 18 4 0 12 0 17 0 6 0 10 -9 10 -20 0 -11 5 -20 10 -20 6
0 10 7 10 16 0 8 4 12 10 9 10 -6 15 23 10 55 -3 20 -6 23 -33 25 -12 1 -21 5
-19 8 9 26 10 67 1 62 -5 -4 -9 0 -9 7 0 7 -7 2 -16 -11 -12 -17 -19 -20 -24
-11 -6 9 -11 7 -18 -7 -21 -38 -19 -113 2 -113 21 0 26 -23 11 -50 -8 -15 -10
-31 -5 -40 5 -9 5 -22 0 -30 -4 -7 -6 -19 -3 -26 2 -7 -8 -19 -24 -28 -15 -8
-22 -15 -14 -16 8 0 12 -3 8 -6 -9 -10 -47 6 -47 20 0 15 -30 17 -31 2 -3 -38
-6 -57 -12 -63 -4 -3 -7 -1 -7 5 0 7 -4 12 -9 12 -5 0 -8 -11 -7 -25 0 -14 6
-25 12 -25 6 0 16 -6 22 -13 13 -15 -7 -60 -36 -87 -18 -16 -77 -27 -69 -13 3
5 -3 10 -14 10 -22 2 -26 -25 -4 -33 8 -4 13 -10 10 -14 -3 -5 -1 -11 5 -15
16 -10 12 -62 -6 -69 -12 -5 -14 -13 -8 -38 11 -46 12 -98 3 -92 -5 2 -16 -2
-26 -11 -23 -19 -24 -122 -2 -136 10 -6 8 -9 -10 -9 -13 0 -38 -8 -55 -18 -43
-25 -70 -23 -74 7 -3 18 0 22 12 18 10 -4 16 -1 16 8 0 8 7 16 15 16 8 1 21 2
28 3 15 1 37 21 37 34 0 11 -47 27 -68 23 -6 -1 -17 11 -23 26 -6 15 -15 30
-20 34 -13 7 29 55 46 51 7 -1 15 4 19 13 3 8 12 15 20 15 7 0 17 7 20 16 5
13 0 14 -27 9 -17 -4 -40 -9 -49 -11 -13 -4 -18 0 -18 14 0 10 -11 29 -25 42
-25 24 -36 16 -12 -9 10 -11 8 -12 -10 -6 -17 5 -23 2 -23 -9 0 -8 -9 -20 -20
-26 -24 -13 -19 -47 9 -68 18 -13 18 -72 0 -72 -5 0 -9 -9 -9 -19 0 -11 -9
-23 -20 -26 -26 -8 -25 -17 6 -44 21 -19 23 -25 13 -38 -7 -8 -15 -11 -16 -6
-6 17 -63 1 -78 -20 -8 -12 -30 -29 -48 -39 -27 -15 -29 -17 -10 -18 30 0 39
-18 19 -38 -10 -11 -16 -12 -16 -4 0 7 -6 12 -14 12 -23 0 -27 38 -5 45 25 8
27 70 3 83 -13 7 -10 10 15 15 l31 7 -21 21 c-15 15 -18 24 -10 32 7 7 6 14
-6 22 -15 11 -14 14 5 31 28 24 30 49 3 35 -10 -6 -21 -8 -24 -4 -4 3 -18 -9
-33 -27 l-27 -32 -18 23 c-10 13 -16 26 -14 30 11 17 -32 3 -53 -18 -28 -28
-29 -28 -42 -4 -7 13 -7 28 0 46 9 22 15 26 44 24 53 -5 65 12 57 84 -2 15
-30 6 -44 -13 -9 -13 -20 -18 -31 -14 -15 6 -18 12 -15 30 0 4 -5 10 -12 14
-10 7 -9 15 1 40 11 27 11 33 -1 41 -11 7 -9 10 9 15 26 7 29 19 6 28 -10 4
-14 14 -11 26 3 10 0 21 -7 23 -8 3 -7 8 2 20 8 9 13 37 12 64 -1 26 -1 68 0
93 1 25 2 68 3 95 1 28 7 53 12 58 6 4 5 10 -3 16 -8 4 -12 14 -11 22 2 8 0
27 -4 43 -6 21 -4 31 10 42 13 10 14 13 4 14 -10 0 -8 7 8 24 23 24 21 46 -2
46 -16 0 -14 95 2 134 10 25 9 31 -4 38 -8 5 -15 16 -15 23 0 8 -5 15 -12 15
-6 0 -2 10 9 22 20 21 20 26 8 62 -12 35 -12 43 6 80 10 22 19 47 19 55 0 30
-21 90 -36 106 -9 8 -20 45 -25 83 -5 37 -13 83 -18 102 -5 19 -15 60 -21 90
-7 30 -18 64 -25 75 -6 11 -15 34 -18 50 -40 192 -35 215 47 214 28 -1 92 2
141 5 50 4 97 7 105 7 25 2 104 -8 122 -16 9 -4 19 -23 23 -46 4 -21 11 -39
16 -39 5 0 9 -9 9 -20 0 -11 5 -20 10 -20 11 0 13 12 10 47 -2 35 40 85 70 81
14 -1 31 2 39 6 7 5 32 9 54 9 33 0 45 -6 71 -35 27 -30 36 -34 76 -33 70 3
70 3 70 33 0 38 26 72 55 72 13 0 26 4 30 9 3 5 48 26 99 46 94 36 95 37 173
25 128 -18 134 -20 129 -38 -15 -53 -15 -95 1 -125 17 -32 35 -147 23 -147 -4
0 -2 -22 4 -49 7 -34 14 -47 23 -44 9 4 11 0 7 -11 -6 -15 -1 -17 32 -14 38 3
39 2 37 -27 -1 -18 -13 -39 -27 -52 -22 -19 -23 -23 -10 -34 10 -8 14 -24 11
-43 -2 -18 3 -42 14 -60 11 -18 16 -39 13 -53 -4 -13 -2 -23 5 -23 5 0 15 -10
22 -21 8 -15 8 -19 0 -15 -17 11 -13 -15 7 -37 12 -15 14 -21 5 -24 -17 -6
-16 -28 2 -47 11 -11 13 -21 6 -39 -8 -21 -6 -26 12 -31 18 -5 19 -8 8 -15
-12 -8 -12 -12 2 -26 10 -9 17 -25 17 -35 0 -10 5 -22 11 -25 6 -4 9 -19 8
-33 -2 -32 16 -82 30 -82 6 0 8 -7 4 -16 -3 -9 0 -20 7 -24 7 -4 12 -27 13
-51 0 -24 7 -52 15 -61 8 -10 11 -18 6 -18 -5 0 -1 -7 9 -14 10 -8 20 -27 22
-43 2 -15 4 -29 6 -30 1 -2 3 -7 4 -13 1 -5 3 -11 4 -12 1 -2 4 -30 7 -63 3
-33 9 -61 13 -63 5 -2 7 -12 4 -23 -3 -10 -1 -25 5 -32 5 -6 13 -28 16 -47 4
-19 12 -45 19 -58 8 -18 8 -25 -1 -31 -10 -6 -9 -11 2 -21 9 -7 13 -17 9 -23
-3 -5 5 -18 18 -28 22 -16 23 -21 13 -57 -6 -23 -7 -47 -2 -55 7 -14 18 -92
19 -142 0 -10 4 -24 9 -30 5 -6 10 -28 12 -50 2 -22 8 -47 13 -55 12 -19 16
-92 5 -85 -5 3 -11 1 -14 -4 -7 -11 22 -71 34 -71 5 0 7 -7 4 -15 -4 -8 -1
-15 5 -15 6 0 10 -6 8 -12 -1 -7 3 -12 10 -11 7 2 10 -4 6 -12 -3 -9 4 -23 15
-34 14 -12 19 -25 15 -39 -6 -26 -21 -29 -30 -6 -4 12 -8 13 -14 3 -4 -7 0
-23 8 -36 9 -13 16 -34 17 -46 1 -12 7 -21 13 -20 9 2 11 -16 8 -59 -2 -34 1
-70 6 -81 7 -12 7 -28 1 -47 -7 -19 -7 -31 1 -39 8 -8 187 -11 620 -11 l610 0
-7 47 c-6 49 -17 158 -20 203 -1 14 -5 31 -9 38 -5 7 -3 12 4 12 8 0 9 3 0 13
-6 8 -8 16 -5 19 6 6 -21 148 -36 188 -5 14 -11 63 -15 109 -3 47 -10 88 -16
92 -7 4 -9 11 -6 16 7 12 -11 83 -21 83 -4 0 -8 10 -8 23 -3 31 -9 55 -17 63
-4 4 -7 19 -7 34 0 15 -4 40 -10 56 -8 26 -14 169 -25 649 -2 83 -8 202 -13
266 -6 64 -8 127 -5 141 7 35 -10 91 -29 94 -27 4 -39 -39 -27 -102 7 -40 7
-60 0 -67 -16 -16 -13 -56 4 -74 14 -13 14 -17 1 -27 -18 -14 -31 -72 -17 -80
5 -3 12 -25 16 -48 6 -31 4 -44 -7 -52 -18 -13 -30 -56 -16 -56 6 0 8 -7 4
-15 -4 -10 1 -15 14 -15 14 0 20 -7 20 -21 0 -11 -4 -18 -9 -15 -5 4 -7 -3 -4
-14 3 -11 0 -20 -6 -20 -6 0 -11 -9 -11 -21 0 -13 -4 -18 -12 -13 -8 4 -10 3
-5 -2 5 -5 14 -9 20 -9 14 0 18 -94 5 -112 -5 -6 -5 -14 1 -17 7 -5 6 -15 -1
-32 -9 -18 -9 -27 0 -36 7 -7 12 -15 12 -18 0 -5 -50 -6 -71 -1 -17 4 -32 66
-34 146 -24 667 -26 1078 -6 1098 6 6 11 23 11 38 0 41 20 88 40 94 24 8 76
-5 60 -15 -9 -5 -9 -9 -1 -14 6 -4 11 -13 11 -21 0 -17 43 -65 57 -65 17 0 36
58 30 89 -4 17 -1 33 6 39 7 6 68 29 136 52 111 38 153 48 271 66 19 2 51 9
70 15 78 22 207 34 295 27 50 -4 124 -10 165 -13 41 -3 89 -8 105 -11 17 -3
44 -7 62 -9 18 -2 36 -6 40 -8 5 -3 114 -8 243 -12 129 -3 287 -12 350 -19
289 -35 386 -39 550 -22 85 9 211 16 280 17 136 2 525 -16 684 -32 54 -5 120
-9 147 -9 56 0 68 -14 71 -80 1 -28 7 -44 20 -51 12 -6 18 -21 18 -43 0 -19 6
-37 13 -40 40 -20 69 -43 66 -51 -2 -6 -7 -9 -11 -8 -5 2 -8 -2 -8 -8 0 -6 9
-8 21 -4 33 11 75 -42 69 -84 -1 -13 1 -13 15 -1 9 7 15 9 14 4 -4 -17 13 -44
27 -44 23 0 16 -30 -9 -39 -20 -8 -23 -15 -19 -40 3 -20 0 -31 -7 -31 -7 0 -9
5 -6 10 3 6 -1 10 -9 10 -21 0 -31 21 -15 30 10 7 10 14 2 32 -8 16 -12 18
-12 7 -1 -16 -44 -31 -96 -33 -11 -1 -20 -7 -19 -13 3 -41 4 -42 39 -36 l35 6
-7 -34 c-7 -39 -28 -58 -55 -51 -12 3 -18 -1 -18 -11 0 -10 -6 -13 -18 -10
-15 4 -19 -1 -19 -27 0 -17 4 -26 8 -19 4 7 15 9 25 5 16 -6 16 -8 1 -23 -13
-14 -19 -14 -32 -3 -9 7 -13 21 -10 31 4 11 2 19 -3 19 -6 0 -12 -17 -15 -37
-3 -21 -7 -47 -9 -57 -2 -13 6 -25 22 -33 21 -12 22 -14 5 -12 -43 3 -55 -1
-55 -20 0 -11 5 -21 12 -23 8 -3 8 -9 1 -23 -8 -13 -8 -24 0 -36 11 -18 4 -49
-13 -49 -5 0 -10 9 -10 20 0 12 -5 17 -14 14 -8 -3 -17 0 -21 6 -5 8 -11 5
-21 -7 -13 -17 -15 -17 -28 0 -14 18 -15 17 -32 -8 -12 -18 -20 -23 -27 -16
-8 8 -16 6 -29 -6 -12 -10 -18 -12 -18 -4 0 7 -4 10 -9 6 -5 -3 -16 3 -23 13
-18 25 -52 38 -44 17 4 -10 -2 -19 -18 -25 -24 -9 -40 -35 -30 -51 3 -5 2 -9
-3 -9 -4 0 -9 -25 -10 -55 l-2 -55 35 0 c21 0 43 8 56 20 14 13 26 17 37 10
10 -5 24 -4 34 1 13 8 17 6 17 -8 0 -18 -32 -53 -48 -53 -11 0 -62 -49 -62
-60 0 -6 5 -10 12 -10 9 0 9 -3 1 -11 -9 -9 -16 -8 -28 5 -21 20 -46 21 -39 1
4 -10 0 -15 -14 -15 -12 0 -24 -5 -27 -11 -4 -6 -13 -8 -20 -5 -15 5 -15 -38
0 -52 4 -4 6 -2 3 3 -3 6 0 16 8 23 12 11 13 9 11 -10 -2 -12 -9 -24 -14 -25
-15 -5 -43 36 -37 52 3 7 -5 15 -17 18 -17 5 -20 11 -17 30 4 18 1 24 -9 20
-7 -3 -13 0 -13 5 0 6 9 14 20 17 26 8 25 20 -1 38 -14 10 -17 17 -9 22 7 5
-2 16 -25 32 -24 16 -34 30 -31 40 3 8 6 17 6 19 0 3 12 9 28 15 15 7 22 13
14 16 -6 3 -10 9 -7 14 3 4 -3 14 -15 21 -26 16 -26 42 1 69 16 16 18 24 9 32
-10 9 -14 9 -17 0 -3 -7 -19 -13 -36 -13 -24 0 -28 3 -17 10 13 8 12 10 -3 10
-10 0 -15 4 -12 10 3 5 -10 17 -29 27 -39 18 -40 21 -26 43 5 9 5 19 -1 26 -7
8 -6 14 1 19 13 8 13 52 0 60 -15 9 -12 51 4 64 9 8 12 28 10 64 -7 108 2 167
25 167 5 0 8 13 7 29 -1 27 -15 35 -32 18 -14 -14 -42 -6 -57 15 -12 18 -16
19 -16 7 -1 -9 -7 -22 -15 -28 -9 -8 -13 -30 -12 -64 2 -40 -3 -59 -21 -83
-20 -26 -21 -34 -11 -66 6 -20 7 -44 3 -55 -5 -10 -7 -22 -6 -27 1 -5 0 -15
-3 -23 -4 -11 -10 -11 -26 -3 -16 8 -20 8 -18 -2 2 -7 7 -16 11 -19 5 -3 -13
-27 -39 -52 l-46 -46 21 -27 c29 -37 26 -53 -9 -61 -30 -5 -42 -34 -20 -48 16
-10 -21 -76 -39 -70 -21 6 -40 -38 -39 -90 0 -22 -3 -48 -7 -59 -5 -12 -3 -21
6 -27 10 -6 10 -9 2 -9 -7 0 -13 -9 -13 -21 0 -11 -9 -34 -20 -49 -14 -20 -18
-37 -14 -59 4 -18 2 -31 -3 -31 -11 0 -10 -45 2 -72 5 -12 2 -20 -9 -24 -13
-5 -14 -9 -5 -20 9 -11 8 -15 -4 -20 -17 -6 -25 -32 -33 -114 -9 -87 -10 -95
-18 -108 -4 -7 -2 -12 3 -12 6 0 11 -5 11 -11 0 -5 -4 -7 -10 -4 -5 3 -10 0
-10 -9 0 -8 -5 -16 -11 -18 -6 -2 -12 -22 -13 -45 -1 -22 -8 -48 -14 -56 -9
-10 -9 -17 -3 -22 7 -4 7 -12 -1 -25 -9 -14 -9 -22 2 -35 10 -12 10 -19 2 -27
-9 -9 -12 -8 -12 6 0 9 -5 14 -10 11 -6 -4 -8 -16 -5 -26 4 -12 -1 -31 -11
-47 -17 -26 -17 -26 1 -12 16 14 17 13 12 -5 -17 -54 -25 -112 -23 -156 1 -27
-2 -49 -6 -49 -4 0 -8 -12 -8 -27 0 -14 -7 -35 -17 -45 -14 -15 -15 -24 -5
-55 8 -27 8 -39 1 -44 -6 -4 -9 -15 -5 -25 3 -11 1 -36 -3 -56 -5 -22 -5 -38
0 -38 5 0 9 -4 9 -10 0 -5 -6 -10 -14 -10 -9 0 -13 -10 -12 -25 0 -14 4 -25 7
-25 4 0 9 -16 11 -35 2 -19 1 -35 -3 -35 -4 0 -9 -15 -11 -32 -3 -18 -7 -40
-9 -48 -4 -13 301 -15 2689 -18 l2693 -2 -7 37 c-4 21 -12 52 -19 69 -16 39
-42 203 -50 313 -3 46 -11 93 -17 105 -6 11 -12 48 -14 81 -1 34 -11 93 -23
132 -12 38 -21 85 -21 103 0 19 -6 41 -13 49 -16 19 -37 89 -37 124 0 14 -4
29 -10 32 -5 3 -10 24 -10 46 0 21 -4 39 -10 39 -5 0 -10 18 -10 39 0 22 -5
52 -12 68 -10 27 -47 283 -53 369 -1 23 -5 46 -7 50 -3 5 -9 45 -13 89 -4 44
-12 83 -19 87 -6 4 -12 24 -13 45 -7 109 -16 168 -28 179 -14 14 -35 120 -35
176 0 20 -5 38 -12 40 -7 3 -13 23 -13 50 0 26 -3 50 -7 54 -5 4 -8 22 -8 41
0 18 -4 33 -9 33 -10 0 -24 42 -27 85 -1 17 -7 55 -13 85 -6 31 -9 110 -6 180
3 69 0 157 -6 195 -14 96 -31 178 -39 190 -4 6 -12 37 -19 70 -7 33 -17 71
-23 85 -5 14 -16 39 -23 55 -25 60 -57 131 -72 160 -9 17 -22 44 -30 60 -8 17
-19 37 -24 45 -5 8 -12 23 -15 33 -4 9 -10 17 -15 17 -5 0 -9 7 -9 16 0 9 -8
28 -19 42 -10 15 -24 44 -30 64 -7 21 -16 38 -21 38 -11 0 -30 65 -30 103 0
15 -4 27 -9 27 -5 0 -12 13 -16 30 -4 16 -11 30 -16 30 -5 0 -9 5 -9 10 0 6
-8 18 -17 29 -32 34 -53 65 -53 78 0 7 -4 13 -10 13 -5 0 -10 5 -10 11 0 7
-11 22 -25 35 -14 13 -25 25 -25 28 0 3 -11 16 -25 30 -14 14 -25 36 -25 49 0
14 -7 27 -15 31 -8 3 -15 14 -15 25 0 21 -58 134 -72 139 -4 2 -8 10 -8 18 0
8 -4 14 -10 14 -5 0 -10 7 -10 15 0 8 -4 15 -10 15 -14 0 -60 49 -60 65 0 9
-10 15 -23 15 -23 0 -97 61 -97 80 0 6 -9 10 -20 10 -11 0 -20 7 -20 15 0 8
-5 15 -11 15 -6 0 -28 14 -49 30 -21 17 -41 30 -45 30 -5 0 -23 11 -41 25 -18
14 -37 25 -43 25 -6 0 -11 5 -11 10 0 6 -5 10 -10 10 -6 0 -23 11 -38 25 -15
14 -30 25 -34 25 -4 0 -24 16 -45 35 -21 19 -44 35 -50 35 -7 0 -13 5 -13 10
0 6 -7 10 -15 10 -8 0 -15 4 -15 9 0 5 -25 21 -55 36 -30 14 -55 31 -55 36 0
5 -6 9 -14 9 -7 0 -34 11 -60 25 -26 14 -52 25 -59 25 -7 0 -24 11 -39 25 -15
14 -36 25 -48 25 -11 0 -20 4 -20 9 0 5 -8 12 -18 15 -10 3 -54 29 -97 56 -44
28 -87 50 -97 50 -10 0 -18 3 -18 8 0 9 -72 32 -100 32 -11 0 -20 4 -20 9 0 6
-20 13 -45 17 -25 3 -48 10 -51 15 -3 5 -12 9 -21 9 -9 0 -26 11 -39 25 -13
14 -31 25 -42 25 -10 0 -22 4 -28 10 -11 11 -173 70 -195 70 -8 0 -46 16 -84
35 -38 19 -81 37 -97 40 -15 4 -28 11 -28 15 0 5 -15 12 -34 16 -19 3 -37 12
-40 20 -3 8 -12 14 -21 14 -8 0 -54 18 -101 40 -48 22 -92 40 -98 40 -6 0 -38
14 -69 30 -32 17 -68 30 -81 30 -32 0 -46 19 -46 63 0 30 -7 46 -27 66 -32 29
-69 51 -88 51 -7 0 -15 3 -17 8 -2 4 -25 18 -51 32 -90 47 -98 52 -104 66 -3
8 -9 14 -14 14 -9 0 -102 64 -130 90 -9 8 -33 29 -54 45 -21 17 -44 36 -51 43
-7 6 -17 12 -22 12 -6 0 -24 14 -42 30 -18 17 -36 30 -41 30 -5 0 -9 5 -9 10
0 6 -6 10 -14 10 -8 0 -16 7 -20 15 -3 8 -14 15 -25 15 -11 0 -23 5 -26 10 -3
6 -14 10 -23 10 -30 0 -45 42 -54 155 -18 222 -34 314 -67 365 -9 14 -25 42
-35 63 -11 21 -37 53 -58 72 -20 19 -49 54 -64 77 -15 24 -33 47 -40 51 -8 4
-14 13 -14 18 0 13 -90 129 -100 129 -4 0 -24 17 -46 38 -21 21 -61 53 -89 72
-27 19 -54 41 -58 48 -4 6 -17 12 -27 12 -10 0 -21 4 -24 9 -3 5 -34 16 -69
26 -65 18 -56 18 -272 -15 -116 -18 -170 -37 -270 -94 -98 -57 -139 -76 -162
-76 -26 0 -47 16 -50 40 -1 8 -15 67 -31 130 -16 63 -33 143 -37 178 -4 34
-11 64 -16 67 -4 3 -6 19 -2 35 3 17 2 30 -3 30 -10 0 -10 -2 -19 265 -4 113
-11 205 -17 213 -7 8 -7 12 1 12 6 0 11 7 11 15 0 8 20 62 45 119 25 58 45
112 45 120 0 8 5 18 10 21 6 4 10 12 9 18 -1 7 1 19 4 27 7 18 40 120 55 170
14 46 63 248 68 280 2 14 7 41 10 60 3 19 8 50 10 68 2 18 12 44 20 58 l16 24
29 -21 c16 -11 33 -18 39 -14 5 3 19 1 30 -5 12 -6 56 -11 99 -11 62 0 86 5
117 22 44 25 84 63 84 79 0 5 4 10 8 10 12 0 60 97 72 145 31 129 32 513 1
660 -11 50 -22 119 -25 155 -7 77 -49 287 -78 385 -12 39 -35 95 -53 125 -49
87 -57 113 -47 151 4 19 5 52 1 74 -4 22 -6 56 -3 75 6 52 6 52 -4 92 -6 21
-6 70 -2 116 5 44 9 171 11 283 1 112 6 240 12 284 10 90 27 165 36 165 3 0 5
64 3 142 -3 168 8 294 26 291 12 -3 17 52 12 150 -1 26 3 53 9 60 5 7 13 40
16 72 3 33 10 62 16 66 7 4 12 44 13 95 1 80 3 89 20 89 17 0 20 8 22 65 1 36
3 70 5 75 1 6 -1 28 -6 49 -5 26 -4 46 4 57 6 11 11 26 11 34 0 8 7 15 15 15
8 0 15 -4 15 -10 0 -5 4 -10 10 -10 14 0 50 -33 50 -46 0 -6 7 -11 15 -11 20
0 19 7 -6 37 -32 39 -69 99 -69 110 0 5 11 10 25 10 14 0 25 5 25 10 0 6 8 10
19 10 25 0 35 47 11 53 -9 2 -20 14 -23 26 -4 18 -2 21 15 15 21 -6 21 -6 -1
25 -12 17 -25 31 -29 31 -11 0 -34 41 -28 48 3 3 15 -3 26 -13 26 -23 30 -18
39 48 7 51 6 54 -13 49 -15 -4 -18 -1 -13 10 4 11 -2 18 -19 22 -39 10 -29 35
16 42 22 4 40 10 40 14 0 13 -46 28 -73 23 -23 -5 -27 -2 -27 17 0 19 5 21 38
20 61 -3 63 -2 56 25 -5 21 -3 25 14 25 12 0 24 5 28 12 5 7 3 8 -5 4 -7 -5
-20 -1 -29 7 -16 15 -21 17 -41 17 -6 0 -7 17 -5 38 4 27 3 33 -5 22 -8 -12
-14 -10 -35 13 l-26 28 28 10 c42 15 92 43 92 51 0 4 -11 10 -25 14 -14 3 -25
11 -25 18 0 6 -4 5 -9 -3 -8 -12 -17 -13 -48 -5 -21 5 -37 15 -36 21 3 13 -32
27 -46 19 -5 -4 -16 1 -25 10 -9 8 -24 16 -34 17 -13 1 -18 7 -14 19 3 12 -6
28 -23 44 -23 21 -25 28 -14 35 9 6 2 7 -20 2 -24 -4 -33 -3 -30 6 3 7 8 11
12 9 3 -2 14 7 22 20 13 17 20 20 35 12 10 -5 25 -7 33 -4 8 3 26 -6 40 -20
15 -14 32 -26 40 -26 8 0 20 -7 27 -15 7 -8 17 -15 22 -15 6 0 5 7 -2 15 -19
23 3 18 29 -6 30 -28 35 -21 8 11 -40 45 -130 105 -154 102 -18 -3 -22 0 -16
14 5 13 3 16 -10 11 -18 -7 -67 37 -67 59 0 6 -12 17 -28 23 -15 6 -40 32 -56
56 -26 42 -63 64 -50 30 4 -8 10 -15 14 -15 15 0 16 -35 2 -46 -12 -8 -9 -13
16 -23 31 -13 51 -41 29 -41 -7 0 -24 6 -39 14 -15 8 -40 17 -57 21 -29 6 -44
25 -20 25 28 0 -6 18 -45 24 -24 4 -52 16 -61 26 -10 11 -31 20 -47 20 -20 0
-28 5 -28 18 0 13 7 18 23 17 12 -2 31 3 42 10 48 29 90 23 90 -12 0 -10 6
-18 13 -17 6 1 24 2 38 3 l25 1 -20 29 -21 29 43 10 c23 6 61 8 83 5 45 -6 74
14 35 24 -12 3 -21 12 -21 20 0 11 -5 13 -17 8 -10 -4 -38 -9 -63 -10 l-45 -3
30 13 c17 8 37 14 46 15 24 0 30 36 9 55 -13 12 -23 13 -44 5 -15 -5 -44 -10
-65 -10 -20 0 -42 -5 -48 -11 -11 -11 -173 -16 -230 -7 -18 3 -39 11 -48 18
-13 11 -11 17 15 54 l30 41 67 -1 c44 -1 61 1 48 6 -11 5 -34 9 -52 9 -42 1
-50 17 -16 33 29 14 34 28 47 139 4 26 13 60 22 78 8 17 13 35 9 41 -8 13 -45
13 -45 0 0 -5 -7 -10 -16 -10 -8 0 -13 -4 -10 -8 2 -4 0 -14 -6 -22 -8 -12 -9
-12 -4 3 3 10 0 17 -8 17 -22 0 -26 27 -7 44 10 9 23 16 29 16 7 0 12 4 12 9
0 6 -12 6 -30 1 -18 -5 -32 -5 -35 1 -4 5 -1 9 6 9 6 0 30 19 53 43 22 23 57
54 76 70 l35 27 -35 -13 c-19 -8 -51 -24 -70 -35 -19 -12 -43 -22 -52 -22 -9
0 -21 -6 -25 -12 -4 -7 -12 -13 -18 -14 -5 0 -23 -4 -39 -9 -19 -5 -36 -4 -48
4 -11 7 -18 7 -18 1 0 -5 -6 -10 -14 -10 -19 0 -28 50 -10 57 8 3 14 13 14 22
0 10 9 27 20 39 11 12 20 23 20 26 0 3 11 22 25 42 29 43 36 120 10 110 -8 -3
-19 2 -24 12 -8 14 -14 11 -48 -26 -39 -43 -58 -52 -65 -30 -3 8 -11 7 -28 -5
-22 -16 -24 -15 -49 11 l-26 27 -3 -23 c-2 -12 -8 -20 -13 -17 -5 4 -9 1 -9
-5 0 -15 -25 -40 -40 -40 -6 0 -16 -11 -22 -25 -7 -15 -17 -24 -25 -21 -8 3
-16 -1 -19 -9 -9 -22 -23 -18 -30 9 -3 14 1 37 10 54 9 17 16 40 16 50 0 10
10 24 23 30 21 10 20 11 -11 11 -18 1 -40 -6 -48 -14 -38 -38 -46 -1 -12 54
12 19 23 42 24 49 2 8 10 22 18 31 12 13 13 20 4 29 -9 9 -9 12 1 12 7 0 9 5
6 10 -7 11 -22 -2 -41 -35 -6 -11 -18 -20 -26 -20 -8 0 -23 -9 -34 -19 -17
-18 -19 -18 -22 -3 -4 21 -32 23 -32 2 0 -8 -9 -19 -21 -25 -11 -7 -18 -17
-16 -24 3 -7 -5 -18 -16 -26 -20 -12 -21 -11 -9 2 10 13 10 19 -3 31 -24 24
-18 61 20 124 35 57 34 74 -3 54 -18 -9 -18 -8 -7 37 14 54 12 61 -12 40 -10
-9 -28 -19 -41 -23 -12 -3 -20 -10 -17 -15 3 -5 -3 -14 -14 -19 -15 -9 -20 -7
-24 11 -3 12 -2 29 4 39 11 22 12 39 0 39 -11 0 -24 -39 -21 -69 1 -15 -9 -33
-29 -52 -17 -15 -31 -37 -31 -49 0 -14 -4 -19 -12 -14 -8 5 -9 2 -5 -10 8 -21
-29 -60 -50 -52 -12 5 -14 1 -9 -18 6 -26 -1 -56 -14 -56 -14 0 -22 78 -11 97
7 13 10 14 11 4 0 -8 2 -12 5 -9 3 3 -1 18 -10 34 -8 16 -15 36 -15 44 0 21
-39 133 -51 144 -5 6 -9 18 -9 28 0 10 -4 18 -10 18 -5 0 -10 -18 -10 -40 0
-23 -7 -52 -16 -65 -11 -16 -14 -34 -9 -55 5 -21 2 -35 -9 -46 -9 -8 -16 -26
-16 -39 0 -13 -4 -27 -10 -30 -5 -3 -10 -2 -10 4 0 6 -10 19 -22 31 -15 14
-22 32 -23 60 0 22 -3 40 -7 40 -5 0 -8 -7 -8 -15 0 -10 -7 -15 -17 -13 -10 2
-17 -3 -15 -9 1 -7 -4 -13 -11 -13 -13 0 -33 56 -43 127 -4 23 -13 44 -20 47
-8 3 -14 12 -14 21 0 26 -39 18 -46 -10 -3 -14 -13 -25 -21 -25 -8 0 -12 4 -9
9 3 5 -1 11 -9 15 -12 4 -15 -3 -15 -32 0 -30 -27 -100 -46 -121 -1 -2 -16 11
-32 29 -19 20 -28 39 -25 51 6 20 -13 27 -19 7 -9 -25 -97 66 -90 93 3 13 -17
49 -28 49 -5 0 -10 -19 -12 -42 -2 -35 -7 -43 -23 -43 -17 0 -21 8 -25 65 l-5
65 -43 3 c-23 2 -40 7 -37 12 3 4 -9 7 -26 6 -16 -1 -32 1 -35 6 -3 4 -14 8
-25 8 -10 0 -19 6 -19 14 0 14 -41 46 -58 46 -6 0 -12 -9 -15 -20z m-162
-4800 c4 -6 11 -8 16 -4 5 3 23 -2 41 -10 17 -9 44 -16 60 -16 15 0 28 -4 28
-10 0 -5 7 -10 16 -10 12 0 15 -7 12 -25 -3 -14 -1 -25 3 -25 5 0 9 -7 9 -15
0 -8 4 -15 9 -15 5 0 12 -7 15 -16 4 -12 2 -15 -9 -10 -8 3 -15 1 -15 -4 0 -6
4 -10 10 -10 5 0 7 -7 3 -16 -3 -9 0 -20 8 -25 11 -7 10 -9 -4 -9 -12 0 -16
-4 -10 -12 4 -7 6 -20 5 -29 -2 -12 8 -19 33 -23 31 -6 35 -9 24 -23 -11 -12
-9 -18 10 -33 17 -12 20 -19 10 -22 -11 -4 -10 -11 3 -38 18 -38 15 -52 -8
-43 -13 5 -15 1 -9 -15 4 -13 2 -22 -4 -22 -6 0 -11 -5 -11 -11 0 -6 7 -8 16
-5 15 6 15 4 1 -17 -11 -16 -12 -28 -5 -41 5 -9 8 -23 5 -29 -2 -7 -1 -43 4
-80 7 -61 6 -70 -12 -88 -12 -12 -18 -27 -14 -39 3 -10 2 -21 -4 -24 -5 -3 -9
-22 -8 -41 1 -20 -6 -42 -17 -54 -10 -11 -15 -25 -11 -30 3 -6 2 -11 -3 -11
-5 0 -15 -19 -20 -42 -11 -43 -97 -148 -121 -148 -6 0 -11 -6 -11 -13 0 -7 -8
-13 -17 -14 -10 -1 -36 -8 -58 -16 -30 -11 -43 -12 -54 -4 -14 12 -17 13 -66
23 -16 3 -37 8 -45 12 -8 3 -28 7 -44 9 -16 2 -35 8 -43 15 -36 30 -303 2
-296 -31 4 -15 -17 -14 -51 2 -25 11 -27 15 -23 62 7 79 49 226 72 255 15 18
27 90 15 90 -18 0 -90 86 -90 107 0 12 -5 33 -11 47 -14 30 1 56 32 56 11 0
19 7 19 16 0 12 6 15 25 10 22 -6 26 -3 31 24 5 21 12 30 26 30 10 0 43 22 71
48 29 27 70 59 92 72 22 13 44 30 48 37 4 7 13 13 20 13 15 1 67 46 67 58 0 5
9 17 20 27 12 10 18 25 16 32 -3 7 -1 13 4 13 14 0 60 53 60 69 0 18 47 60 83
73 15 5 27 14 27 19 0 12 17 11 25 -1z m-564 -1317 c25 -28 58 -53 70 -53 5 0
7 -4 4 -10 -3 -5 3 -10 15 -10 21 0 90 -61 90 -80 0 -8 -26 -36 -65 -68 -8 -7
-20 -10 -25 -7 -6 3 -10 -5 -10 -19 0 -23 4 -26 39 -26 30 0 42 -5 55 -25 11
-17 26 -25 46 -25 17 0 30 -5 30 -11 0 -6 7 -8 16 -5 9 3 21 3 27 -1 7 -4 21
-7 32 -8 15 0 19 -6 18 -22 -2 -13 5 -27 16 -32 28 -16 33 -49 7 -50 -26 -1
-79 -8 -86 -11 -3 -1 -15 -1 -27 0 -13 1 -23 -4 -23 -11 0 -8 -4 -8 -12 -1
-10 7 -93 10 -93 2 0 -1 -13 -3 -30 -5 -37 -5 -137 -40 -131 -46 2 -2 -15 -4
-37 -4 -23 0 -61 -10 -84 -21 -29 -15 -45 -18 -53 -10 -15 15 -12 72 4 86 8 6
12 18 9 26 -3 8 0 14 7 14 8 0 9 4 4 13 -8 11 -9 25 -5 90 0 9 7 17 15 17 8 0
16 6 19 13 4 10 -2 13 -19 9 -14 -2 -24 0 -24 7 0 6 7 11 15 11 8 0 15 5 15
11 0 5 -4 8 -9 5 -5 -3 -11 1 -15 9 -5 13 10 20 37 16 13 -2 7 26 -8 39 -17
14 -21 45 -5 35 6 -4 10 10 10 34 0 23 4 41 10 41 5 0 16 15 23 33 16 36 33
53 62 60 38 9 51 7 66 -10z m283 -835 c12 -13 21 -17 24 -10 2 7 8 12 14 12 6
0 7 -7 4 -16 -3 -8 1 -22 9 -30 8 -9 15 -25 15 -36 0 -17 2 -19 16 -7 16 13
19 12 45 -33 7 -14 6 -18 -5 -18 -9 0 -30 -15 -48 -33 -41 -40 -67 -73 -50
-63 6 4 12 3 12 -2 0 -5 -11 -15 -25 -22 -23 -12 -28 -12 -43 4 -12 14 -14 20
-4 23 6 3 12 9 12 15 0 6 -9 3 -21 -8 -19 -17 -22 -18 -33 -2 -16 21 -66 35
-66 18 0 -9 -12 -11 -42 -7 -37 5 -39 5 -15 -4 15 -6 27 -15 27 -21 0 -6 -7
-7 -16 -4 -8 3 -12 2 -9 -4 3 -6 12 -10 19 -10 14 0 30 -39 18 -41 -4 -1 -20
-3 -36 -5 -15 -1 -31 -5 -34 -8 -3 -3 -11 2 -19 12 -8 9 -12 12 -9 5 4 -6 2
-14 -3 -17 -4 -3 -11 -20 -15 -37 -6 -33 -10 -33 -73 -14 -15 5 -23 3 -23 -4
0 -6 3 -10 8 -10 20 3 21 -3 4 -21 -15 -16 -24 -18 -48 -11 -21 6 -36 4 -49
-5 -25 -18 -35 -18 -35 2 0 13 -3 14 -14 5 -11 -9 -15 -9 -19 1 -5 13 -8 7
-22 -37 -5 -16 -45 -21 -45 -5 0 5 -16 0 -35 -11 -31 -19 -36 -19 -41 -5 -6
16 -3 34 11 69 6 13 2 17 -16 17 -22 0 -21 2 13 36 22 20 35 41 31 50 -3 8 1
14 10 14 24 0 26 24 3 38 -20 12 -20 12 -1 10 14 -2 20 2 19 15 -2 14 1 15 12
6 11 -9 14 -8 14 1 0 21 34 89 44 90 25 0 86 38 102 63 11 16 35 36 54 44 78
36 113 42 235 37 105 -4 122 -7 139 -26z m-470 -761 c3 3 6 -1 6 -10 0 -17 10
-21 42 -18 10 1 24 -4 31 -11 12 -10 12 -15 0 -26 -17 -17 -10 -28 22 -34 13
-3 23 -2 20 2 -2 3 5 14 16 24 26 22 89 12 96 -15 4 -14 10 -16 22 -10 33 17
113 23 122 9 6 -10 14 -10 39 -1 27 10 31 10 26 -3 -4 -11 0 -13 19 -8 15 4
32 1 40 -6 12 -10 15 -9 15 4 0 23 36 20 71 -5 33 -23 37 -36 12 -41 -13 -2
-8 -8 18 -20 44 -21 70 -48 46 -48 -21 0 -30 -42 -11 -57 9 -6 11 -14 5 -17
-5 -4 -12 -2 -16 4 -11 18 -25 0 -25 -31 0 -16 -4 -29 -10 -29 -5 0 -10 6 -10
14 0 28 -22 28 -52 0 -28 -27 -30 -27 -26 -7 4 16 2 20 -10 16 -10 -4 -13 -2
-8 5 4 8 0 12 -11 12 -10 0 -28 3 -40 6 -14 4 -23 2 -23 -5 0 -6 12 -11 28
-11 21 0 24 -2 12 -10 -12 -8 -12 -10 5 -10 18 -1 17 -2 -5 -14 -21 -12 -27
-12 -46 3 -12 9 -19 22 -17 28 9 23 -11 13 -46 -22 -21 -21 -39 -31 -49 -28
-9 4 -13 2 -9 -4 5 -7 0 -9 -12 -6 -10 3 -22 0 -25 -6 -4 -6 -14 -11 -22 -11
-9 0 -12 5 -8 11 5 8 1 8 -14 0 -16 -8 -23 -8 -29 1 -4 7 -16 14 -25 14 -10 1
-15 -2 -12 -7 3 -5 -5 -13 -18 -18 -25 -10 -69 -56 -61 -64 2 -3 -5 -11 -18
-17 -19 -11 -21 -10 -16 4 5 11 1 16 -13 16 -11 0 -20 -4 -20 -9 0 -17 -61
-22 -77 -6 -8 8 -20 15 -26 16 -7 0 -3 4 8 9 17 7 17 9 3 9 -10 1 -18 6 -18
11 0 6 -10 9 -22 9 -18 -1 -19 -2 -5 -6 15 -4 16 -8 6 -19 -10 -12 -15 -10
-30 16 -10 16 -25 30 -33 30 -11 0 -16 16 -18 63 -3 59 -4 62 -30 65 -27 3
-40 22 -15 22 9 0 8 3 -2 9 -10 7 -3 19 33 55 25 26 46 52 46 57 0 6 5 7 10 4
6 -3 10 1 10 9 0 10 9 16 21 16 12 0 36 16 55 35 21 22 34 30 38 22 2 -6 2 3
-1 22 -6 31 -5 33 14 22 11 -5 23 -7 27 -4z m-3565 -5780 c15 -19 20 -97 8
-127 -12 -31 -24 -291 -17 -365 3 -28 -10 -48 -17 -27 -6 17 -23 5 -23 -16 0
-13 2 -14 9 -3 13 21 24 -5 11 -28 -7 -13 -7 -22 0 -26 5 -3 10 -13 10 -21 0
-9 -5 -12 -11 -8 -8 4 -9 -1 -4 -17 3 -13 9 -32 11 -41 3 -10 2 -23 -2 -30
-10 -16 -13 -68 -4 -68 5 0 10 5 12 12 3 7 7 6 11 -5 4 -12 1 -17 -9 -17 -11
0 -14 -5 -9 -17 15 -36 17 -53 8 -53 -6 0 -8 -11 -6 -24 3 -13 0 -27 -6 -30
-17 -11 -13 -36 4 -30 9 4 15 0 15 -9 0 -8 -6 -17 -12 -20 -10 -4 -10 -7 0
-18 20 -22 15 -56 -10 -63 -17 -4 -20 -8 -10 -15 7 -4 14 -14 15 -22 2 -8 6
-19 10 -25 4 -7 0 -15 -9 -18 -12 -5 -13 -10 -5 -19 12 -15 -2 -82 -19 -92 -6
-4 -10 -11 -10 -17 0 -7 5 -7 14 1 11 9 15 8 20 -6 4 -10 2 -19 -3 -21 -6 -2
-9 -8 -5 -13 3 -5 0 -9 -6 -9 -6 0 -9 -4 -6 -9 12 -20 16 -109 6 -135 -5 -15
-7 -33 -3 -39 11 -17 11 -120 1 -134 -6 -7 -5 -20 2 -33 6 -11 8 -26 4 -32 -7
-11 -7 -31 1 -129 1 -14 5 -30 8 -36 4 -6 0 -19 -9 -27 -14 -15 -14 -16 2 -16
13 0 15 -6 11 -30 -4 -16 -3 -32 2 -34 13 -9 2 -80 -15 -92 -8 -6 -12 -19 -8
-27 3 -9 -1 -30 -9 -47 -9 -17 -11 -32 -6 -36 5 -3 7 -9 4 -14 -3 -5 0 -14 7
-22 15 -15 15 -34 3 -98 -5 -25 -8 -71 -7 -102 1 -32 -3 -58 -8 -58 -5 0 -6
-8 -3 -18 6 -15 5 -15 -10 -3 -9 7 -14 17 -11 22 3 5 2 9 -3 8 -27 -5 -43 3
-43 21 0 14 -5 18 -17 13 -12 -5 -15 -2 -10 10 3 9 3 17 -2 17 -11 0 -61 79
-61 96 0 9 -4 13 -9 10 -14 -9 -19 25 -15 100 4 100 19 727 19 807 -1 37 2 67
5 67 3 0 7 60 9 133 6 237 9 281 24 362 10 55 15 153 16 315 1 129 4 249 6
265 2 17 7 67 11 113 4 45 12 89 19 98 10 15 59 29 106 33 9 0 22 -5 28 -12z
m689 4 c7 -4 15 -29 17 -54 1 -26 -1 -44 -6 -41 -10 6 -11 -1 -14 -61 -4 -65
-12 -97 -26 -106 -12 -7 -11 -9 1 -9 10 0 11 -3 3 -8 -6 -4 -17 -29 -24 -55
-11 -45 -13 -48 -42 -44 -28 3 -34 10 -55 62 -13 33 -28 98 -33 150 -10 90 -9
90 16 113 14 12 35 22 46 22 10 0 36 9 56 20 43 23 43 23 61 11z m3187 -132
c50 -6 117 -12 150 -14 58 -2 134 -23 91 -24 -11 -1 -16 -6 -13 -15 7 -17 -11
-36 -34 -36 -10 0 -19 -4 -21 -10 -6 -17 -77 23 -79 45 -1 11 -4 4 -8 -15 -6
-32 -9 -35 -45 -37 -21 -1 -41 -4 -43 -7 -6 -6 13 -40 34 -61 16 -16 16 -18
-1 -27 -24 -13 -14 -69 21 -115 l25 -33 -30 0 c-24 0 -32 -6 -40 -27 l-10 -28
-1 26 c-1 17 -10 30 -26 39 -24 13 -27 23 -29 80 -1 18 -7 26 -23 28 -18 3
-23 10 -23 34 0 18 -8 37 -17 44 -16 12 -16 15 -3 24 13 9 13 10 0 10 -8 0
-26 12 -39 26 -13 14 -37 28 -52 31 -16 3 -26 9 -23 14 5 9 4 10 -34 14 -34 3
-38 13 -11 25 24 10 24 10 -3 7 -17 -3 -29 1 -32 10 -5 11 15 13 112 8 64 -3
158 -11 207 -16z m-2655 -205 c0 -7 -5 -16 -11 -20 -6 -3 -8 -17 -5 -31 4 -15
1 -29 -9 -39 -13 -14 -13 -17 0 -30 12 -12 12 -20 4 -36 -8 -15 -8 -19 0 -14
6 4 11 2 11 -3 0 -6 7 -11 15 -11 8 0 15 -5 15 -11 0 -5 -4 -7 -10 -4 -5 3
-10 -1 -10 -9 0 -8 5 -18 10 -21 6 -4 8 -11 4 -16 -3 -6 1 -18 9 -27 9 -11 14
-34 12 -62 -1 -25 3 -51 8 -57 6 -8 5 -25 -2 -44 -8 -24 -8 -36 1 -46 9 -11 9
-19 0 -33 -9 -14 -7 -23 9 -41 11 -12 15 -25 10 -28 -14 -9 -1 -70 14 -65 21
9 30 -48 9 -63 -15 -11 -16 -17 -5 -39 9 -21 9 -29 0 -34 -6 -4 -8 -13 -4 -20
4 -7 2 -16 -6 -21 -12 -8 -12 -10 1 -18 10 -7 14 -26 12 -63 -1 -29 -2 -80 -2
-112 -1 -33 -6 -66 -11 -73 -7 -8 -8 -31 -3 -65 7 -50 8 -52 18 -25 10 29 36
37 36 12 0 -8 -4 -15 -8 -15 -9 0 -32 -44 -32 -62 0 -6 10 -8 25 -4 22 6 25 3
25 -18 0 -14 -4 -27 -9 -31 -6 -3 -6 -18 -1 -36 7 -23 6 -35 -5 -46 -8 -8 -16
-24 -16 -36 -2 -29 -2 -29 6 -49 5 -12 2 -18 -8 -18 -8 0 -18 6 -20 13 -3 7
-6 5 -6 -6 -1 -10 10 -22 24 -27 14 -5 25 -11 25 -14 0 -2 2 -11 5 -19 4 -8 0
-14 -9 -14 -8 0 -12 5 -9 11 4 6 -1 4 -11 -4 -17 -14 -16 -16 27 -36 42 -19
45 -23 33 -39 -11 -15 -10 -21 8 -39 l21 -21 -32 -3 c-18 -2 -33 -8 -33 -14 0
-5 6 -8 14 -5 17 7 15 -21 -3 -32 -6 -4 -9 -15 -5 -24 9 -25 -4 -67 -21 -67
-10 0 -12 -6 -7 -21 5 -11 11 -19 16 -17 4 2 12 -5 17 -14 6 -10 20 -18 32
-18 24 -1 57 -22 57 -37 0 -16 -53 -58 -58 -45 -6 20 -40 14 -47 -8 -15 -47
-62 4 -52 57 2 13 0 20 -6 16 -5 -3 -6 3 -3 15 4 11 2 23 -4 27 -5 3 -10 17
-10 30 0 13 -4 27 -10 30 -5 3 -10 15 -10 26 0 10 -4 27 -9 37 -15 28 -33 121
-26 132 3 5 1 10 -5 10 -6 0 -10 6 -8 13 1 6 -3 28 -9 47 -6 19 -14 63 -18 98
-3 34 -13 81 -20 103 -8 23 -12 45 -9 50 3 5 2 14 -2 21 -4 6 -9 32 -10 57 -2
25 -8 62 -13 81 -19 68 -41 176 -45 218 -2 23 -6 45 -10 49 -3 3 -6 15 -6 25
0 10 -4 18 -10 18 -5 0 -7 6 -4 14 3 8 1 40 -5 72 -7 36 -7 60 -2 64 6 3 14
17 19 31 8 21 7 28 -9 37 -15 10 -17 17 -9 32 11 21 13 63 3 74 -4 3 -8 12 -9
19 -2 7 -6 23 -10 37 -7 24 -7 24 13 8 31 -28 35 -22 31 40 -3 51 -1 58 19 67
27 11 36 45 23 79 -8 22 -7 26 9 26 11 0 21 -5 23 -12 2 -6 10 -8 17 -4 9 6 4
15 -17 35 -24 21 -27 28 -17 38 11 10 15 10 18 0 3 -7 6 -3 6 8 0 11 -4 27 -9
35 -6 10 -4 20 6 32 9 9 13 21 10 26 -3 6 0 12 8 15 8 3 12 15 9 31 -9 43 2
58 32 44 14 -6 25 -17 25 -24z m7890 -604 c0 -6 8 -13 18 -17 52 -17 91 -39
87 -50 -2 -6 4 -13 14 -16 14 -3 17 -16 15 -90 -2 -48 -6 -92 -10 -98 -8 -14
-18 -96 -18 -156 0 -26 -4 -37 -9 -30 -5 7 -7 -3 -3 -25 3 -24 1 -38 -6 -38
-7 0 -9 -17 -5 -50 3 -27 2 -50 -3 -50 -5 0 -9 -12 -9 -27 1 -48 -9 -157 -15
-173 -3 -8 -9 -26 -14 -40 -5 -14 -6 -49 -2 -78 5 -41 3 -57 -8 -68 -28 -28
-47 -12 -52 42 -3 28 -11 58 -17 65 -12 14 -15 47 -15 139 0 61 12 402 16 470
2 30 -1 61 -6 68 -7 8 -7 16 1 25 6 8 9 16 7 18 -3 2 -7 29 -10 59 -4 40 -1
65 12 92 16 36 32 49 32 28z"/>
<path d="M6295 9520 c-16 -16 -34 -29 -39 -28 -6 1 -27 -5 -46 -14 -112 -50
-141 -60 -159 -55 -12 3 -21 2 -21 -2 0 -4 -13 -6 -30 -3 -50 7 -34 -11 40
-47 66 -31 76 -33 143 -28 98 8 94 7 160 56 61 46 65 56 42 100 -8 16 -11 31
-8 35 4 3 -1 6 -10 6 -8 0 -22 2 -29 5 -8 3 -27 -8 -43 -25z"/>
<path d="M10473 2767 c3 -9 -7 -26 -29 -46 -19 -17 -34 -40 -34 -51 0 -11 -4
-20 -10 -20 -5 0 -10 -9 -10 -19 0 -11 -11 -41 -24 -67 -13 -25 -21 -54 -19
-64 3 -10 0 -21 -6 -24 -6 -4 -11 -29 -11 -56 0 -27 -5 -52 -10 -55 -6 -4 -9
-12 -8 -18 1 -7 -4 -23 -11 -36 -10 -18 -10 -25 -1 -31 7 -4 9 -13 5 -19 -4
-7 -1 -18 5 -26 10 -12 10 -15 0 -15 -7 0 -10 -7 -7 -14 3 -8 -1 -29 -10 -46
-9 -19 -16 -61 -17 -103 0 -40 -5 -75 -11 -79 -6 -5 -5 -11 4 -17 12 -8 12
-13 -3 -35 -9 -14 -12 -26 -6 -26 7 0 8 -6 2 -17 -5 -10 -8 -49 -7 -86 2 -49
-2 -72 -12 -83 -10 -9 -14 -27 -11 -49 2 -19 -1 -37 -7 -39 -7 -3 -7 -7 1 -13
17 -13 11 -61 -10 -76 -18 -13 -18 -14 5 -30 22 -16 22 -19 10 -49 -20 -49
-24 -76 -16 -95 8 -18 16 -86 18 -155 1 -21 6 -38 11 -38 4 0 6 -7 2 -15 -3
-8 -1 -15 4 -15 19 0 10 -29 -11 -35 -18 -6 -20 -13 -16 -41 5 -28 3 -34 -13
-34 -15 0 -17 -6 -13 -44 2 -25 0 -47 -6 -51 -6 -3 -11 -13 -11 -21 0 -9 5
-12 12 -8 7 4 8 3 4 -5 -9 -14 12 -43 25 -35 5 3 6 10 3 16 -5 7 -2 8 5 4 8
-5 10 -19 6 -36 -4 -20 -1 -32 12 -42 26 -19 23 -57 -6 -72 -15 -9 -20 -16
-12 -20 16 -11 13 -26 -5 -26 -13 0 -16 -7 -11 -38 2 -21 0 -47 -5 -57 -8 -13
-7 -16 1 -11 14 9 14 0 1 -25 -6 -10 -7 -19 -3 -19 4 0 7 -26 6 -57 -1 -32 1
-65 4 -73 3 -8 8 -33 10 -55 2 -22 9 -44 14 -49 15 -16 11 -36 -6 -30 -9 4
-16 0 -16 -7 -4 -39 1 -73 11 -79 9 -5 9 -13 2 -27 -6 -11 -9 -29 -6 -40 3
-11 -1 -25 -10 -32 -18 -15 -21 -41 -5 -41 6 0 8 -9 4 -22 -6 -17 -4 -20 9
-15 9 4 16 2 16 -3 0 -6 120 -10 319 -10 275 0 320 2 325 15 4 12 0 14 -21 9
-23 -6 -25 -5 -20 15 7 29 -1 51 -19 51 -8 0 -15 6 -15 13 -10 84 -13 300 -5
319 4 9 3 25 -3 36 -6 11 -8 58 -6 111 3 61 1 91 -7 91 -7 0 -9 19 -5 56 3 30
2 68 -3 83 -4 15 -3 35 2 44 5 10 6 22 2 28 -10 16 -11 89 -1 89 8 0 2 101 -9
145 -4 18 -2 30 7 35 10 7 10 11 0 24 -11 13 -11 16 3 16 12 0 15 6 11 23 -3
12 -7 37 -8 54 -1 18 -5 33 -9 33 -9 0 -1 55 11 79 6 11 11 30 11 42 0 12 6
27 14 33 17 14 31 86 16 86 -5 0 -10 7 -10 15 0 8 4 15 9 15 4 0 8 12 8 28 1
15 3 41 6 57 3 17 7 52 8 78 2 35 7 51 21 58 16 9 17 20 13 107 -2 61 -8 98
-16 101 -6 2 -20 12 -31 23 -16 16 -22 17 -34 7 -12 -10 -17 -8 -29 7 -8 10
-15 29 -15 41 0 12 -5 23 -11 25 -8 3 -7 13 4 33 8 17 20 50 27 75 6 25 18 55
26 68 8 12 12 27 9 32 -8 13 14 103 27 111 9 6 9 11 0 21 -8 11 -8 26 3 62 8
27 12 52 10 57 -3 4 0 29 6 54 10 40 9 48 -6 65 -20 22 -55 26 -71 10 -7 -7
-20 -3 -39 14 -26 23 -31 24 -60 12 -28 -12 -34 -11 -58 8 -21 17 -24 25 -15
34 9 9 8 12 -7 13 -26 1 -52 5 -99 14 -33 7 -38 5 -33 -8z"/>
<path d="M11178 2605 c3 -37 0 -55 -8 -55 -6 0 -8 -4 -5 -10 3 -5 2 -10 -3
-10 -5 0 -12 -9 -15 -19 -3 -14 -1 -18 11 -14 12 5 14 1 9 -18 -3 -13 -9 -53
-13 -89 -3 -36 -11 -70 -16 -77 -11 -14 -1 -53 13 -53 5 0 7 -17 3 -39 l-6
-39 33 7 c28 6 34 12 33 32 -1 13 -4 32 -9 42 -5 12 -3 17 9 17 15 0 21 12 17
34 -1 5 4 16 11 25 34 42 40 62 25 79 -8 10 -12 23 -10 30 3 7 -2 23 -10 36
-14 21 -14 25 8 50 17 20 23 38 21 61 -4 43 -23 61 -66 63 l-35 1 3 -54z"/>
<path d="M11413 2607 c-27 -43 -30 -53 -19 -71 6 -11 11 -30 11 -41 0 -11 4
-23 10 -27 5 -4 1 -8 -10 -8 -17 0 -17 -2 -5 -10 13 -8 13 -13 -2 -41 -24 -41
-23 -59 5 -59 16 0 18 3 8 9 -8 5 -9 11 -3 15 5 3 17 -3 26 -13 17 -18 19 -18
35 -3 12 12 15 21 8 30 -6 8 -5 12 3 12 8 0 11 9 7 29 -4 20 -1 33 9 42 8 7
13 18 10 26 -3 7 -2 13 3 13 15 0 2 90 -16 115 -30 40 -46 36 -80 -18z"/>
</g>
</svg>
