<?xml version="1.0" standalone="no"?>
<!DOCTYPE svg PUBLIC "-//W3C//DTD SVG 20010904//EN"
 "http://www.w3.org/TR/2001/REC-SVG-20010904/DTD/svg10.dtd">
<svg version="1.0" xmlns="http://www.w3.org/2000/svg"
 width="382.000000pt" height="501.000000pt" viewBox="0 0 382.000000 501.000000"
 preserveAspectRatio="xMidYMid meet">
<metadata>
Created by potrace 1.11, written by Peter Selinger 2001-2013
</metadata>
<g transform="translate(0.000000,501.000000) scale(0.100000,-0.100000)"
fill="#000000" stroke="none">
<path d="M1962 4954 c-6 -7 -12 -20 -12 -28 0 -8 -5 -18 -12 -22 -8 -5 -9 -2
-5 10 5 12 3 15 -6 9 -6 -4 -34 -9 -61 -11 -27 -1 -81 -11 -120 -21 -64 -17
-68 -20 -46 -29 24 -9 24 -9 -19 -37 -24 -15 -57 -32 -73 -37 -16 -6 -34 -21
-39 -35 -5 -14 -26 -32 -52 -43 -25 -11 -49 -31 -58 -47 -7 -15 -21 -35 -29
-43 -9 -8 -29 -33 -45 -55 -17 -22 -33 -42 -36 -45 -3 -3 -28 -50 -55 -105
-32 -66 -49 -114 -50 -140 0 -22 -8 -110 -17 -195 -19 -175 -22 -356 -7 -365
6 -3 10 -24 10 -45 0 -21 5 -42 10 -45 5 -3 10 -15 10 -26 0 -20 19 -60 34
-71 5 -3 13 -50 17 -105 8 -98 20 -155 37 -176 17 -21 82 -194 82 -217 0 -25
61 -92 68 -72 6 19 60 15 66 -5 11 -36 25 -150 32 -251 6 -83 4 -106 -8 -120
-23 -27 -58 -92 -58 -108 0 -8 -4 -14 -10 -14 -5 0 -10 -6 -10 -14 0 -21 -52
-76 -71 -76 -13 0 -16 -6 -12 -21 6 -20 3 -21 -33 -15 -96 18 -163 18 -180 2
-8 -9 -25 -16 -36 -16 -22 0 -83 -34 -95 -54 -25 -39 -254 -196 -328 -225 -22
-9 -54 -25 -70 -37 -17 -12 -82 -48 -145 -80 -92 -47 -129 -73 -186 -130 -41
-41 -80 -92 -93 -120 -59 -127 -70 -154 -94 -219 -14 -38 -30 -99 -36 -135 -6
-36 -20 -105 -31 -155 -42 -188 -60 -406 -63 -780 -1 -104 2 -234 7 -287 l8
-98 982 0 982 0 -4 69 c-2 39 1 77 7 87 10 17 10 18 11 2 0 -10 5 -18 10 -18
6 0 20 -8 31 -19 21 -19 28 -19 132 1 66 12 81 29 61 67 -12 23 -12 26 2 29
29 7 7 27 -28 26 -55 -2 -113 -15 -101 -22 6 -4 -17 -8 -50 -9 -34 -1 -71 -4
-81 -5 -20 -3 -26 10 -40 85 -6 30 -4 37 9 37 8 0 15 6 15 13 0 10 12 13 44
10 37 -4 44 -2 48 15 3 11 1 25 -4 30 -11 11 6 25 35 29 16 3 16 1 2 -21 -15
-23 -15 -25 7 -32 12 -4 39 -7 59 -8 33 -1 36 1 35 26 -1 14 -4 24 -8 22 -11
-7 -39 27 -32 38 5 7 1 7 -11 1 -21 -12 -52 -6 -58 11 -3 7 -3 25 0 40 5 23
10 27 29 23 26 -5 30 3 13 20 -9 9 -8 16 3 27 9 8 19 12 23 8 3 -4 3 7 0 23
-4 17 -15 35 -24 42 -38 29 -41 34 -31 52 5 10 8 20 7 22 -1 2 4 -3 11 -11 11
-13 14 -13 22 0 12 19 13 40 2 40 -5 0 -14 11 -21 23 -23 44 -72 22 -73 -33
-1 -36 -25 -40 -51 -10 -18 22 -22 35 -8 26 5 -3 12 1 15 10 5 13 9 14 21 4
15 -13 20 -3 17 39 -1 24 22 40 39 27 9 -6 14 -16 12 -23 -3 -8 3 -11 16 -8
11 2 20 1 20 -3 -3 -18 2 -32 11 -32 5 0 7 7 3 15 -5 13 -2 14 21 4 31 -15 36
-55 7 -64 -19 -6 -20 -15 -6 -47 9 -22 31 -23 39 -3 3 8 1 15 -4 15 -6 0 -10
4 -10 10 0 5 7 7 15 4 18 -7 21 21 4 32 -7 4 -9 22 -4 50 3 24 3 44 -2 44 -5
0 -9 22 -9 50 -1 39 -6 54 -25 70 -18 16 -20 23 -10 29 7 5 13 24 14 42 1 19
5 36 9 39 4 3 -2 11 -12 18 -18 11 -20 9 -18 -13 1 -14 6 -25 10 -25 4 0 8 -4
8 -9 0 -5 -11 -4 -24 2 -16 8 -21 14 -13 19 9 6 9 8 0 8 -6 0 -11 9 -10 20 1
11 5 20 10 20 4 0 6 4 3 9 -3 5 1 14 9 21 12 10 15 10 15 -1 0 -9 3 -10 8 -3
4 6 22 16 40 22 l33 11 46 -97 c25 -53 54 -113 65 -133 10 -20 18 -49 18 -63
0 -40 32 -149 49 -170 9 -10 16 -21 16 -25 0 -3 3 -5 7 -4 12 4 29 -35 19 -42
-6 -3 1 -22 15 -43 23 -33 25 -43 20 -101 -7 -68 2 -91 35 -91 21 0 23 9 10
60 -5 19 -14 62 -21 95 -8 33 -16 65 -20 70 -7 9 -13 34 -26 99 -9 47 13 20
25 -31 7 -27 27 -88 45 -138 19 -49 37 -107 41 -127 3 -21 11 -38 17 -38 5 0
8 -6 5 -14 -3 -7 -2 -17 3 -22 4 -5 15 -33 25 -61 9 -29 20 -53 25 -53 4 0 8
-18 8 -40 0 -22 -3 -40 -8 -40 -13 0 0 -31 27 -64 13 -16 27 -42 30 -57 6 -30
27 -39 36 -16 4 9 8 8 16 -3 9 -13 12 -12 25 5 13 19 15 19 21 3 9 -22 31 -22
156 -3 140 21 217 44 214 64 -1 9 3 20 9 24 6 5 1 5 -11 2 -13 -3 -23 -2 -23
3 0 5 -10 13 -22 16 l-23 7 24 10 c13 5 22 11 20 13 -6 5 -216 -20 -269 -33
-74 -17 -78 -16 -86 34 -3 25 -5 48 -2 50 2 2 50 11 105 20 56 8 121 21 145
29 24 8 56 16 72 18 16 2 32 10 34 18 5 13 3 13 -11 1 -15 -11 -17 -11 -17 1
0 8 6 20 13 27 10 11 9 13 -5 8 -12 -4 -18 -1 -18 7 0 9 -7 12 -19 9 -12 -3
-17 -11 -14 -19 3 -8 0 -14 -6 -14 -12 0 -14 11 -5 34 3 8 12 12 20 9 8 -3 14
0 14 7 0 12 -18 11 -120 -10 -210 -42 -200 -44 -200 25 0 35 0 35 125 60 17 3
43 8 59 11 16 3 40 10 53 15 22 8 23 9 6 29 -10 11 -18 28 -18 38 0 23 -41 26
-138 9 l-77 -13 4 55 c3 31 5 60 5 65 1 4 12 6 26 3 29 -5 114 11 131 25 14
10 7 48 -8 48 -6 0 -7 8 -4 17 12 31 -29 41 -96 22 -25 -6 -38 -16 -38 -27 0
-15 -2 -15 -10 -2 -19 30 -9 157 12 144 13 -8 104 6 91 14 -5 4 -9 17 -8 30 1
13 -4 22 -12 22 -8 0 -11 5 -8 10 3 6 1 10 -4 10 -6 0 -11 7 -11 16 0 12 -6
15 -26 10 l-27 -7 9 53 c10 61 12 251 3 258 -12 9 -22 53 -11 46 7 -4 9 15 6
58 -5 63 9 98 23 59 9 -25 64 -95 70 -89 3 3 -9 23 -27 46 -24 31 -29 44 -21
54 13 15 120 19 137 5 7 -5 18 0 32 15 16 19 18 27 8 35 -7 6 -25 35 -40 66
-16 30 -32 55 -37 55 -5 0 -9 13 -9 28 0 16 -3 32 -6 35 -13 12 -17 68 -13
170 2 70 7 81 32 71 11 -4 14 -15 10 -40 -4 -25 -1 -35 10 -40 8 -3 18 -20 21
-38 7 -34 46 -119 46 -98 0 7 4 12 9 12 6 0 13 -21 17 -47 4 -26 13 -53 20
-61 8 -7 14 -24 14 -38 0 -46 13 -74 35 -74 23 0 18 -17 -7 -24 -22 -7 -22 -7
-3 -15 28 -12 95 -90 84 -97 -5 -3 -3 -15 6 -27 8 -12 15 -31 14 -42 0 -14 -2
-16 -6 -5 -3 8 -9 17 -12 20 -15 13 -31 52 -25 62 4 6 1 9 -7 6 -15 -6 -14
-81 1 -86 5 -2 6 -10 3 -17 -3 -8 2 -22 11 -30 9 -9 19 -28 22 -43 4 -15 16
-40 27 -56 14 -20 21 -50 24 -100 2 -39 11 -92 19 -118 9 -26 17 -78 19 -115
2 -37 8 -81 15 -97 6 -16 15 -76 20 -135 6 -58 14 -129 19 -157 5 -27 12 -91
16 -142 l7 -91 -33 -9 c-19 -6 -27 -11 -18 -11 9 -1 20 -8 23 -17 9 -22 8 -26
-6 -18 -6 4 -8 3 -4 -4 3 -6 2 -13 -4 -17 -6 -4 -8 -11 -4 -16 4 -6 10 -6 19
1 10 8 11 -3 8 -55 -4 -69 -2 -72 42 -55 23 9 24 12 14 31 -6 12 -9 39 -7 60
2 27 0 39 -9 39 -9 0 -14 -19 -15 -62 l-1 -63 -6 65 c-4 39 -2 68 4 73 6 6 6
10 -3 14 -6 2 -9 9 -6 15 4 7 9 7 13 0 6 -10 214 85 291 133 39 24 43 25 65
11 23 -15 23 -15 34 49 10 53 9 71 -5 107 -9 24 -21 58 -27 76 -7 17 -18 32
-24 32 -7 0 -13 10 -13 22 0 39 -34 138 -47 138 -7 0 -13 9 -13 20 0 27 -23
100 -32 100 -3 0 -9 18 -13 40 -4 22 -11 40 -16 40 -5 0 -9 9 -9 20 0 11 -4
20 -10 20 -5 0 -10 -3 -10 -7 1 -9 32 -98 48 -133 6 -14 21 -57 35 -97 23 -66
23 -71 6 -60 -11 7 -19 22 -19 34 0 12 -13 54 -29 95 -16 40 -33 87 -37 103
-4 17 -12 33 -18 37 -8 5 -7 13 2 28 14 24 16 40 2 40 -5 0 -7 -7 -4 -15 13
-34 -7 -12 -23 25 -10 22 -21 40 -25 40 -5 0 -8 7 -8 15 0 8 5 15 10 15 6 0
10 -6 10 -13 0 -7 7 -22 16 -33 15 -18 15 -18 5 3 -6 12 -11 31 -11 42 0 12
-4 21 -9 21 -5 0 -12 18 -16 40 -4 22 -11 40 -17 40 -6 0 -8 9 -5 20 3 13 0
20 -9 20 -9 0 -16 18 -20 51 -4 28 -13 53 -20 56 -7 2 -16 18 -19 34 -4 16
-11 29 -16 29 -5 0 -9 11 -9 25 0 14 -4 25 -10 25 -5 0 -10 9 -10 19 0 11 -4
21 -10 23 -5 2 -14 32 -18 66 -5 35 -14 67 -19 70 -14 9 -76 131 -80 156 -2
10 -11 24 -20 31 -9 7 -13 17 -9 23 7 11 -11 28 -21 18 -5 -5 27 -106 37 -116
6 -6 21 -38 58 -125 26 -62 47 -111 60 -139 3 -5 0 -6 -5 -3 -9 6 -44 75 -85
167 l-15 35 1 -60 c1 -33 5 -67 10 -75 9 -13 8 -13 -8 -1 -12 10 -16 23 -12
41 2 15 -1 44 -9 66 -9 24 -15 32 -15 19 l-1 -20 -8 20 c-5 12 -4 26 3 34 8
11 8 13 -1 7 -9 -5 -13 0 -13 13 0 12 4 21 8 21 5 0 6 14 4 31 -4 26 -6 29
-14 15 -5 -9 -6 -21 -3 -26 3 -6 2 -10 -4 -10 -5 0 -13 15 -16 32 -12 52 -57
161 -77 182 -10 11 -18 24 -18 28 0 5 -8 8 -17 6 -13 -2 -18 3 -17 20 0 12 -4
22 -9 22 -6 0 -25 15 -42 32 -17 18 -40 40 -53 48 -12 8 -22 22 -22 32 0 10
-5 18 -11 18 -5 0 -7 -5 -4 -10 3 -5 0 -10 -8 -10 -8 0 -17 9 -20 20 -3 11
-11 20 -19 20 -10 0 -9 -3 2 -10 22 -14 0 -12 -56 5 -27 8 -72 15 -100 15 -34
0 -56 5 -64 15 -7 8 -19 15 -28 15 -8 0 -23 9 -33 21 -9 11 -20 20 -23 20 -21
-3 -26 1 -26 18 0 11 -5 32 -11 48 -10 26 -12 26 -19 8 -4 -11 -6 -23 -3 -27
2 -5 0 -8 -5 -8 -21 0 -29 -45 -14 -77 16 -33 9 -60 -8 -33 -6 8 -10 13 -10
10 -1 -3 -4 -25 -7 -50 -3 -25 -12 -57 -19 -72 -8 -16 -14 -58 -14 -103 0 -48
-4 -74 -10 -70 -5 3 -10 30 -10 58 -1 58 -14 130 -32 165 -9 17 -8 41 1 102
15 102 29 141 64 179 36 41 35 52 -5 40 -18 -5 -34 -9 -35 -9 -6 0 -23 72 -24
105 -2 22 -6 45 -11 52 -10 12 25 42 52 44 10 0 11 2 3 6 -18 7 -16 23 2 23
23 0 65 30 65 47 0 7 10 28 23 44 18 25 22 44 22 105 0 65 2 75 20 80 30 10
35 23 35 96 0 74 -17 163 -37 193 -19 28 -16 56 7 62 12 3 20 14 21 27 2 40
-3 71 -13 77 -5 3 -7 20 -5 38 3 17 1 31 -4 31 -25 0 -3 19 46 39 31 13 61 29
68 35 17 18 80 39 71 24 -5 -7 -2 -9 9 -5 20 8 42 -19 41 -50 -1 -16 0 -17 3
-4 2 10 13 27 24 37 25 22 24 37 -1 29 -16 -5 -20 -2 -20 19 0 21 5 26 25 26
14 0 25 -5 25 -12 0 -20 17 5 24 36 6 23 4 27 -8 23 -15 -6 -26 12 -26 41 0
13 3 13 16 -4 14 -17 15 -17 10 -1 -3 10 -6 23 -6 28 0 6 -5 7 -10 4 -7 -4 -9
3 -5 22 11 49 14 53 34 53 24 0 36 -36 26 -72 -6 -22 -6 -22 10 -4 8 11 13 28
9 38 -3 10 -7 37 -9 61 -3 23 -9 51 -14 62 -5 11 -13 38 -17 60 -4 22 -9 32
-11 23 -4 -14 -8 -15 -29 -6 -13 6 -24 15 -24 20 0 5 5 6 10 3 6 -3 10 -1 10
5 0 7 7 10 15 6 12 -4 13 -2 2 15 -11 17 -13 18 -23 4 -10 -13 -12 -12 -18 8
-3 13 -8 42 -11 63 -4 21 -8 47 -11 57 -3 10 0 17 9 17 8 0 18 -11 21 -24 3
-13 26 -45 50 -71 l44 -47 4 38 c4 29 -1 48 -19 76 -28 45 -30 73 -3 38 11
-14 20 -19 20 -12 0 16 -40 101 -51 108 -5 3 -9 15 -9 27 0 26 -26 60 -58 76
-12 7 -20 16 -17 21 6 9 -99 120 -114 120 -6 0 -7 7 -4 17 5 11 3 14 -6 8 -10
-5 -11 -2 -7 13 8 23 -17 42 -56 42 -21 1 -21 2 -5 11 17 10 17 12 1 23 -9 7
-32 12 -50 10 -33 -2 -33 -2 -18 21 12 18 13 29 5 42 -6 10 -11 13 -11 7 0 -7
-12 -14 -26 -17 -18 -3 -24 -1 -20 9 3 8 4 14 3 14 -1 0 -17 -4 -35 -10 -28
-7 -33 -7 -28 5 7 19 -16 20 -47 3 -33 -19 -37 -29 -32 -73 4 -36 3 -37 -6
-15 -30 66 -32 71 -41 58 -6 -10 -8 -9 -8 2 0 9 9 23 20 33 11 9 20 22 20 29
-1 18 -36 -28 -61 -79 -24 -49 -36 -53 -49 -18 -8 22 -12 24 -35 13 -14 -6
-25 -15 -25 -20 0 -4 -5 -8 -10 -8 -6 0 -4 13 5 30 16 32 20 54 5 30 -5 -8
-12 -11 -15 -8 -4 4 5 29 20 56 24 45 26 54 15 86 -6 19 -20 38 -31 41 -10 4
-19 10 -19 15 0 5 -16 14 -36 20 -30 10 -38 10 -45 -1 -6 -9 -12 -10 -16 -4
-18 23 -48 33 -61 19z m719 -1141 c11 -26 29 -56 39 -65 23 -21 45 -90 37
-112 -4 -9 -18 -16 -34 -16 -15 0 -41 -7 -57 -15 -39 -21 -44 -20 -82 21 -32
33 -33 37 -20 62 17 33 18 82 2 82 -6 0 -17 10 -25 22 -12 19 -11 23 5 35 20
15 74 18 74 4 0 -6 9 -9 20 -8 14 1 18 6 14 19 -11 37 7 16 27 -29z m-422
-290 c12 -40 26 -73 32 -73 5 0 21 -12 35 -27 23 -25 25 -34 21 -83 -3 -43 0
-61 15 -82 23 -33 28 -79 11 -85 -7 -3 -13 1 -13 7 0 7 -10 21 -21 31 -21 18
-22 18 -50 -2 -16 -11 -36 -34 -45 -51 -8 -16 -18 -27 -21 -24 -3 3 2 17 11
30 12 19 13 31 6 51 -5 14 -6 25 -2 25 4 0 2 4 -4 8 -6 4 -16 21 -21 37 -9 25
-6 38 15 77 13 26 27 47 31 46 23 -2 41 4 39 15 -5 21 -32 25 -45 6 -16 -21
-49 -14 -56 12 -7 26 3 60 16 52 6 -4 8 4 5 20 -3 15 0 28 6 31 6 2 4 5 -4 5
-9 1 -16 10 -17 22 -2 17 1 18 13 9 11 -10 14 -8 15 11 1 27 0 29 28 -68z
m435 -2078 c3 -9 -1 -18 -8 -21 -11 -4 -9 -18 11 -70 30 -77 23 -95 -26 -71
-29 14 -31 14 -31 -3 0 -12 -10 -20 -35 -24 -47 -9 -58 0 -51 37 6 31 -12 97
-26 97 -11 0 -48 38 -48 50 0 6 25 10 55 10 30 0 55 -4 55 -10 0 -5 5 -10 10
-10 6 0 10 7 10 15 0 21 76 21 84 0z m-660 -81 c4 -9 0 -21 -9 -28 -12 -9 -13
-15 -1 -41 8 -16 17 -38 20 -47 8 -27 45 -22 56 7 14 36 45 33 59 -6 16 -46
14 -49 -22 -49 -18 0 -37 -4 -42 -9 -6 -5 -35 -11 -66 -15 -47 -5 -58 -3 -63
10 -4 9 -1 23 5 31 19 22 -6 92 -37 103 -38 15 -30 38 19 48 62 14 74 14 81
-4z m-166 -53 c44 -31 61 -90 38 -126 -38 -58 -113 -61 -182 -9 -44 34 -50 66
-23 121 l22 45 57 -4 c37 -3 67 -12 88 -27z m659 -158 c13 -14 23 -34 23 -43
0 -31 23 -40 91 -34 l64 6 0 -46 c0 -59 -20 -73 -108 -78 -56 -2 -67 -6 -67
-20 0 -34 -16 -18 -44 45 -59 130 -77 178 -70 188 3 5 24 9 47 9 32 0 46 -6
64 -27z m-537 -68 c0 -8 5 -15 11 -15 6 0 9 7 6 14 -4 10 -1 13 9 9 13 -5 13
-8 1 -22 -8 -9 -22 -32 -31 -51 -11 -23 -12 -29 -3 -18 8 10 17 15 20 12 4 -4
-3 -18 -14 -32 -15 -20 -17 -27 -7 -34 10 -6 8 -8 -4 -8 -10 0 -18 -5 -18 -11
0 -5 -4 -8 -9 -4 -14 8 -21 -8 -11 -24 4 -8 13 -10 19 -7 6 4 9 11 6 16 -3 5
-1 11 4 14 5 4 13 -3 16 -15 4 -11 12 -18 19 -16 9 4 11 -4 8 -25 -4 -23 -2
-29 8 -23 9 5 11 4 6 -3 -4 -7 -2 -12 3 -12 6 0 11 -8 11 -17 -1 -16 -2 -16
-16 2 -8 11 -21 20 -29 20 -7 0 -22 10 -33 23 -19 22 -20 22 -25 2 -3 -13 -1
-18 6 -13 7 4 8 0 4 -11 -5 -13 -3 -17 6 -13 10 4 14 -4 14 -24 0 -16 -4 -29
-9 -29 -5 0 -4 -9 2 -19 11 -22 0 -34 -24 -25 -9 3 -16 1 -16 -5 0 -6 5 -11
11 -11 5 0 8 -4 4 -10 -3 -5 -13 -6 -23 -3 -15 5 -15 4 -2 -8 9 -8 23 -23 30
-34 14 -18 14 -19 -2 -7 -10 8 -23 10 -30 6 -8 -5 -8 -1 2 11 14 17 13 18 -12
11 -26 -6 -28 -4 -28 24 0 16 -5 30 -12 30 -6 0 -2 9 10 20 24 23 29 50 10 50
-10 0 -9 3 1 9 9 6 10 11 2 15 -6 4 -16 4 -23 0 -7 -5 -8 -3 -3 6 6 9 4 12 -7
8 -20 -8 -17 50 3 63 10 6 11 11 2 20 -6 6 -9 17 -6 24 2 8 -5 16 -18 20 -13
4 -29 13 -36 20 -10 11 -9 15 5 21 9 4 21 6 25 5 5 -1 6 8 2 19 -7 21 10 28
19 8 3 -7 3 -1 0 14 -6 28 -3 30 66 41 57 9 80 7 80 -8z m-103 -432 c-3 -5 4
-17 14 -27 19 -19 19 -19 19 0 1 18 1 18 11 1 8 -14 14 -16 25 -7 11 10 16 7
25 -13 8 -17 17 -23 27 -20 10 4 13 2 8 -5 -3 -6 2 -13 13 -17 22 -7 35 -55
15 -55 -19 0 -18 -30 2 -58 12 -18 12 -22 2 -22 -8 0 -20 6 -27 13 -11 10 -14
10 -18 0 -3 -7 -11 -13 -18 -13 -15 0 -45 -27 -45 -41 0 -5 7 -9 16 -9 14 0
14 -2 3 -16 -12 -14 -14 -13 -21 6 -5 15 -3 33 6 51 10 20 11 29 2 34 -8 3 -8
7 2 11 15 7 16 34 1 34 -5 0 -7 5 -4 10 10 15 41 12 56 -6 12 -15 11 -16 -10
-9 -15 4 -21 3 -17 -3 8 -14 46 -22 46 -10 0 8 -27 74 -36 86 -1 2 -14 0 -29
-4 -20 -5 -23 -9 -13 -15 7 -5 8 -9 2 -9 -19 0 -65 42 -60 55 2 7 0 17 -6 23
-10 10 -5 42 7 42 4 0 4 -3 2 -7z"/>
<path d="M3037 1421 c-22 -8 -21 -14 4 -63 18 -35 17 -42 -3 -39 -5 0 -8 -7
-8 -17 0 -12 -8 -18 -25 -20 -16 -1 -25 3 -25 13 0 8 -5 15 -11 15 -5 0 -7 -4
-4 -10 6 -11 2 -12 -56 -15 -46 -2 -59 -11 -59 -40 0 -23 3 -24 48 -20 86 9
207 16 240 15 26 0 32 3 32 20 0 11 -6 20 -14 20 -19 0 -46 39 -46 66 0 11
-11 33 -24 47 -13 14 -21 28 -18 31 7 8 -9 6 -31 -3z"/>
</g>
</svg>
