<?xml version="1.0" standalone="no"?>
<!DOCTYPE svg PUBLIC "-//W3C//DTD SVG 20010904//EN"
 "http://www.w3.org/TR/2001/REC-SVG-20010904/DTD/svg10.dtd">
<svg version="1.0" xmlns="http://www.w3.org/2000/svg"
 width="435.000000pt" height="320.000000pt" viewBox="0 0 435.000000 320.000000"
 preserveAspectRatio="xMidYMid meet">
<metadata>
Created by potrace 1.11, written by Peter Selinger 2001-2013
</metadata>
<g transform="translate(0.000000,320.000000) scale(0.100000,-0.100000)"
fill="#000000" stroke="none">
<path d="M2000 3130 c0 -13 -7 -20 -20 -20 -11 0 -20 -4 -20 -9 0 -4 -28 -9
-62 -9 -35 -1 -64 -6 -66 -11 -6 -19 -29 -12 -38 12 -6 17 -8 9 -11 -33 -4
-47 -9 -59 -36 -82 -18 -16 -37 -28 -43 -28 -7 0 -14 -7 -18 -15 -3 -9 -18
-15 -38 -15 l-33 0 0 -78 c0 -60 -5 -87 -23 -123 -12 -25 -20 -54 -16 -63 3
-9 0 -18 -7 -21 -11 -4 -13 -26 -11 -95 3 -66 0 -90 -9 -90 -9 0 -10 -27 -5
-112 4 -61 10 -116 15 -122 4 -6 13 -26 19 -43 12 -35 6 -39 -33 -24 -11 5
-25 4 -32 -1 -15 -12 -17 -82 -3 -108 5 -10 13 -50 16 -89 7 -77 26 -105 80
-120 28 -7 30 -11 43 -96 l14 -88 -49 -46 c-27 -25 -61 -56 -74 -68 -21 -18
-58 -61 -79 -90 -15 -21 -65 -53 -83 -53 -11 0 -34 -11 -50 -26 -20 -16 -37
-23 -47 -18 -9 4 -42 8 -73 10 -51 2 -58 0 -58 -17 0 -10 -6 -19 -13 -19 -8 0
-19 -12 -26 -26 -11 -25 -15 -26 -61 -22 -27 3 -51 1 -52 -3 -2 -4 -24 -9 -50
-10 -27 -2 -48 -5 -48 -9 0 -3 -16 -12 -36 -19 -30 -11 -38 -11 -45 0 -7 11
-12 9 -24 -8 -8 -12 -22 -29 -30 -37 -8 -8 -15 -20 -15 -26 0 -16 -31 -71 -51
-90 -8 -8 -18 -23 -22 -32 -3 -10 -12 -18 -19 -18 -20 -1 -58 -36 -58 -54 0
-9 -3 -16 -7 -16 -5 0 -19 -18 -33 -40 -13 -22 -30 -40 -36 -40 -7 0 -14 -12
-16 -26 -2 -19 -14 -33 -38 -45 -19 -11 -28 -19 -21 -19 8 0 11 -3 8 -6 -4 -4
-17 0 -31 9 -24 16 -24 16 -31 -28 -3 -25 -10 -47 -16 -50 -5 -4 -9 -19 -9
-35 0 -35 -39 -80 -69 -80 -16 0 -21 -6 -21 -25 0 -19 -7 -26 -27 -31 -35 -9
-50 -29 -58 -76 -4 -21 -20 -52 -36 -69 -16 -17 -29 -34 -29 -37 0 -3 -18 -27
-39 -52 -27 -31 -36 -51 -30 -57 15 -15 20 -73 7 -73 -6 0 -9 -3 -5 -6 3 -3
15 1 27 9 32 22 69 11 170 -52 30 -19 81 -54 112 -78 l56 -43 1701 0 c1479 0
1701 2 1701 14 0 19 120 141 190 194 64 48 100 63 129 55 12 -3 21 -1 21 5 0
17 -80 130 -110 156 -19 15 -33 40 -39 66 -10 45 -21 64 -21 37 0 -21 -29 -22
-36 -2 -4 8 -15 15 -26 15 -12 0 -23 11 -29 30 -6 17 -15 30 -20 30 -5 0 -9
11 -9 25 0 24 -34 62 -398 437 -35 37 -92 86 -125 110 -34 24 -80 61 -102 82
-36 35 -52 42 -155 68 -63 15 -136 37 -162 49 -45 21 -52 22 -117 9 l-70 -13
-88 87 c-99 99 -104 116 -54 191 45 66 46 68 23 56 -11 -6 -23 -20 -27 -30 -8
-27 -69 -63 -97 -59 -21 3 -23 8 -19 48 2 25 10 58 18 73 11 23 12 38 4 79
-13 59 -9 68 30 68 41 0 106 66 114 117 13 78 17 93 25 93 14 0 18 -37 7 -89
-12 -63 -2 -80 40 -65 40 13 42 49 6 86 l-28 30 24 19 c23 19 24 19 48 -6 28
-27 43 -25 43 7 0 49 -47 67 -77 30 -18 -22 -43 -8 -36 20 3 13 9 28 13 33 25
35 42 369 25 495 -10 79 -11 83 -26 94 -8 6 -15 26 -16 45 -1 25 -11 43 -42
71 -23 21 -41 46 -41 55 0 11 -6 15 -19 10 -13 -4 -27 4 -46 27 -37 44 -106
89 -127 82 -9 -3 -25 -1 -35 5 -10 5 -39 19 -65 31 -27 12 -48 26 -48 31 0 5
-9 9 -20 9 -11 0 -20 5 -20 10 0 6 -11 10 -24 10 -14 0 -28 5 -31 10 -10 17
-54 11 -67 -9 -13 -21 -38 -17 -38 5 0 10 -12 14 -40 14 -33 0 -40 -3 -40 -20z
m462 -612 c4 -10 104 -13 133 -3 21 6 37 -13 48 -60 3 -11 8 -29 13 -39 6 -15
4 -18 -9 -13 -25 10 -26 -21 -1 -93 21 -62 25 -78 39 -162 7 -46 -10 -51 -28
-10 -22 53 -81 111 -118 118 -29 4 -31 4 -15 -7 25 -15 5 -27 -36 -21 -31 5
-32 5 -9 14 70 25 -60 39 -230 25 -70 -6 -204 23 -231 50 -16 17 -18 25 -9 63
11 49 47 86 68 69 15 -13 53 6 53 25 0 7 10 13 23 12 12 -1 22 -7 22 -16 0
-11 10 -14 45 -11 25 2 56 4 69 5 14 1 27 9 31 21 7 19 7 19 19 -3 6 -12 16
-22 22 -22 6 0 8 4 5 9 -3 5 1 11 9 15 8 3 15 14 15 25 0 11 10 27 22 36 21
14 24 14 35 -1 7 -9 14 -21 15 -26z m-227 -377 c-3 -5 -1 -12 4 -15 5 -4 9
-19 9 -35 -1 -30 46 -113 82 -146 43 -39 13 -85 -40 -62 -26 12 -113 29 -160
33 -25 1 -48 3 -52 3 -19 2 -5 34 23 58 35 29 81 97 78 116 -3 27 2 38 24 47
29 12 39 12 32 1z m13 -448 c9 -10 32 -19 50 -20 50 -3 93 -32 86 -59 -3 -12
-1 -25 5 -28 6 -4 11 -14 11 -23 0 -9 7 -24 16 -34 19 -21 9 -45 -35 -82 -40
-34 -107 -43 -160 -21 -57 22 -55 47 7 78 47 24 75 48 84 76 5 13 -8 16 -71
18 -42 1 -83 5 -93 8 -21 6 -32 34 -15 38 6 2 21 7 32 12 11 4 24 6 29 5 5 -1
6 5 3 12 -5 15 10 37 25 37 4 0 16 -8 26 -17z m252 -321 c0 -10 3 -22 7 -26
16 -16 14 -167 -2 -216 -15 -45 -18 -48 -36 -37 -10 6 -19 21 -19 32 0 16 -2
17 -10 5 -7 -12 -12 -11 -30 5 -17 16 -20 26 -15 55 4 19 12 44 18 55 6 11 12
26 13 34 5 26 26 71 35 71 4 0 11 9 14 20 8 25 25 26 25 2z m-107 -472 c-15
-28 -45 -71 -65 -96 -40 -48 -132 -198 -148 -239 -5 -14 -14 -25 -19 -25 -11
0 -61 80 -61 96 0 5 54 65 120 134 66 68 120 128 120 133 0 4 4 6 9 3 5 -3 11
1 15 9 3 8 12 15 21 15 8 0 15 5 15 10 0 6 5 10 11 10 5 0 -2 -23 -18 -50z
m425 -446 c4 -99 -15 -119 -109 -115 -29 1 -51 28 -62 73 -6 22 -3 27 15 31
20 4 19 4 -4 6 -25 1 -28 5 -28 35 0 34 1 35 43 38 23 2 65 3 92 3 l50 0 3
-71z"/>
</g>
</svg>
