<?xml version="1.0" standalone="no"?>
<!DOCTYPE svg PUBLIC "-//W3C//DTD SVG 20010904//EN"
 "http://www.w3.org/TR/2001/REC-SVG-20010904/DTD/svg10.dtd">
<svg version="1.0" xmlns="http://www.w3.org/2000/svg"
 width="1523.000000pt" height="1352.000000pt" viewBox="0 0 1523.000000 1352.000000"
 preserveAspectRatio="xMidYMid meet">
<metadata>
Created by potrace 1.11, written by Peter Selinger 2001-2013
</metadata>
<g transform="translate(0.000000,1352.000000) scale(0.100000,-0.100000)"
fill="#000000" stroke="none">
<path d="M5902 13248 c-13 -15 -32 -28 -43 -28 -11 0 -22 -6 -24 -12 -7 -18
-108 -17 -129 1 -27 23 -176 0 -296 -46 -8 -3 -19 -7 -25 -8 -5 -1 -13 -3 -17
-5 -5 -1 -11 -3 -15 -5 -5 -1 -19 -5 -33 -9 -33 -9 -95 -100 -96 -140 -1 -45
-14 -79 -35 -94 -11 -7 -19 -24 -19 -36 0 -27 -28 -42 -44 -26 -8 8 -6 15 7
25 10 7 17 22 15 32 -3 14 -9 10 -29 -20 -14 -20 -50 -54 -80 -75 -71 -49 -89
-56 -91 -34 0 9 -2 24 -3 32 0 8 7 27 17 42 10 14 18 31 18 37 0 19 -17 12
-34 -14 -9 -14 -21 -23 -26 -20 -5 3 -27 -22 -50 -55 -42 -61 -49 -67 -65 -51
-15 15 -39 -9 -69 -67 -32 -63 -59 -70 -76 -17 -6 19 -15 37 -20 40 -9 6 -100
-127 -108 -160 -16 -60 -61 -103 -117 -112 -19 -3 -35 -10 -35 -15 0 -6 -10
-8 -23 -4 -12 3 -33 3 -46 -1 -22 -6 -22 -6 9 -19 18 -8 44 -14 57 -14 19 0
24 -4 19 -16 -3 -9 -6 -18 -6 -20 0 -2 -4 -4 -9 -4 -6 0 -38 -13 -73 -29 -36
-17 -67 -26 -73 -21 -5 4 -30 4 -55 -2 -25 -5 -73 -10 -107 -12 -34 -1 -68 -8
-76 -15 -9 -7 -26 -9 -40 -6 -41 11 -67 -3 -67 -33 0 -27 1 -27 60 -24 45 3
60 0 60 -10 0 -7 10 -18 23 -23 14 -7 23 -20 25 -40 2 -16 10 -38 19 -47 31
-35 -28 -117 -87 -121 -19 -2 -50 -9 -67 -17 -29 -13 -33 -20 -33 -54 l0 -39
52 7 c48 7 53 5 80 -24 15 -17 28 -35 28 -39 0 -5 7 -14 15 -21 10 -8 13 -26
10 -58 -7 -89 -25 -174 -42 -203 -15 -25 -24 -29 -59 -29 -39 0 -42 -2 -48
-32 -8 -39 -8 -43 -2 -131 5 -71 16 -105 16 -49 0 22 5 32 15 32 8 0 15 -9 15
-19 0 -11 5 -23 10 -26 14 -9 2 -71 -23 -112 -15 -26 -18 -44 -14 -77 6 -41 4
-46 -37 -87 -23 -24 -48 -53 -53 -64 -6 -11 -14 -80 -18 -154 -4 -74 -13 -169
-19 -210 -9 -60 -9 -81 0 -101 22 -45 53 -251 47 -314 -3 -32 -1 -81 5 -110 6
-28 16 -82 23 -121 6 -38 20 -104 31 -145 23 -93 51 -591 46 -817 -4 -151 -4
-153 17 -153 26 0 45 -36 45 -85 0 -24 6 -38 19 -45 11 -5 23 -24 26 -42 4
-18 10 -35 14 -38 12 -9 31 -50 31 -65 0 -8 7 -15 15 -15 8 0 19 -17 26 -42 6
-24 14 -47 19 -53 4 -5 10 -22 14 -37 3 -16 13 -28 21 -28 8 0 15 -7 15 -16 0
-8 11 -30 25 -48 14 -18 25 -38 25 -44 0 -7 4 -12 9 -12 5 0 16 -15 24 -33 22
-47 51 -77 73 -77 11 0 37 -9 58 -21 35 -18 45 -19 101 -10 34 6 68 11 77 11
18 0 68 -99 68 -135 0 -23 16 -63 31 -75 3 -3 13 -18 22 -35 8 -16 27 -41 41
-54 15 -14 26 -35 26 -51 0 -14 8 -35 18 -46 24 -28 40 -53 58 -92 8 -18 21
-35 29 -39 8 -3 15 -11 15 -18 0 -6 26 -41 58 -76 32 -35 68 -80 80 -100 12
-19 50 -60 84 -89 79 -68 238 -227 238 -238 0 -5 -10 -14 -22 -20 -23 -10 -23
-11 5 -11 26 -1 36 -14 18 -25 -4 -3 -7 -22 -5 -42 3 -43 -13 -33 -18 11 -2
16 -11 38 -21 48 -10 10 -16 25 -13 34 5 13 -2 14 -51 8 -80 -9 -102 -22 -137
-80 -24 -39 -31 -63 -33 -110 -1 -33 -7 -61 -13 -63 -5 -2 -10 -12 -10 -23 0
-10 -6 -19 -14 -19 -8 0 -17 -8 -20 -17 -2 -10 -7 -29 -11 -41 -6 -20 -4 -23
17 -22 57 5 55 -4 -12 -50 -21 -15 -52 -62 -56 -88 -1 -6 -14 -26 -28 -43 -14
-17 -26 -42 -26 -55 0 -23 2 -24 22 -13 20 11 20 8 -7 -27 l-30 -39 1 -152 c1
-151 15 -231 49 -288 7 -11 15 -52 18 -92 3 -54 11 -83 32 -120 16 -26 32 -51
37 -54 5 -3 1 -33 -7 -67 -9 -34 -15 -79 -13 -100 3 -37 3 -37 46 -35 23 1 54
8 69 15 52 26 88 148 54 185 -10 10 -16 23 -14 29 7 20 -50 24 -63 6 -7 -10
-16 -13 -21 -9 -4 5 3 19 18 30 14 12 34 42 44 67 11 25 22 47 25 50 25 24 54
120 31 106 -5 -3 -13 0 -19 7 -7 9 -3 28 15 67 34 72 40 138 19 193 -11 30
-15 64 -12 110 4 76 -12 143 -38 163 -17 12 -17 14 -2 29 9 9 16 25 16 36 0
22 11 24 28 7 8 -8 12 -45 12 -99 0 -72 4 -94 22 -125 18 -30 22 -54 23 -123
2 -97 10 -131 31 -131 11 0 10 -7 -7 -29 -35 -47 -31 -171 5 -171 30 0 27 -21
-8 -55 -30 -29 -36 -41 -36 -78 0 -24 7 -64 16 -90 17 -51 39 -60 69 -31 31
31 27 5 -4 -28 -27 -29 -31 -39 -30 -85 2 -60 43 -159 54 -130 4 9 12 17 17
17 6 0 24 14 40 30 28 30 58 40 58 19 0 -7 -15 -26 -32 -44 -43 -43 -58 -62
-58 -74 0 -5 -5 -11 -12 -13 -13 -5 -29 -138 -21 -180 5 -24 8 -26 25 -17 11
6 22 8 25 6 3 -3 -9 -12 -25 -21 -31 -16 -72 -72 -72 -98 0 -8 -5 -19 -12 -26
-10 -10 -15 -7 -25 10 -7 13 -12 17 -13 11 0 -14 -60 -18 -60 -5 0 5 13 21 30
37 39 37 73 126 61 158 -12 32 -35 49 -63 45 -33 -4 -36 15 -4 30 15 7 28 25
32 40 3 15 10 40 15 56 7 23 4 38 -13 73 -20 39 -25 43 -48 38 -48 -12 -171
-76 -177 -92 -8 -20 12 -152 26 -166 6 -6 24 -3 52 11 23 12 47 18 52 15 10
-6 -74 -93 -84 -87 -10 6 -15 -17 -13 -56 1 -19 3 -50 3 -69 1 -24 5 -32 15
-28 8 3 19 0 25 -7 8 -9 3 -18 -19 -34 -52 -39 -63 -145 -24 -227 12 -27 14
-50 9 -108 -9 -90 -19 -111 -41 -82 -10 13 -13 31 -9 53 3 18 4 36 1 41 -5 8
-74 -2 -129 -19 -21 -6 -27 -5 -24 3 2 7 19 13 38 15 48 5 66 25 74 87 8 68
-11 110 -55 120 -35 8 -35 25 -2 40 12 5 22 15 22 22 0 7 4 13 8 13 16 0 35
77 28 115 l-7 37 -52 -5 c-70 -7 -164 -30 -177 -43 -14 -14 -9 -170 5 -168
104 14 127 15 123 4 -2 -7 -32 -21 -66 -32 -35 -10 -66 -26 -69 -34 -5 -13 7
-115 22 -189 5 -22 1 -37 -14 -56 -19 -24 -24 -26 -63 -18 -49 9 -79 3 -125
-22 -35 -20 -48 -12 -38 21 4 11 15 20 26 20 11 0 42 7 70 16 44 15 50 20 59
55 9 32 7 45 -11 83 -21 45 -49 78 -49 58 0 -5 -12 -13 -27 -17 -16 -3 -35
-13 -45 -22 -14 -13 -17 -12 -23 6 -3 12 -4 25 0 31 7 12 75 31 87 24 4 -3 8
-2 9 3 1 4 3 31 5 58 2 28 9 64 14 80 9 26 8 32 -10 47 -20 16 -23 16 -67 -3
-52 -22 -69 -15 -59 25 6 26 19 30 89 29 11 0 20 13 27 36 13 47 13 151 0 151
-18 0 -10 40 16 82 24 38 26 45 14 73 -7 16 -12 43 -11 58 1 16 -8 40 -19 54
-15 20 -17 29 -9 45 14 27 6 123 -14 169 -23 51 -54 57 -113 23 -30 -18 -51
-39 -61 -61 -9 -23 -25 -39 -48 -48 -40 -17 -50 -49 -40 -134 8 -72 16 -86 41
-73 11 6 34 15 52 21 25 8 32 7 32 -4 0 -18 -53 -55 -79 -55 -32 0 -41 -35
-30 -131 10 -98 10 -91 3 -150 -3 -25 0 -72 6 -105 7 -32 12 -66 11 -74 0 -8
-3 -113 -6 -233 -4 -201 -4 -218 13 -223 46 -15 47 -16 14 -31 l-34 -14 6
-112 c3 -62 8 -168 10 -236 4 -92 10 -130 22 -149 12 -18 18 -53 21 -111 2
-47 9 -113 16 -146 10 -49 10 -69 -1 -110 -7 -27 -14 -81 -14 -120 0 -38 -1
-88 -1 -110 -3 -167 4 -322 22 -505 5 -52 9 -108 8 -125 -2 -61 15 -180 29
-212 9 -17 13 -40 10 -51 -10 -30 12 -202 28 -228 10 -14 15 -43 15 -76 -2
-69 11 -186 23 -218 9 -23 10 -100 3 -210 -2 -27 2 -54 11 -67 13 -20 12 -28
-1 -60 -24 -57 -31 -192 -12 -228 13 -27 13 -37 -3 -100 -12 -45 -17 -93 -14
-135 2 -36 4 -108 4 -160 -1 -52 4 -117 10 -145 6 -27 12 -104 14 -170 2 -73
10 -138 19 -165 18 -53 23 -190 7 -174 -6 6 -13 28 -16 50 -3 21 -9 48 -14 59
-5 11 -11 58 -14 105 -7 107 -19 179 -34 207 -7 12 -8 24 -3 27 17 11 19 61 5
154 -16 106 -18 112 -41 112 -14 0 -13 3 4 19 17 16 21 38 29 157 5 77 8 193
7 259 -2 100 -5 121 -17 123 -23 5 -19 26 7 37 20 9 23 19 29 105 5 80 3 101
-11 130 -12 22 -15 42 -10 55 15 39 9 133 -13 201 -12 38 -21 73 -19 78 10 42
-13 211 -34 243 -10 15 -13 36 -9 65 3 24 -2 86 -11 138 -9 52 -18 154 -19
225 -2 97 -7 138 -19 162 -13 25 -14 37 -6 62 6 18 9 55 5 84 -3 29 -6 71 -6
94 0 25 -7 48 -16 58 -13 12 -14 21 -6 43 6 15 13 64 15 109 5 77 3 84 -20
109 -19 21 -22 29 -11 35 7 5 15 9 18 9 3 0 14 14 24 31 15 26 17 43 12 96 -4
35 -14 82 -22 104 -9 21 -14 46 -11 54 4 8 0 36 -8 62 -7 26 -17 69 -20 95 -8
51 -15 61 -58 74 l-27 9 27 31 c60 65 25 234 -48 234 -31 0 -30 18 1 42 55 43
74 155 33 200 -16 18 -25 20 -93 13 -41 -4 -92 -7 -112 -7 -27 -1 -39 -6 -43
-19 -7 -21 14 -212 25 -230 6 -9 19 -9 59 1 28 6 56 10 63 8 20 -7 -47 -38
-81 -38 -21 0 -32 -6 -36 -20 -9 -30 5 -169 21 -209 11 -27 12 -45 2 -97 -8
-46 -8 -70 -1 -86 30 -63 36 -268 14 -488 -9 -90 -8 -97 17 -147 13 -27 14
-39 3 -85 -8 -33 -11 -85 -7 -138 3 -47 5 -96 4 -110 -5 -85 1 -211 12 -244 7
-21 14 -84 16 -140 1 -56 8 -117 14 -136 6 -19 14 -69 16 -110 7 -122 10 -135
32 -181 25 -51 30 -132 9 -123 -18 6 -39 68 -36 102 2 15 0 32 -3 38 -4 6 -12
41 -18 79 -6 37 -17 79 -24 94 -8 16 -14 64 -14 121 -1 52 -8 121 -17 153 -10
40 -12 69 -7 95 9 38 8 52 -8 157 -7 42 -15 64 -30 74 -20 13 -20 15 -3 33 27
30 32 221 7 249 -9 10 -12 19 -6 19 20 0 35 80 23 120 -5 19 -13 51 -16 71 -3
21 -14 48 -25 61 -18 23 -24 68 -9 68 12 0 39 86 39 127 0 30 -7 50 -27 73
-26 31 -26 33 -10 64 25 48 32 129 13 145 -9 8 -16 18 -16 23 0 13 -39 46 -70
60 -23 10 -23 11 -5 16 11 2 31 14 44 25 21 20 23 28 18 90 -6 67 -17 96 -52
131 -16 16 -16 20 5 60 21 39 22 48 12 113 -11 75 -25 98 -77 122 l-30 14 29
12 c30 13 55 47 56 77 0 9 -5 40 -11 69 -12 54 -56 109 -89 109 -11 1 -9 4 5
12 11 6 26 18 33 26 16 21 16 117 0 129 -7 6 -38 11 -68 12 -30 0 -82 4 -116
7 -71 7 -75 2 -66 -84 4 -50 16 -64 57 -67 6 -1 25 -9 44 -19 l35 -18 -35 -15
c-19 -9 -47 -18 -64 -22 -30 -7 -30 -8 -29 -68 3 -126 20 -153 94 -153 17 0
30 -4 30 -10 0 -11 -63 -24 -89 -17 -15 4 -20 -2 -24 -32 -7 -44 0 -145 14
-188 6 -18 12 -76 14 -130 1 -54 10 -118 18 -143 8 -25 17 -90 20 -145 3 -55
12 -118 20 -140 9 -24 15 -86 16 -159 1 -65 5 -124 8 -130 7 -10 10 -70 16
-311 1 -33 -2 -104 -6 -157 -6 -67 -5 -103 3 -117 11 -22 4 -91 -10 -91 -19 0
-30 60 -30 161 0 81 -4 118 -16 141 -15 29 -15 33 5 68 39 71 23 215 -26 235
-17 6 -17 7 -1 19 23 17 25 47 9 154 -10 69 -19 96 -33 106 -17 12 -17 15 -3
42 29 55 9 187 -36 235 -34 36 -34 37 -13 60 42 46 0 239 -52 239 -20 0 -17
11 11 44 29 34 31 69 10 141 -19 63 -61 108 -92 100 -13 -3 -23 -1 -23 5 0 5
5 10 10 10 6 0 22 11 35 25 32 31 33 83 4 143 -17 34 -31 48 -67 63 -42 18
-44 20 -28 38 19 21 20 57 3 90 -14 28 -101 65 -134 56 -21 -5 -23 -11 -23
-63 0 -66 5 -77 43 -91 15 -6 27 -15 27 -21 0 -10 -6 -12 -40 -14 -11 -1 -16
-17 -18 -66 -4 -89 15 -361 28 -396 6 -15 15 -61 20 -101 5 -41 21 -120 34
-176 13 -56 27 -145 31 -197 8 -105 7 -685 -2 -850 -4 -84 -2 -114 11 -144 18
-43 22 -131 6 -141 -6 -3 -10 2 -10 13 0 10 -6 32 -14 48 -8 18 -16 81 -20
162 -3 72 -10 141 -16 153 -9 15 -8 31 4 66 18 53 21 149 6 189 -6 15 -20 35
-30 44 -20 17 -20 18 5 54 21 31 25 48 25 111 0 68 -2 77 -30 108 -36 42 -37
57 -5 87 22 21 24 28 19 84 -8 93 -11 101 -50 140 l-36 36 25 33 c20 26 22 36
14 57 -5 14 -12 34 -14 44 -4 21 -48 84 -73 103 -35 28 -103 5 -151 -52 -19
-22 -22 -19 -33 40 -14 68 -18 82 -37 122 -21 44 -55 61 -89 43 -24 -13 -50
-13 -50 0 0 6 9 10 20 10 11 0 23 7 26 15 4 8 12 15 19 15 17 0 24 67 10 87
-14 18 -71 27 -80 13 -10 -16 -43 -12 -54 7 -8 14 -12 15 -25 4 -9 -7 -14 -17
-11 -21 3 -4 -5 -15 -18 -23 -19 -12 -26 -13 -41 -1 -11 7 -23 11 -27 8 -14
-9 -9 -106 7 -149 9 -22 20 -67 24 -101 10 -67 41 -153 71 -195 10 -15 19 -35
19 -45 0 -31 42 -138 75 -189 17 -28 34 -67 38 -87 5 -34 24 -86 48 -130 5
-10 9 -24 9 -32 0 -8 12 -29 26 -46 20 -23 27 -44 29 -79 l2 -49 -30 35 c-24
27 -30 43 -29 69 2 19 -4 47 -12 62 -8 15 -25 49 -36 76 -12 27 -33 59 -46 71
-16 15 -26 37 -30 69 -7 66 -74 200 -100 204 -16 2 -20 9 -17 26 6 28 -44 195
-63 216 -12 12 -21 12 -59 2 -58 -15 -65 -15 -65 2 0 7 14 19 30 26 17 7 30
16 30 21 0 5 6 9 13 9 8 0 13 18 15 54 2 51 0 55 -30 74 -18 11 -37 18 -43 14
-17 -11 -79 -11 -93 1 -9 7 -11 6 -7 -6 4 -10 -6 -27 -29 -48 -20 -18 -36 -42
-36 -53 0 -12 12 -55 26 -96 14 -41 29 -98 34 -127 4 -28 22 -93 38 -145 17
-51 38 -122 48 -158 10 -36 30 -93 46 -127 15 -34 28 -75 28 -90 0 -15 4 -45
9 -66 11 -48 -3 -48 -25 1 -10 20 -23 44 -31 53 -7 9 -16 34 -18 55 -12 105
-18 132 -37 171 -11 24 -24 45 -29 49 -5 3 -9 17 -9 31 0 14 -12 63 -26 108
-28 91 -38 100 -90 78 -17 -7 -35 -9 -38 -5 -4 3 -11 1 -15 -7 -7 -10 -9 -9
-14 3 -6 16 35 56 59 56 8 0 12 14 11 45 -1 28 -7 45 -14 45 -7 0 -13 8 -13
19 0 24 -31 32 -56 14 -17 -13 -19 -12 -24 14 -4 20 -11 28 -27 28 -12 0 -25
3 -29 8 -4 4 3 7 15 7 22 0 43 34 34 58 -10 25 -43 10 -92 -44 -28 -30 -51
-60 -51 -65 0 -5 -9 -9 -21 -9 -15 0 -19 4 -14 19 3 11 1 22 -5 26 -6 3 -10
-3 -10 -14 0 -12 -4 -21 -10 -21 -5 0 -10 -6 -10 -14 0 -17 -50 -96 -61 -96
-5 0 -12 8 -17 17 -9 15 -13 14 -40 -8 -16 -13 -40 -46 -52 -74 -12 -27 -42
-93 -66 -145 -24 -52 -50 -126 -59 -165 -18 -86 -48 -177 -58 -176 -22 2 -26
-2 -32 -29 -4 -16 -11 -32 -16 -35 -5 -4 -9 -23 -9 -43 0 -27 -9 -46 -30 -71
-18 -21 -30 -45 -30 -62 0 -16 -4 -29 -10 -29 -15 0 -30 -70 -24 -114 4 -27 0
-51 -10 -71 -10 -20 -16 -24 -16 -12 0 31 -19 18 -29 -20 -18 -73 -24 -126
-12 -119 6 4 11 18 11 32 0 13 5 24 10 24 6 0 10 -21 10 -48 0 -26 4 -62 9
-80 8 -27 7 -34 -7 -39 -9 -4 -29 -20 -44 -36 -34 -37 -37 -94 -9 -153 17 -34
18 -46 8 -84 -6 -25 -15 -47 -19 -50 -4 -3 -2 -25 4 -49 8 -33 8 -45 -2 -51
-9 -6 -10 -8 0 -12 23 -7 36 -70 27 -136 -5 -37 -13 -60 -19 -56 -5 3 -8 15
-5 25 3 11 1 19 -3 19 -5 0 -11 17 -13 37 -2 21 -3 -32 -1 -118 3 -165 9 -213
27 -202 6 4 8 -2 5 -15 -4 -12 -2 -25 3 -28 5 -3 9 -13 9 -22 0 -9 17 -50 37
-90 34 -68 36 -75 20 -87 -18 -13 -24 -31 -7 -20 6 3 10 -3 10 -14 0 -12 -4
-21 -10 -21 -15 0 -12 -41 5 -74 17 -32 20 -82 6 -91 -5 -3 -16 2 -24 10 -21
20 -21 20 -51 -25 -21 -33 -26 -51 -26 -105 0 -58 -4 -72 -35 -121 -37 -58
-43 -80 -22 -87 9 -3 9 -9 0 -26 -7 -11 -13 -27 -13 -34 0 -7 -10 -24 -23 -37
l-23 -25 24 -12 c13 -7 32 -13 42 -13 45 0 66 -23 30 -33 -11 -3 -20 -10 -20
-16 0 -6 9 -20 20 -31 l20 -20 -49 0 c-46 0 -50 -2 -66 -36 -19 -41 -32 -40
-56 6 -34 63 -51 67 -23 5 16 -33 42 -114 60 -180 18 -66 33 -108 33 -93 1 15
-3 37 -8 51 -10 27 1 53 18 43 6 -4 11 -2 11 3 0 6 8 11 18 11 23 0 50 31 81
93 13 26 29 47 35 47 6 0 0 9 -13 19 -29 22 -21 47 10 30 12 -6 23 -8 26 -5 8
8 63 -23 63 -35 0 -5 -15 -16 -33 -24 -23 -9 -43 -32 -70 -76 -20 -35 -37 -72
-37 -82 0 -10 -16 -39 -35 -64 -19 -25 -35 -53 -35 -63 0 -9 -3 -19 -6 -23 -4
-3 -8 -50 -9 -104 -2 -101 -18 -175 -42 -194 -8 -7 -13 -34 -13 -71 0 -50 -3
-59 -15 -54 -8 3 -21 9 -29 12 -16 6 -79 -57 -100 -101 -8 -16 -20 -42 -26
-57 -22 -46 -60 -48 -60 -3 0 23 -2 24 -27 13 -38 -16 -60 -36 -66 -59 -5 -19
16 -19 1470 -19 1401 0 1475 1 1467 18 -4 9 -7 26 -6 37 21 279 26 316 41 299
5 -5 3 -53 -4 -109 -8 -55 -11 -113 -8 -130 3 -16 6 -49 7 -72 l1 -43 83 0
c74 0 99 8 72 25 -11 7 -14 58 -3 68 11 12 32 -27 33 -60 l0 -33 120 0 120 0
-11 28 c-13 33 -16 202 -3 190 6 -7 23 -98 31 -171 l5 -47 419 0 420 0 -7 38
c-3 20 -15 50 -26 65 -19 27 -19 29 -2 48 14 16 16 33 11 117 -3 64 -11 111
-22 131 -15 31 -15 34 0 52 15 16 16 32 10 116 -8 120 -13 143 -31 143 -19 0
-18 7 6 32 35 38 26 246 -13 270 -8 5 -6 13 8 28 23 26 29 162 9 231 -9 30
-11 55 -5 76 10 36 -2 215 -18 255 -6 18 -7 29 0 33 5 4 8 50 5 114 -4 107
-17 151 -43 151 -7 0 0 12 14 26 25 25 25 28 18 117 -7 89 -17 125 -39 139 -6
4 -3 14 9 28 17 19 20 37 20 125 0 89 -3 106 -20 125 -19 21 -19 22 -2 35 26
18 27 177 2 230 -17 34 -17 39 -2 64 20 34 17 166 -4 225 -11 29 -11 41 -1 56
18 29 16 194 -3 230 -13 25 -13 32 0 64 19 45 20 182 2 216 -8 15 -11 34 -6
45 13 34 10 193 -5 228 -11 27 -11 40 1 80 7 26 17 47 21 47 15 0 31 -85 23
-122 -9 -38 -6 -101 8 -183 4 -27 6 -90 2 -140 -3 -49 -3 -112 1 -140 10 -63
10 -57 0 -144 -5 -43 -4 -98 1 -130 5 -31 8 -74 7 -96 -5 -68 -1 -259 14 -660
3 -77 5 -196 5 -266 -1 -89 3 -135 14 -160 10 -25 12 -41 5 -53 -6 -10 -8 -67
-5 -134 3 -64 8 -169 10 -232 14 -381 20 -476 27 -489 4 -8 3 -27 -2 -43 -5
-15 -8 -76 -5 -135 3 -60 7 -173 10 -253 10 -335 15 -427 25 -446 6 -11 7 -37
4 -59 -4 -22 -6 -52 -4 -67 l3 -28 176 0 175 0 -7 38 c-4 20 -9 91 -11 157 -4
135 -8 167 -24 209 -8 22 -8 37 1 58 8 19 10 57 6 112 -8 95 -21 142 -44 151
-14 5 -13 8 7 22 22 16 22 19 16 130 -4 62 -12 124 -18 138 -9 19 -8 31 2 50
17 31 7 195 -15 238 -14 27 -13 32 1 48 24 26 17 228 -9 253 -17 18 -17 19 0
38 27 30 26 200 -2 246 -19 31 -19 34 -2 43 27 15 25 180 -3 232 -18 33 -19
40 -6 65 19 38 7 225 -17 249 -15 15 -15 17 1 29 33 24 26 254 -9 254 -5 0 -2
14 7 32 23 45 17 227 -9 253 -17 17 -17 18 2 37 12 10 22 29 22 41 5 68 -4
166 -17 194 -13 26 -13 36 -3 55 14 26 14 194 -1 232 -5 14 -4 41 2 67 12 54
5 187 -11 218 -9 17 -9 30 -1 56 14 42 25 44 44 7 10 -19 11 -34 4 -52 -11
-29 -1 -206 13 -232 5 -10 6 -46 2 -85 -5 -37 -5 -104 -1 -148 4 -44 7 -86 7
-92 -2 -17 -1 -246 1 -280 1 -16 2 -77 2 -138 2 -346 7 -503 32 -1115 4 -80 7
-277 7 -439 0 -161 4 -301 8 -310 5 -9 6 -53 3 -96 -4 -44 -4 -109 0 -145 4
-36 9 -128 12 -205 2 -77 9 -212 16 -300 6 -88 11 -195 10 -238 l-1 -77 179 0
180 0 -8 36 c-5 20 -13 48 -20 63 -8 20 -8 35 0 57 l11 29 20 -25 c14 -18 18
-34 14 -57 -3 -18 -3 -49 1 -68 l6 -35 364 0 c405 0 376 -6 355 68 -11 36 -3
174 9 167 4 -3 10 -28 14 -57 9 -72 9 -76 1 -130 l-8 -48 223 0 222 0 -63 71
c-35 39 -73 76 -85 81 -28 13 -51 65 -37 79 13 13 53 -6 53 -25 0 -14 54 -88
105 -145 55 -61 55 -61 389 -61 l304 0 5 62 c3 35 6 75 7 91 2 25 3 246 1 300
0 12 2 62 5 110 4 67 1 101 -11 141 -16 50 -16 55 -1 79 11 15 15 34 11 50 -4
14 -2 27 3 31 5 3 15 -18 21 -47 15 -65 15 -58 1 -143 -9 -53 -9 -86 0 -135
13 -72 13 -63 4 -218 -4 -79 -3 -120 6 -135 11 -21 4 -66 -26 -168 -5 -17 7
-18 161 -18 l166 0 -2 90 c-1 50 -5 93 -10 96 -5 2 -4 17 2 31 14 37 21 192
11 239 -5 25 -4 51 4 74 l11 34 18 -34 c14 -27 15 -40 7 -69 -20 -70 -24 -174
-9 -218 12 -35 12 -45 1 -61 -7 -11 -14 -54 -16 -100 l-3 -82 156 0 c120 0
158 3 162 13 8 22 -2 161 -15 184 -8 17 -8 26 3 39 16 20 15 203 -3 247 -8 21
-8 34 1 51 18 32 10 235 -10 246 -12 8 -11 13 2 37 25 43 34 212 13 241 -11
16 -14 32 -9 50 13 47 5 223 -11 248 -13 19 -13 24 1 37 19 19 22 216 4 234
-9 9 -8 20 4 45 9 19 18 52 20 73 5 52 22 55 25 5 2 -23 7 -52 13 -66 6 -17 6
-39 -1 -64 -9 -34 -13 -184 -10 -414 0 -51 6 -86 15 -99 11 -16 12 -24 3 -35
-18 -21 -24 -501 -7 -533 7 -13 6 -33 -2 -62 -15 -55 -15 -189 0 -226 9 -21
10 -39 2 -67 -6 -22 -11 -72 -11 -111 l0 -73 181 0 182 0 -5 93 c-3 52 -10
102 -16 112 -8 14 -6 27 5 48 12 24 12 43 3 125 -7 53 -18 106 -25 117 -10 17
-9 25 7 50 22 37 25 176 4 226 -12 30 -12 37 5 68 10 20 19 44 19 54 0 10 5
15 10 12 6 -3 10 -16 10 -28 0 -13 7 -32 15 -45 13 -17 14 -26 4 -44 -15 -27
-15 -228 0 -256 7 -13 7 -22 -2 -31 -11 -11 -15 -200 -7 -266 2 -11 -1 -68 -5
-127 l-8 -108 182 0 181 0 0 83 c-1 45 -7 100 -15 121 -12 34 -12 42 1 60 16
24 18 101 3 201 -7 52 -7 76 2 92 9 17 10 52 2 140 -5 65 -6 126 -1 135 10 20
10 38 3 143 -3 44 -10 94 -16 112 -7 23 -7 38 2 54 14 26 6 189 -11 234 -7 20
-7 37 0 60 12 37 4 183 -12 231 -9 24 -8 39 2 63 9 23 10 35 1 44 -6 8 -8 17
-4 21 4 4 1 11 -7 16 -12 8 -11 13 8 30 22 20 23 27 16 108 -4 53 -12 94 -21
104 -13 14 -12 20 3 49 13 27 16 49 11 114 -3 44 -11 95 -18 113 -9 26 -9 42
1 72 15 46 7 194 -11 216 -10 12 -10 22 0 49 18 51 13 193 -8 230 -14 23 -16
37 -8 55 15 40 11 200 -6 239 -13 31 -13 38 0 58 20 30 10 192 -14 234 -14 24
-15 33 -6 49 23 36 15 207 -11 240 -14 17 -14 24 3 65 16 38 11 158 -8 212
-14 38 -13 46 1 76 14 30 14 43 2 126 -7 51 -16 96 -19 101 -3 5 0 20 6 32 7
13 15 36 18 52 8 36 31 47 31 14 0 -12 7 -35 14 -50 11 -21 12 -36 5 -60 -19
-67 -23 -193 -7 -225 11 -23 12 -35 5 -49 -14 -23 -12 -213 2 -227 6 -6 7 -53
4 -117 -5 -86 -2 -119 11 -160 14 -43 15 -58 5 -88 -17 -50 -5 -198 17 -223
15 -17 15 -23 4 -44 -10 -18 -11 -49 -5 -127 4 -57 8 -167 9 -244 1 -124 3
-144 20 -163 15 -17 17 -23 6 -36 -19 -23 -15 -218 6 -250 11 -16 13 -29 6
-42 -5 -10 -12 -57 -16 -106 -5 -67 -3 -96 9 -124 12 -28 13 -44 5 -67 -12
-38 -12 -174 1 -198 6 -11 3 -26 -8 -47 -15 -26 -16 -34 -5 -65 9 -25 10 -46
4 -70 -11 -39 -4 -216 9 -232 5 -6 5 -47 1 -93 -4 -44 -4 -107 1 -139 5 -31 8
-88 6 -127 -5 -125 -2 -302 10 -550 1 -11 -2 -70 -5 -131 -5 -96 -4 -115 11
-138 14 -21 15 -29 5 -41 -10 -12 -15 -127 -8 -202 1 -10 43 -13 174 -13 l173
0 -4 90 c-2 60 -9 99 -20 118 -16 27 -16 31 0 62 22 43 22 158 0 225 -12 34
-14 50 -6 58 6 6 11 25 11 42 0 16 4 44 9 62 6 21 5 35 -2 42 -8 8 -7 11 4 11
12 0 19 -20 28 -77 13 -89 13 -89 5 -201 -7 -95 0 -144 23 -168 14 -14 15 -19
3 -38 -9 -14 -14 -56 -15 -123 l-2 -103 157 0 157 0 7 46 c9 68 7 124 -8 164
-10 29 -9 39 2 57 19 30 13 186 -9 229 -11 21 -13 38 -7 54 12 32 9 185 -4
231 -8 29 -7 42 7 70 17 32 18 33 26 11 5 -12 13 -22 19 -22 7 0 8 -13 4 -38
-15 -72 5 -231 31 -252 11 -9 11 -17 -1 -45 -21 -50 -21 -221 0 -244 14 -16
14 -19 -1 -34 -12 -12 -17 -42 -21 -121 l-5 -106 116 0 115 0 7 30 c10 44 3
141 -12 178 -11 27 -11 37 1 60 20 39 20 196 0 234 -15 28 -14 31 5 52 14 15
21 36 22 67 0 24 4 53 9 64 8 18 9 18 10 -5 1 -14 1 -44 0 -68 -1 -29 4 -50
15 -62 15 -17 15 -20 0 -44 -14 -21 -16 -42 -11 -133 8 -129 8 -129 0 -266
l-6 -108 144 3 143 3 2 55 c1 30 -5 83 -13 117 -11 48 -12 76 -4 125 13 84 13
171 -2 202 -9 21 -8 33 6 63 23 53 29 173 11 225 -12 36 -12 44 1 62 8 11 14
40 14 63 0 24 5 43 10 43 6 0 10 -18 10 -41 0 -22 5 -50 11 -61 9 -16 8 -35
-2 -77 -12 -49 -14 -110 -9 -241 1 -19 -2 -61 -5 -92 -9 -70 2 -163 20 -182
12 -11 12 -17 -1 -34 -9 -13 -17 -60 -21 -126 l-6 -106 155 0 155 0 10 52 10
53 2 -52 1 -53 189 0 190 0 21 29 c11 17 36 71 54 121 36 94 97 199 128 219
16 10 29 2 91 -56 40 -38 84 -83 96 -100 13 -18 33 -43 46 -55 12 -13 37 -43
56 -68 19 -25 43 -55 54 -68 l19 -22 1268 0 1269 0 -15 28 c-26 50 -175 88
-222 57 -14 -9 -27 -15 -28 -13 -1 2 -10 15 -19 30 -11 18 -28 28 -56 33 -21
3 -47 15 -57 26 -9 10 -14 19 -10 19 3 0 -1 11 -9 24 -13 19 -13 25 -3 29 21
7 172 -5 185 -15 6 -5 47 -16 90 -24 142 -26 162 -31 178 -44 14 -12 104 -60
112 -60 2 0 3 13 3 28 0 39 -47 99 -90 114 -19 6 -59 12 -89 11 -50 0 -56 2
-90 40 -53 59 -73 77 -105 94 -51 26 -85 27 -112 2 -13 -12 -26 -21 -28 -18
-2 2 -18 30 -36 62 -17 31 -38 57 -45 57 -20 0 -47 48 -40 70 4 11 13 20 21
20 24 0 15 38 -21 85 -38 50 -53 104 -39 144 13 37 26 32 52 -19 12 -25 28
-47 34 -49 14 -5 39 -28 38 -36 -1 -14 16 -4 20 12 8 30 40 83 49 83 5 0 16
16 26 36 14 30 20 35 38 28 43 -15 114 -10 136 10 44 40 16 84 -47 77 -18 -2
-40 14 -89 64 -49 50 -71 65 -89 63 -29 -4 -74 53 -74 94 0 43 -45 134 -79
159 -23 17 -31 31 -31 53 0 50 -11 76 -31 76 -24 0 -36 -59 -20 -98 11 -26 7
-94 -7 -116 -11 -18 -24 40 -27 119 -2 56 -11 101 -29 149 -14 37 -26 76 -26
85 0 9 -7 29 -15 45 -8 15 -15 33 -15 38 0 6 -19 33 -42 60 -23 28 -52 71 -64
97 -34 69 -49 84 -77 77 -35 -8 -61 27 -169 223 -33 61 -47 76 -68 76 -11 0
-14 10 -12 41 3 37 -2 48 -40 94 -24 29 -61 62 -83 74 -46 24 -55 34 -55 60 0
22 -103 146 -132 160 -27 13 -40 -9 -33 -56 3 -23 1 -38 -5 -38 -5 0 -10 6
-10 13 -1 6 -14 28 -30 47 -17 19 -30 46 -30 60 -1 14 -9 39 -18 56 -9 17 -28
51 -41 75 -13 24 -32 56 -42 71 -11 14 -19 37 -19 50 0 30 -73 175 -106 209
-13 14 -24 36 -24 50 0 33 -95 225 -104 211 -8 -13 -66 -16 -66 -4 0 5 7 17
15 28 8 10 15 27 15 37 0 9 7 17 16 17 9 0 13 5 10 13 -3 6 -9 20 -12 29 -4
10 -12 18 -19 18 -7 0 -12 7 -11 16 0 9 -13 23 -29 33 -17 9 -45 27 -63 40
-25 17 -36 21 -45 12 -18 -18 -37 -13 -37 10 0 12 8 23 19 26 24 6 30 31 26
108 l-4 60 -55 0 c-35 0 -56 4 -56 11 0 17 -43 26 -52 11 -18 -28 3 -127 41
-200 20 -36 30 -73 34 -122 3 -38 9 -80 13 -93 4 -13 2 -22 -5 -22 -6 0 -11 9
-11 20 0 11 -4 20 -10 20 -5 0 -10 8 -10 18 0 9 -11 37 -25 61 -14 23 -25 58
-25 76 0 39 -44 178 -68 214 -10 14 -19 40 -20 56 -5 49 -33 146 -59 203 -14
28 -26 69 -29 90 -9 84 -32 153 -68 206 -11 16 -23 52 -27 80 -4 28 -10 63
-14 79 -12 45 12 31 31 -18 12 -32 22 -45 33 -43 12 3 16 15 15 53 -1 81 -7
99 -44 126 -59 43 -142 142 -127 151 8 5 6 8 -8 9 -11 0 -14 3 -7 6 6 2 12 11
12 20 0 11 7 13 32 8 26 -6 30 -5 25 10 -4 9 -7 21 -7 26 0 5 -7 9 -15 9 -9 0
-18 7 -21 15 -8 20 -24 19 -24 -1 0 -8 -4 -13 -9 -10 -5 3 -7 15 -4 26 3 11 0
33 -7 49 -10 26 -14 27 -35 17 -28 -12 -48 -85 -42 -145 3 -24 -2 -41 -14 -54
-21 -23 -49 -137 -49 -201 0 -53 -8 -76 -25 -76 -15 0 -27 40 -16 54 24 32 43
116 46 195 1 51 8 98 16 112 21 36 16 323 -6 375 -20 49 -50 81 -95 103 -58
29 -70 19 -64 -47 3 -31 10 -64 15 -73 5 -10 9 -26 9 -36 0 -10 6 -29 13 -43
12 -23 11 -27 -20 -47 -22 -15 -33 -18 -33 -9 0 20 -35 47 -53 40 -10 -3 -15
-9 -13 -13 2 -3 -7 -20 -20 -36 l-24 -30 0 52 c0 73 -13 99 -61 123 -23 12
-44 30 -46 41 -8 29 -28 23 -38 -13 -6 -17 -16 -34 -23 -36 -18 -6 -66 54 -68
86 -3 42 -22 82 -40 82 -10 0 -14 -5 -10 -15 17 -44 17 -113 1 -165 -10 -30
-21 -59 -25 -63 -4 -4 -17 19 -29 53 -12 33 -25 60 -29 61 -99 10 -118 20 -99
50 6 10 18 21 25 24 7 2 10 0 7 -5 -3 -6 3 -10 14 -10 11 0 23 -5 26 -10 5 -8
11 -7 21 1 31 25 9 149 -34 192 -21 21 -22 21 -36 2 -9 -12 -12 -32 -9 -52 4
-21 1 -33 -6 -33 -6 0 -11 9 -11 20 0 11 -4 20 -10 20 -5 0 -7 6 -4 14 7 18
-24 25 -52 13 -15 -6 -31 -4 -54 8 -40 21 -46 14 -56 -64 -10 -79 2 -104 53
-115 63 -14 65 -36 3 -36 -42 0 -52 -4 -66 -25 -21 -32 -32 -192 -15 -223 9
-17 9 -26 -1 -42 -7 -11 -17 -19 -23 -17 -10 4 -12 66 -3 102 7 25 -10 153
-23 177 -8 15 -21 19 -57 17 -26 -1 -58 3 -72 9 l-25 10 25 5 c14 3 41 8 61
12 49 7 58 21 59 86 2 89 -9 111 -63 128 -26 8 -47 18 -47 22 0 15 49 56 74
63 22 5 26 12 25 39 -1 17 2 48 6 69 6 31 4 38 -14 47 -12 7 -26 9 -32 6 -5
-4 -31 3 -57 15 -45 21 -47 22 -62 4 -8 -11 -23 -19 -32 -20 -62 -3 -68 -5
-83 -34 -20 -38 -19 -119 1 -148 13 -19 24 -23 58 -21 31 2 40 -1 38 -12 -5
-20 -22 -29 -58 -29 -50 0 -61 -23 -58 -123 2 -78 5 -90 26 -107 13 -11 18
-19 12 -20 -6 0 -27 -11 -47 -24 l-35 -24 -17 35 c-13 27 -16 57 -13 141 3
122 0 126 -69 92 -34 -17 -47 -19 -58 -10 -8 6 -19 9 -25 5 -17 -10 -82 4 -78
17 2 6 20 13 40 15 20 2 56 10 79 18 23 8 52 15 66 15 30 0 43 32 43 110 0 61
-7 70 -55 70 -75 0 -70 42 8 75 28 11 38 24 50 63 19 57 13 91 -17 97 -93 19
-110 20 -153 16 -7 0 -13 -10 -13 -20 0 -16 -8 -20 -42 -23 -40 -3 -43 -5 -51
-43 -4 -22 -5 -64 -2 -92 l6 -53 42 -2 c23 0 51 0 62 1 16 1 17 -1 7 -11 -11
-11 -29 -15 -87 -17 -11 -1 -26 -11 -34 -23 -18 -30 -21 -175 -4 -190 17 -14
16 -27 -2 -62 -22 -41 -20 -147 3 -173 13 -16 22 -18 41 -11 27 10 51 4 51
-11 0 -6 -11 -13 -25 -17 -14 -3 -25 -10 -25 -15 0 -5 -7 -9 -15 -9 -8 0 -15
-6 -15 -12 -1 -7 -9 -31 -20 -53 -11 -22 -19 -54 -20 -70 0 -36 24 -75 48 -75
11 0 13 -3 6 -8 -37 -24 -68 -167 -51 -232 5 -19 8 -51 7 -70 -3 -43 -3 -116
-2 -240 1 -248 1 -325 -1 -450 -2 -77 2 -101 16 -123 19 -30 22 -58 6 -74 -5
-5 -11 -53 -11 -105 -1 -72 3 -100 16 -119 13 -21 14 -31 5 -59 -15 -43 -6
-210 15 -250 12 -26 13 -34 1 -56 -16 -32 -11 -175 9 -232 9 -25 10 -45 4 -62
-7 -20 -7 -114 2 -265 1 -11 -3 -53 -7 -94 -6 -44 -5 -98 0 -130 5 -31 8 -67
7 -81 -7 -92 -1 -252 10 -265 10 -12 10 -21 0 -44 -20 -49 0 -261 30 -308 11
-17 11 -27 2 -48 -18 -39 -16 -209 3 -246 14 -27 14 -32 0 -51 -19 -28 -22
-227 -3 -246 9 -9 9 -20 1 -45 -7 -17 -15 -69 -19 -115 -4 -45 -10 -85 -14
-87 -4 -3 -10 37 -12 88 -2 54 -10 101 -18 114 -12 18 -11 25 3 47 13 19 17
48 17 120 0 52 -4 97 -9 100 -13 9 -20 60 -10 72 5 6 9 55 10 109 1 77 -3 105
-17 131 -16 29 -17 37 -6 55 11 17 11 45 1 153 -6 72 -18 143 -25 158 -12 22
-11 31 1 55 18 34 18 145 0 216 -11 41 -10 54 2 78 19 38 19 186 -1 232 -12
29 -11 37 2 62 13 25 13 44 4 125 -5 52 -13 107 -17 122 -4 15 -4 36 0 45 6
15 15 86 16 128 1 21 -10 72 -24 110 -10 31 -11 45 -2 62 19 38 10 186 -14
233 l-21 40 21 34 c14 25 19 45 15 68 -4 18 -9 56 -12 83 -4 28 -13 61 -21 74
-13 21 -13 29 2 77 18 57 15 170 -6 225 -8 20 -6 36 5 64 19 45 13 173 -10
219 -12 25 -12 34 1 73 20 59 11 166 -17 206 -18 27 -19 30 -3 47 19 21 17 85
-4 163 -11 37 -18 47 -35 47 -20 1 -20 2 5 23 28 24 75 130 64 146 -3 6 -8 20
-10 31 -2 12 -10 33 -18 49 -12 23 -11 32 3 67 27 62 33 157 13 192 -16 27
-16 31 1 67 12 24 16 47 11 64 -3 14 -8 44 -9 66 -1 22 -3 46 -4 53 -2 10 -15
12 -49 9 -25 -3 -57 -1 -71 4 -20 8 -32 5 -61 -14 -20 -14 -51 -28 -69 -32
-18 -3 -32 -12 -33 -18 -1 -13 -2 -20 -17 -86 -7 -27 -7 -53 -1 -67 7 -20 15
-24 54 -24 56 0 58 -15 5 -31 -45 -14 -50 -22 -65 -113 -5 -33 -4 -66 4 -97 9
-34 9 -53 2 -67 -9 -17 -13 -109 -10 -257 0 -22 0 -60 -1 -84 -1 -24 3 -53 8
-65 5 -12 13 -34 19 -51 9 -30 13 -31 67 -22 5 1 11 -4 13 -10 3 -7 -12 -20
-34 -30 -21 -10 -41 -22 -45 -28 -4 -5 -8 -42 -8 -81 0 -95 5 -99 129 -97 86
2 94 0 77 -13 -11 -8 -33 -14 -48 -14 -18 0 -39 -10 -55 -26 -21 -21 -33 -25
-59 -21 -27 5 -34 2 -40 -15 -10 -31 -6 -160 5 -190 8 -20 5 -35 -9 -62 -15
-30 -17 -53 -14 -129 2 -50 4 -140 3 -199 0 -72 4 -125 16 -163 12 -43 14 -64
6 -86 -12 -36 2 -224 19 -244 9 -10 8 -19 -1 -36 -15 -30 -6 -228 13 -258 10
-17 10 -25 0 -41 -18 -29 -16 -192 3 -237 12 -28 13 -44 5 -67 -15 -46 -11
-195 7 -229 11 -23 12 -35 2 -64 -14 -44 -8 -238 8 -254 9 -9 9 -18 -1 -38
-19 -37 -13 -260 9 -303 10 -22 12 -35 5 -42 -11 -11 -14 -239 -3 -250 4 -3 8
-70 9 -149 1 -78 2 -153 3 -167 0 -14 -2 -79 -5 -144 -4 -83 -2 -126 6 -141
10 -18 9 -28 -4 -54 -9 -17 -21 -31 -26 -31 -16 0 -31 72 -18 87 16 20 12 202
-6 245 -9 22 -11 39 -5 49 13 20 11 172 -3 226 -8 35 -8 53 1 78 12 35 1 156
-21 228 -9 28 -8 43 0 60 16 30 10 272 -8 310 -10 21 -11 33 -2 52 17 36 15
162 -3 222 -13 45 -13 53 1 82 13 26 14 44 5 117 -6 47 -17 98 -24 113 -12 23
-11 31 2 51 20 30 22 175 3 240 -9 32 -10 53 -3 71 14 39 6 205 -12 232 -10
16 -12 28 -5 40 16 30 11 211 -7 247 -13 25 -14 38 -6 62 14 39 13 129 0 188
-12 51 -13 75 -5 145 10 79 -2 143 -34 178 l-28 31 20 26 c15 21 19 43 19 103
0 103 -8 116 -72 115 -28 0 -53 3 -57 7 -13 12 32 35 65 33 18 -1 38 3 44 9 6
6 9 48 7 109 l-3 98 -33 7 c-48 10 -65 29 -26 29 17 0 37 6 46 12 33 26 50
164 28 223 -8 20 -6 32 7 51 14 22 15 37 6 109 -7 58 -17 91 -31 110 -17 22
-19 31 -10 48 6 12 14 28 17 35 11 24 -4 142 -18 151 -7 5 -31 6 -52 4 -30 -4
-40 -2 -45 11 -8 20 26 56 53 56 10 0 24 4 31 9 19 12 35 84 38 171 1 41 5
103 9 137 10 92 6 96 -112 100 -120 3 -154 -5 -171 -41 -12 -23 -11 -32 2 -59
8 -18 24 -43 35 -56 11 -13 18 -27 15 -32 -3 -5 2 -6 10 -3 23 9 19 -11 -8
-41 -13 -14 -23 -37 -23 -51 0 -31 -2 -33 -49 -49 -60 -20 -57 -39 4 -33 40 4
55 1 67 -12 8 -9 15 -21 15 -26 0 -5 7 -21 14 -36 18 -34 10 -95 -13 -102 -9
-3 -30 -7 -48 -8 -31 -2 -52 -31 -32 -44 19 -11 9 -45 -17 -54 -16 -7 -31 -25
-41 -50 -17 -43 -30 -51 -39 -22 -23 75 -57 111 -75 80 -5 -9 -25 -19 -44 -22
-19 -4 -35 -11 -35 -16 0 -18 -32 -39 -83 -54 -39 -12 -56 -23 -69 -46 -17
-30 -19 -31 -40 -16 -26 19 -69 19 -118 2 -28 -10 -45 -10 -92 2 -60 15 -88 8
-88 -23 0 -22 39 -48 72 -47 17 0 46 -5 65 -13 46 -20 146 -23 167 -6 13 11
20 11 28 3 16 -16 88 -14 118 3 34 19 65 19 85 -2 12 -12 19 -13 24 -4 5 8 13
6 26 -9 10 -11 21 -20 25 -20 9 0 30 70 30 99 0 31 22 21 31 -13 12 -42 28
-56 69 -56 20 0 40 -3 44 -7 12 -13 51 -10 74 5 30 19 40 8 48 -51 6 -42 5
-47 -12 -47 -11 0 -31 14 -46 32 -23 27 -29 30 -37 18 -6 -8 -7 -26 -4 -39 4
-17 0 -28 -12 -37 -20 -15 -21 -10 26 -106 13 -25 11 -28 -10 -28 -10 0 -31
-10 -46 -22 l-28 -22 -31 35 c-70 75 -201 128 -280 114 -22 -5 -53 -1 -83 9
-57 19 -114 31 -250 55 -104 18 -128 29 -138 60 -6 20 -161 109 -215 124 -19
5 -53 10 -75 11 -23 1 -54 11 -70 23 l-30 21 -16 -22 c-10 -13 -14 -34 -12
-56 3 -21 -2 -43 -11 -55 -22 -30 -29 -13 -15 35 11 35 10 43 -2 51 -8 4 -23
6 -33 3 -17 -6 -18 -2 -13 39 9 65 -10 78 -52 36 -19 -18 -30 -38 -27 -46 3
-8 6 -17 6 -19 0 -2 14 -4 30 -4 33 0 39 -16 13 -36 -17 -12 -16 -15 8 -38 15
-14 28 -24 30 -23 2 1 -16 -17 -41 -40 -25 -23 -60 -49 -77 -58 -18 -9 -33
-18 -33 -21 0 -3 4 -3 9 1 6 3 15 -4 21 -15 9 -17 17 -19 50 -14 25 4 40 3 40
-4 0 -13 -67 -72 -83 -72 -8 0 -7 -4 3 -11 12 -9 12 -10 -4 -5 -10 4 -30 -1
-43 -10 -35 -22 -117 -42 -140 -33 -25 9 -107 21 -151 22 -21 0 -28 3 -20 9
20 12 -20 10 -59 -4 -31 -11 -45 -28 -22 -28 5 0 7 -5 4 -10 -4 -6 -29 -10
-56 -9 -45 2 -52 0 -79 -32 -16 -19 -32 -42 -35 -51 -4 -10 -11 -18 -16 -18
-5 0 -14 -11 -19 -25 -5 -14 -14 -25 -20 -25 -5 0 -10 -5 -10 -11 0 -15 -19
-31 -62 -54 -21 -11 -38 -25 -38 -32 0 -7 -4 -13 -10 -13 -5 0 -10 -6 -10 -13
0 -7 -11 -24 -24 -38 -16 -18 -21 -30 -15 -40 13 -21 11 -39 -6 -39 -8 0 -23
-10 -35 -22 -11 -12 -20 -16 -20 -10 0 7 -4 12 -10 12 -5 0 -10 -6 -10 -14 0
-7 -7 -19 -15 -26 -13 -10 -15 -9 -15 9 0 12 -7 24 -15 27 -8 4 -15 14 -15 24
0 13 -11 19 -38 24 -22 3 -48 16 -62 31 -13 14 -30 25 -37 25 -8 0 -11 5 -8
10 3 6 -1 10 -9 10 -16 0 -24 6 -124 92 -30 26 -69 52 -88 58 -19 7 -34 16
-34 21 0 17 -15 9 -26 -15 -13 -27 6 -99 40 -152 23 -36 131 -144 144 -144 10
0 25 -60 17 -68 -8 -9 -36 21 -77 81 -22 33 -48 67 -57 76 -89 94 -99 115
-100 208 -1 72 -4 90 -20 106 -15 16 -22 17 -40 7 -12 -6 -41 -10 -64 -8 -36
3 -42 6 -45 28 -2 23 -1 23 11 8 11 -14 17 -15 29 -5 47 38 84 137 51 137 -7
0 -13 6 -13 14 0 8 -4 16 -9 18 -5 2 -12 22 -16 45 -6 36 -4 43 9 43 10 0 16
9 16 23 0 21 4 22 68 22 39 0 75 5 83 12 20 16 23 71 5 98 -22 33 -30 93 -16
110 22 26 127 20 180 -12 42 -24 52 -26 160 -25 63 1 144 2 180 2 36 1 74 1
85 1 11 0 35 1 52 1 25 1 41 -7 70 -35 20 -20 46 -37 58 -37 28 0 59 34 51 55
-3 9 1 23 9 32 9 8 13 23 11 32 -6 16 32 41 60 41 7 0 14 4 16 9 2 6 27 11 57
13 38 2 60 9 77 25 21 19 24 20 24 5 1 -14 4 -13 19 6 11 12 23 22 29 22 5 0
17 9 27 20 21 23 62 26 87 6 18 -13 17 -40 -2 -91 -13 -35 -13 -35 10 -35 11
0 20 -4 20 -9 0 -5 7 -17 16 -26 9 -9 13 -19 10 -23 -4 -3 -11 0 -16 8 -5 8
-12 11 -16 7 -4 -4 -1 -15 8 -23 14 -14 17 -14 36 2 12 10 19 21 16 25 -6 10
99 126 151 166 23 18 29 31 30 65 2 62 2 61 38 101 24 25 40 34 54 31 22 -6
53 19 53 43 0 12 -7 10 -36 -8 -30 -18 -38 -19 -45 -8 -4 8 -14 14 -21 14 -16
0 -11 44 7 65 7 8 28 42 46 75 32 57 62 95 75 95 10 0 33 34 34 49 0 11 -3 11
-15 1 -14 -12 -15 -8 -9 28 5 30 2 48 -10 66 -9 14 -16 38 -16 54 0 31 27 121
41 136 5 6 9 24 9 42 0 17 9 42 20 55 20 24 20 24 35 5 18 -24 19 -50 2 -64
-7 -6 -19 -27 -27 -47 -7 -19 -20 -35 -27 -35 -16 0 -19 -135 -3 -145 12 -7
60 23 60 39 0 6 14 24 31 39 24 21 28 28 16 33 -18 6 -8 43 26 104 50 87 50
86 30 132 -16 36 -17 55 -10 116 7 63 5 76 -11 100 -29 42 -33 61 -20 106 15
54 16 66 2 96 -6 14 -14 58 -18 99 -3 41 -10 79 -15 85 -5 6 -14 37 -21 68 -9
47 -23 73 -73 135 -34 43 -83 92 -109 108 -94 60 -142 90 -152 94 -5 2 -7 -17
-3 -50 24 -205 64 -365 111 -445 89 -151 144 -484 80 -484 -7 0 -23 18 -34 39
-30 59 -97 100 -115 71 -3 -5 -25 -10 -47 -10 -23 0 -56 -5 -74 -12 -36 -13
-79 -3 -54 12 13 8 12 10 -2 10 -29 0 -48 -12 -48 -30 0 -11 -4 -22 -10 -25
-5 -3 -10 1 -10 9 0 24 -66 21 -97 -4 -16 -12 -34 -18 -45 -15 -12 5 -18 1
-18 -10 0 -33 -25 -7 -34 34 -7 30 -6 49 2 62 7 10 12 43 12 73 0 30 4 56 9
58 19 6 23 55 6 71 -13 14 -14 21 -4 39 7 13 15 25 19 28 4 3 4 32 -1 65 -5
33 -6 86 -3 118 3 33 7 75 9 95 2 21 6 46 9 57 7 25 54 170 68 210 6 17 14 60
18 96 4 36 10 70 13 76 4 6 11 46 16 89 6 44 17 110 25 147 8 38 20 104 26
148 6 45 20 95 32 115 19 32 20 40 9 89 -10 45 -15 52 -32 48 -26 -7 -81 -88
-83 -122 -2 -33 -23 -71 -39 -71 -7 0 -20 -13 -30 -29 -9 -16 -33 -36 -52 -45
-19 -9 -42 -30 -50 -46 -8 -16 -21 -27 -28 -24 -16 6 -47 -17 -51 -36 -2 -17
-63 -106 -88 -129 -35 -33 -48 -41 -70 -44 -22 -2 -23 2 -24 58 -4 153 -8 220
-16 225 -4 3 -3 33 3 65 5 33 12 69 13 80 2 11 9 33 15 48 6 16 11 43 11 61 0
18 9 45 20 59 16 20 19 34 14 66 -3 22 -1 61 5 88 10 41 9 54 -3 78 -9 17 -16
36 -16 43 0 7 -8 16 -17 20 -18 7 -103 62 -113 72 -5 5 -88 46 -155 76 -22 10
-45 24 -50 32 -7 9 -20 11 -38 7 -15 -4 -27 -9 -27 -10 0 -2 9 -24 20 -49 10
-25 17 -46 15 -46 -3 0 1 -16 9 -35 15 -35 8 -87 -11 -84 -25 4 -53 -18 -68
-51 -18 -40 -40 -54 -98 -65 -32 -6 -50 0 -96 32 -2 1 -6 27 -8 56 -4 50 -2
59 31 105 20 27 36 58 36 68 -1 19 -22 54 -33 54 -4 0 -30 15 -59 33 -42 27
-59 32 -83 27 -35 -8 -93 -37 -113 -56 -10 -11 -34 -12 -101 -7 -76 5 -89 4
-94 -11 -4 -9 -13 -16 -21 -16 -8 0 -16 -4 -18 -10 -2 -6 -19 -4 -43 5 -22 8
-48 14 -57 15 -10 0 -18 4 -18 9 0 5 -16 12 -35 15 -48 9 -92 -13 -167 -85
-44 -42 -65 -56 -73 -49 -9 8 -14 4 -17 -14 -4 -18 4 -36 26 -63 17 -21 34
-39 38 -41 5 -2 8 -12 8 -22 0 -10 6 -21 13 -24 9 -3 8 -8 -4 -15 -11 -7 -15
-19 -12 -35 4 -18 -2 -32 -21 -49 -24 -23 -44 -26 -76 -14 -31 12 -120 -11
-120 -30 0 -9 -6 -12 -18 -8 -11 3 -30 -3 -45 -15 -15 -12 -43 -24 -62 -27
-19 -3 -35 -9 -35 -13 0 -4 -20 -30 -45 -56 -50 -54 -64 -88 -46 -115 6 -10
11 -41 11 -67 0 -27 5 -73 10 -102 7 -38 7 -57 -1 -67 -9 -10 -9 -20 1 -38 7
-14 10 -28 7 -32 -4 -3 -2 -12 4 -19 6 -7 7 -19 3 -26 -5 -7 -7 -21 -5 -31 3
-24 -25 -83 -44 -91 -8 -3 -15 -11 -15 -19 0 -7 -16 -21 -35 -30 -35 -17 -35
-17 -61 13 -15 16 -36 30 -48 32 -11 2 -21 10 -22 18 0 8 -4 23 -9 33 -4 9 -4
25 0 35 11 24 6 55 -11 68 -18 14 -18 34 0 34 16 0 26 32 19 60 -3 13 -14 20
-28 20 -15 0 -26 8 -30 20 -8 26 -22 26 -30 0 -8 -26 -46 -26 -63 0 -7 12 -28
22 -52 26 -35 6 -40 10 -40 34 0 15 7 33 15 40 8 7 15 19 15 26 0 18 8 18 27
-2 13 -13 17 -13 24 -2 21 32 6 88 -20 81 -13 -3 -17 -11 -13 -29 2 -14 0 -24
-7 -24 -6 0 -11 7 -11 15 0 9 -7 18 -15 21 -14 6 -13 8 2 20 11 8 13 13 6 14
-7 0 -13 7 -13 16 0 11 -12 4 -35 -22 -19 -21 -35 -36 -36 -33 0 2 -4 65 -8
138 -5 88 -12 136 -19 139 -7 2 -12 12 -12 22 0 10 -8 21 -17 24 -14 6 -14 9
6 23 18 12 20 17 10 24 -12 7 -11 11 1 19 13 9 13 11 0 20 -13 9 -13 11 0 20
12 8 9 10 -12 10 -18 0 -29 7 -33 20 -8 26 -22 26 -30 0 -4 -11 -11 -17 -17
-14 -6 4 -14 1 -18 -6 -10 -15 -48 23 -80 80 -11 19 -24 42 -29 50 -15 25 -48
112 -65 175 -9 33 -29 98 -43 145 -30 97 -34 217 -12 290 18 54 18 186 1 183
-7 -2 -12 4 -12 13 0 8 5 12 10 9 6 -3 10 -1 10 4 0 15 26 14 60 -4 25 -13 29
-23 36 -71 13 -110 49 -216 96 -290 57 -87 170 -202 229 -231 24 -13 40 -23
36 -23 -5 0 -1 -7 7 -15 25 -26 116 -48 191 -47 84 2 130 12 300 65 131 41
196 48 237 26 13 -7 18 -17 15 -30 -6 -23 12 -37 24 -18 6 10 9 4 9 -18 0 -18
3 -33 8 -33 16 1 199 268 217 318 14 36 34 71 54 95 7 9 10 21 6 28 -4 6 -2
15 5 19 7 4 9 16 5 29 -5 16 -12 20 -30 15 -22 -5 -23 -4 -19 43 3 26 11 53
19 59 8 6 15 17 15 24 0 8 7 21 16 31 8 9 17 23 18 31 2 7 8 26 14 41 7 16 12
32 12 37 0 4 9 27 20 51 11 24 20 64 20 89 0 34 5 48 19 57 17 11 22 8 40 -23
12 -19 24 -47 27 -62 4 -15 10 -31 14 -37 4 -5 11 -25 15 -44 4 -19 17 -51 28
-70 11 -20 33 -60 48 -89 40 -75 63 -102 88 -102 12 0 21 -4 21 -9 0 -5 9 -12
19 -16 10 -3 29 -21 42 -39 13 -19 35 -41 49 -49 39 -23 101 -89 112 -118 11
-32 70 -63 87 -46 6 6 11 21 11 33 0 12 10 34 21 49 18 22 20 29 8 37 -10 6
-6 7 11 2 14 -4 50 -24 80 -44 58 -39 225 -90 296 -90 21 0 33 -4 29 -10 -4
-6 17 -10 57 -10 46 0 59 3 48 10 -11 8 -9 9 10 5 34 -7 149 41 204 85 82 66
164 192 188 290 23 93 38 202 38 273 0 69 2 77 19 77 24 0 28 -20 21 -82 -4
-27 -3 -48 0 -48 4 0 10 -17 13 -37 4 -21 12 -70 19 -108 8 -39 12 -106 10
-150 -5 -126 -2 -263 7 -348 5 -42 5 -93 1 -112 -4 -20 -4 -38 1 -41 5 -3 9 0
9 5 0 6 4 11 10 11 14 0 27 -60 22 -105 -6 -61 11 -91 64 -116 44 -21 104 -31
132 -21 22 8 13 31 -20 48 -45 23 -113 93 -125 129 -5 17 -19 34 -31 40 -23
10 -30 25 -11 25 7 0 10 17 7 45 -2 33 0 45 11 45 10 0 12 8 8 30 -4 18 -2 30
4 30 6 0 8 4 4 9 -9 16 17 61 36 61 11 0 20 -11 24 -30 4 -16 8 -30 10 -30 2
0 23 13 47 29 24 15 56 31 71 35 56 13 116 96 112 154 -2 13 3 22 11 22 8 0
14 -5 14 -11 0 -26 24 1 43 46 17 44 20 77 22 290 1 132 -2 250 -6 262 -5 13
-20 24 -38 28 -44 9 -40 37 14 98 47 54 61 90 76 192 4 33 13 61 19 63 5 2 7
9 3 15 -3 6 -8 36 -9 66 -1 31 -12 85 -24 121 -17 51 -20 75 -15 120 4 30 7
89 6 130 -1 63 3 84 27 135 16 33 27 66 24 73 -2 7 8 38 22 68 14 30 26 58 26
63 0 4 9 16 19 25 20 18 41 86 41 131 0 35 -32 96 -70 131 -16 16 -30 35 -30
42 0 7 -11 24 -25 38 -34 34 -33 74 5 116 33 36 37 48 15 48 -11 0 -15 12 -15
50 l0 50 -78 0 c-76 0 -78 1 -96 31 -10 16 -15 37 -12 45 10 25 -4 59 -27 69
-21 10 -95 109 -96 129 -1 12 -82 86 -93 86 -4 0 -8 9 -8 19 0 11 -3 21 -8 23
-4 2 -24 24 -45 49 -31 38 -40 61 -52 125 -7 44 -21 99 -30 124 -9 25 -22 77
-29 115 -12 68 -13 70 -40 67 -26 -3 -28 -1 -24 22 3 14 1 26 -3 26 -5 0 -9
-7 -9 -15 0 -12 -15 -15 -79 -15 -106 0 -181 17 -181 42 0 11 -7 18 -20 18
-10 0 -25 10 -31 23 -18 33 -28 37 -107 37 -81 0 -102 11 -102 55 0 26 1 26
47 19 41 -6 45 -5 40 10 -4 10 -7 22 -7 27 0 5 -8 9 -18 9 -11 0 -27 9 -37 20
-19 21 -79 28 -90 10 -12 -20 -65 -11 -89 15 -13 14 -31 25 -40 25 -18 0 -46
23 -46 37 0 5 -34 44 -75 88 -41 43 -75 84 -75 91 0 7 -7 20 -16 28 -31 32
-14 51 49 54 60 3 73 -8 40 -34 -17 -12 -16 -13 5 -14 21 0 22 3 22 108 l0
108 -38 17 c-47 21 -56 21 -72 2 -14 -17 -56 -20 -65 -5 -14 23 -145 -5 -145
-31 0 -6 -22 -19 -50 -31 -34 -14 -50 -27 -50 -39 0 -9 -8 -25 -17 -35 -10
-10 -18 -21 -18 -25 0 -4 -3 -10 -7 -14 -4 -4 -4 -13 -1 -21 3 -8 0 -14 -6
-14 -22 0 -11 -20 12 -21 21 0 21 -1 2 -9 -32 -14 -47 -11 -43 7 3 15 -34 63
-49 63 -4 0 -15 8 -25 17 -13 12 -21 14 -29 6 -6 -6 -18 -9 -26 -6 -9 4 -23
-3 -33 -17 -16 -21 -18 -22 -48 -6 -37 19 -41 36 -12 43 11 3 20 8 20 12 0 15
-63 71 -81 71 -10 0 -29 10 -42 23 -76 70 -109 90 -156 91 -39 2 -50 -2 -69
-26z m-132 -493 c7 -8 18 -15 25 -15 21 0 65 -41 65 -61 0 -25 21 -24 49 2 24
23 33 19 79 -31 21 -24 22 -25 3 -34 -27 -12 -88 1 -95 20 -4 10 -16 15 -33
13 -30 -2 -44 2 -109 32 -22 11 -46 19 -52 19 -20 0 -13 22 16 46 32 28 36 29
52 9z m1427 -1492 c29 -9 53 -20 53 -25 0 -4 8 -8 19 -8 19 0 130 -112 191
-193 19 -26 42 -49 50 -52 9 -3 24 -18 33 -35 10 -16 25 -30 33 -30 8 0 14 -6
13 -12 -5 -23 13 -82 43 -147 29 -63 45 -151 27 -151 -5 0 -9 -12 -9 -27 0
-16 -1 -61 -3 -101 -3 -52 0 -75 10 -84 7 -6 11 -19 8 -28 -3 -11 1 -20 11
-24 9 -3 14 -13 11 -20 -4 -9 11 -33 33 -57 22 -24 44 -57 51 -74 6 -16 22
-55 35 -86 30 -70 35 -218 10 -289 -9 -25 -16 -48 -16 -52 0 -4 18 -13 41 -19
25 -8 44 -21 49 -33 10 -29 -13 -40 -52 -27 -17 6 -46 11 -64 11 -38 0 -49 14
-45 53 4 38 -42 129 -84 166 -105 92 -203 118 -510 135 -217 12 -219 12 -154
24 36 7 75 12 87 12 12 0 21 5 19 12 -1 6 11 13 27 14 15 2 31 6 35 10 3 3
-43 4 -104 1 -151 -7 -323 -53 -311 -83 4 -11 -8 -18 -99 -49 -20 -7 -20 -6
-1 9 19 15 15 16 -54 16 -96 0 -86 9 12 11 56 1 78 5 82 16 3 8 2 12 -3 9 -5
-3 -23 -1 -40 5 -25 9 -43 8 -84 -5 -29 -9 -81 -19 -117 -22 -36 -4 -79 -15
-96 -25 -17 -11 -48 -19 -68 -19 -23 0 -43 -7 -57 -21 -18 -18 -25 -19 -67 -9
-44 11 -88 13 -157 6 -94 -9 -199 -15 -189 -11 5 3 30 9 55 14 36 7 23 9 -73
10 -89 1 -120 5 -132 16 -12 13 -50 15 -234 12 l-219 -2 -59 -31 c-32 -17 -86
-36 -119 -43 -204 -45 -227 -55 -219 -98 3 -15 2 -24 -2 -20 -4 4 -17 -7 -29
-23 -12 -16 -25 -27 -29 -23 -4 4 -4 0 -1 -9 4 -9 0 -18 -9 -21 -11 -4 -13 -1
-9 10 5 13 3 13 -25 -1 -32 -16 -61 -13 -63 8 0 6 0 42 1 80 1 41 -2 66 -8 62
-5 -3 -15 15 -21 40 -8 31 -18 48 -31 51 -11 3 -20 14 -20 24 0 11 -4 19 -10
19 -5 0 -10 9 -10 20 0 11 4 20 9 20 5 0 9 10 9 23 -1 14 17 42 41 68 22 24
41 49 41 54 0 6 19 28 42 49 36 33 40 41 30 57 -9 14 -9 19 -1 19 7 0 9 9 5
24 -4 16 -1 26 9 29 17 7 70 107 56 107 -6 0 -13 -4 -16 -10 -8 -13 -25 -13
-25 1 0 18 34 56 46 52 30 -10 25 101 -5 125 -15 11 -14 13 1 22 9 6 23 17 31
24 7 7 32 17 54 21 23 3 44 13 47 21 9 22 46 18 46 -6 0 -11 7 -20 15 -20 8 0
15 6 15 14 0 17 93 51 115 42 8 -3 15 -12 15 -20 0 -9 7 -12 21 -9 16 4 20 12
16 29 -3 20 0 24 19 24 15 0 24 6 24 16 0 12 7 15 30 12 17 -3 30 -1 30 3 0
12 64 17 78 7 9 -8 19 -3 37 16 13 14 28 26 33 26 4 0 18 11 30 25 14 15 32
25 50 25 15 0 38 7 51 17 18 12 28 14 42 5 13 -9 19 -8 22 1 3 9 11 8 33 -3
16 -8 32 -16 36 -18 4 -1 5 3 2 11 -8 21 66 43 94 28 18 -9 27 -8 49 6 16 10
31 22 36 28 5 6 13 3 22 -9 15 -20 35 -14 35 12 0 14 2 14 9 3 7 -11 15 -11
41 -2 18 6 36 9 40 6 4 -3 13 2 20 10 14 17 140 22 140 5 0 -11 59 -14 85 -4
13 6 14 9 3 16 -8 6 8 7 46 4 38 -4 63 -2 72 5 11 9 21 8 44 -1 48 -20 207 0
301 38 14 6 41 24 59 40 18 17 44 33 58 37 14 3 52 20 85 36 32 16 67 29 76
29 9 0 23 6 29 12 7 7 36 15 65 19 28 3 56 7 61 8 5 0 33 -7 63 -16z m1013
-1845 c21 -67 39 -182 24 -149 -11 24 -74 75 -107 87 -39 14 -46 38 -19 67 11
12 25 32 31 45 6 12 20 22 30 22 15 0 24 -16 41 -72z m-3767 -908 c34 -37 34
-53 1 -74 -23 -16 -25 -22 -20 -73 2 -30 9 -60 15 -66 6 -6 11 -19 11 -29 0
-14 6 -16 33 -11 17 3 36 12 40 20 4 7 13 13 19 13 7 0 6 -5 -2 -15 -9 -11 -9
-15 -1 -15 6 0 -3 -16 -20 -35 -18 -19 -38 -35 -46 -35 -7 0 -13 -4 -13 -9 0
-5 -15 -16 -32 -24 -31 -15 -34 -15 -62 6 -15 12 -39 40 -52 62 -65 111 -74
128 -74 136 0 5 -4 9 -10 9 -13 0 -13 27 0 35 5 3 25 -3 46 -14 20 -11 42 -17
50 -14 15 6 27 55 23 99 -4 58 -1 64 34 64 25 0 41 -8 60 -30z m2156 -262 c19
-3 53 -1 75 4 29 7 52 5 87 -7 26 -8 56 -15 67 -15 11 0 36 -7 55 -15 40 -16
41 -35 4 -53 -35 -18 -212 -22 -266 -5 -25 8 -62 12 -81 9 -26 -4 -30 -3 -15
4 19 8 19 9 -2 9 -28 1 -29 16 -3 59 15 24 24 31 33 24 7 -5 27 -12 46 -14z
m305 -232 c16 0 31 -7 34 -13 2 -7 10 -13 18 -13 8 0 31 -16 50 -35 29 -29 36
-45 40 -85 2 -32 0 -50 -7 -50 -6 0 -8 -7 -5 -17 4 -9 0 -31 -8 -48 -8 -16
-20 -50 -27 -75 -7 -25 -21 -56 -31 -70 -15 -21 -23 -62 -27 -153 -1 -9 -12
-23 -26 -29 -16 -7 -25 -19 -25 -35 0 -12 -4 -23 -10 -23 -5 0 -10 -7 -10 -15
0 -8 5 -15 12 -15 6 0 8 -3 5 -7 -10 -10 -57 -13 -57 -4 0 13 -58 34 -73 28
-8 -3 -17 -20 -21 -37 -5 -26 -9 -31 -23 -25 -32 14 -83 18 -83 6 0 -19 -28
-12 -35 9 -9 27 -18 25 -48 -11 -24 -29 -27 -30 -42 -15 -15 15 -15 17 -1 32
21 20 21 54 0 54 -8 0 -12 5 -9 10 4 6 10 8 15 5 13 -8 97 31 103 50 4 9 12
13 18 9 9 -5 10 2 5 27 -9 41 -16 119 -9 101 7 -17 23 -5 23 19 0 10 4 19 8
19 5 0 16 18 25 40 15 40 15 40 -17 88 -33 47 -33 47 -87 45 -30 0 -110 -6
-179 -13 -69 -6 -144 -13 -168 -15 -33 -3 -48 1 -63 16 -10 10 -19 23 -19 28
0 5 -11 12 -24 15 -24 6 -41 31 -31 46 7 12 125 11 125 -1 0 -5 8 -9 18 -8 10
0 12 3 5 6 -20 8 -15 19 14 32 29 13 252 61 287 61 11 0 48 12 81 26 91 40
155 54 205 47 25 -3 58 -6 74 -7z m-899 -247 c142 -37 145 -39 145 -76 0 -31
-4 -41 -37 -77 -10 -11 -8 -20 10 -42 13 -17 22 -42 22 -65 0 -21 2 -36 5 -34
5 3 6 -21 1 -62 -1 -8 -17 -13 -46 -13 -26 0 -47 -5 -52 -14 -9 -14 -63 -28
-63 -16 0 4 -11 5 -25 2 -17 -3 -25 0 -25 10 0 8 -6 26 -12 41 -11 23 -17 26
-43 21 -25 -6 -28 -4 -17 8 7 9 11 39 9 74 -2 58 -2 59 -30 56 -15 -2 -37 4
-48 12 -12 8 -28 12 -37 9 -13 -6 -14 2 -8 53 5 46 12 64 31 79 14 12 25 26
25 32 0 28 94 29 195 2z m386 -411 c3 -5 13 -6 22 -3 20 8 57 -11 57 -30 0 -8
-4 -15 -9 -15 -5 0 -24 -16 -42 -35 -41 -43 -93 -56 -114 -29 -8 11 -12 25
-10 33 4 10 -3 12 -30 9 -29 -3 -35 -1 -35 14 0 15 5 17 25 12 20 -5 31 1 57
30 24 27 37 35 52 30 12 -4 24 -11 27 -16z m-663 -1880 c6 -24 14 -69 17 -102
4 -32 13 -79 21 -105 7 -25 14 -60 14 -78 0 -17 5 -44 11 -60 13 -33 20 -233
8 -233 -13 0 -39 43 -39 65 0 11 -7 33 -15 49 -13 24 -13 31 -3 38 7 4 8 8 3
8 -6 0 -11 27 -12 61 -1 45 -6 66 -21 82 -27 31 -32 50 -16 72 15 21 18 81 5
135 -9 39 -3 110 9 110 4 0 12 -19 18 -42z m-129 -182 c9 -40 9 -65 2 -93 -6
-21 -11 -64 -11 -95 0 -65 -7 -88 -26 -88 -15 0 -23 30 -21 74 2 36 -33 54
-58 29 -9 -8 -19 -12 -23 -9 -3 4 -2 10 4 14 15 10 38 65 69 166 32 100 42
100 64 2z m483 -173 c13 -12 18 -30 18 -68 0 -33 5 -57 14 -64 8 -7 17 -23 20
-36 3 -13 22 -51 42 -84 33 -56 35 -63 24 -96 -6 -19 -15 -35 -18 -35 -4 0
-26 17 -48 39 -41 38 -41 39 -27 71 14 34 7 49 -22 50 -6 0 -16 10 -24 22 -11
17 -11 23 -1 26 9 3 9 6 -1 13 -8 5 -9 9 -3 9 8 0 8 19 0 68 -11 65 -11 102 1
102 4 0 15 -7 25 -17z m-1297 -703 c4 -16 18 -39 32 -50 17 -13 20 -20 11 -20
-8 0 -22 -17 -30 -39 l-15 -38 -62 -2 c-47 -1 -71 -7 -101 -26 -38 -24 -56
-21 -44 8 3 8 16 18 30 21 13 4 24 11 24 16 0 6 8 10 18 10 23 0 80 69 86 104
10 54 40 64 51 16z m5558 -212 c5 -29 8 -69 7 -88 -4 -129 1 -238 11 -257 9
-17 9 -33 2 -60 -11 -41 -10 -215 2 -252 8 -25 -12 -121 -26 -121 -5 0 -9 12
-9 28 0 15 -7 38 -16 51 -16 22 -16 25 0 52 14 24 16 47 12 130 -4 72 -10 106
-21 119 -14 15 -14 20 0 55 20 47 18 189 -3 222 -10 17 -12 34 -6 60 8 37 9
47 12 108 3 45 24 16 35 -47z m-4476 -180 c15 -63 17 -81 12 -128 -3 -40 11
-189 21 -215 6 -15 6 -56 0 -106 -5 -45 -7 -93 -3 -107 3 -13 7 -103 9 -200 4
-191 4 -186 2 -343 0 -58 4 -114 10 -125 7 -12 7 -25 1 -37 -6 -10 -8 -66 -5
-130 2 -62 7 -175 9 -252 10 -340 14 -421 24 -444 6 -15 6 -41 0 -72 -6 -33
-6 -77 2 -136 7 -48 12 -99 11 -113 0 -14 -3 -75 -6 -137 -3 -65 -1 -120 5
-130 9 -17 -9 -126 -23 -140 -2 -3 -8 16 -11 41 -4 25 -13 53 -20 63 -11 14
-10 19 3 29 13 10 16 31 14 123 -2 61 -7 123 -12 137 -7 16 -7 32 0 44 21 40
4 218 -24 249 -14 15 -14 20 0 40 23 33 16 196 -10 236 -18 27 -18 30 -1 57
13 23 16 45 12 111 -3 45 -12 101 -19 123 -13 35 -13 44 -1 60 21 29 14 205
-10 231 -21 24 -21 27 0 49 15 14 18 35 17 115 -1 57 -6 104 -12 112 -7 8 -9
17 -5 20 3 4 -1 9 -10 13 -13 5 -13 8 4 25 16 16 19 34 19 107 0 48 -5 103
-10 122 -8 25 -7 59 1 115 9 62 8 94 -1 140 -7 33 -12 69 -11 80 1 11 4 63 5
115 3 78 0 102 -15 133 -14 28 -16 43 -9 56 5 10 10 46 12 79 1 34 4 59 6 57
2 -2 11 -32 19 -67z m-1123 -40 c4 -35 8 -120 10 -189 2 -69 6 -132 11 -139 4
-7 8 -121 7 -254 -1 -133 3 -268 9 -301 6 -33 10 -67 9 -75 -5 -59 1 -228 10
-255 7 -22 7 -40 0 -59 -13 -35 -13 -124 0 -201 6 -33 12 -116 15 -184 3 -73
9 -129 16 -138 7 -7 11 -37 10 -66 -2 -59 15 -188 31 -229 7 -20 7 -37 -2 -60
-13 -36 -24 -220 -23 -398 2 -289 4 -338 14 -375 6 -22 12 -100 15 -174 2 -73
9 -142 15 -152 6 -12 6 -44 0 -92 -6 -54 -5 -97 5 -158 8 -46 12 -95 9 -109
-7 -31 20 -227 33 -243 11 -13 13 -97 3 -97 -10 0 -41 84 -41 110 1 39 -28
200 -41 232 -6 15 -17 28 -23 28 -6 0 -3 5 7 11 14 8 17 25 17 103 0 111 -8
156 -26 156 -18 0 -17 20 1 44 18 23 20 113 5 201 -6 33 -12 114 -14 180 -3
114 -17 185 -37 185 -5 0 -2 11 7 25 14 21 16 44 12 127 -5 95 -7 103 -32 123
-20 16 -23 24 -14 33 7 7 17 12 24 12 32 0 49 207 19 240 -13 14 -12 18 5 33
25 21 27 108 4 187 -9 30 -18 99 -20 152 -2 63 -11 119 -24 159 -12 34 -18 69
-15 78 8 20 7 195 -1 228 -4 13 -15 28 -26 32 -18 7 -18 8 4 36 20 26 23 40
23 127 0 87 -2 100 -22 119 -20 21 -21 23 -5 35 30 22 19 235 -13 268 -13 12
-13 18 0 43 18 37 22 207 5 228 -6 8 -9 19 -5 25 3 5 1 10 -6 10 -8 0 -5 7 6
20 15 16 16 30 11 87 -13 130 -16 144 -43 156 -20 9 -22 13 -11 22 23 16 38
51 38 87 0 42 10 79 20 73 4 -2 10 -33 14 -67z m-1619 -28 c18 -89 58 -200 87
-242 24 -34 24 -71 1 -66 -10 2 -18 12 -18 23 -1 28 -49 121 -90 175 -28 37
-34 54 -34 97 -1 28 2 59 6 68 5 15 8 15 25 -6 10 -13 20 -35 23 -49z m5734
-160 c4 -8 6 -69 3 -136 -4 -99 -1 -126 12 -153 14 -26 15 -39 7 -64 -12 -36
-7 -191 8 -230 6 -15 7 -54 2 -97 -7 -70 2 -154 21 -196 6 -14 6 -35 -2 -65
-14 -52 -5 -199 15 -225 9 -13 10 -26 3 -43 -15 -41 -11 -198 7 -234 12 -25
13 -37 4 -65 -13 -39 -4 -219 11 -238 6 -6 6 -24 0 -45 -5 -19 -11 -70 -12
-114 -2 -44 -7 -79 -11 -78 -5 2 -10 36 -13 77 -2 40 -10 86 -18 101 -12 24
-13 34 -2 59 16 40 11 155 -11 223 -14 44 -15 54 -3 68 23 28 15 175 -12 221
-18 31 -20 39 -8 57 8 14 12 50 12 97 -2 87 -9 127 -28 154 -12 17 -11 24 3
45 13 20 15 42 10 118 -3 52 -11 101 -17 108 -8 9 -10 27 -5 47 11 55 4 210
-11 247 -8 19 -12 42 -8 50 17 46 20 115 6 178 -16 77 -17 93 -7 183 10 95 17
103 27 30 5 -36 13 -72 17 -80z m-6542 43 c-3 -27 -15 -65 -25 -86 -11 -20
-28 -81 -37 -135 -10 -53 -24 -116 -31 -140 -8 -23 -14 -50 -15 -60 -2 -29
-17 30 -18 71 -1 38 -16 51 -24 20 -3 -10 -5 -3 -6 15 -1 27 2 32 23 32 19 0
26 9 40 53 8 28 21 88 27 132 7 52 18 87 30 101 11 11 19 26 19 32 0 7 5 12
11 12 8 0 10 -15 6 -47z m6153 -31 c0 -23 5 -51 12 -61 8 -13 8 -30 0 -62 -12
-49 -2 -186 17 -233 8 -19 9 -39 3 -55 -10 -29 -6 -196 4 -213 4 -6 8 -76 10
-155 1 -85 7 -149 13 -157 7 -9 9 -33 4 -72 -5 -32 -4 -95 0 -139 4 -44 8 -91
8 -105 0 -14 0 -67 0 -117 0 -56 6 -109 14 -134 9 -23 12 -52 9 -63 -4 -12 -6
-58 -6 -104 1 -46 -2 -81 -7 -78 -4 3 -7 20 -6 38 2 18 0 38 -3 43 -4 6 -8 21
-10 35 -2 14 -10 36 -19 49 -12 19 -13 31 -4 61 14 48 4 194 -16 238 -13 26
-13 37 -3 61 16 39 4 196 -18 234 -14 22 -14 31 -4 47 18 30 15 181 -5 231
-13 34 -14 45 -4 62 8 12 13 54 13 110 0 76 -4 94 -22 119 -22 29 -22 31 -5
75 20 52 15 174 -9 220 -10 21 -11 35 -4 53 6 14 10 42 9 63 -1 21 1 48 5 59
10 31 24 2 24 -50z m-2191 -167 c-3 -26 -3 -198 0 -267 1 -13 -2 -62 -5 -110
-4 -63 -2 -100 9 -139 11 -35 13 -58 6 -70 -13 -26 -10 -198 5 -241 9 -26 10
-40 2 -48 -13 -13 -10 -223 4 -251 7 -13 8 -31 1 -54 -12 -43 -4 -202 11 -232
6 -13 8 -36 3 -60 -5 -21 -9 -47 -9 -57 -1 -11 -6 -21 -11 -23 -14 -4 -36 114
-26 141 10 27 -3 216 -17 242 -7 14 -7 28 2 49 18 44 6 218 -17 242 -15 18
-15 21 -1 42 12 17 16 45 15 113 -1 100 -6 127 -30 145 -14 12 -14 14 4 28 18
14 20 27 18 120 -1 79 -6 112 -19 134 -16 27 -16 31 -2 45 25 24 34 170 15
226 -10 30 -12 52 -6 68 5 13 9 43 9 66 0 23 3 46 7 50 10 10 36 -121 32 -159z
m847 100 c34 -22 57 -81 51 -134 -4 -36 -12 -52 -42 -79 -34 -31 -42 -34 -82
-29 -52 6 -63 14 -66 52 -2 24 3 29 38 39 33 10 40 17 46 43 6 29 3 35 -27 55
-40 27 -42 40 -11 61 24 18 58 15 93 -8z m973 -235 c0 -28 8 -64 17 -81 8 -17
13 -38 9 -47 -13 -34 -6 -199 10 -240 14 -34 15 -47 5 -77 -14 -42 -5 -181 15
-229 10 -24 11 -36 3 -44 -16 -16 -17 -113 -2 -194 9 -46 12 -101 8 -153 -4
-49 -1 -101 6 -135 7 -30 12 -71 12 -90 1 -76 21 -236 33 -259 9 -19 9 -31 -2
-64 -9 -27 -12 -58 -7 -94 3 -29 7 -66 8 -81 1 -15 7 -36 13 -48 13 -23 0 -94
-17 -94 -14 0 -32 68 -24 92 16 52 3 150 -33 239 -12 29 -12 41 -3 58 13 25
11 161 -3 206 -5 17 -17 36 -25 43 -14 11 -14 13 3 26 16 12 18 23 12 115 -3
56 -12 115 -20 130 -9 18 -11 35 -5 51 5 13 9 63 9 111 1 73 -2 94 -21 127
-21 38 -22 41 -6 63 23 34 21 145 -4 216 -13 36 -16 59 -10 63 23 14 15 224
-9 240 -16 11 -18 37 -5 55 8 11 14 44 14 82 0 74 17 86 19 13z m-369 -60 c0
-17 7 -46 14 -65 12 -29 13 -41 2 -67 -17 -45 -7 -187 16 -215 6 -8 6 -28 1
-55 -11 -51 0 -213 16 -231 7 -9 8 -24 1 -48 -15 -51 -12 -175 4 -214 12 -28
13 -46 4 -94 -9 -49 -8 -74 6 -143 10 -45 18 -90 17 -98 -4 -126 2 -236 14
-260 8 -16 13 -35 10 -42 -8 -20 -11 -228 -3 -228 14 0 27 -61 18 -86 -12 -30
-3 -200 11 -227 12 -21 0 -195 -12 -176 -4 7 -5 17 -2 22 3 5 -7 36 -23 69
-19 39 -25 62 -17 66 30 19 20 245 -12 268 -11 8 -12 13 -4 16 20 7 22 99 4
183 -9 44 -20 84 -25 89 -5 5 -5 17 2 30 11 21 13 180 2 231 -3 17 -11 35 -16
42 -6 7 -5 14 2 18 14 8 13 138 -2 189 -6 22 -18 49 -26 59 -13 15 -13 23 -2
57 16 48 7 179 -15 223 -13 26 -13 33 -1 52 22 33 27 92 15 160 -6 33 -10 115
-9 181 2 97 -1 128 -15 154 -14 27 -15 40 -6 70 6 21 11 51 11 69 0 17 5 31
10 31 6 0 10 -14 10 -30z m2625 -112 c6 -58 12 -269 12 -413 0 -147 -5 -326
-11 -350 -11 -50 -14 -188 -4 -215 6 -19 4 -35 -7 -56 -8 -16 -15 -40 -16 -54
-1 -14 -4 -36 -9 -50 -6 -20 -7 -16 -8 21 0 25 -6 65 -13 88 -11 36 -10 43 5
60 23 25 36 222 16 246 -10 12 -10 21 -1 43 19 45 22 202 4 240 -14 28 -14 36
0 65 18 39 15 208 -4 244 -10 19 -10 28 2 49 7 15 14 55 14 90 0 35 3 64 6 64
3 0 9 -33 14 -72z m676 -743 c1 -11 -5 -52 -12 -92 -11 -61 -10 -80 4 -137 14
-58 14 -70 2 -101 -20 -47 -20 -177 1 -217 14 -28 14 -34 0 -67 -15 -36 -32
-109 -28 -123 1 -5 -3 -8 -8 -8 -6 0 -10 8 -11 18 -1 52 -11 107 -19 118 -8 8
-6 24 6 53 13 32 15 61 10 143 -8 140 -8 132 5 232 9 63 10 103 2 139 -8 39
-7 56 3 76 8 14 14 40 14 57 0 17 3 53 7 80 7 46 8 43 16 -51 4 -55 8 -109 8
-120z m-383 118 c1 -32 7 -70 13 -85 9 -22 8 -36 -5 -68 -18 -45 -22 -183 -7
-223 6 -15 4 -44 -5 -83 -16 -68 -18 -187 -4 -213 6 -12 5 -32 -2 -57 -20 -73
-18 -70 -28 -54 -14 23 -23 109 -12 123 6 7 8 55 5 117 -7 156 -7 168 7 260 9
67 9 96 0 136 -9 38 -10 56 -1 72 6 11 11 34 11 50 0 41 11 92 19 88 4 -3 8
-31 9 -63z m-4315 -790 c4 -6 2 -33 -4 -60 -8 -38 -7 -67 6 -138 20 -111 20
-109 5 -224 -8 -70 -9 -106 0 -139 8 -33 8 -57 -2 -98 -7 -30 -15 -54 -19 -54
-4 0 -12 27 -18 61 -10 47 -10 64 0 75 16 19 15 204 -1 234 -10 18 -10 31 0
61 17 51 8 200 -14 234 -15 23 -15 29 -1 72 9 25 14 52 11 59 -2 6 -2 15 2 19
3 3 11 -16 17 -42 6 -27 14 -54 18 -60z m-2063 -54 c0 -11 7 -31 16 -44 13
-20 15 -42 9 -128 -6 -85 -4 -110 10 -142 13 -31 16 -70 16 -170 -2 -313 -8
-466 -21 -529 -6 -33 -9 -75 -5 -95 10 -56 -10 -24 -23 37 -7 30 -12 67 -12
83 0 17 -7 38 -16 47 -15 15 -14 18 9 37 25 19 27 25 28 125 1 133 1 132 -11
125 -5 -3 -10 -1 -10 4 0 6 5 11 10 11 6 0 10 27 10 61 0 34 5 79 12 100 9 31
8 48 -2 82 -8 23 -15 49 -16 57 -1 8 -5 44 -9 80 -8 69 -8 69 -5 140 1 25 -1
70 -5 99 -5 38 -4 52 4 47 6 -4 11 -16 11 -27z m6100 -83 c0 -26 6 -48 15 -56
20 -16 19 -35 -2 -56 -23 -22 -32 -203 -13 -239 8 -14 9 -31 5 -42 -5 -10 -9
-21 -9 -25 -1 -3 -4 -10 -8 -14 -14 -13 -9 -173 6 -202 8 -17 10 -35 5 -47 -4
-11 -8 -46 -8 -77 -1 -32 -5 -58 -9 -58 -11 0 -32 45 -32 66 0 9 -7 31 -16 50
-15 32 -15 36 0 53 13 14 16 39 16 119 0 57 -5 112 -12 127 -10 21 -9 31 4 53
11 18 17 56 19 107 3 110 2 118 -21 143 -16 17 -17 23 -6 29 20 12 36 48 36
82 0 21 5 31 15 31 11 0 15 -12 15 -44z m315 32 c3 -7 7 -28 9 -45 2 -18 9
-40 16 -48 10 -11 10 -18 1 -29 -19 -23 -26 -205 -9 -245 12 -31 12 -38 -4
-70 -23 -47 -30 -183 -12 -229 9 -21 10 -39 4 -50 -16 -31 -23 -57 -21 -79 1
-13 -2 -23 -8 -23 -6 0 -11 17 -11 39 0 22 -6 44 -15 51 -17 14 -20 41 -6 56
28 30 34 180 9 247 -8 20 -7 31 2 42 17 21 21 169 5 229 -8 30 -10 58 -5 70 5
12 11 38 15 59 6 36 21 49 30 25z m-1778 -56 c4 -74 5 -107 4 -192 0 -41 5
-93 11 -115 12 -47 14 -75 6 -132 -4 -23 -2 -79 3 -125 10 -88 12 -201 3 -231
-8 -25 -19 -14 -22 21 -1 17 -9 49 -17 72 -10 29 -12 47 -5 60 13 24 13 165 0
209 -5 19 -15 38 -22 42 -10 6 -9 14 4 36 21 37 17 197 -6 244 -11 23 -13 36
-5 51 6 10 10 29 9 41 -5 57 0 78 17 75 13 -2 17 -16 20 -56z m-1700 -35 c23
-12 40 -34 60 -77 15 -33 35 -62 45 -65 9 -4 20 -16 24 -28 6 -19 21 -41 64
-94 6 -7 10 -18 10 -25 0 -7 -19 8 -43 35 -24 26 -48 47 -55 47 -6 0 -15 7
-20 16 -7 13 -14 10 -39 -19 -38 -43 -86 -69 -127 -69 -31 0 -116 31 -116 43
0 3 -12 24 -26 45 -26 38 -26 38 -10 91 37 116 127 154 233 100z m-3177 -164
c2 -119 11 -283 18 -313 6 -25 4 -43 -6 -65 -9 -17 -15 -54 -15 -85 1 -45 -1
-51 -9 -30 -5 14 -14 46 -19 73 -6 26 -15 47 -20 47 -16 0 -10 35 10 52 29 25
38 130 15 188 -9 25 -21 50 -27 57 -9 13 31 112 46 113 4 0 7 -17 7 -37z
m3024 -251 c32 -27 64 -58 70 -70 19 -36 129 -159 154 -173 22 -12 52 -57 52
-77 0 -5 -16 -4 -35 2 -26 8 -38 19 -45 42 -12 35 -150 174 -173 174 -8 0 -18
11 -21 24 -3 13 -22 43 -41 66 -34 41 -43 60 -27 60 4 0 34 -22 66 -48z m4210
-431 c18 -20 21 -41 5 -41 -19 0 14 -220 38 -257 11 -16 12 -27 4 -42 -6 -11
-11 -58 -11 -105 0 -47 -4 -87 -9 -90 -4 -3 -11 28 -15 69 -4 41 -14 91 -22
111 -12 29 -13 43 -5 61 6 13 9 34 7 46 -3 12 -8 50 -11 83 -3 34 -12 76 -21
93 -11 21 -14 42 -9 59 4 15 10 63 13 107 l6 80 7 -78 c4 -49 13 -84 23 -96z
m-255 -2 c7 -22 8 -51 2 -93 -5 -34 -10 -187 -10 -341 0 -154 -4 -293 -9 -310
l-9 -30 -6 25 c-20 96 -23 131 -12 140 7 6 12 46 13 102 1 90 -10 145 -32 161
-8 5 -7 9 1 15 25 16 44 83 42 148 -1 35 1 67 4 71 4 3 -5 19 -19 36 -23 27
-24 31 -9 53 8 13 15 30 15 39 0 26 18 16 29 -16z m-9186 15 c3 -4 -11 -19
-32 -35 -42 -30 -101 -108 -101 -132 0 -9 -21 -39 -46 -69 -25 -29 -54 -71
-64 -93 -16 -36 -18 -37 -19 -14 -1 27 13 78 31 116 9 18 8 27 -6 42 -17 19
-17 20 21 30 27 7 60 32 113 86 71 71 89 83 103 69z m2279 -166 c1 -40 1 -84
0 -98 -5 -49 -15 -336 -15 -412 0 -43 -3 -78 -8 -78 -9 0 -14 29 -24 123 -6
53 -9 59 -38 71 l-32 13 26 6 c48 12 57 66 50 282 -2 60 17 165 30 165 5 0 10
-33 11 -72z m2995 -20 c27 -46 130 -156 153 -163 20 -6 73 -90 68 -106 -2 -6
-15 -1 -30 10 -14 12 -31 21 -37 21 -6 0 -19 17 -30 38 -22 42 -142 172 -159
172 -13 0 -42 51 -42 75 0 25 54 -7 77 -47z m-2762 -182 c1 -77 4 -174 6 -214
4 -72 -5 -96 -17 -44 -11 42 -34 83 -44 77 -16 -10 -12 27 4 39 17 14 29 208
15 245 -6 13 -7 38 -3 54 l6 29 15 -22 c12 -17 16 -56 18 -164z"/>
<path d="M9363 6122 c-55 -3 -63 -6 -63 -22 0 -12 9 -22 23 -25 13 -4 28 -19
34 -36 10 -26 9 -31 -8 -42 -10 -6 -19 -18 -19 -25 0 -7 4 -11 9 -8 5 4 11 2
13 -4 1 -5 20 -11 41 -14 29 -4 39 -1 47 15 8 14 22 19 55 19 52 0 59 8 50 59
-6 36 -10 40 -52 51 -24 7 -50 18 -56 24 -7 6 -39 10 -74 8z"/>
<path d="M4787 6090 c-16 -10 -60 -51 -98 -91 -49 -53 -69 -82 -69 -100 0 -34
27 -111 42 -120 9 -6 8 -12 -1 -23 -23 -28 -8 -135 28 -202 27 -51 31 -67 31
-137 0 -75 20 -147 40 -147 13 0 128 38 149 50 35 18 72 214 43 225 -10 4 -7
13 12 38 53 69 21 240 -46 254 -33 6 -33 6 -12 38 17 25 15 79 -6 150 -4 17
-11 42 -14 58 -5 23 -11 27 -39 26 -17 0 -45 -9 -60 -19z"/>
<path d="M9656 6014 c1 -39 6 -50 35 -74 l34 -28 -37 -7 c-21 -4 -42 -12 -47
-19 -14 -17 -21 -113 -11 -142 13 -34 33 -30 79 18 33 33 41 37 41 22 0 -10 7
-28 16 -39 15 -20 15 -20 32 2 18 23 56 28 81 9 18 -14 41 18 42 61 4 102 4
103 -38 96 -25 -4 -34 -3 -29 5 4 6 2 21 -4 32 -13 25 4 54 26 46 27 -10 23
14 -4 28 -23 12 -161 36 -207 36 -5 0 -9 -20 -9 -46z"/>
<path d="M10412 5952 c-19 -6 -33 -49 -26 -78 4 -17 13 -24 30 -24 13 0 24 -4
24 -9 0 -8 52 -31 69 -31 12 0 60 47 54 54 -3 3 1 6 11 6 9 0 19 -6 22 -14 4
-10 14 -12 40 -6 20 5 38 10 40 13 10 10 -50 47 -85 52 -20 3 -61 13 -91 21
-74 22 -73 22 -88 16z"/>
<path d="M4362 5750 c-18 -11 -37 -31 -41 -43 -9 -24 -39 -42 -121 -72 -123
-46 -150 -61 -150 -87 0 -7 -14 -21 -30 -30 -24 -14 -30 -24 -30 -50 0 -61 11
-77 74 -115 l61 -38 -39 -6 c-21 -3 -48 -4 -59 -1 -37 10 -45 -28 -26 -136
l11 -64 47 7 c25 4 82 8 126 10 65 4 83 8 96 24 22 27 15 106 -13 144 l-20 29
23 24 c19 21 24 39 27 100 5 95 -4 108 -70 101 -26 -4 -48 -3 -48 1 0 9 59 32
83 32 20 0 47 38 47 67 0 23 20 33 20 11 1 -30 60 -77 60 -48 0 6 8 10 18 10
15 0 17 11 18 75 0 85 -6 90 -64 55z"/>
<path d="M8315 5680 c-3 -5 -2 -10 3 -10 6 0 5 -10 -1 -24 -7 -14 -16 -24 -21
-23 -6 1 -10 -4 -11 -11 0 -7 -11 -18 -25 -25 -14 -7 -26 -22 -28 -33 -2 -17
4 -23 28 -27 36 -8 150 3 150 13 0 4 8 10 18 12 12 4 23 21 29 47 11 40 10 41
-15 48 -15 3 -35 15 -46 25 -21 19 -71 24 -81 8z"/>
<path d="M8205 5430 c-28 -31 -13 -66 53 -129 34 -32 62 -64 62 -70 0 -15 -50
-33 -77 -28 -27 5 -20 -16 10 -30 12 -6 33 -16 47 -22 14 -6 39 -19 55 -28 78
-41 107 -54 113 -49 3 3 0 27 -7 54 -13 49 -16 215 -5 268 5 29 4 32 -25 36
-21 3 -31 0 -33 -11 -3 -12 -6 -12 -20 3 -13 12 -26 15 -51 11 -19 -4 -50 -2
-70 3 -30 8 -38 7 -52 -8z"/>
<path d="M3820 5294 c-19 -7 -43 -13 -52 -13 -23 -1 -23 -6 3 -32 11 -11 28
-19 37 -17 11 3 28 -9 47 -33 43 -53 84 -42 85 23 0 40 -10 57 -41 73 -32 17
-32 17 -79 -1z"/>
<path d="M4861 5260 c-24 -11 -51 -20 -60 -20 -9 0 -24 -7 -35 -15 -16 -12
-18 -24 -14 -95 5 -88 15 -104 58 -96 125 24 153 43 168 114 9 41 9 63 -1 93
-10 34 -16 39 -42 39 -16 0 -50 -9 -74 -20z"/>
<path d="M11804 5253 c3 -10 12 -51 21 -91 17 -85 50 -152 99 -207 41 -47 52
-42 60 26 3 26 9 54 12 63 3 9 2 16 -4 16 -6 0 -24 12 -41 26 -27 23 -31 31
-25 60 7 38 -9 66 -32 57 -8 -3 -29 10 -50 31 -40 40 -48 44 -40 19z"/>
<path d="M12080 5116 c-6 -6 -10 -18 -10 -27 0 -31 -12 -49 -31 -49 -14 0 -19
-7 -19 -29 0 -16 -9 -49 -21 -75 -11 -26 -19 -61 -17 -79 2 -27 8 -33 31 -35
19 -2 27 -9 27 -24 0 -14 -5 -18 -16 -14 -14 5 -16 -1 -12 -46 5 -58 25 -107
63 -153 18 -22 27 -27 33 -18 14 22 49 -12 56 -55 9 -57 64 -182 96 -218 18
-21 29 -48 34 -80 12 -92 131 -186 181 -144 11 9 19 10 27 2 16 -16 0 -36 -17
-22 -26 21 -30 -35 -6 -75 12 -20 21 -50 21 -66 0 -23 4 -30 17 -27 9 2 20 14
23 28 5 18 12 24 26 22 15 -3 17 -1 7 9 -7 7 -13 20 -13 29 0 9 -11 38 -24 64
-19 37 -26 70 -30 144 -5 100 -19 167 -36 177 -6 4 -10 18 -10 33 0 70 -63
202 -96 202 -21 0 -74 28 -74 40 0 31 -144 210 -169 210 -6 0 -15 9 -21 20 -9
16 -6 26 16 54 25 31 30 33 56 24 16 -6 32 -18 35 -27 13 -39 46 -101 53 -101
14 0 4 69 -14 88 -9 10 -16 35 -16 56 0 52 -23 101 -58 122 -17 9 -33 25 -35
35 -5 19 -40 22 -57 5z"/>
<path d="M4140 5092 c-58 -8 -111 -16 -117 -18 -9 -2 -13 -27 -13 -77 0 -43 5
-80 13 -89 8 -11 37 -17 97 -21 70 -5 93 -2 127 13 49 22 53 28 60 90 6 53
-10 91 -44 108 -10 4 -64 2 -123 -6z"/>
<path d="M12302 4918 c-16 -16 -15 -29 3 -66 19 -37 66 -68 119 -77 40 -8 59
5 52 35 -2 8 -7 27 -10 41 -4 19 -12 27 -29 27 -12 0 -40 11 -61 26 -43 29
-56 32 -74 14z"/>
<path d="M4018 4836 c-10 -19 -5 -145 9 -194 5 -21 10 -23 37 -18 17 4 51 11
76 16 158 31 179 46 172 126 -4 56 -20 72 -77 78 -17 2 -32 5 -35 6 -3 2 -43
3 -88 4 -73 1 -85 -1 -94 -18z"/>
<path d="M2453 4667 c-12 -7 -54 -41 -95 -77 -133 -118 -137 -125 -92 -136 17
-5 29 -2 35 7 40 65 97 122 116 114 7 -3 19 -8 27 -11 18 -7 32 19 39 74 6 45
3 48 -30 29z"/>
<path d="M3135 4514 c-22 -9 -51 -17 -65 -17 -32 -2 -36 -23 -19 -101 7 -34
14 -63 14 -66 1 -14 16 -28 28 -26 88 19 156 115 112 159 -17 17 -20 47 -5 47
6 0 10 5 10 10 0 14 -28 12 -75 -6z"/>
<path d="M12531 4381 c-22 -14 -15 -125 12 -181 13 -27 45 -60 59 -60 4 0 6
-18 3 -40 -4 -33 -1 -41 16 -50 11 -7 27 -9 34 -6 8 3 23 -6 34 -20 11 -15 21
-20 23 -12 2 6 10 -3 17 -20 8 -18 16 -32 20 -32 11 0 1 130 -14 185 -8 28
-17 68 -20 90 -16 95 -126 183 -184 146z"/>
<path d="M14370 586 c0 -5 -10 -20 -22 -33 -21 -23 -21 -23 -2 -38 10 -8 36
-18 57 -21 29 -5 37 -11 37 -28 0 -12 -9 -27 -20 -34 -25 -15 -25 -34 -2 -55
23 -21 68 -31 76 -18 10 15 -13 91 -26 88 -6 -1 -17 24 -24 56 -8 32 -18 66
-24 77 -10 19 -50 24 -50 6z"/>
</g>
</svg>
