<?xml version="1.0" standalone="no"?>
<!DOCTYPE svg PUBLIC "-//W3C//DTD SVG 20010904//EN"
 "http://www.w3.org/TR/2001/REC-SVG-20010904/DTD/svg10.dtd">
<svg version="1.0" xmlns="http://www.w3.org/2000/svg"
 width="281.000000pt" height="400.000000pt" viewBox="0 0 281.000000 400.000000"
 preserveAspectRatio="xMidYMid meet">
<metadata>
Created by potrace 1.11, written by Peter Selinger 2001-2013
</metadata>
<g transform="translate(0.000000,400.000000) scale(0.100000,-0.100000)"
fill="#000000" stroke="none">
<path d="M1235 3980 c-66 -10 -194 -36 -285 -58 -91 -22 -181 -43 -200 -47
-29 -6 -45 -20 -90 -80 -30 -41 -61 -74 -69 -75 -10 0 -10 6 4 26 9 14 15 27
13 29 -2 2 -41 -33 -88 -77 -51 -48 -80 -81 -72 -84 18 -8 15 -37 -3 -30 -8 3
-15 2 -15 -3 0 -5 -9 -30 -21 -56 -15 -33 -24 -44 -32 -36 -7 7 -6 15 3 26 14
17 5 34 -10 19 -28 -28 -120 -214 -135 -272 -10 -37 -24 -81 -31 -99 -8 -17
-14 -44 -14 -60 0 -27 3 -29 29 -25 27 4 29 2 33 -36 3 -33 0 -42 -14 -45 -22
-6 -24 -37 -3 -37 9 0 15 -9 15 -22 0 -17 -3 -19 -12 -10 -28 28 -25 8 7 -45
19 -32 35 -64 35 -71 0 -26 -25 -5 -44 36 -14 29 -24 41 -34 37 -8 -3 -22 1
-32 10 -15 14 -17 11 -16 -37 1 -29 -5 -107 -13 -173 -12 -109 -11 -272 3
-460 12 -156 16 -186 25 -204 6 -11 11 -34 11 -52 0 -18 12 -72 27 -121 26
-87 27 -89 104 -158 100 -90 113 -125 69 -181 -51 -63 -117 -198 -163 -334
-25 -71 -48 -138 -52 -147 -4 -9 -40 -42 -81 -73 -42 -31 -77 -62 -80 -70 -10
-24 35 -167 83 -265 122 -254 312 -477 485 -571 l63 -34 736 0 736 0 84 42
c245 122 527 505 595 809 19 86 15 129 -20 208 l-24 54 -68 7 c-37 4 -111 5
-163 2 -104 -6 -139 3 -180 47 l-22 23 50 191 c59 225 88 314 146 442 24 52
51 124 60 160 10 36 25 76 33 89 58 95 161 779 164 1086 1 111 -16 220 -45
287 -8 18 -19 51 -26 73 -12 44 -121 198 -121 172 0 -23 -13 -21 -35 3 -28 31
-48 26 -40 -9 8 -37 -9 -48 -23 -16 -10 22 -6 85 5 85 2 0 16 -8 30 -17 35
-23 26 -7 -38 68 -34 39 -60 59 -88 67 -66 20 -317 59 -486 76 -88 9 -201 21
-252 26 -132 14 -271 11 -408 -10z m-165 -79 c0 -5 -7 -12 -16 -15 -10 -4 -14
-12 -10 -22 7 -18 -14 -62 -43 -88 -12 -11 -21 -26 -21 -35 1 -10 13 -2 35 24
30 35 35 37 35 18 0 -12 -11 -43 -25 -69 -14 -26 -25 -55 -25 -65 0 -28 -19
-71 -29 -65 -6 4 -6 20 0 41 14 51 0 65 -23 21 -21 -40 -44 -50 -34 -13 4 12
9 38 13 57 l6 35 -32 -42 c-26 -36 -51 -55 -51 -39 0 17 26 65 52 98 22 28 28
42 19 47 -15 10 -3 20 57 50 43 22 48 41 11 41 -29 0 -23 15 14 31 31 15 67 9
67 -10z m177 -132 l-5 -42 37 37 c20 20 40 33 44 30 22 -22 -21 -141 -48 -131
-7 3 -21 -1 -32 -8 -10 -8 -28 -15 -41 -15 -15 0 -22 -5 -19 -12 5 -15 -10
-48 -22 -48 -5 0 -16 20 -25 45 -20 50 -41 58 -58 20 -20 -45 -31 -28 -24 36
8 70 23 109 43 109 10 0 12 -9 7 -35 -5 -30 -4 -34 10 -29 9 4 16 1 16 -6 0
-10 3 -10 15 0 8 7 15 18 15 26 0 7 10 14 23 16 12 2 26 13 32 26 5 12 16 22
24 22 10 0 12 -10 8 -41z m-863 -365 c11 -24 15 -47 11 -66 -5 -21 -2 -35 12
-50 13 -15 15 -22 6 -25 -20 -7 -15 -23 7 -23 24 0 25 -8 3 -32 -10 -12 -12
-18 -4 -18 7 0 9 -4 6 -10 -3 -5 -15 -10 -26 -10 -26 0 -24 -14 6 -34 14 -9
25 -23 25 -31 0 -19 -14 -19 -30 0 -7 8 -16 15 -21 15 -5 0 -6 -7 -3 -15 4
-10 0 -15 -10 -15 -20 0 -35 32 -18 38 17 5 -8 42 -29 42 -21 0 -49 32 -33 37
6 2 20 10 30 18 18 14 18 15 -6 12 -22 -2 -25 3 -28 32 -2 18 1 38 7 44 6 6
11 30 11 53 0 32 5 45 23 57 33 24 42 21 61 -19z m1192 -455 c151 -55 179 -62
265 -67 65 -3 135 1 212 13 205 31 313 11 364 -66 l25 -38 5 -383 c6 -426 -1
-520 -58 -778 -113 -510 -314 -938 -546 -1162 -139 -133 -254 -188 -395 -188
-129 0 -221 34 -345 127 -271 204 -520 713 -619 1268 -32 181 -25 428 19 578
23 82 70 14 93 -136 20 -139 25 -147 82 -147 18 0 43 -6 55 -14 12 -8 39 -17
60 -21 33 -5 38 -9 33 -26 -20 -64 -20 -63 -2 -56 12 5 38 -4 72 -24 62 -35
84 -31 55 10 -31 44 -34 72 -10 111 l21 34 27 -32 c36 -45 95 -45 144 -2 28
24 37 27 50 17 8 -7 17 -21 19 -32 2 -15 18 -24 68 -37 94 -24 112 -23 148 13
26 26 32 39 32 76 0 93 -33 117 -207 152 -189 38 -431 56 -515 38 -37 -8 -38
-7 -38 22 0 16 -13 51 -30 78 -16 26 -36 74 -44 106 -8 31 -17 61 -20 66 -3 5
6 35 20 66 32 74 57 182 50 218 -7 32 11 72 46 103 14 13 63 32 124 48 55 14
145 42 200 61 54 20 117 40 139 45 22 5 54 14 70 19 61 21 153 4 331 -60z
m-1351 -770 c4 -17 4 -61 0 -99 -7 -65 -6 -69 17 -80 28 -15 57 -50 58 -69 0
-8 12 -27 26 -42 20 -21 25 -34 20 -53 -8 -31 -26 -33 -51 -6 -11 12 -28 19
-43 18 -28 -3 -35 7 -51 74 -7 33 -7 55 0 77 9 25 8 36 -5 55 -10 17 -15 47
-15 100 0 71 2 75 19 66 10 -5 21 -24 25 -41z"/>
<path d="M2113 2119 c-176 -30 -286 -71 -345 -127 -31 -29 -37 -76 -14 -107
14 -19 15 -19 71 -1 34 10 55 22 52 29 -7 19 11 57 28 57 8 0 15 -9 15 -20 0
-30 36 -60 71 -60 37 0 67 15 94 46 l20 24 42 -19 c33 -16 40 -23 36 -40 -8
-32 -35 -50 -99 -65 l-59 -14 69 -1 c70 -1 70 -1 110 42 23 24 55 47 71 51 17
4 38 15 49 24 27 24 81 112 89 144 6 23 3 30 -22 43 -39 20 -145 18 -278 -6z"/>
<path d="M1742 1215 c-36 -31 -92 -55 -126 -55 -13 0 -58 14 -99 30 -51 20
-92 30 -129 30 -84 0 -98 -7 -98 -46 0 -56 66 -103 171 -123 67 -12 95 -6 130
26 14 13 41 28 60 33 55 16 92 44 117 88 26 48 17 53 -26 17z"/>
<path d="M1595 924 c-69 -25 -71 -25 -140 -10 -86 20 -103 20 -148 1 -20 -8
-59 -15 -88 -15 -36 0 -49 -4 -46 -12 3 -10 37 -13 123 -13 65 -1 151 -4 189
-9 64 -8 76 -6 132 18 66 27 99 31 148 17 32 -9 75 2 75 18 0 12 -89 31 -138
30 -20 0 -68 -12 -107 -25z"/>
<path d="M1660 744 c-107 -38 -174 -43 -267 -19 -95 25 -119 15 -62 -27 63
-47 217 -43 324 8 42 20 121 74 105 73 -3 -1 -48 -16 -100 -35z"/>
</g>
</svg>
